<?xml version="1.0" encoding="UTF-8" standalone="no"?>
<svg
   version="1.1"
   viewBox="0 0 803.67224 547.8623"
   fill="none"
   stroke="none"
   stroke-linecap="square"
   stroke-miterlimit="10"
   width="803.67224"
   height="547.8623"
   id="svg179"
   sodipodi:docname="adsr-attenuation.svg"
   inkscape:version="1.1 (c68e22c387, 2021-05-23)"
   xmlns:inkscape="http://www.inkscape.org/namespaces/inkscape"
   xmlns:sodipodi="http://sodipodi.sourceforge.net/DTD/sodipodi-0.dtd"
   xmlns="http://www.w3.org/2000/svg"
   xmlns:svg="http://www.w3.org/2000/svg">
  <defs
     id="defs183">
    <marker
       style="overflow:visible"
       id="Arrow1Mend"
       refX="0"
       refY="0"
       orient="auto"
       inkscape:stockid="Arrow1Mend"
       inkscape:isstock="true">
      <path
         transform="matrix(-0.4,0,0,-0.4,-4,0)"
         style="fill:context-stroke;fill-rule:evenodd;stroke:context-stroke;stroke-width:1pt"
         d="M 0,0 5,-5 -12.5,0 5,5 Z"
         id="path21872" />
    </marker>
    <marker
       style="overflow:visible"
       id="Arrow1Mstart"
       refX="0"
       refY="0"
       orient="auto"
       inkscape:stockid="Arrow1Mstart"
       inkscape:isstock="true">
      <path
         transform="matrix(0.4,0,0,0.4,4,0)"
         style="fill:context-stroke;fill-rule:evenodd;stroke:context-stroke;stroke-width:1pt"
         d="M 0,0 5,-5 -12.5,0 5,5 Z"
         id="path21869" />
    </marker>
  </defs>
  <sodipodi:namedview
     id="namedview181"
     pagecolor="#ffffff"
     bordercolor="#666666"
     borderopacity="1.0"
     inkscape:pageshadow="2"
     inkscape:pageopacity="0.0"
     inkscape:pagecheckerboard="true"
     showgrid="false"
     showborder="true"
     inkscape:zoom="1.2594281"
     inkscape:cx="391.84454"
     inkscape:cy="270.75783"
     inkscape:window-width="1280"
     inkscape:window-height="962"
     inkscape:window-x="-8"
     inkscape:window-y="-8"
     inkscape:window-maximized="1"
     inkscape:current-layer="g38753"
     fit-margin-top="0"
     fit-margin-left="0"
     fit-margin-right="0"
     fit-margin-bottom="0"
     showguides="false" />
  <g
     id="g1568"
     inkscape:label="Y Grid"
     transform="translate(-0.54638386,-27.701524)">
    <path
       stroke="#cccccc"
       stroke-width="1"
       stroke-linecap="butt"
       d="m 52.5,467.5 h 751"
       fill-rule="nonzero"
       id="path16" />
    <path
       stroke="#cccccc"
       stroke-width="1"
       stroke-linecap="butt"
       d="m 52.5,413.5 h 751"
       fill-rule="nonzero"
       id="path18" />
    <path
       stroke="#cccccc"
       stroke-width="1"
       stroke-linecap="butt"
       d="m 52.5,358.5 h 751"
       fill-rule="nonzero"
       id="path20" />
    <path
       stroke="#cccccc"
       stroke-width="1"
       stroke-linecap="butt"
       d="m 52.5,304.5 h 751"
       fill-rule="nonzero"
       id="path22" />
    <path
       stroke="#cccccc"
       stroke-width="1"
       stroke-linecap="butt"
       d="m 52.5,250.5 h 751"
       fill-rule="nonzero"
       id="path24" />
    <path
       stroke="#cccccc"
       stroke-width="1"
       stroke-linecap="butt"
       d="m 52.5,195.5 h 751"
       fill-rule="nonzero"
       id="path26" />
    <path
       stroke="#cccccc"
       stroke-width="1"
       stroke-linecap="butt"
       d="m 52.5,141.5 h 751"
       fill-rule="nonzero"
       id="path28" />
    <path
       stroke="#cccccc"
       stroke-width="1"
       stroke-linecap="butt"
       d="m 52.5,86.5 h 751"
       fill-rule="nonzero"
       id="path30" />
    <path
       stroke="#333333"
       stroke-width="1"
       stroke-linecap="butt"
       d="m 52.5,32.5 h 751"
       fill-rule="nonzero"
       id="path32"
       style="stroke-width:2;stroke-miterlimit:10;stroke-dasharray:none" />
  </g>
  <clipPath
     id="id_0">
    <path
       d="m 52.65,32.65 h 750.7 v 434.7 H 52.65 Z"
       clip-rule="nonzero"
       id="path36" />
  </clipPath>
  <g
     id="g21485"
     inkscape:label="Y Labels"
     transform="translate(-0.54638386,-27.701524)">
    <text
       xml:space="preserve"
       style="font-weight:bold;font-size:13.3333px;line-height:0.9;font-family:roboto;-inkscape-font-specification:'roboto Bold';text-align:end;letter-spacing:0px;word-spacing:0px;text-anchor:end"
       x="46.961254"
       y="472.18878"
       id="text3239"><tspan
         sodipodi:role="line"
         id="tspan3237"
         x="46.961254"
         y="472.18878"
         style="font-size:13.3333px;fill:#000000;fill-opacity:1;stroke:none;stroke-opacity:1">-96</tspan><tspan
         sodipodi:role="line"
         x="46.961254"
         y="484.18875"
         style="font-size:13.3333px;fill:#666666;fill-opacity:1;stroke:none;stroke-opacity:1"
         id="tspan47309">(max)</tspan></text>
    <text
       xml:space="preserve"
       style="font-weight:bold;font-size:13.3333px;line-height:1.25;font-family:roboto;-inkscape-font-specification:'roboto Bold';text-align:end;letter-spacing:0px;word-spacing:0px;text-anchor:end"
       x="46.961254"
       y="418.18878"
       id="text8303"><tspan
         sodipodi:role="line"
         id="tspan8301"
         x="46.961254"
         y="418.18878"
         style="font-size:13.3333px;fill:#000000;fill-opacity:1;stroke:none;stroke-opacity:1">-84</tspan></text>
    <text
       xml:space="preserve"
       style="font-weight:bold;font-size:13.3333px;line-height:1.25;font-family:roboto;-inkscape-font-specification:'roboto Bold';text-align:end;letter-spacing:0px;word-spacing:0px;text-anchor:end"
       x="46.961254"
       y="363.27289"
       id="text10113"><tspan
         sodipodi:role="line"
         id="tspan10111"
         x="46.961254"
         y="363.27289"
         style="font-size:13.3333px;fill:#000000;fill-opacity:1;stroke:none;stroke-opacity:1">-72</tspan></text>
    <text
       xml:space="preserve"
       style="font-weight:bold;font-size:13.3333px;line-height:1.25;font-family:roboto;-inkscape-font-specification:'roboto Bold';text-align:end;letter-spacing:0px;word-spacing:0px;text-anchor:end"
       x="46.961254"
       y="309.17224"
       id="text11933"><tspan
         sodipodi:role="line"
         id="tspan11931"
         x="46.961254"
         y="309.17224"
         style="font-size:13.3333px;fill:#000000;fill-opacity:1;stroke:none;stroke-opacity:1">-60</tspan></text>
    <text
       xml:space="preserve"
       style="font-weight:bold;font-size:13.3333px;line-height:1.25;font-family:roboto;-inkscape-font-specification:'roboto Bold';text-align:end;letter-spacing:0px;word-spacing:0px;text-anchor:end"
       x="46.961254"
       y="255.26402"
       id="text13423"><tspan
         sodipodi:role="line"
         id="tspan13421"
         x="46.961254"
         y="255.26402"
         style="font-size:13.3333px;fill:#000000;fill-opacity:1;stroke:none;stroke-opacity:1">-48</tspan></text>
    <text
       xml:space="preserve"
       style="font-weight:bold;font-size:13.3333px;line-height:1.25;font-family:roboto;-inkscape-font-specification:'roboto Bold';text-align:end;letter-spacing:0px;word-spacing:0px;text-anchor:end"
       x="46.961254"
       y="200.24504"
       id="text15067"><tspan
         sodipodi:role="line"
         id="tspan15065"
         x="46.961254"
         y="200.24504"
         style="font-size:13.3333px;fill:#000000;fill-opacity:1;stroke:none;stroke-opacity:1">-36</tspan></text>
    <text
       xml:space="preserve"
       style="font-weight:bold;font-size:13.3333px;line-height:1.25;font-family:roboto;-inkscape-font-specification:'roboto Bold';text-align:end;letter-spacing:0px;word-spacing:0px;text-anchor:end"
       x="46.961254"
       y="146.26544"
       id="text16235"><tspan
         sodipodi:role="line"
         id="tspan16233"
         x="46.961254"
         y="146.26544"
         style="font-size:13.3333px;fill:#000000;fill-opacity:1;stroke:none;stroke-opacity:1">-24</tspan></text>
    <text
       xml:space="preserve"
       style="font-weight:bold;font-size:13.3333px;line-height:1.25;font-family:roboto;-inkscape-font-specification:'roboto Bold';text-align:end;letter-spacing:0px;word-spacing:0px;text-anchor:end"
       x="46.961254"
       y="91.351837"
       id="text18079"><tspan
         sodipodi:role="line"
         id="tspan18077"
         x="46.961254"
         y="91.351837"
         style="font-size:13.3333px;fill:#000000;fill-opacity:1;stroke:none;stroke-opacity:1">-12</tspan></text>
    <text
       xml:space="preserve"
       style="font-weight:bold;font-size:13.3333px;line-height:1.25;font-family:roboto;-inkscape-font-specification:'roboto Bold';text-align:end;letter-spacing:0px;word-spacing:0px;text-anchor:end"
       x="46.961254"
       y="37.310875"
       id="text19785"><tspan
         sodipodi:role="line"
         id="tspan19783"
         x="46.961254"
         y="37.310875"
         style="font-size:13.3333px;fill:#000000;fill-opacity:1;stroke:none;stroke-opacity:1">0</tspan></text>
  </g>
  <path
     stroke="#4285f4"
     stroke-width="2"
     stroke-linecap="butt"
     d="m 52.103616,438.79946 h 0.08664 0.08664 0.08664 0.08663 0.08664 0.08664 0.08664 0.08664 0.08663 0.08664 0.08664 0.08664 0.08664 0.08664 0.08664 0.08664 0.08664 0.08664 0.08663 0.08664 0.08664 0.08664 0.08663 0.08664 0.08664 0.08663 0.08664 0.08664 0.08663 0.08664 0.08664 0.08664 0.08664 0.08664 0.08664 0.08664 0.08664 0.08664 0.08663 0.08664 0.08664 0.08664 0.08664 0.08664 0.08664 0.08664 0.08664 0.08663 0.08664 0.08664 0.08663 0.08664 0.08664 0.08664 0.08663 0.08664 0.08664 0.08664 0.08664 0.08664 0.08664 0.08664 0.08664 l 0.08664,-54.3375 h 0.08663 0.08664 0.08664 0.08664 0.08664 0.08663 0.08664 0.08664 0.08664 0.08663 0.08664 0.08664 0.08664 0.08664 0.08664 0.08663 0.08664 0.08664 0.08664 0.08663 0.08664 0.08664 0.08664 0.08664 0.08664 0.08663 0.08664 0.08664 0.08664 0.08664 0.08664 0.08664 0.08664 0.08664 0.08663 0.08664 0.08664 0.08664 0.08664 0.08664 0.08664 0.08664 0.08664 0.08664 0.08663 0.08664 0.08664 0.08664 0.08664 0.08664 0.08664 0.08663 0.08664 0.08664 0.08664 0.08664 0.08664 0.08664 0.08664 0.08664 0.08663 0.08664 0.08664 l 0.08664,-47.54532 h 0.08664 0.08664 0.08664 0.08664 0.08664 0.08663 0.08664 0.08663 0.08664 0.08663 0.08664 0.08663 0.08664 0.08663 0.08664 0.08664 0.08664 0.08664 0.08664 0.08664 0.08664 0.08664 0.08663 0.08664 0.08663 0.08664 0.08663 0.08664 0.08664 0.08663 0.08664 0.08663 0.08664 0.08663 0.08664 0.08663 0.08664 0.08664 0.08664 0.08664 0.08664 0.08664 0.08664 0.08664 0.08663 0.08664 0.08663 0.08664 0.08663 0.08664 0.08663 0.08664 0.08663 0.08664 0.08664 0.08663 0.08664 0.08664 0.08664 0.08663 0.08664 0.08664 0.08664 l 0.08663,-41.60214 h 0.08664 0.08663 0.08664 0.08664 0.08663 0.08664 0.08663 0.08664 0.08663 0.08664 0.08663 0.08664 0.08664 0.08664 0.08663 0.08664 0.08664 0.08664 0.08664 0.08663 0.08664 0.08663 0.08664 0.08663 0.08664 0.08663 0.08664 0.08664 0.08663 0.08664 0.08663 0.08664 0.08663 0.08664 0.08664 0.08664 0.08664 0.08664 0.08663 0.08664 0.08664 0.08663 0.08664 0.08663 0.08664 0.08663 0.08664 0.08663 0.08664 0.08663 0.08664 0.08663 0.08664 0.08664 0.08664 0.08664 0.08663 0.08664 0.08664 0.08664 0.08663 0.08664 0.08663 0.08664 0.08663 0.08664 0.08664 0.08663 0.08664 0.08663 0.08664 0.08663 0.08664 0.08664 0.08664 0.08663 0.08664 0.08664 0.08664 0.08664 0.08663 0.08664 0.08663 0.08664 0.08663 0.08664 0.08663 0.08664 0.08663 0.08664 0.08663 0.08664 0.08664 0.08663 0.08664 0.08664 0.08664 0.08664 0.08664 0.08663 0.08664 0.08663 0.08664 0.08664 0.08663 0.08664 0.08663 0.08664 0.08663 0.08664 0.08663 0.08664 0.08663 0.08664 0.08664 0.08664 0.08664 0.08663 0.08664 0.08664 0.08664 0.08663 0.08664 0.08663 0.08664 0.08663 0.08664 l 0.08618,-36.50802 h 0.08664 0.08664 0.08663 0.08664 0.08663 0.08664 0.08664 0.08664 0.08663 0.08664 0.08664 0.08664 0.08663 0.08664 0.08664 0.08663 0.08664 0.08663 0.08664 0.08663 0.08664 0.08663 0.08664 0.08663 0.08664 0.08664 0.08664 0.08664 0.08664 0.08664 0.08664 0.08664 0.08663 0.08664 0.08663 0.08664 0.08663 0.08664 0.08664 0.08663 0.08664 0.08663 0.08664 0.08663 0.08664 0.08663 0.08664 0.08664 0.08664 0.08664 0.08664 0.08664 0.08664 0.08664 0.08663 0.08664 0.08663 0.08664 0.08663 0.08664 0.08663 0.08664 0.08663 l 0.08664,-32.26288 h 0.08664 0.08663 0.08664 0.08664 0.08664 0.08663 0.08664 0.08664 0.08664 0.08663 0.08664 0.08663 0.08664 0.08664 0.08663 0.08664 0.08663 0.08664 0.08663 0.08664 0.08663 0.08664 0.08664 0.08664 0.08663 0.08664 0.08664 0.08664 0.08664 0.08663 0.08664 0.08663 0.08664 0.08663 0.08664 0.08663 0.08664 0.08663 0.08664 0.08664 0.08663 0.08664 0.08663 0.08664 0.08664 0.08664 0.08664 0.08664 0.08663 0.08664 0.08664 0.08663 0.08664 0.08663 0.08664 0.08663 0.08664 0.08663 0.08664 0.08663 0.08664 0.08663 0.08664 l 0.08664,-28.01778 h 0.08664 0.08664 0.08663 0.08664 0.08664 0.08664 0.08663 0.08664 0.08663 0.08664 0.08663 0.08664 0.08664 0.08663 0.08664 0.08663 0.08664 0.08663 0.08664 0.08664 0.08664 0.08663 0.08664 0.08664 0.08664 0.08664 0.08663 0.08664 0.08663 0.08664 0.08663 0.08664 0.08663 0.08664 0.08663 0.08664 0.08663 0.08664 0.08664 0.08663 0.08664 0.08664 0.08664 0.08664 0.08664 0.08663 0.08664 0.08663 0.08664 0.08664 0.08663 0.08664 0.08663 0.08664 0.08663 0.08664 0.08663 0.08664 0.08663 0.08664 0.08664 0.08664 0.08664 0.08663 0.08664 0.08664 0.08664 0.08663 0.08664 0.08663 0.08664 0.08663 0.08664 0.08663 0.08664 0.08664 0.08663 0.08664 0.08663 0.08664 0.08664 0.08664 0.08663 0.08664 0.08664 0.08664 0.08663 0.08664 0.08664 0.08663 0.08664 0.08663 0.08664 0.08663 0.08664 0.08663 0.08664 0.08663 0.08664 0.0866 0.0866 0.0866 0.0866 0.0866 0.0866 0.0866 0.0866 0.0866 0.0866 0.0866 0.0866 0.0866 0.0866 0.0866 0.0866 0.0866 0.0866 0.0866 0.0866 0.0866 0.0866 0.0866 0.0866 0.0866 0.0866 0.0866 0.0866 l 0.0866,-24.62167 h 0.0866 0.0866 0.0866 0.0866 0.0866 0.0866 0.0866 0.0866 0.0866 0.0866 0.0866 0.0866 0.0866 0.0866 0.0866 0.0866 0.0866 0.0866 0.0866 0.0866 0.0866 0.0866 0.0866 0.0866 0.0866 0.0866 0.0866 0.0866 0.0866 0.0866 0.0866 0.0866 0.0866 0.0866 0.0866 0.0866 0.0866 0.0866 0.0866 0.0866 0.0866 0.0866 0.0866 0.0866 0.0866 0.0866 0.0866 0.0866 0.0866 0.0866 0.0866 0.0866 0.0866 0.0866 0.0866 0.0866 0.0866 0.0866 0.0866 0.0866 0.0866 0.0866 0.0866 l 0.0866,-21.22559 h 0.0866 0.0866 0.0866 0.0866 0.0866 0.0866 0.0866 0.0866 0.0866 0.0866 0.0866 0.0866 0.0866 0.0866 0.0866 0.0866 0.0866 0.0866 0.0866 0.0866 0.0866 0.0866 0.0866 0.0866 0.0866 0.0866 0.0866 0.0866 0.0866 0.0866 0.0866 0.0866 0.0866 0.0866 0.0866 0.0866 0.0866 0.0866 0.0866 0.0866 0.0866 0.0866 0.0866 0.0866 0.0866 0.0866 0.0866 0.0866 0.0866 0.0866 0.0866 0.0866 0.0866 0.0866 0.0866 0.0866 0.0866 0.0866 0.0866 0.0866 0.0866 0.0866 0.0866 l 0.0866,-18.67851 h 0.0866 0.0866 0.0866 0.0866 0.0866 0.0866 0.0866 0.0866 0.0866 0.0866 0.0866 0.0866 0.0866 0.0866 0.0866 0.0866 0.0866 0.0866 0.0866 0.0866 0.0866 0.0866 0.0866 0.0866 0.0866 0.0866 0.0866 0.0866 0.0866 0.0866 0.0866 0.0866 0.0866 0.0866 0.0866 0.0866 0.0866 0.0866 0.0866 0.0866 0.0866 0.0866 0.0866 0.0866 0.0866 0.0866 0.0866 0.0866 0.0866 0.0866 0.0866 0.0866 0.0866 0.0866 0.0866 0.0866 0.0866 0.0866 0.0866 0.0866 0.0866 0.0866 0.0866 0.0866 0.0866 0.0866 0.0866 0.0866 0.0866 0.0866 0.0866 0.0866 0.0866 0.0866 0.0866 0.0866 0.0866 0.0866 0.0866 0.0866 0.0866 0.0866 0.0866 0.0866 0.0866 0.0866 0.0866 0.0866 0.0866 0.0866 0.0866 0.0866 0.0866 0.0866 0.0866 0.0866 0.0866 0.0866 0.0866 0.0866 0.0866 0.0866 0.0866 0.0866 0.0866 0.0866 0.0866 0.0866 0.0866 0.0866 0.0866 0.0866 0.0866 0.0866 0.0866 0.0866 0.0866 0.0866 0.0866 0.0866 0.0866 0.0866 0.0866 0.0866 0.0866 0.0866 0.0866 l 0.0866,-16.98047 h 0.0866 0.0866 0.0866 0.0866 0.0866 0.0866 0.0866 0.0866 0.0866 0.0866 0.0866 0.0866 0.0866 0.0866 0.0866 0.0866 0.0866 0.0866 0.0866 0.0866 0.0866 0.0866 0.0866 0.0866 0.0866 0.0866 0.0866 0.0866 0.0866 0.0866 0.0866 0.0866 0.0866 0.0866 0.0866 0.0866 0.0866 0.0866 0.0866 0.0866 0.0866 0.0866 0.0866 0.0866 0.0866 0.0866 0.0866 0.0866 0.0866 0.0866 0.0866 0.0866 0.0866 0.0866 0.0866 0.0866 0.0866 0.0866 0.0866 0.0866 0.0866 0.0866 0.0866 l 0.0866,-14.43341 h 0.0866 0.0866 0.0866 0.0866 0.0866 0.0866 0.0866 0.0866 0.0866 0.0866 0.0866 0.0866 0.0866 0.0866 0.0866 0.0866 0.0866 0.0866 0.0866 0.0866 0.0866 0.0866 0.0866 0.0866 0.0866 0.0866 0.0866 0.0866 0.0866 0.0866 0.0866 0.0866 0.0866 0.0866 0.0866 0.0866 0.0866 0.0866 0.0866 0.0866 0.0866 0.0866 0.0866 0.0866 0.0866 0.0866 0.0866 0.0866 0.0866 0.0866 0.0866 0.0866 0.0866 0.0866 0.0866 0.0866 0.0866 0.0866 0.0866 0.0866 0.0867 0.0866 0.0866 l 0.0866,-12.735344 h 0.0866 0.0866 0.0866 0.0866 0.0866 0.0866 0.0866 0.0866 0.0866 0.0866 0.0866 0.0866 0.0866 0.0866 0.0866 0.0866 0.0866 0.0866 0.0866 0.0866 0.0866 0.0866 0.0866 0.0866 0.0866 0.0866 0.0866 0.0866 0.0866 0.0866 0.0866 0.0866 0.0866 0.0866 0.0866 0.0866 0.0866 0.0866 0.0866 0.0866 0.0866 0.0866 0.0866 0.0866 0.0866 0.0866 0.0866 0.0866 0.0866 0.0866 0.0866 0.0866 0.0866 0.0866 0.0866 0.0866 0.0866 0.0866 0.0866 0.0866 0.0866 0.0866 0.0866 0.0866 0.0866 0.0866 0.0866 0.0866 0.0866 0.0866 0.0866 0.0866 0.0866 0.0866 0.0866 0.0866 0.0866 0.0866 0.0866 0.0866 0.0866 0.0866 0.0866 0.0866 0.0866 0.0866 0.0866 0.0866 0.0866 0.0866 0.0866 0.0866 0.0866 0.0866 0.0866 0.0866 0.0866 0.0866 0.0866 0.0866 0.0866 0.0866 0.0866 0.0866 0.0866 0.0866 0.0866 0.0866 0.0866 0.0866 0.0866 0.0866 0.0866 0.0866 0.0866 0.0866 0.0866 0.0866 0.0866 0.0866 0.0866 0.0866 0.0866 0.0866 0.0866 0.0866 0.0866 l 0.0866,-11.03731 h 0.0866 0.0866 0.0866 0.0867 0.0866 0.0866 0.0866 0.0866 0.0866 0.0866 0.0866 0.0866 0.0866 0.0866 0.0866 0.0866 0.0866 0.0866 0.0866 0.0866 0.0866 0.0866 0.0866 0.0866 0.0866 0.0866 0.0866 0.0866 0.0866 0.0866 0.0866 0.0866 0.0866 0.0866 0.0866 0.0866 0.0866 0.0866 0.0866 0.0866 0.0866 0.0866 0.0866 0.0866 0.0866 0.0866 0.0866 0.0866 0.0866 0.0866 0.0866 0.0866 0.0866 0.0866 0.0866 0.0866 0.0866 0.0866 0.0866 0.0866 0.0866 0.0866 0.0866 l 0.0866,-9.33926 h 0.0866 0.0866 0.0866 0.0866 0.0866 0.0866 0.0866 0.0866 0.0866 0.0866 0.0866 0.0866 0.0866 0.0866 0.0866 0.0866 0.0866 0.0866 0.0866 0.0866 0.0866 0.0866 0.0866 0.0866 0.0866 0.0866 0.0866 0.0866 0.0866 0.0866 0.0866 0.0866 0.0866 0.0866 0.0866 0.0866 0.0866 0.0866 0.0866 0.0866 0.0866 0.0866 0.0866 0.0866 0.0866 0.0866 0.0866 0.0866 0.0866 0.0866 0.0866 0.0866 0.0866 0.0866 0.0866 0.0866 0.0866 0.0866 0.0866 0.0866 0.0866 0.0866 0.0866 l 0.0866,-8.49023 h 0.0866 0.0866 0.0866 0.0866 0.0866 0.0866 0.0866 0.0866 0.0866 0.0866 0.0866 0.0866 0.0866 0.0866 0.0866 0.0866 0.0866 0.0866 0.0866 0.0866 0.0866 0.0866 0.0866 0.0866 0.0867 0.0866 0.0866 0.0866 0.0866 0.0866 0.0866 0.0866 0.0866 0.0866 0.0866 0.0866 0.0866 0.0866 0.0866 0.0866 0.0866 0.0866 0.0867 0.0866 0.0866 0.0866 0.0866 0.0866 0.0866 0.0866 0.0866 0.0866 0.0866 0.0866 0.0866 0.0866 0.0866 0.0866 0.0866 0.0866 0.0866 0.0866 0.0866 0.0866 0.0866 0.0866 0.0866 0.0866 0.0866 0.0866 0.0866 0.0866 0.0866 0.0866 0.0866 0.0866 0.0866 0.0866 0.0866 0.0866 0.0866 0.0866 0.0866 0.0866 0.0866 0.0866 0.0866 0.0866 0.0866 0.0866 0.0866 0.0866 0.0866 0.0866 0.0866 0.0866 0.0866 0.0866 0.0866 0.0866 0.0866 0.0866 0.0866 0.0866 0.0866 0.0866 0.0866 0.0866 0.0866 0.0866 0.0866 0.0866 0.0866 0.0866 0.0866 0.0866 0.0866 0.0866 0.0866 0.0866 0.0867 0.0866 0.0866 0.0866 0.0866 0.0866 0.0866 l 0.0866,-7.641216 h 0.0866 0.0866 0.0866 0.0866 0.0866 0.0866 0.0866 0.0866 0.0866 0.0866 0.0866 0.0866 0.0866 0.0866 0.0866 0.0866 0.0866 0.0866 0.0866 0.0866 0.0866 0.0866 0.0866 0.0866 0.0866 0.0866 0.0866 0.0866 0.0866 0.0866 0.0866 0.0866 0.0866 0.0866 0.0866 0.0866 0.0866 0.0866 0.0866 0.0866 0.0866 0.0866 0.0866 0.0866 0.0866 0.0866 0.0866 0.0866 0.0866 0.0866 0.0866 0.0866 0.0866 0.0866 0.0866 0.0866 0.0866 0.0866 0.0866 0.0866 0.0866 0.0866 0.0866 l 0.0866,-6.792184 h 0.0866 0.0866 0.0866 0.0866 0.0866 0.0866 0.0866 0.0866 0.0866 0.0866 0.0866 0.0866 0.0866 0.0866 0.0866 0.0866 0.0866 0.0866 0.0866 0.0866 0.0866 0.0866 0.0866 0.0866 0.0866 0.0866 0.0866 0.0866 0.0866 0.0866 0.0866 0.0866 0.0866 0.0866 0.0866 0.0866 0.0866 0.0866 0.0866 0.0866 0.0866 0.0866 0.0866 0.0866 0.0866 0.0866 0.0866 0.0866 0.0866 0.0866 0.0866 0.0866 0.0866 0.0866 0.0866 0.0866 0.0866 0.0866 0.0866 0.0866 0.0866 0.0866 0.0866 l 0.0866,-5.94317 h 0.0866 0.0866 0.0866 0.0866 0.0866 0.0866 0.0866 0.0866 0.0866 0.0866 0.0866 0.0866 0.0866 0.0866 0.0866 0.0866 0.0866 0.0866 0.0866 0.0866 0.0866 0.0866 0.0866 0.0866 0.0866 0.0866 0.0866 0.0866 0.0866 0.0866 0.0866 0.0866 0.0866 0.0866 0.0866 0.0866 0.0866 0.0866 0.0866 0.0866 0.0866 0.0866 0.0866 0.0866 0.0866 0.0866 0.0866 0.0866 0.0866 0.0866 0.0866 0.0866 0.0866 0.0866 0.0866 0.0866 0.0866 0.0866 0.0866 0.0866 0.0866 0.0866 0.0866 0.0866 0.0866 0.0866 0.0866 0.0866 0.0866 0.0866 0.0866 0.0866 0.0866 0.0866 0.0866 0.0866 0.0866 0.0866 0.0866 0.0866 0.0866 0.0866 0.0866 0.0866 0.0866 0.0866 0.0866 0.0866 0.0866 0.0866 0.0866 0.0866 0.0866 0.0866 0.0866 0.0866 0.0866 0.0866 0.0866 0.0866 0.0866 0.0867 0.0866 0.0866 0.0866 0.0866 0.0866 0.0866 0.0866 0.0866 0.0866 0.0866 0.0866 0.0866 0.0866 0.0866 0.0866 0.0866 0.0866 0.0866 0.0866 0.0866 0.0866 0.0866 0.0866 0.0866 0.0866 l 0.0866,-5.094136 h 0.0866 0.0866 0.0866 0.0866 0.0866 0.0866 0.0866 0.0866 0.0866 0.0866 0.0866 0.0866 0.0866 0.0866 0.0866 0.0866 0.0866 0.0866 0.0866 0.0866 0.0866 0.0866 0.0866 0.0866 0.0866 0.0866 0.0866 0.0866 0.0866 0.0866 0.0866 0.0866 0.0866 0.0866 0.0866 0.0866 0.0866 0.0866 0.0866 0.0866 0.0866 0.0866 0.0866 0.0866 0.0867 0.0866 0.0866 0.0866 0.0866 0.0866 0.0866 0.0866 0.0866 0.0866 0.0866 0.0866 0.0866 0.0866 0.0866 0.0866 0.0866 0.0866 0.0867 l 0.0866,-4.245117 h 0.0866 0.0866 0.0866 0.0866 0.0866 0.0866 0.0866 0.0866 0.0866 0.0866 0.0866 0.0866 0.0866 0.0866 0.0866 0.0866 0.0866 0.0866 0.0866 0.0866 0.0866 0.0866 0.0866 0.0866 0.0866 0.0866 0.0866 0.0866 0.0866 0.0866 0.0866 0.0866 0.0866 0.0866 0.0866 0.0866 0.0866 0.0866 0.0866 0.0866 0.0866 0.0866 0.0866 0.0866 0.0866 0.0866 0.0866 0.0866 0.0866 0.0866 0.0866 0.0866 0.0866 0.0866 0.0866 0.0866 0.0866 0.0866 0.0867 0.0866 0.0866 0.0866 0.0866 l 0.0866,-3.396097 h 0.0866 0.0866 0.0866 0.0866 0.0866 0.0866 0.0866 0.0866 0.0866 0.0866 0.0866 0.0866 0.0867 0.0866 0.0866 0.0866 0.0866 0.0866 0.0866 0.0866 0.0866 0.0866 0.0866 0.0866 0.0866 0.0866 0.0866 0.0866 0.0866 0.0866 0.0866 0.0866 0.0866 0.0866 0.0866 0.0866 0.0866 0.0866 0.0866 0.0866 0.0866 0.0866 0.0866 0.0866 0.0866 0.0866 0.0866 0.0866 0.0866 0.0866 0.0866 0.0866 0.0866 0.0866 0.0866 0.0866 0.0866 0.0866 0.0866 0.0866 0.0866 0.0866 0.0866 0.0866 0.0866 0.0866 0.0866 0.0866 0.0866 0.0866 0.0866 0.0866 0.0866 0.0866 0.0866 0.0866 0.0866 0.0866 0.0866 0.0866 0.0866 0.0866 0.0866 0.0866 0.0866 0.0866 0.0866 0.0866 0.0866 0.0866 0.0866 0.0866 0.0866 0.0866 0.0866 0.0866 0.0866 0.0866 0.0866 0.0866 0.0866 0.0866 0.0866 0.0866 0.0866 0.0866 0.0866 0.0866 0.0866 0.0866 0.0866 0.0866 0.0866 0.0866 0.0866 0.0866 0.0866 0.0866 0.0866 0.0866 0.0866 0.0866 0.0866 0.0866 0.0866 0.0866 0.0866 l 0.0866,-3.39609 h 0.0866 0.0866 0.0866 0.0866 0.0866 0.0866 0.0866 0.0866 0.0866 0.0866 0.0866 0.0866 0.0866 0.0866 0.0866 0.0866 0.0866 0.0866 0.0866 0.0866 0.0866 0.0866 0.0866 0.0866 0.0866 0.0866 0.0866 0.0866 0.0866 0.0866 0.0866 0.0866 0.0866 0.0866 0.0866 0.0866 0.0866 0.0866 0.0866 0.0866 0.0866 0.0866 0.0866 0.0866 0.0866 0.0866 0.0866 0.0866 0.0866 0.0866 0.0866 0.0866 0.0866 0.0866 0.0866 0.0866 0.0866 0.0866 0.0866 0.0866 0.0866 0.0866 0.0866 l 0.0866,-2.54707 h 0.0866 0.0866 0.0866 0.0866 0.0866 0.0866 0.0866 0.0866 0.0866 0.0866 0.0866 0.0866 0.0866 0.0866 0.0866 0.0866 0.0866 0.0866 0.0866 0.0866 0.0866 0.0866 0.0866 0.0866 0.0866 0.0866 0.0866 0.0866 0.0866 0.0866 0.0866 0.0866 0.0866 0.0866 0.0866 0.0866 0.0866 0.0866 0.0866 0.0866 0.0866 0.0866 0.0866 0.0866 0.0866 0.0866 0.0866 0.0866 0.0866 0.0866 0.0866 0.0866 0.0866 0.0866 0.0866 0.0866 0.0866 0.0867 0.0866 0.0866 0.0866 0.0866 0.0866 l 0.0866,-2.547073 h 0.0866 0.0866 0.0866 0.0866 0.0866 0.0866 0.0866 0.0866 0.0866 0.0866 0.0866 0.0866 0.0866 0.0866 0.0866 0.0866 0.0866 0.0866 0.0866 0.0866 0.0866 0.0866 0.0866 0.0866 0.0866 0.0866 0.0866 0.0866 0.0866 0.0866 0.0866 0.0866 0.0866 0.0866 0.0866 0.0866 0.0866 0.0866 0.0866 0.0866 0.0866 0.0866 0.0866 0.0866 0.0866 0.0866 0.0866 0.0866 0.0866 0.0866 0.0866 0.0866 0.0866 0.0866 0.0866 0.0866 0.0866 0.0866 0.0866 0.0866 0.0866 0.0866 0.0866 0.0866 0.0867 0.0866 0.0866 0.0866 0.0866 0.0866 0.0866 0.0866 0.0866 0.0866 0.0866 0.0866 0.0866 0.0866 0.0866 0.0866 0.0866 0.0866 0.0866 0.0866 0.0866 0.0866 0.0866 0.0866 0.0866 0.0866 0.0866 0.0866 0.0866 0.0866 0.0866 0.0866 0.0866 0.0866 0.0866 0.0866 0.0866 0.0866 0.0866 0.0866 0.0866 0.0866 0.0866 0.0866 0.0866 0.0866 0.0866 0.0866 0.0866 0.0866 0.0866 0.0866 0.0866 0.0866 0.0866 0.0866 0.0866 0.0866 0.0866 0.0866 0.0866 0.0866 0.0866 l 0.0866,-2.54707 h 0.0866 0.0866 0.0866 0.0866 0.0866 0.0866 0.0866 0.0866 0.0866 0.0866 0.0866 0.0866 0.0866 0.0866 0.0867 0.0866 0.0866 0.0866 0.0866 0.0866 0.0866 0.0866 0.0866 0.0866 0.0866 0.0866 0.0866 0.0866 0.0866 0.0866 0.0866 0.0866 0.0867 0.0866 0.0866 0.0866 0.0866 0.0866 0.0866 0.0866 0.0866 0.0866 0.0866 0.0866 0.0866 0.0866 0.0866 0.0866 0.0866 0.0866 0.0866 0.0866 0.0866 0.0866 0.0866 0.0866 0.0866 0.0866 0.0866 0.0866 0.0866 0.0866 0.0866 l 0.0866,-1.698047 h 0.0866 0.0866 0.0866 0.0866 0.0866 0.0866 0.0866 0.0866 0.0866 0.0866 0.0866 0.0866 0.0866 0.0866 0.0866 0.0866 0.0866 0.0866 0.0866 0.0866 0.0866 0.0866 0.0866 0.0866 0.0866 0.0866 0.0866 0.0866 0.0866 0.0866 0.0866 0.0866 0.0866 0.0866 0.0866 0.0866 0.0866 0.0866 0.0866 0.0866 0.0866 0.0866 0.0866 0.0866 0.0866 0.0866 0.0866 0.0866 0.0866 0.0866 0.0866 0.0866 0.0866 0.0866 0.0866 0.0866 0.0866 0.0866 0.0866 0.0866 0.0866 0.0866 0.0866 l 0.0866,-1.698044 h 0.0866 0.0866 0.0866 0.0866 0.0866 0.0866 0.0867 0.0866 0.0866 0.0866 0.0866 0.0866 0.0866 0.0866 0.0866 0.0866 0.0866 0.0866 0.0866 0.0866 0.0866 0.0866 0.0866 0.0866 0.0866 0.0866 0.0866 0.0866 0.0866 0.0866 0.0866 0.0866 0.0866 0.0866 0.0866 0.0866 0.0866 0.0866 0.0866 0.0866 0.0866 0.0866 0.0866 0.0866 0.0866 0.0866 0.0866 0.0866 0.0866 0.0866 0.0866 0.0866 0.0866 0.0866 0.0866 0.0866 0.0866 0.0866 0.0866 0.0866 0.0866 0.0866 0.0866 0.0866 0.0866 0.0866 0.0866 0.0866 0.0866 0.0866 0.0866 0.0866 0.0866 0.0866 0.0866 0.0866 0.0866 0.0866 0.0866 0.0866 0.0866 0.0866 0.0866 0.0866 0.0866 0.0866 0.0866 0.0866 0.0866 0.0866 0.0866 0.0866 0.0866 0.0866 0.0866 0.0866 0.0866 0.0866 0.0866 0.0866 0.0866 0.0866 0.0866 0.0866 0.0866 0.0866 0.0866 0.0866 0.0866 0.0867 0.0867 0.0866 0.0866 0.0866 0.0866 0.0866 0.0866 0.0866 0.0866 0.0866 0.0866 0.0866 0.0866 0.0866 0.0866 0.0866 0.0866 l 0.0866,-1.698046 h 0.0866 0.0866 0.0866 0.0866 0.0866 0.0866 0.0867 0.0866 0.0866 0.0866 0.0866 0.0866 0.0867 0.0867 0.0866 0.0866 0.0866 0.0867 0.0866 0.0866 0.0866 0.0866 0.0866 0.0866 0.0866 0.0866 0.0866 0.0866 0.0866 0.0866 0.0866 0.0866 0.0866 0.0866 0.0866 0.0866 0.0866 0.0867 0.0866 0.0866 0.0866 0.0866 0.0866 0.0866 0.0866 0.0866 0.0866 0.0866 0.0866 0.0867 0.0866 0.0866 0.0866 0.0866 0.0866 0.0866 0.0866 0.0866 0.0866 0.0867 0.0866 0.0866 0.0866 l 0.0866,-1.69805 h 0.0866 0.0866 0.0866 0.0866 0.0866 0.0866 0.0866 0.0866 0.0866 0.0866 0.0866 0.0866 0.0866 0.0866 0.0866 0.0866 0.0867 0.0866 0.0866 0.0866 0.0866 0.0867 0.0866 0.0866 0.0866 0.0866 0.0867 0.0866 0.0866 0.0866 0.0866 0.0867 0.0866 0.0866 0.0866 0.0866 0.0866 0.0866 0.0866 0.0866 0.0866 0.0866 0.0866 0.0866 0.0866 0.0866 0.0866 0.0866 0.0866 0.0866 0.0866 0.0866 0.0867 0.0866 0.0866 0.0866 0.0866 0.0866 0.0866 0.0866 0.0866 0.0866 0.0867 l 0.0866,-0.8490202 h 0.0866 0.0866 0.0866 0.0866 0.0866 0.0867 0.0866 0.0866 0.0866 0.0866 0.0867 0.0866 0.0866 0.0866 0.0866 0.0866 0.0866 0.0866 0.0866 0.0866 0.0866 0.0866 0.0866 0.0866 0.0866 0.0866 0.0866 0.0866 0.0866 0.0866 0.0866 0.0866 0.0866 0.0866 0.0867 0.0866 0.0866 0.0866 0.0866 0.0866 0.0866 0.0867 0.0866 0.0866 0.0866 0.0866 0.0866 0.0866 0.0866 0.0866 0.0866 0.0867 0.0866 0.0866 0.0866 0.0866 0.0866 0.0866 0.0866 0.0866 0.0866 0.0866 0.0866 0.0866 0.0866 0.0867 0.0866 0.0866 0.0866 0.0866 0.0866 0.0866 0.0866 0.0866 0.0866 0.0866 0.0866 0.0867 0.0866 0.0866 0.0866 0.0866 0.0867 0.0866 0.0866 0.0866 0.0866 0.0867 0.0866 0.0866 0.0866 0.0866 0.0866 0.0866 0.0866 0.0866 0.0866 0.0866 0.0866 0.0866 0.0866 0.0866 0.0866 0.0866 0.0866 0.0866 0.0866 0.0866 0.0867 0.0866 0.0866 0.0866 0.0866 0.0866 0.0866 0.0866 0.0866 0.0866 0.0867 0.0866 0.0866 0.0866 0.0866 0.0867 0.0866 0.0866 0.0866 l 0.0866,-0.849027 h 0.0866 0.0866 0.0867 0.0866 0.0866 0.0866 0.0866 0.0866 0.0866 0.0866 0.0866 0.0866 0.0866 0.0866 0.0866 0.0866 0.0866 0.0866 0.0866 0.0866 0.0866 0.0866 0.0866 0.0866 0.0866 0.0866 0.0867 0.0866 0.0866 0.0866 0.0866 0.0866 0.0866 0.0867 0.0866 0.0866 0.0866 0.0866 0.0867 0.0866 0.0866 0.0866 0.0866 0.0866 0.0866 0.0866 0.0866 0.0866 0.0867 0.0866 0.0866 0.0866 0.0866 0.0866 0.0866 0.0866 0.0866 0.0866 0.0867 0.0866 0.0866 0.0866 0.0866 l 0.0866,-0.849023 h 0.0866 0.0866 0.0866 0.0866 0.0866 0.0867 0.0866 0.0866 0.0866 0.0866 0.0867 0.0866 0.0866 0.0866 0.0866 0.0867 0.0866 0.0866 0.0866 0.0866 0.0866 0.0866 0.0866 0.0866 0.0866 0.0866 0.0866 0.0866 0.0866 0.0866 0.0866 0.0866 0.0866 0.0866 0.0866 0.0866 0.0866 0.0866 0.0866 0.0866 0.0866 0.0867 0.0866 0.0866 0.0866 0.0866 0.0867 0.0866 0.0866 0.0866 0.0866 0.0867 0.0867 0.0866 0.0866 0.0866 0.0866 0.0866 0.0867 0.0866 0.0866 0.0866 0.0866 l 0.0866,-0.849025 h 0.0866 0.0866 0.0866 0.0866 0.0866 0.0866 0.0866 0.0866 0.0866 0.0866 0.0866 0.0866 0.0866 0.0866 0.0866 0.0866 0.0866 0.0866 0.0867 0.0867 0.0866 0.0866 0.0866 0.0867 0.0866 0.0866 0.0866 0.0866 0.0866 0.0866 0.0867 0.0866 0.0866 0.0866 0.0866 0.0866 0.0866 0.0866 0.0866 0.0866 0.0867 0.0866 0.0866 0.0866 0.0866 0.0866 0.0866 0.0866 0.0866 0.0866 0.0866 0.0866 0.0866 0.0866 0.0866 0.0866 0.0866 0.0866 0.0866 0.0866 0.0866 0.0867 0.0866 0.0866 0.0866 0.0866 0.0867 0.0866 0.0866 0.0866 0.0866 0.0867 0.0867 0.0866 0.0866 0.0866 0.0867 0.0866 0.0866 0.0866 0.0866 0.0866 0.0866 0.0866 0.0866 0.0866 0.0866 0.0866 0.0866 0.0866 0.0866 0.0866 0.0866 0.0866 0.0866 0.0866 0.0866 0.0867 0.0866 0.0866 0.0866 0.0866 0.0866 0.0866 0.0866 0.0866 0.0866 0.0867 0.0867 0.0866 0.0866 0.0866 0.0866 0.0866 0.0866 0.0866 0.0866 0.0866 0.0866 0.0867 0.0866 0.0866 0.0866 0.0866 0.0866 0.0866 0.0866 l 0.0866,-0.849022 h 0.0866 0.0866 0.0866 0.0866 0.0866 0.0866 0.0866 0.0866 0.0866 0.0866 0.0866 0.0867 0.0866 0.0866 0.0866 0.0867 0.0867 0.0866 0.0866 0.0866 0.0866 0.0866 0.0867 0.0866 0.0866 0.0866 0.0866 0.0866 0.0866 0.0866 0.0866 0.0866 0.0866 0.0866 0.0866 0.0866 0.0866 0.0866 0.0866 0.0866 0.0866 0.0866 0.0866 0.0866 0.0866 0.0866 0.0867 0.0867 0.0866 0.0866 0.0866 0.0866 0.0866 0.0866 0.0866 0.0866 0.0866 0.0866 0.0867 0.0866 0.0866 0.0866 0.0866 l 0.16479,-0.849023 h 0.0867 0.0866 0.0866 l 0.0866,0.849023 h 0.0867 0.0867 0.0866 l 0.0866,0.849022 h 0.0866 0.0866 0.0866 l 0.0866,0.849025 h 0.0866 0.0866 0.0866 0.0866 0.0866 0.0866 0.0866 l 0.0866,0.849023 h 0.0866 0.0866 0.0866 l 0.0866,0.849027 h 0.0866 0.0866 0.0866 l 0.0866,0.8490202 h 0.0866 0.0867 0.0866 0.0866 0.0866 0.0866 0.0866 l 0.0867,0.849023 h 0.0867 0.0866 0.0866 l 0.0866,0.849027 h 0.0867 0.0866 0.0866 l 0.0866,0.84902 h 0.0866 0.0866 0.0866 0.0867 0.0866 0.0866 0.0866 l 0.0866,0.849026 h 0.0866 0.0866 0.0866 l 0.0866,0.849022 h 0.0866 0.0866 0.0866 l 0.0866,0.849022 h 0.0866 0.0866 0.0866 0.0866 0.0866 0.0866 0.0866 l 0.0866,0.849025 h 0.0866 0.0866 0.0866 l 0.0867,0.849022 h 0.0867 0.0866 0.0866 l 0.0866,0.849026 h 0.0866 0.0866 0.0867 0.0866 0.0866 0.0866 0.0866 l 0.0867,0.849022 h 0.0866 0.0866 0.0866 l 0.0866,0.849022 h 0.0866 0.0866 0.0866 l 0.0866,0.849026 h 0.0866 0.0867 0.0866 0.0866 0.0866 0.0866 0.0866 l 0.0866,0.849022 h 0.0866 0.0866 0.0866 l 0.0867,0.849025 h 0.0866 0.0866 0.0866 l 0.0866,0.849022 h 0.0866 0.0866 0.0866 0.0866 0.0866 0.0867 0.0866 l 0.0866,0.849022 h 0.0866 0.0866 0.0867 l 0.0866,0.849026 h 0.0866 0.0866 0.0866 l 0.0866,0.84902 h 0.0867 0.0867 0.0866 0.0866 0.0866 0.0866 0.0866 l 0.0866,0.849027 h 0.0866 0.0866 0.0866 l 0.0866,0.849023 h 0.0866 0.0866 0.0866 l 0.0866,0.84902 h 0.0866 0.0866 0.0866 0.0866 0.0866 0.0866 0.0866 l 0.0866,0.849027 h 0.0866 0.0867 0.0866 l 0.0866,0.849023 h 0.0866 0.0866 0.0866 l 0.0867,0.849025 h 0.0867 0.0866 0.0866 0.0866 0.0867 0.0867 0.0866 l 0.0866,0.849022 h 0.0866 0.0866 0.0866 l 0.0866,0.849023 h 0.0866 0.0866 0.0866 l 0.0866,0.849024 h 0.0866 0.0866 0.0866 0.0866 0.0866 0.0866 0.0866 l 0.0866,0.849022 h 0.0866 0.0866 0.0866 l 0.0866,0.849024 h 0.0866 0.0866 0.0866 l 0.0866,0.849024 h 0.0866 0.0866 0.0866 0.0867 0.0867 0.0866 0.0866 l 0.0866,0.849022 h 0.0867 0.0867 0.0866 l 0.0866,0.849024 h 0.0866 0.0866 0.0867 l 0.0866,0.84903 h 0.0866 0.0866 0.0866 0.0866 0.0866 0.0866 0.0866 l 0.0866,0.84902 h 0.0866 0.0866 0.0867 l 0.0866,0.84902 h 0.0866 0.0866 0.0866 l 0.0866,0.84902 h 0.0866 0.0866 0.0866 0.0866 0.0866 0.0866 0.0866 l 0.0866,0.849025 h 0.0867 0.0866 0.0866 l 0.0866,0.849029 h 0.0866 0.0866 0.0866 l 0.0866,0.849026 h 0.0866 0.0866 0.0867 0.0866 0.0866 0.0866 0.0866 l 0.0866,0.84902 h 0.0867 0.0867 0.0866 l 0.0866,0.84902 h 0.0866 0.0867 0.0866 l 0.0866,0.84902 h 0.0866 0.0866 0.0866 0.0866 0.0866 0.0866 0.0866 l 0.0866,0.84903 h 0.0866 0.0866 0.0866 l 0.0866,0.84902 h 0.0866 0.0866 0.0866 l 0.0866,0.849025 h 0.0866 0.0867 0.0866 0.0866 0.0866 0.0866 0.0866 l 0.0866,0.849025 h 0.0866 0.0866 0.0866 l 0.0866,0.84902 h 0.0867 0.0867 0.0866 l 0.0866,0.84903 h 0.0866 0.0866 0.0866 0.0866 0.0866 0.0866 0.0866 l 0.0867,0.84902 h 0.0866 0.0866 0.0866 l 0.0866,0.84902 h 0.0866 0.0866 0.0866 l 0.0866,0.849024 h 0.0866 0.0866 0.0866 0.0866 0.0866 0.0866 0.0866 l 0.0866,0.849026 h 0.0866 0.0866 0.0866 l 0.0866,0.849026 h 0.0867 0.0866 0.0866 l 0.0866,0.849024 h 0.0866 0.0867 0.0866 0.0866 0.0866 0.0866 0.0867 l 0.0866,0.84902 h 0.0866 0.0866 0.0866 l 0.0867,0.84902 h 0.0866 0.0866 0.0866 l 0.0866,0.84902 h 0.0866 0.0866 0.0866 0.0866 0.0866 0.0866 0.0866 l 0.0866,0.84903 h 0.0866 0.0866 0.0866 l 0.0866,0.849025 h 0.0866 0.0866 0.0866 l 0.0866,0.849025 h 0.0867 0.0866 0.0866 0.0866 0.0866 0.0866 0.0866 l 0.0866,0.84902 h 0.0866 0.0866 0.0867 l 0.0866,0.84902 h 0.0866 0.0866 0.0866 l 0.0866,0.84903 h 0.0866 0.0866 0.0866 0.0866 0.0866 0.0867 0.0867 l 0.0866,0.84902 h 0.0866 0.0866 0.0866 l 0.0866,0.849024 h 0.0866 0.0866 0.0866 l 0.0866,0.849022 h 0.0866 0.0866 0.0866 0.0866 0.0866 0.0866 0.0866 l 0.0866,0.849024 h 0.0866 0.0866 0.0866 l 0.0866,0.84903 h 0.0866 0.0866 0.0867 l 0.0866,0.84902 h 0.0866 0.0866 0.0866 0.0866 0.0866 0.0867 0.0866 l 0.0866,0.84902 h 0.0866 0.0866 0.0866 l 0.0866,0.84902 h 0.0866 0.0866 0.0866 l 0.0866,0.849025 h 0.0866 0.0866 0.0866 0.0866 0.0866 0.0866 0.0866 l 0.0866,0.84903 h 0.0866 0.0866 0.0866 l 0.0866,0.849025 h 0.0866 0.0867 0.0866 l 0.0866,0.84902 h 0.0866 0.0866 0.0866 0.0866 0.0866 0.0866 0.0866 l 0.0866,0.84902 h 0.0866 0.0867 0.0866 l 0.0866,0.84902 h 0.0866 0.0866 0.0867 l 0.0866,0.84903 h 0.0866 0.0866 0.0866 0.0867 0.0866 0.0866 0.0866 l 0.0866,0.84902 h 0.0866 0.0866 0.0866 l 0.0866,0.84903 h 0.0866 0.0866 0.0866 l 0.0866,0.84902 h 0.0866 0.0866 0.0866 0.0866 0.0866 0.0866 0.0866 l 0.0866,0.84902 h 0.0867 0.0866 0.0866 l 0.0866,0.84903 h 0.0866 0.0866 0.0866 l 0.0866,0.84902 h 0.0866 0.0866 0.0867 0.0866 0.0866 0.0866 0.0866 l 0.0867,0.84902 h 0.0866 0.0866 0.0866 l 0.0866,0.84902 h 0.0866 0.0866 0.0867 l 0.0866,0.84903 h 0.0866 0.0866 0.0866 0.0866 0.0866 0.0866 0.0866 l 0.0866,0.84903 h 0.0866 0.0866 0.0866 l 0.0866,0.84902 h 0.0866 0.0866 0.0866 l 0.0866,0.84902 h 0.0866 0.0866 0.0866 0.0866 0.0866 0.0866 0.0867 l 0.0866,0.84902 h 0.0866 0.0866 0.0866 l 0.0866,0.84902 h 0.0866 0.0867 0.0866 l 0.0866,0.84903 h 0.0866 0.0866 0.0867 0.0866 0.0866 0.0866 0.0866 l 0.0866,0.84903 h 0.0866 0.0866 0.0866 l 0.0866,0.84902 h 0.0867 0.0866 0.0866 l 0.0866,0.84902 h 0.0866 0.0866 0.0866 0.0866 0.0866 0.0866 0.0866 l 0.0866,0.84902 h 0.0866 0.0866 0.0866 l 0.0866,0.84903 h 0.0866 0.0866 0.0866 l 0.0866,0.84902 h 0.0866 0.0867 0.0866 0.0866 0.0866 0.0866 0.0867 l 0.0866,0.84902 h 0.0866 0.0866 0.0866 l 0.0867,0.84903 h 0.0866 0.0866 0.0866 l 0.0866,0.84902 h 0.0866 0.0866 0.0866 0.0866 0.0866 0.0866 0.0866 l 0.0866,0.84903 h 0.0866 0.0866 0.0866 l 0.0866,0.84902 h 0.0866 0.0866 0.0866 l 0.0866,0.84902 h 0.0866 0.0866 0.0866 0.0866 0.0866 0.0867 0.0866 l 0.0866,0.849024 h 0.0866 0.0866 0.0867 l 0.0866,0.84903 h 0.0866 0.0866 0.0866 l 0.0867,0.84902 h 0.0866 0.0866 0.0866 0.0866 0.0866 0.0866 0.0866 l 0.0866,0.84902 h 0.0866 0.0866 0.0866 l 0.0866,0.84903 h 0.0866 0.0866 0.0866 l 0.0866,0.84903 h 0.0866 0.0866 0.0866 0.0866 0.0867 0.0866 0.0866 l 0.0866,0.84901 h 0.0866 0.0866 0.0866 l 0.0866,0.84903 h 0.0866 0.0866 0.0867 l 0.0867,0.84901 h 0.0866 0.0866 0.0866 0.0867 0.0867 0.0866 0.0866 l 0.0866,0.84904 h 0.0866 0.0866 0.0867 l 0.0866,0.84903 h 0.0866 0.0866 0.0866 l 0.0866,0.84901 h 0.0866 0.0866 0.0866 0.0866 0.0867 0.0866 0.0866 l 0.0866,0.84903 h 0.0866 0.0866 0.0866 l 0.0866,0.84901 h 0.0866 0.0866 0.0866 l 0.0866,0.84903 h 0.0866 0.0866 0.0867 0.0866 0.0866 0.0866 0.0866 l 0.0866,0.84903 h 0.0866 0.0867 0.0866 l 0.0866,0.84902 h 0.0866 0.0866 0.0867 0.0866 0.0866 0.0866 0.0866 0.0867 0.0866 0.0866 0.0866 0.0866 0.0867 0.0866 0.0866 0.0866 0.0866 0.0866 0.0866 0.0866 0.0866 0.0866 0.0866 0.0866 0.0866 0.0866 0.0866 0.0866 0.0866 0.0866 0.0866 0.0866 0.0866 0.0867 0.0866 0.0866 0.0866 0.0866 0.0866 0.0866 0.0866 0.0866 0.0866 0.0867 0.0867 0.0866 0.0866 0.0866 0.0866 0.0866 0.0866 0.0866 0.0866 0.0866 0.0866 0.0867 0.0866 0.0866 0.0866 0.0866 0.0866 0.0866 0.0866 0.0866 0.0866 0.0866 0.0866 0.0866 0.0866 0.0866 0.0866 0.0866 0.0866 0.0866 0.0866 0.0867 0.0866 0.0866 0.0866 0.0867 0.0867 0.0866 0.0866 0.0866 0.0866 0.0866 0.0867 0.0866 0.0866 0.0866 0.0866 0.0866 0.0866 0.0866 0.0866 0.0866 0.0866 0.0866 0.0866 0.0866 0.0866 0.0866 0.0866 0.0866 0.0866 0.0866 0.0866 0.0866 0.0866 0.0866 0.0867 0.0867 0.0866 0.0866 0.0866 0.0866 0.0866 0.0866 0.0866 0.0866 0.0866 0.0866 0.0867 0.0866 0.0866 0.0866 0.0866 0.0866 0.0866 0.0866 0.0866 0.0866 0.0867 0.0867 0.0866 0.0866 0.0866 0.0866 0.0866 0.0866 0.0866 0.0866 0.0866 0.0866 0.0866 0.0866 0.0866 0.0866 0.0866 0.0866 0.0866 0.0866 0.0866 0.0867 0.0866 0.0866 0.0866 0.0866 0.0867 0.0866 0.0866 0.0866 0.0866 0.0867 0.0867 0.0866 0.0866 0.0866 0.0867 0.0866 0.0866 0.0866 0.0866 0.0866 0.0866 0.0867 0.0866 0.0866 0.0866 0.0866 0.0866 0.0866 0.0866 0.0866 0.0866 0.0866 0.0866 0.0866 0.0867 0.0866 0.0866 0.0866 0.0866 0.0866 0.0866 0.0866 0.0866 0.0866 0.0866 0.0867 0.0867 0.0866 0.0866 0.0866 0.0866 0.0866 0.0867 0.0866 0.0866 0.0866 0.0866 0.0867 0.0866 0.0866 0.0866 0.0866 0.0866 0.0866 0.0866 0.0866 0.0866 0.0866 0.0866 0.0866 0.0866 0.0866 0.0866 0.0866 0.0866 0.0866 0.0866 0.0867 0.0866 0.0866 0.0866 0.0866 0.0866 0.0866 0.0866 0.0866 0.0866 0.0866 0.0867 0.0866 0.0866 0.0866 0.0867 0.0866 0.0866 0.0866 0.0866 0.0866 0.0867 0.0867 0.0866 0.0866 0.0866 0.0866 0.0866 0.0866 0.0866 0.0866 0.0866 0.0866 0.0866 0.0866 0.0866 0.0866 0.0866 0.0866 0.0866 0.0866 0.0866 0.0866 0.0866 0.0866 0.0866 0.0867 0.0866 0.0866 0.0866 0.0866 0.0866 0.0867 0.0867 0.0866 0.0866 0.0866 0.0867 0.0867 0.0866 0.0866 0.0866 0.0866 0.0866 0.0866 0.0866 0.0866 0.0866 0.0866 0.0866 0.0866 0.0866 0.0866 0.0866 0.0866 0.0866 0.0866 0.0866 0.0866 0.0866 0.0866 0.0866 0.0866 0.0866 0.0866 0.0866 0.0866 0.0866 0.0867 0.0867 0.0866 0.0866 0.0866 0.0867 0.0867 0.0866 0.0866 0.0866 0.0866 0.0866 0.0867 0.0866 0.0866 0.0866 0.0866 0.0866 0.0866 0.0866 0.0866 0.0866 0.0866 0.0866 0.0866 0.0866 0.0866 0.0866 0.0866 0.0866 0.0866 0.0866 0.0866 0.0866 0.0866 0.0866 0.0867 0.0867 0.0866 0.0866 0.0866 0.0866 0.0867 0.0866 0.0866 0.0866 0.0866 0.0867 0.0866 0.0866 0.0866 0.0866 0.0866 0.0866 0.0867 0.0866 0.0866 0.0866 0.0867 0.0866 0.0866 0.0866 0.0866 0.0866 0.0866 0.0866 0.0866 0.0866 0.0866 0.0866 0.0866 0.0866 0.0866 0.0866 0.0866 0.0866 0.0866 0.0866 0.0867 0.0866 0.0866 0.0866 0.0866 0.0867 0.0866 0.0866 0.0866 0.0866 0.0866 0.0867 0.0867 0.0866 0.0866 0.0866 0.0866 0.0866 0.0866 0.0866 0.0866 0.0866 0.0867 0.0866 0.0866 0.0866 0.0866 0.0866 0.0866 0.0866 0.0866 0.0866 0.0866 0.0866 0.0866 0.0866 0.0866 0.0866 0.0866 0.0866 0.0866 0.0866 0.0866 0.0867 0.0866 0.0866 0.0866 0.0867 0.0867 0.0866 0.0866 0.0866 0.0866 0.0867 0.0866 0.0866 0.0866 0.0866 0.0867 0.0866 0.0866 0.0866 0.0866 0.0866 0.0866 0.0866 0.0866 0.0866 0.0866 0.0866 0.0866 0.0866 0.0866 0.0866 0.0866 0.0866 0.0866 0.0866 0.0866 0.0867 0.0866 0.0866 0.0866 0.0866 0.0866 0.0866 0.0866 0.0866 0.0866 0.0867 0.0866 0.0866 0.0866 0.0866 0.0866 0.0866 0.0866 0.0866 0.0866 0.0866 0.0867 0.0867 0.0866 0.0866 0.0866 0.0866 0.0866 0.0866 0.0866 0.0866 0.0866 0.0866 0.0866 0.0866 0.0866 0.0866 0.0866 0.0866 0.0866 0.0866 0.0866 0.0866 0.0866 0.0866 0.0866 0.0867 0.0866 0.0866 0.0866 0.0866 0.0866 0.0867 0.0867 0.0866 0.0866 0.0866 0.0867 0.0866 0.0866 0.0866 0.0866 0.0866 0.0866 0.0866 0.0866 0.0866 0.0866 0.0866 0.0866 0.0866 0.0866 0.0866 0.0866 0.0866 0.0866 0.0866 0.0867 0.0866 0.0866 0.0866 0.0866 0.0866 0.0866 0.0866 0.0866 0.0866 0.0866 0.0866 0.0867 0.0866 0.0866 0.0866 0.0866 0.0866 0.0866 0.0866 0.0866 0.0866 0.0867 0.0866 0.0866 0.0866 0.0866 0.0866 0.0866 0.0866 0.0866 0.0866 0.0866 0.0866 0.0866 0.0866 0.0866 0.0866 0.0866 0.0866 0.0866 0.0866 0.0866 0.0867 0.0866 0.0866 0.0866 0.0866 0.0867 0.0866 0.0866 0.0866 0.0866 0.0867 0.0866 0.0866 0.0866 0.0866 0.0867 0.0866 0.0866 0.0866 0.0866 0.0866 0.0867 0.0867 0.0866 0.0866 0.0866 0.0866 0.0866 0.0866 0.0866 0.0866 0.0866 0.0866 0.0866 0.0866 0.0866 0.0866 0.0866 0.0866 0.0866 0.0866 0.0866 0.0866 0.0866 0.0866 0.0866 0.0867 0.0866 0.0866 0.0866 0.0866 0.0866 0.0866 0.0867 0.0866 0.0866 0.0866 0.0866 0.0867 0.0866 0.0866 0.0866 0.0866 0.0866 0.0866 0.0866 0.0866 0.0866 0.0867 0.0866 0.0866 0.0866 0.0866 0.0866 0.0866 0.0866 0.0866 0.0866 0.0866 0.0866 0.0866 0.0866 0.0866 0.0866 0.0866 0.0866 0.0866 0.0866 0.0866 0.0867 0.0866 0.0866 0.0866 0.0866 0.0867 0.0866 0.0866 0.0866 0.0866 0.0867 0.0866 0.0866 0.0866 0.0866 0.0866 0.0866 0.0866 0.0866 0.0866 0.0866 0.0866 0.0866 0.0866 0.0866 0.0866 0.0866 0.0866 0.0866 0.0866 0.0866 0.0866 0.0866 0.0866 0.0866 0.0866 0.0867 0.0866 0.0866 0.0866 0.0866 0.0867 0.0866 0.0866 0.0866 0.0866 0.0867 0.0866 0.0866 0.0866 0.0866 0.0866 0.0866 0.0866 0.0866 0.0866 0.0866 0.0866 0.0866 0.0866 0.0866 0.0866 0.0866 0.0866 0.0866 0.0866 0.0866 0.0867 0.0866 0.0866 0.0866 0.0866 0.0866 0.0866 0.0866 0.0866 0.0866 0.0867 0.0866 0.0866 0.0866 0.0866 0.0867 0.0866 0.0866 0.0866 0.0866 0.0866 0.0866 0.0867 0.0866 0.0866 0.0866 0.0866 0.0866 0.0866 0.0866 0.0866 0.0866 0.0866 0.0866 0.0866 0.0866 0.0866 0.0866 0.0866 0.0866 0.0866 0.0866 0.0866 0.0866 0.0866 0.0866 0.0867 0.0867 0.0866 0.0866 0.0866 0.0866 0.0866 0.0867 0.0866 0.0866 0.0866 0.0866 0.0867 0.0866 0.0866 0.0866 0.0866 0.0867 0.0866 0.0866 0.0866 0.0866 0.0867 0.0866 0.0866 0.0866 0.0866 0.0866 0.0866 0.0866 0.0866 0.0866 0.0866 0.0866 0.0866 0.0866 0.0866 0.0866 0.0866 0.0866 0.0866 0.0866 0.0866 0.0867 0.0866 0.0866 0.0866 0.0866 0.0866 0.0866 0.0866 0.0866 0.0866 0.0867 0.0866 0.0866 0.0866 0.0866 0.0866 0.0866 0.0866 0.0866 0.0866 0.0866 0.0866 0.0867 0.0866 0.0866 0.0866 0.0866 0.0866 0.0866 0.0866 0.0866 0.0866 0.0866 0.0866 0.0866 0.0866 0.0866 0.0866 0.0866 0.0866 0.0866 0.0866 0.0867 0.0866 0.0866 0.0866 0.0867 0.0867 0.0866 0.0866 0.0866 0.0866 0.0866 0.0867 0.0866 0.0866 0.0866 0.0866 0.0866 0.0866 0.0866 0.0866 0.0866 0.0866 0.0866 0.0866 0.0866 0.0866 0.0866 0.0866 0.0866 0.0866 0.0866 0.0866 0.0866 0.0866 0.0866 0.0867 0.0867 0.0866 0.0866 0.0866 0.0866 0.0866 0.0866 0.0866 0.0866 0.0866 0.0866 0.0867 0.0866 0.0866 0.0866 0.0866 0.0866 0.0866 0.0866 0.0866 0.0866 0.0867 0.0866 0.0866 0.0866 0.0866 0.0866 0.0866 0.0866 0.0866 0.0866 0.0866 0.0866 0.0866 0.0866 0.0866 0.0866 0.0866 0.0866 0.0866 0.0866 0.0866 0.0867 0.0866 0.0866 0.0866 0.0866 0.0867 0.0866 0.0866 0.0866 0.0866 0.0867 0.0867 0.0866 0.0866 0.0866 0.0867 0.0866 0.0866 0.0866 0.0866 0.0866 0.0866 0.0866 0.0866 0.0866 0.0866 0.0866 0.0866 0.0866 0.0866 0.0866 0.0866 0.0866 0.0866 0.0866 0.0866 0.0867 0.0866 0.0866 0.0866 0.0866 0.0866 0.0866 0.0866 0.0866 0.0866 0.0867 0.0867 0.0866 0.0866 0.0866 0.0866 0.0866 0.0867 0.0866 0.0866 0.0866 0.0866 0.0867 0.0866 0.0866 0.0866 0.0866 0.0866 0.0866 0.0866 0.0866 0.0866 0.0866 0.0866 0.0866 0.0866 0.0866 0.0866 0.0866 0.0866 0.0866 0.0866 0.0867 0.0866 0.0866 0.0866 0.0867 0.0866 0.0866 0.0866 0.0866 0.0866 0.0866 0.0867 0.0866 0.0866 0.0866 0.0866 0.0867 0.0866 0.0866 0.0866 0.0866 0.0867 0.0867 0.0866 0.0866 0.0866 0.0866 0.0866 0.0866 0.0866 0.0866 0.0866 0.0866 0.0866 0.0866 0.0866 0.0866 0.0866 0.0866 0.0866 0.0866 0.0866 0.0866 0.0866 0.0866 0.0866 0.0867 0.0866 0.0866 0.0866 0.0866 0.0866 0.0867 0.0867 0.0866 0.0866 0.0866 0.0867 0.0867 0.0866 0.0866 0.0866 0.0866 0.0866 0.0866 0.0866 0.0866 0.0866 0.0866 0.0866 0.0866 0.0866 0.0866 0.0866 0.0866 0.0866 0.0866 0.0866 0.0866 0.0866 0.0866 0.0866 0.0866 0.0866 0.0866 0.0866 0.0866 0.0866 0.0867 0.0867 0.0866 0.0866 0.0866 0.0867 0.0867 0.0866 0.0866 0.0866 0.0866 0.0866 0.0867 0.0866 0.0866 0.0866 0.0866 0.0866 0.0866 0.0866 0.0866 0.0866 0.0866 0.0866 0.0866 0.0866 0.0866 0.0866 0.0866 0.0866 0.0866 0.0866 0.0866 0.0866 0.0866 0.0866 0.0867 0.0867 0.0866 0.0866 0.0866 0.0866 0.0866 0.0867 0.0866 0.0866 0.0866 0.0867 0.0866 0.0866 0.0866 0.0866 0.0866 0.0866 0.0866 0.0866 0.0866 0.0866 0.0867 0.0866 0.0866 0.0866 0.0866 0.0866 0.0866 0.0866 0.0866 0.0866 0.0866 0.0866 0.0866 0.0866 0.0866 0.0866 0.0866 0.0866 0.0866 0.0866 0.0867 0.0866 0.0866 0.0866 0.0866 0.0867 0.0866 0.0866 0.0866 0.0866 0.0866 0.0867 0.0867 0.0866 0.0866 0.0866 0.0866 0.0866 0.0866 0.0866 0.0866 0.0866 0.0866 0.0867 0.0866 0.0866 0.0866 0.0866 0.0866 0.0866 0.0866 0.0866 0.0866 0.0866 0.0866 0.0866 0.0867 0.0866 0.0866 0.0866 0.0866 0.0866 0.0866 0.0867 0.0866 0.0866 0.0866 0.0867 0.0867 0.0866 0.0866 0.0866 0.0866 0.0867 0.0866 0.0866 0.0866 0.0866 0.0867 0.0866 0.0866 0.0866 0.0866 0.0866 0.0866 0.0866 0.0866 0.0866 0.0866 0.0866 0.0866 0.0866 0.0866 0.0866 0.0866 0.0866 0.0866 0.0866 0.0867 0.0867 0.0866 0.0866 0.0866 0.0866 0.0866 0.0866 0.0866 0.0866 0.0866 0.0867 0.0866 0.0866 0.0866 0.0866 0.0866 0.0866 0.0866 0.0866 0.0866 0.0866 0.0867 0.0867 0.0866 0.0866 0.0866 0.0866 0.0866 0.0866 0.0866 0.0866 0.0866 0.0866 0.0866 0.0866 0.0866 0.0866 0.0866 0.0866 0.0866 0.0866 0.0866 0.0866 0.0866 0.0866 0.0866 0.0867 0.0866 0.0866 0.0866 0.0866 0.0866 0.0867 0.0867 0.0866 0.0866 0.0866 0.0867 0.0866 0.0866 0.0866 0.0866 0.0866 0.0866 0.0866 0.0866 0.0866 0.0866 0.0866 0.0866 0.0866 0.0866 0.0866 0.0866 0.0866 0.0866 0.0866 0.0867 0.0866 0.0866 0.0866 0.0866 0.0866 0.0866 0.0866 0.0866 0.0866 0.0866 0.0867 0.0867 0.0866 0.0866 0.0866 0.0866 0.0866 0.0866 0.0866 0.0866 0.0866 0.0867 0.0866 0.0866 0.0866 0.0866 0.0866 0.0866 0.0866 0.0866 0.0866 0.0866 0.0866 0.0866 0.0866 0.0866 0.0866 0.0866 0.0866 0.0866 0.0866 0.0866 0.0867 0.0866 0.0866 0.0866 0.0866 0.0867 0.0866 0.0866 0.0866 0.0866 0.0867 0.0866 0.0866 0.0866 0.0866 0.0867 0.0866 0.0866 0.0866 0.0866 0.0866 0.0866 0.0867 0.0866 0.0866 0.0866 0.0866 0.0866 0.0866 0.0866 0.0866 0.0866 0.0866 0.0866 0.0866 0.0866 0.0867 0.0866 0.0866 0.0866 0.0866 0.0866 0.0866 0.0866 0.0866 0.0866 0.0867 0.0866 0.0866 0.0866 0.0866 0.0866 0.0867 0.0867 0.0866 0.0866 0.0866 0.0867 0.0867 0.0866 0.0866 0.0866 0.0866 0.0866 0.0866 0.0866 0.0866 0.0866 0.0867 0.0866 0.0866 0.0866 0.0866 0.0866 0.0866 0.0866 0.0866 0.0866 0.0866 0.0866 0.0866 0.0866 0.0866 0.0866 0.0866 0.0866 0.0866 0.0866 0.0866 0.0867 0.0866 0.0866 0.0866 0.0866 0.0867 0.0866 0.0866 0.0866 0.0866 0.0867 0.0866 0.0866 0.0866 0.0866 0.0866 0.0866 0.0866 0.0866 0.0866 0.0866 0.0866 0.0866 0.0866 0.0866 0.0866 0.0866 0.0866 0.0866 0.0866 0.0866 0.0866 0.0866 0.0866 0.0866 0.0866 0.0867 0.0866 0.0866 0.0866 0.0866 0.0867 0.0866 0.0866 0.0866 0.0866 0.0867 0.0866 0.0866 0.0866 0.0866 0.0866 0.0866 0.0866 0.0866 0.0866 0.0866 0.0866 0.0866 0.0866 0.0866 0.0866 0.0866 0.0866 0.0866 0.0866 0.0866 0.0867 0.0866 0.0866 0.0866 0.0866 0.0866 0.0866 0.0866 0.0866 0.0866 0.0867 0.0866 0.0866 0.0866 0.0866 0.0867 0.0866 0.0866 0.0866 0.0866 0.0866 0.0866 0.0867 0.0866 0.0866 0.0866 0.0866 0.0866 0.0866 0.0866 0.0866 0.0866 0.0866 0.0866 0.0866 0.0866 0.0866 0.0866 0.0866 0.0866 0.0866 0.0866 0.0866 0.0866 0.0866 0.0866 0.0867 0.0866 0.0866 0.0866 0.0866 0.0866 0.0866 0.0867 0.0866 0.0866 0.0866 0.0866 0.0867 0.0866 0.0866 0.0866 0.0866 0.0866 0.0866 0.0866 0.0866 0.0866 0.0867 0.0866 0.0866 0.0866 0.0866 0.0866 0.0866 0.0866 0.0866 0.0866 0.0866 0.0866 0.0866 0.0866 0.0866 0.0866 0.0866 0.0866 0.0866 0.0866 0.0866 0.0867 0.0866 0.0866 0.0866 0.0866 0.0867 0.0866 0.0866 0.0866 0.0866 0.0867 0.0866 0.0866 0.0866 0.0866 0.0866 0.0866 0.0866 0.0866 0.0866 0.0866 0.0866 0.0867 0.0866 0.0866 0.0866 0.0866 0.0866 0.0866 0.0866 0.0866 0.0867 0.0866 0.0867 0.0866 0.0867 0.0866 0.0866 0.0867 0.0866 0.0866 0.0866 0.0867 0.0866 0.0867 0.0866 0.0866 0.0867 0.0866 0.0867 0.0866 0.0866 0.0866 0.0866 0.0866 0.0866 0.0867 0.0866 0.0867 0.0866 0.0867 0.0866 0.0866 0.0867 0.0866 0.0867 0.0866 0.0867 0.0866 0.0867 0.0866 0.0866 0.0867 0.0866 0.0867 0.0866 0.0867 0.0866 0.0866 0.0866 0.0866 0.0867 0.0866 0.0867 0.0866 0.0867 0.0866 0.0866 0.0866 0.0866 0.0866 0.0866 0.0867 0.0866 0.0867 0.0866 0.0867 0.0866 0.0866 0.0866 0.0866 0.0867 0.0866 0.0867 0.0866 0.0867 0.0866 0.0866 0.0867 0.0866 0.0867 0.0866 0.0867 0.0866 0.0867 0.0866 0.0866 0.0867 0.0866 0.0867 0.0866 0.0867 0.0866 0.0866 0.0867 0.0866 0.0866 0.0866 0.0867 0.0866 0.0867 0.0866 0.0866 0.0867 0.0866 0.0866 0.0866 0.0866 0.0866 0.0867 0.0866 0.0866 0.0867 0.0866 0.0867 0.0866 0.0866 0.0866 0.0867 0.0866 0.0866 0.0867 0.0866 0.0867 0.0866 0.0867 0.0866 0.0867 0.0866 0.0866 0.0866 0.0866 0.0867 0.0866 0.0867 0.0866 0.0867 0.0866 0.0866 0.0867 0.0866 0.0866 0.0866 0.0866 0.0866 0.0866 0.0867 0.0866 0.0867 0.0866 0.0867 0.0866 0.0867 0.0866 0.0866 0.0867 0.0866 0.0866 0.0866 0.0867 0.0866 0.0867 0.0866 0.0866 0.0867 0.0866 0.0866 0.0866 0.0866 0.0866 0.0867 0.0866 0.0866 0.0867 0.0866 0.0867 0.0866 0.0866 0.0866 0.0867 0.0866 0.0866 0.0867 0.0866 0.0867 0.0866 0.0867 0.0866 0.0866 0.0866 0.0866 0.0867 0.0866 0.0867 0.0866 0.0867 0.0866 0.0866 0.0867 0.0866 0.0867 0.0866 0.0867 0.0866 0.0866 0.0866 0.0866 0.0867 0.0866 0.0867 0.0866 0.0867 0.0866 0.0867 0.0866 0.0866 0.0866 0.0866 0.0867 0.0866 0.0867 0.0866 0.0867 0.0866 0.0866 0.0866 0.0866 0.0866 0.0866 0.0867 0.0866 0.0867 0.0866 0.0866 0.0867 0.0866 0.0866 0.0866 0.0867 0.0866 0.0867 0.0866 0.0866 0.0867 0.0866 0.0867 0.0866 0.0867 0.0866 0.0867 0.0866 0.0866 0.0867 0.0866 0.0867 0.0866 0.0867 0.0866 0.0866 0.0867 0.0866 0.0866 0.0866 0.0866 0.0866 0.0867 0.0866 0.0866 0.0867 0.0866 0.0867 0.0866 0.0867 0.0866 0.0866 0.0866 0.0866 0.0866 0.0866 0.0867 0.0866 0.0867 0.0866 0.0866 0.0866 0.0866 0.0866 0.0866 0.0866 0.0866 0.0867 0.0866 0.0867 0.0866 0.0866 0.0867 0.0866 0.0866 0.0866 0.0867 0.0866 0.0867 0.0866 0.0866 0.0867 0.0866 0.0867 0.0866 0.0866 0.0866 0.0866 0.0867 0.0866 0.0867 0.0866 0.0867 0.0866 0.0867 0.0866 0.0866 0.0867 0.0866 0.0867 0.0866 0.0866 0.0866 0.0867 0.0866 0.0866 0.0867 0.0866 0.0867 0.0866 0.0866 0.0866 0.0866 0.0866 0.0866 0.0867 0.0866 0.0867 0.0866 0.0867 0.0866 0.0866 0.0866 0.0866 0.0867 0.0866 0.0867 0.0866 0.0867 0.0866 0.0867 0.0866 0.0866 0.0867 0.0866 0.0867 0.0866 0.0867 0.0866 0.0867 0.0866 0.0866 0.0867 0.0866 0.0867 0.0866 0.0867 0.0866 0.0866 0.0867 0.0866 0.0867 0.0866 0.0867 0.0866 0.0867 0.0866 0.0866 0.0867 0.0866 0.0866 0.0866 0.0867 0.0866 0.0867 0.0866 0.0866 0.0867 0.0866 0.0867 0.0866 0.0867 0.0866 0.0867 0.0866 0.0866 0.0867 0.0866 0.0867 0.0866 0.0866 0.0866 0.0867 0.0866 0.0866 0.0866 0.0866 0.0867 0.0866 0.0867 0.0866 0.0867 0.0866 0.0866 0.0866 0.0866 0.0867 0.0866 0.0867 0.0866 0.0866 0.0867 0.0866 0.0867 0.0866 0.0866 0.0866 0.0866 0.0866 0.0866 0.0867 0.0866 0.0867 0.0866 0.0867 0.0866 0.0866 0.0866 0.0866 0.0867 0.0866 0.0866 0.0866 0.0867 0.0866 0.0867 0.0866 0.0866 0.0867 0.0866 0.0866 0.0866 0.0866 0.0866 0.0867 0.0866 0.0866 0.0867 0.0866 0.0867 0.0866 0.0866 0.0866 0.0866 0.0866 0.0866 0.0867 0.0866 0.0867 0.0866 0.0867 0.0866 0.0866 0.0867 0.0866 0.0867 0.0866 0.0867 0.0866 0.0867 0.0866 0.0866 0.0867 0.0866 0.0867 0.0866 0.0867 0.0866 0.0867 0.0866 0.0866 0.0867 0.0866 0.0867 0.0866 0.0867 0.0866 0.0866 0.0866 0.0866 0.0866 0.0866 0.0867 0.0866 0.0867 0.0866 0.0867 0.0866 0.0866 0.0867 0.0866 0.0867 0.0866 0.0867 0.0866 0.0867 0.0866 0.0866 0.0867 0.0866 0.0867 0.0866 0.0867 0.0866 0.0867 0.0866 0.0866 0.0867 0.0866 0.0867 0.0866 0.0867 0.0866 0.0866 0.0866 0.0866 0.0866 0.0866 0.0867 0.0866 0.0867 0.0866 0.0866 0.0867 0.0866 0.0866 0.0866 0.0866 0.0866 0.0867 0.0866 0.0866 0.0867 0.0866 0.0867 0.0866 0.0867 0.0866 0.0867 0.0866 0.0866 0.0866 0.0866 0.0867 0.0866 0.0867 0.0866 0.0867 0.0866 0.0866 0.0866 0.0866 0.0866 0.0866 0.0867 0.0866 0.0867 0.0866 0.0866 0.0867 0.0866 0.0866 0.0866 0.0866 0.0866 0.0866 0.0867 0.0866 0.0867 0.0866 0.0867 0.0866 0.0866 0.0866 0.0866 0.0867 0.0866 0.0866 0.0866 0.0867 0.0866 0.0867 0.0866 0.0866 0.0867 0.0866 0.0866 0.0866 0.0867 0.0866 0.0867 0.0866 0.0866 0.0867 0.0866 0.0867 0.0866 0.0866 0.0866 0.0866 0.0866 0.0866 0.0867 0.0866 0.0867 0.0866 0.0867 0.0866 0.0867 0.0866 0.0866 0.0867 0.0866 0.0867 0.0866 0.0867 0.0866 0.0867 0.0866 0.0866 0.0867 0.0866 0.0867 0.0866 0.0867 0.0866 0.0866 0.0867 0.0866 0.0867 0.0866 0.0867 0.0866 0.0867 0.0866 0.0866 0.0866 0.0866 0.0867 0.0866 0.0867 0.0866 0.0867 0.0866 0.0866 0.0866 0.0866 0.0866 0.0866 0.0867 0.0866 0.0867 0.0866 0.0866 0.0867 0.0866 0.0867 0.0866 0.0867 0.0866 0.0867 0.0866 0.0866 0.0867 0.0866 0.0867 0.0866 0.0867 0.0866 0.0867 0.0866 0.0866 0.0866 0.0866 0.0867 0.0866 0.0867 0.0866 0.0866 0.0867 0.0866 0.0866 0.0866 0.0866 0.0866 0.0867 0.0866 0.0866 0.0867 0.0866 0.0867 0.0866 0.0866 0.0866 0.0866 0.0866 0.0866 0.0866 0.0866 0.0867 0.0866 0.0867 0.0866 0.0866 0.0866 0.0866 0.0866 0.0866 0.0867 0.0866 0.0867 0.0866 0.0867 0.0866 0.0866 0.0867 0.0866 0.0866 0.0866 0.0866 0.0866 0.0867 0.0866 0.0866 0.0867 0.0866 0.0867 0.0866 0.0867 0.0866 0.0866 0.0867 0.0866 0.0867 0.0866 0.0867 0.0866 0.0867 0.0866 0.0866 0.0867 0.0866 0.0867 0.0866 0.0866 0.0866 0.0867 0.0866 0.0866 0.0867 0.0866 0.0867 0.0866 0.0866 0.0866 0.0866 0.0866 0.0866 0.0867 0.0866 0.0867 0.0866 0.0867 0.0866 0.0866 0.0866 0.0866 0.0867 0.0866 0.0867 0.0866 0.0867 0.0866 0.0867 0.0866 0.0866 0.0867 0.0866 0.0867 0.0866 0.0867 0.0866 0.0867 0.0866 0.0866 0.0867 0.0866 0.0867 0.0866 0.0867 0.0866 0.0866 0.0866 0.0866 0.0867 0.0866 0.0867 0.0866 0.0867 0.0866 0.0866 0.0866 0.0866 0.0866 0.0866 0.0867 0.0866 0.0867 0.0866 0.0866 0.0867 0.0866 0.0866 0.0866 0.0866 0.0866 0.0867 0.0866 0.0866 0.0867 0.0866 0.0867 0.0866 0.0866 0.0866 0.0867 0.0866 0.0866 0.0867 0.0866 0.0867 0.0866 0.0867 0.0866 0.0867 0.0866 0.0866 0.0866 0.0866 0.0866 0.0866 0.0867 0.0866 0.0866 0.0867 0.0866 0.0867 0.0866 0.0867 0.0866 0.0866 0.0866 0.0866 0.0867 0.0866 0.0867 0.0866 0.0867 0.0866 0.0866 0.0866 0.0866 0.0867 0.0866 0.0866 0.0866 0.0867 0.0866 0.0867 0.0866 0.0866 0.0867 0.0866 0.0866 0.0866 0.0866 0.0866 0.0867 0.0866 0.0866 0.0867 0.0866 0.0867 0.0866 0.0866 0.0866 0.0867 0.0866 0.0866 0.0867 0.0866 0.0867 0.0866 0.0867 0.0866 0.0866 0.0866 0.0866 0.0867 0.0866 0.0867 0.0866 0.0867 0.0866 0.0866 0.0867 0.0866 0.0867 0.0866 0.0867 0.0866 0.0866 0.0866 0.0866 0.0867 0.0866 0.0867 0.0866 0.0867 0.0866 0.0866 0.0866 0.0866 0.0866 0.0866 0.0867 0.0866 0.0867 0.0866 0.0867 0.0866 0.0866 0.0866 0.0866 0.0867 0.0866 0.0867 0.0866 0.0867 0.0866 0.0866 0.0867 0.0866 0.0867 0.0866 0.0867 0.0866 0.0867 0.0866 0.0866 0.0867 0.0866 0.0867 0.0866 0.0867 0.0866 0.0866 0.0866 0.0866 0.0866 0.0866 0.0867 0.0866 0.0867 0.0866 0.0866 0.0867 0.0866 0.0867 0.0866 0.0866 0.0866 0.0867 0.0866 0.0866 0.0867 0.0866 0.0867 0.0866 0.0866 0.0866 0.0867 0.0866 0.0866 0.0866 0.0866 0.0867 0.0866 0.0867 0.0866 0.0867 0.0866 0.0866 0.0866 0.0866 0.0867 0.0866 0.0867 0.0866 0.0867 0.0866 0.0866 0.0867 0.0866 0.0866 0.0866 0.0867 0.0866 0.0866 0.0867 0.0866 0.0867 0.0866 0.0867 0.0866 0.0866 0.0866 0.0866 0.0867 0.0866 0.0866 0.0866 0.0867 0.0866 0.0867 0.0866 0.0866 0.0867 0.0866 0.0867 0.0866 0.0866 0.0866 0.0867 0.0866 0.0866 0.0867 0.0866 0.0867 0.0866 0.0866 0.0866 0.0866 0.0866 0.0866 0.0867 0.0866 0.0867 0.0866 0.0867 0.0866 0.0866 0.0866 0.0866 0.0867 0.0866 0.0867 0.0866 0.0867 0.0866 0.0867 0.0866 0.0866 0.0867 0.0866 0.0867 0.0866 0.0867 0.0866 0.0866 0.0867 0.0866 0.0867 0.0866 0.0867 0.0866 0.0867 0.0866 0.0866 0.0866 0.0866 0.0867 0.0866 0.0867 0.0866 0.0867 0.0866 0.0866 0.0867 0.0866 0.0866 0.0866 0.0867 0.0866 0.0867 0.0866 0.0866 0.0867 0.0866 0.0866 0.0866 0.0867 0.0866 0.0867 0.0866 0.0866 0.0867 0.0866 0.0867 0.0866 0.0867 0.0866 0.0867 0.0866 0.0866 0.0867 0.0866 0.0867 0.0866 0.0867 0.0866 0.0866 0.0867 0.0866 0.0866 0.0866 0.0866 0.0866 0.0867 0.0866 0.0866 0.0867 0.0866 0.0867 0.0866 0.0866 0.0866 0.0866 0.0866 0.0866 0.0866 0.0866 0.0867 0.0866 0.0867 0.0866 0.0867 0.0866 0.0866 0.0866 0.0866 0.0866 0.0866 0.0867 0.0866 0.0867 0.0866 0.0866 0.0867 0.0866 0.0866 0.0866 0.0866 0.0866 0.0867 0.0866 0.0866 0.0867 0.0866 0.0867 0.0866 0.0866 0.0866 0.0866 0.0866 0.0866 0.0867 0.0866 0.0867 0.0866 0.0867 0.0866 0.0866 0.0867 0.0866 0.0867 0.0866 0.0867 0.0866 0.0867 0.0866 0.0866 0.0867 0.0866 0.0867 0.0866 0.0866 0.0866 0.0866 0.0866 0.0866 0.0867 0.0866 0.0867 0.0866 0.0867 0.0866 0.0866 0.0866 0.0866 0.0867 0.0866 0.0867 0.0866 0.0867 0.0866 0.0867 0.0866 0.0866 0.0866 0.0866 0.0867 0.0866 0.0867 0.0866 0.0867 0.0866 0.0866 0.0867 0.0866 0.0867 0.0866 0.0867 0.0866 0.0866 0.0867 0.0866 0.0867 0.0866 0.0867 0.0866 0.0867 0.0866 0.0866 0.0866 0.0866 0.0866 0.0866 0.0867 0.0866 0.0867 0.0866 0.0866 0.0867 0.0866 0.0866 0.0866 0.0866 0.0866 0.0867 0.0866 0.0866 0.0867 0.0866 0.0867 0.0866 0.0867 0.0866 0.0867 0.0866 0.0866 0.0866 0.0866 0.0867 0.0866 0.0867 0.0866 0.0867 0.0866 0.0866 0.0866 0.0866 0.0866 0.0866 0.0867 0.0866 0.0866 0.0867 0.0866 0.0867 0.0866 0.0866 0.0866 0.0866 0.0866 0.0866 0.0867 0.0866 0.0867 0.0866 0.0867 l 0.0866,0.84903 h 0.0866 0.0866 0.0866 l 0.0867,0.84901 h 0.0866 0.0867 0.0866 l 0.0867,0.84903 h 0.0866 0.0867 0.0866 0.0866 0.0867 0.0866 0.0866 l 0.0866,0.84903 h 0.0866 0.0866 0.0867 l 0.0866,0.84901 h 0.0866 0.0867 0.0866 l 0.0867,0.84903 h 0.0866 0.0866 0.0866 0.0866 0.0866 0.0866 0.0867 l 0.0866,0.84902 h 0.0867 0.0866 0.0867 l 0.0866,0.84903 h 0.0867 0.0866 0.0866 l 0.0867,0.84903 h 0.0866 0.0867 0.0866 0.0867 0.0866 0.0866 0.0867 l 0.0866,0.84901 h 0.0867 0.0866 0.0867 l 0.0866,0.84903 h 0.0866 0.0866 0.0866 l 0.0867,0.84902 h 0.0866 0.0867 0.0866 0.0867 0.0866 0.0866 0.0866 l 0.0866,0.84902 h 0.0866 0.0866 0.0867 l 0.0866,0.84903 h 0.0867 0.0866 0.0867 l 0.0866,0.84902 h 0.0866 0.0867 0.0866 0.0867 0.0866 0.0867 0.0866 l 0.0867,0.84903 h 0.0866 0.0866 0.0867 l 0.0866,0.84901 h 0.0867 0.0866 0.0867 l 0.0866,0.84903 h 0.0867 0.0866 0.0866 0.0867 0.0866 0.0867 0.0866 l 0.0867,0.84903 h 0.0866 0.0866 0.0866 l 0.0866,0.84902 h 0.0866 0.0866 0.0867 l 0.0866,0.84903 h 0.0867 0.0866 0.0866 0.0867 0.0866 0.0866 0.0866 l 0.0866,0.84901 h 0.0866 0.0867 0.0866 l 0.0866,0.84903 h 0.0867 0.0866 0.0867 l 0.0866,0.84903 h 0.0866 0.0866 0.0867 0.0866 0.0866 0.0867 0.0866 l 0.0867,0.84901 h 0.0866 0.0867 0.0866 l 0.0866,0.84903 h 0.0866 0.0866 0.0866 l 0.0866,0.84902 h 0.0866 0.0866 0.0867 0.0866 0.0867 0.0866 0.0866 l 0.0867,0.84903 h 0.0866 0.0867 0.0866 l 0.0866,0.84903 h 0.0866 0.0867 0.0866 l 0.0866,0.84901 h 0.0867 0.0866 0.0867 0.0866 0.0867 0.0866 0.0866 l 0.0867,0.84903 h 0.0866 0.0867 0.0866 l 0.0867,0.84901 h 0.0866 0.0867 0.0866 l 0.0866,0.84903 h 0.0867 0.0866 0.0867 0.0866 0.0866 0.0866 0.0867 l 0.0866,0.84903 h 0.0866 0.0867 0.0866 l 0.0867,0.84902 h 0.0866 0.0866 0.0866 l 0.0867,0.84903 h 0.0866 0.0866 0.0867 0.0866 0.0867 0.0866 0.0867 l 0.0866,0.84901 h 0.0866 0.0866 0.0866 l 0.0867,0.84903 h 0.0866 0.0867 0.0866 l 0.0867,0.84903 h 0.0866 0.0867 0.0866 0.0866 0.0867 0.0866 0.0867 l 0.0866,0.84901 h 0.0867 0.0866 0.0866 l 0.0867,0.84903 h 0.0866 0.0867 0.0866 l 0.0867,0.84902 h 0.0866 0.0867 0.0866 0.0866 0.0866 0.0866 0.0867 l 0.0866,0.84903 h 0.0867 0.0866 0.0867 l 0.0866,0.84903 h 0.0866 0.0866 0.0866 l 0.0866,0.84901 h 0.0866 0.0867 0.0866 0.0867 0.0866 0.0866 0.0867 l 0.0866,0.84903 h 0.0866 0.0866 0.0867 l 0.0866,0.84902 h 0.0867 0.0866 0.0866 l 0.0867,0.84902 h 0.0866 0.0867 0.0866 0.0867 0.0866 0.0867 0.0866 l 0.0866,0.84903 h 0.0866 0.0866 0.0867 l 0.0866,0.84902 h 0.0867 0.0866 0.0866 l 0.0867,0.84903 h 0.0866 0.0867 0.0866 0.0866 0.0866 0.0867 0.0866 l 0.0866,0.84901 h 0.0867 0.0866 0.0867 l 0.0866,0.84903 h 0.0866 0.0866 0.0866 l 0.0866,0.84903 h 0.0866 0.0866 0.0866 0.0867 0.0866 0.0867 0.0866 l 0.0866,0.84902 h 0.0866 0.0866 0.0866 l 0.0866,0.84903 h 0.0866 0.0866 0.0867 l 0.0866,0.84901 h 0.0867 0.0866 0.0866 0.0867 0.0866 0.0866 0.0866 l 0.0867,0.84903 h 0.0866 0.0867 0.0866 l 0.0866,0.84903 h 0.0867 0.0866 0.0867 l 0.0866,0.84901 h 0.0866 0.0866 0.0866 0.0866 0.0866 0.0867 0.0866 l 0.0867,0.84903 h 0.0866 0.0867 0.0866 l 0.0866,0.84902 h 0.0867 0.0866 0.0867 l 0.0866,0.84903 h 0.0866 0.0866 0.0867 0.0866 0.0866 0.0867 0.0866 l 0.0867,0.84902 h 0.0866 0.0866 0.0866 l 0.0866,0.84902 h 0.0866 0.0866 0.0867 l 0.0866,0.84903 h 0.0867 0.0866 0.0867 0.0866 0.0866 0.0866 0.0866 l 0.0866,0.84901 h 0.0866 0.0867 0.0866 l 0.0867,0.84904 h 0.0866 0.0867 0.0866 l 0.0866,0.84902 h 0.0866 0.0866 0.0867 0.0866 0.0867 0.0866 0.0867 l 0.0866,0.84902 h 0.0866 0.0867 0.0866 l 0.0867,0.84903 h 0.0866 0.0867 0.0866 l 0.0866,0.84901 h 0.0866 0.0866 0.0867 0.0866 0.0867 0.0866 0.0867 l 0.0866,0.84903 h 0.0866 0.0867 0.0866 l 0.0866,0.84903 h 0.0866 0.0867 0.0866 l 0.0867,0.84901 h 0.0866 0.0866 0.0867 0.0866 0.0866 0.0866 0.0866 l 0.0866,0.84903 h 0.0867 0.0866 0.0866 l 0.0867,0.84902 h 0.0866 0.0867 0.0866 l 0.0866,0.84903 h 0.0866 0.0867 0.0866 0.0866 0.0866 0.0866 0.0867 l 0.0866,0.84903 h 0.0867 0.0866 0.0867 l 0.0866,0.84901 h 0.0866 0.0866 0.0866 l 0.0867,0.84903 h 0.0866 0.0867 0.0866 0.0867 0.0866 0.0866 0.0867 l 0.0866,0.84902 h 0.0866 0.0866 0.0866 l 0.0866,0.84903 h 0.0866 0.0867 0.0866 l 0.0867,0.84902 h 0.0866 0.0867 0.0866 0.0867 0.0866 0.0866 0.0867 l 0.0866,0.84902 h 0.0866 0.0866 0.0867 l 0.0866,0.84903 h 0.0867 0.0866 0.0866 l 0.0867,0.84901 h 0.0866 0.0866 0.0866 0.0866 0.0866 0.0867 0.0866 l 0.0866,0.84903 h 0.0867 0.0866 0.0867 l 0.0866,0.84903 h 0.0866 0.0866 0.0866 l 0.0866,0.84901 h 0.0866 0.0867 0.0866 0.0867 0.0866 0.0867 0.0866 l 0.0866,0.84904 h 0.0866 0.0866 0.0867 l 0.0866,0.84901 h 0.0867 0.0866 0.0867 l 0.0866,0.84903 h 0.0866 0.0867 0.0866 0.0867 0.0866 0.0867 0.0866 l 0.0867,0.84903 h 0.0866 0.0866 0.0867 l 0.0866,0.84901 h 0.0867 0.0866 0.0867 l 0.0866,0.84903 h 0.0866 0.0866 0.0866 0.0866 0.0866 0.0867 0.0866 l 0.0867,0.84902 h 0.0866 0.0867 0.0866 l 0.0866,0.84903 h 0.0866 0.0866 0.0867 l 0.0866,0.84903 h 0.0867 0.0866 0.0867 0.0866 0.0866 0.0867 0.0866 l 0.0867,0.84901 h 0.0866 0.0867 0.0866 l 0.0867,0.84903 h 0.0866 0.0866 0.0867 l 0.0866,0.84901 h 0.0867 0.0866 0.0867 0.0866 0.0866 0.0866 0.0866 l 0.0867,0.84903 h 0.0866 0.0867 0.0866 l 0.0867,0.84903 h 0.0866 0.0866 0.0867 l 0.0866,0.84902 h 0.0866 0.0866 0.0866 0.0866 0.0867 0.0866 0.0866 l 0.0867,0.84903 h 0.0866 0.0867 0.0866 l 0.0867,0.84901 h 0.0866 0.0866 0.0866 l 0.0866,0.84903 h 0.0866 0.0866 0.0867 0.0866 0.0867 0.0866 0.0866 l 0.0866,0.84903 h 0.0866 0.0866 0.0866 l 0.0866,0.84902 h 0.0866 0.0867 0.0866 l 0.0867,0.84902 h 0.0866 0.0866 0.0867 0.0866 0.0866 0.0866 0.0866 l 0.0866,0.84902 h 0.0867 0.0866 0.0866 l 0.0867,0.84903 h 0.0866 0.0867 0.0866 l 0.0866,0.84903 h 0.0866 0.0866 0.0867 0.0866 0.0867 0.0866 0.0867 l 0.0866,0.84901 h 0.0867 0.0866 0.0866 l 0.0867,0.84903 h 0.0866 0.0867 0.0866 l 0.0867,0.84902 h 0.0866 0.0867 0.0866 0.0866 0.0867 0.0866 0.0867 l 0.0866,0.84903 h 0.0866 0.0866 0.0866 l 0.0866,0.84903 h 0.0866 0.0867 0.0866 l 0.0867,0.84901 h 0.0866 0.0867 0.0866 0.0866 0.0866 0.0866 0.0867 l 0.0866,0.84903 h 0.0867 0.0866 0.0867 l 0.0866,0.84901 h 0.0867 0.0866 0.0866 l 0.0867,0.84903 h 0.0866 0.0867 0.0866 0.0867 0.0866 0.0866 0.0867 l 0.0866,0.84903 h 0.0867 0.0866 0.0867 l 0.0866,0.84902 h 0.0867 0.0866 0.0866 l 0.0866,0.84903 h 0.0866 0.0867 0.0866 0.0867 0.0866 0.0867 0.0866 l 0.0866,0.84901 h 0.0866 0.0866 0.0866 l 0.14969,0.84903 h 0.0867 0.0866 0.0867 l 0.0866,0.84903 h 0.0866 0.0867 0.0866 0.0867 0.0866 0.0867 0.0866 l 0.0867,0.84901 h 0.0866 0.0866 0.0867 l 0.0866,0.84903 h 0.0867 0.0866 0.0867 l 0.0866,0.84902 h 0.0867 0.0866 0.0866 0.0866 0.0866 0.0867 0.0866 l 0.0867,0.84903 h 0.0866 0.0867 0.0866 l 0.0866,0.84903 h 0.0866 0.0866 0.0866 l 0.0866,0.84901 h 0.0867 0.0866 0.0866 0.0867 0.0866 0.0867 0.0866 l 0.0866,0.84902 h 0.0866 0.0866 0.0866 l 0.0866,0.84902 h 0.0867 0.0866 0.0867 l 0.0866,0.84903 h 0.0867 0.0866 0.0866 0.0866 0.0866 0.0866 0.0866 l 0.0866,0.84903 h 0.0866 0.0867 0.0866 l 0.0867,0.84904 h 0.0866 0.0866 0.0867 l 0.0866,0.849 h 0.0866 0.0866 0.0866 0.0866 0.0867 0.0866 0.0866 l 0.0867,0.84902 h 0.0866 0.0867 0.0866 l 0.0867,0.84903 h 0.0866 0.0866 0.0866 l 0.0866,0.84903 h 0.0867 0.0866 0.0867 0.0866 0.0867 0.0866 0.0866 l 0.0867,0.84902 h 0.0866 0.0867 0.0866 l 0.0866,0.849 h 0.0866 0.0867 0.0866 l 0.0866,0.84904 h 0.0867 0.0866 0.0867 0.0866 0.0867 0.0866 0.0867 l 0.0866,0.84903 h 0.0866 0.0867 0.0866 l 0.0867,0.84903 h 0.0866 0.0867 0.0866 l 0.0866,0.84903 h 0.0866 0.0866 0.0866 0.0866 0.0867 0.0866 0.0867 l 0.0866,0.849 h 0.0867 0.0866 0.0866 l 0.0867,0.84903 h 0.0866 0.0867 0.0866 l 0.0867,0.84904 h 0.0866 0.0867 0.0866 0.0866 0.0867 0.0866 0.0867 l 0.0866,0.84902 h 0.0867 0.0866 0.0867 l 0.0866,0.84903 h 0.0866 0.0867 0.0866 l 0.0867,0.84899 h 0.0866 0.0867 0.0866 0.0866 0.0866 0.0866 0.0866 l 0.0866,0.84903 h 0.0867 0.0866 0.0867 l 0.0866,0.84903 h 0.0866 0.0867 0.0866 l 0.0866,0.84903 h 0.0866 0.0866 0.0866 0.0867 0.0866 0.0866 0.0867 l 0.0866,0.84903 h 0.0867 0.0866 0.0866 l 0.0866,0.849 h 0.0867 0.0866 0.0866 l 0.0866,0.84904 h 0.0866 0.0867 0.0866 0.0867 0.0866 0.0867 0.0866 l 0.0866,0.84902 h 0.0866 0.0866 0.0866 l 0.0866,0.84903 h 0.0867 0.0866 0.0867 l 0.0866,0.84903 h 0.0866 0.0867 0.0866 0.0867 0.0866 0.0866 0.0866 l 0.0866,0.849 h 0.0867 0.0866 0.0867 l 0.0866,0.84902 h 0.0867 0.0866 0.0866 l 0.0866,0.84904 h 0.0866 0.0867 0.0866 0.0866 0.0866 0.0867 0.0866 l 0.0867,0.84903 h 0.0866 0.0866 0.0867 l 0.0866,0.84903 h 0.0866 0.0866 0.0867 l 0.0866,0.849 h 0.0867 0.0866 0.0866 0.0867 0.0866 0.0867 0.0866 l 0.0866,0.84903 h 0.0866 0.0866 0.0866 l 0.0866,0.84902 h 0.0867 0.0866 0.0867 l 0.0866,0.84903 h 0.0867 0.0866 0.0867 0.0866 0.0866 0.0867 0.0866 l 0.0867,0.84902 h 0.0866 0.0867 0.0866 l 0.0866,0.849 h 0.0867 0.0866 0.0867 l 0.0866,0.84904 h 0.0867 0.0866 0.0866 0.0866 0.0866 0.0867 0.0866 l 0.0867,0.84903 h 0.0866 0.0867 0.0866 l 0.0866,0.84903 h 0.0866 0.0866 0.0866 l 0.0866,0.84903 h 0.0867 0.0866 0.0867 0.0866 0.0867 0.0866 0.0866 l 0.0866,0.849 h 0.0866 0.0867 0.0866 l 0.0867,0.84903 h 0.0866 0.0867 0.0866 l 0.0866,0.84904 h 0.0867 0.0866 0.0866 0.0866 0.0867 0.0866 0.0867 l 0.0866,0.84902 h 0.0866 0.0867 0.0866 l 0.0867,0.84903 h 0.0866 0.0867 0.0866 l 0.0867,0.849 h 0.0866 0.0866 0.0866 0.0866 0.0867 0.0866 0.0867 l 0.0866,0.84903 h 0.0866 0.0867 0.0866 l 0.0867,0.84902 h 0.0866 0.0866 0.0866 l 0.0867,0.84904 h 0.0866 0.0866 0.0867 0.0866 0.0867 0.0866 0.0866 l 0.0866,0.84903 h 0.0866 0.0866 0.0866 l 0.0866,0.84899 h 0.0866 0.0867 0.0866 l 0.0867,0.84904 h 0.0866 0.0866 0.0866 0.0866 0.0866 0.0866 0.0867 l 0.0866,0.84902 h 0.0867 0.0866 0.0867 l 0.0866,0.84903 h 0.0866 0.0867 0.0866 l 0.0866,0.84903 h 0.0866 0.0866 0.0866 0.0867 0.0866 0.0866 0.0867 l 0.0866,0.849 h 0.0867 0.0866 0.0867 l 0.0866,0.84902 h 0.0866 0.0867 0.0866 l 0.0867,0.84904 h 0.0866 0.0867 0.0866 0.0867 0.0866 0.0866 0.0867 l 0.0866,0.84903 h 0.0867 0.0866 0.0866 l 0.0866,0.84903 h 0.0867 0.0866 0.0866 l 0.0867,0.849 h 0.0866 0.0867 0.0866 0.0866 0.0866 0.0866 0.0866 l 0.0866,0.84903 h 0.0867 0.0866 0.0867 l 0.0866,0.84903 h 0.0867 0.0866 0.0866 l 0.0866,0.84904 h 0.0866 0.0867 0.0866 0.0867 0.0866 0.0867 0.0866 l 0.0867,0.84902 h 0.0866 0.0866 0.0867 l 0.0866,0.849 h 0.0867 0.0866 0.0867 l 0.0866,0.84903 h 0.0867 0.0866 0.0866 0.0867 0.0866 0.0867 0.0866 l 0.0867,0.84903 h 0.0866 0.0866 0.0866 l 0.0866,0.84902 h 0.0867 0.0866 0.0867 l 0.0866,0.84903 h 0.0867 0.0866 0.0866 0.0866 0.0866 0.0866 0.0866 l 0.0867,0.849 h 0.0866 0.0867 0.0866 l 0.0866,0.84903 h 0.0867 0.0866 0.0866 l 0.0866,0.84904 h 0.0867 0.0866 0.0867 0.0866 0.0866 0.0867 0.0866 l 0.0867,0.84902 h 0.0866 0.0867 0.0866 l 0.0867,0.84903 h 0.0866 0.0866 0.0867 l 0.0866,0.849 h 0.0867 0.0866 0.0867 0.0866 0.0867 0.0866 0.0866 l 0.0866,0.84903 h 0.0866 0.0866 0.0866 l 0.0867,0.84902 h 0.0866 0.0866 0.0867 l 0.0866,0.84904 h 0.0867 0.0866 0.0867 0.0866 0.0866 0.0866 0.0866 l 0.0866,0.84903 h 0.0866 0.0867 0.0866 l 0.0867,0.849 h 0.0866 0.0867 0.0866 l 0.0866,0.84903 h 0.0866 0.0866 0.0866 0.0866 0.0867 0.0866 0.0867 l 0.0866,0.84903 h 0.0866 0.0867 0.0866 l 0.0866,0.84903 h 0.0866 0.0866 0.0866 l 0.0867,0.84904 h 0.0866 0.0866 0.0867 0.0866 0.0867 0.0866 0.0866 l 0.0866,0.84898 h 0.0867 0.0866 0.0866 l 0.0867,0.84902 h 0.0866 0.0867 0.0866 l 0.0867,0.84904 h 0.0866 0.0866 0.0867 0.0866 0.0867 0.0866 0.0867 l 0.0866,0.84903 h 0.0867 0.0866 0.0866 l 0.0867,0.84903 h 0.0866 0.0867 0.0866 l 0.0867,0.849 h 0.0866 0.0866 0.0866 0.0866 0.0867 0.0866 0.0867 l 0.0866,0.84903 h 0.0867 0.0866 0.0866 l 0.0866,0.84903 h 0.0866 0.0866 0.0866 l 0.0867,0.84904 h 0.0866 0.0867 0.0866 0.0867 0.0866 0.0866 0.0866 l 0.0866,0.84902 h 0.0867 0.0866 0.0867 l 0.0866,0.849 h 0.0867 0.0866 0.0866 l 0.0867,0.84903 h 0.0866 0.0867 0.0866 0.0867 0.0866 0.0867 0.0866 l 0.0866,0.84903 h 0.0867 0.0866 0.0867 l 0.0866,0.84902 h 0.0867 0.0866 0.0866 l 0.0866,0.84904 h 0.0866 0.0866 0.0866 0.0867 0.0866 0.0867 0.0866 l 0.0866,0.849 h 0.0867 0.0866 0.0867 l 0.0866,0.84903 h 0.0866 0.0866 0.0867 l 0.0866,0.84903 h 0.0866 0.0867 0.0866 0.0867 0.0866 0.0866 0.0866 l 0.0867,0.84902 h 0.0866 0.0866 0.0866 l 0.0866,0.84903 h 0.0867 0.0866 0.0867 l 0.0866,0.849 h 0.0867 0.0866 0.0866 0.0866 0.0866 0.0866 0.0866 l 0.0867,0.84903 h 0.0866 0.0867 0.0866 l 0.0866,0.84902 h 0.0867 0.0866 0.0866 l 0.0866,0.84904 h 0.0866 0.0866 0.0866 0.0867 0.0866 0.0867 0.0866 l 0.0867,0.84903 h 0.0866 0.0866 0.0866 l 0.0866,0.849 h 0.0867 0.0866 0.0867 l 0.0866,0.84903 h 0.0867 0.0866 0.0867 0.0866 0.0866 0.0867 0.0866 l 0.0866,0.84903 h 0.0866 0.0866 0.0866 l 0.0867,0.84903 h 0.0866 0.0866 0.0867 l 0.0866,0.84904 h 0.0867 0.0866 0.0866 0.0866 0.0866 0.0866 0.0866 l 0.0867,0.849 h 0.0866 0.0867 0.0866 l 0.0867,0.84902 h 0.0866 0.0866 0.0866 l 0.0866,0.84903 h 0.0867 0.0866 0.0867 0.0866 0.0867 0.0866 0.0867 l 0.0866,0.84903 h 0.0866 0.0867 0.0866 l 0.0867,0.84902 h 0.0866 0.0867 0.0866 l 0.0866,0.849 h 0.0867 0.0866 0.0867 0.0866 0.0867 0.0866 0.0866 l 0.0866,0.84903 h 0.0866 0.0866 0.0866 l 0.0867,0.84903 h 0.0866 0.0867 0.0866 l 0.0867,0.84904 h 0.0866 0.0866 0.0867 0.0866 0.0866 0.0866 0.0867 l 0.0866,0.84902 h 0.0867 0.0866 0.0866 l 0.0867,0.849 h 0.0866 0.0866 0.0866 l 0.0867,0.84903 h 0.0866 0.0867 0.0866 0.0866 0.0867 0.0866 0.0867 l 0.0866,0.84903 h 0.0867 0.0866 0.0867 l 0.0866,0.84902 h 0.0866 0.0866 0.0866 l 0.0867,0.84904 h 0.0866 0.0867 0.0866 0.0866 0.0867 0.0866 0.0866 l 0.0866,0.849 h 0.0866 0.0866 0.0867 l 0.0866,0.84903 h 0.0866 0.0867 0.0866 l 0.0867,0.84903 h 0.0866 0.0866 0.0866 0.0866 0.0866 0.0866 0.0867 l 0.0866,0.84903 h 0.0867 0.0866 0.0867 l 0.0866,0.84903 h 0.0867 0.0866 0.0866 l 0.0866,0.849 h 0.0866 0.0866 0.0866 0.0867 0.0866 0.0867 0.0866 l 0.0866,0.84904 h 0.0867 0.0866 0.0866 l 0.0866,0.84902 h 0.0866 0.0866 0.0867 l 0.0866,0.84903 h 0.0866 0.0867 0.0866 0.0867 0.0866 0.0866 0.0866 l 0.0866,0.84902 h 0.0867 0.0866 0.0867 l 0.0866,0.849 h 0.0867 0.0866 0.0867 l 0.0866,0.84903 h 0.0866 0.0867 0.0866 0.0867 0.0866 0.0867 0.0866 l 0.0867,0.84903 h 0.0866 0.0866 0.0867 l 0.0866,0.84903 h 0.0867 0.0866 0.0866 l 0.0866,0.84904 h 0.0867 0.0866 0.0866 0.0867 0.0866 0.0867 0.0866 l 0.0867,0.849 h 0.0866 0.0866 0.0866 l 0.0866,0.84902 h 0.0867 0.0866 0.0867 l 0.0866,0.84903 h 0.0867 0.0866 0.0867 0.0866 0.0866 0.0867 0.0866 l 0.0867,0.84903 h 0.0866 0.0867 0.0866 l 0.0867,0.84902 h 0.0866 0.0866 0.0867 l 0.0866,0.849 h 0.0867 0.0866 0.0867 0.0866 0.0866 0.0866 0.0866 l 0.0867,0.84904 h 0.0866 0.0867 0.0866 l 0.0867,0.84903 h 0.0866 0.0866 0.0866 l 0.0866,0.84903 h 0.0866 0.0866 0.0867 0.0866 0.0867 0.0866 0.0866 l 0.0867,0.84903 h 0.0866 0.0866 0.0866 l 0.0867,0.849 h 0.0866 0.0867 0.0866 l 0.0866,0.84902 h 0.0867 0.0866 0.0867 0.0866 0.0867 0.0866 0.0867 l 0.0866,0.84903 h 0.0866 0.0866 0.0866 l 0.0867,0.84902 h 0.0866 0.0867 0.0866 l 0.0867,0.84904 h 0.0866 0.0866 0.0867 0.0866 0.0866 0.0866 0.0867 l 0.0866,0.849 h 0.0866 0.0867 0.0866 l 0.0867,0.84903 h 0.0866 0.0866 0.0866 l 0.0866,0.84903 h 0.0866 0.0866 0.0866 0.0866 0.0867 0.0866 0.0867 l 0.0866,0.84903 h 0.0866 0.0866 0.0866 l 0.0867,0.84903 h 0.0866 0.0867 0.0866 l 0.0867,0.849 h 0.0866 0.0867 0.0866 0.0866 0.0867 0.0866 0.0866 l 0.0866,0.84904 h 0.0867 0.0866 0.0867 l 0.0866,0.84902 h 0.0866 0.0867 0.0866 l 0.0867,0.84903 h 0.0866 0.0867 0.0866 0.0866 0.0866 0.0866 0.0867 l 0.0866,0.84903 h 0.0867 0.0866 0.0867 l 0.0866,0.849 h 0.0867 0.0866 0.0866 l 0.0867,0.84902 h 0.0866 0.0867 0.0866 0.0867 0.0866 0.0866 0.0867 l 0.0866,0.84904 h 0.0867 0.0866 0.0867 l 0.0866,0.84903 h 0.0866 0.0866 0.0866 l 0.0867,0.84903 h 0.0866 0.0867 0.0866 0.0867 0.0866 0.0866 0.0866 l 0.0866,0.849 h 0.0866 0.0866 0.0867 l 0.0866,0.84902 h 0.0867 0.0866 0.0867 l 0.0866,0.84903 h 0.0866 0.0866 0.0866 0.0867 0.0866 0.0867 0.0866 l 0.0867,0.84903 h 0.0866 0.0866 0.0867 l 0.0866,0.84902 h 0.0867 0.0866 0.0867 l 0.0866,0.849 h 0.0867 0.0866 0.0866 0.0867 0.0866 0.0867 0.0866 l 0.0867,0.84904 h 0.0866 0.0866 0.0867 l 0.0866,0.84903 h 0.0866 0.0866 0.0867 l 0.0866,0.84903 h 0.0867 0.0866 0.0866 0.0867 0.0866 0.0866 0.0866 l 0.0866,0.84903 h 0.0866 0.0867 0.0866 l 0.0866,0.849 h 0.0867 0.0866 0.0867 l 0.0866,0.84903 h 0.0866 0.0866 0.0867 0.0866 0.0866 0.0867 0.0866 l 0.0867,0.84904 h 0.0866 0.0867 0.0866 l 0.0867,0.84902 h 0.0866 0.0866 0.0866 l 0.0866,0.84903 h 0.0866 0.0866 0.0867 0.0866 0.0867 0.0866 0.0866 l 0.0867,0.849 h 0.0866 0.0867 0.0866 l 0.0866,0.84903 h 0.0866 0.0866 0.0867 l 0.0866,0.84902 h 0.0867 0.0866 0.0867 0.0866 0.0867 0.0866 0.0866 l 0.0867,0.84903 h 0.0866 0.0866 0.0866 l 0.0867,0.84903 h 0.0866 0.0867 0.0866 l 0.0866,0.849 h 0.0867 0.0866 0.0866 0.0866 0.0866 0.0866 0.0867 l 0.0866,0.84904 h 0.0866 0.0867 0.0866 l 0.0867,0.84902 h 0.0866 0.0866 0.0866 l 0.0867,0.84903 h 0.0866 0.0866 0.0867 0.0866 0.0867 0.0866 0.0867 l 0.0866,0.84903 h 0.0866 0.0866 0.0866 l 0.0867,0.849 h 0.0866 0.0867 0.0866 l 0.0867,0.84902 h 0.0866 0.0867 0.0866 0.0866 0.0867 0.0866 0.0867 l 0.0866,0.84904 h 0.0866 0.0866 0.0866 l 0.0867,0.84903 h 0.0866 0.0867 0.0866 l 0.0867,0.84903 h 0.0866 0.0866 0.0866 0.0866 0.0866 0.0866 0.0867 l 0.0866,0.849 h 0.0867 0.0866 0.0867 l 0.0866,0.84903 h 0.0866 0.0866 0.0866 l 0.0866,0.84903 h 0.0866 0.0867 0.0866 0.0867 0.0866 0.0866 0.0867 l 0.0866,0.84904 h 0.0866 0.0866 0.0867 l 0.0866,0.84902 h 0.0867 0.0866 0.0866 l 0.0867,0.84898 h 0.0866 0.0867 0.0866 0.0867 0.0866 0.0867 0.0866 l 0.0866,0.84904 h 0.0866 0.0866 0.0867 l 0.0866,0.84903 h 0.0867 0.0866 0.0866 l 0.0867,0.84903 h 0.0866 0.0867 0.0866 0.0866 0.0866 0.0867 0.0866 l 0.0866,0.84903 h 0.0867 0.0866 0.0867 l 0.0866,0.849 h 0.0867 0.0866 0.0866 l 0.0866,0.84903 h 0.0866 0.0866 0.0866 0.0867 0.0866 0.0867 0.0866 l 0.0866,0.84904 h 0.0866 0.0866 0.0866 l 0.0866,0.84902 h 0.0866 0.0866 0.0867 l 0.0866,0.84903 h 0.0867 0.0866 0.0866 0.0867 0.0866 0.0866 0.0866 l 0.0867,0.849 h 0.0866 0.0867 0.0866 l 0.0866,0.84903 h 0.0867 0.0866 0.0867 l 0.0866,0.84902 h 0.0866 0.0866 0.0866 0.0866 0.0866 0.0867 0.0866 l 0.0867,0.84904 h 0.0866 0.0867 0.0866 l 0.0866,0.84903 h 0.0867 0.0866 0.0867 l 0.0866,0.849 h 0.0866 0.0866 0.0867 0.0866 0.0866 0.0867 0.0866 l 0.0867,0.84903 h 0.0866 0.0866 0.0866 l 0.0866,0.84902 h 0.0866 0.0866 0.0867 l 0.0866,0.84903 h 0.0867 0.0866 0.0867 0.0866 0.0866 0.0866 0.0866 l 0.0867,0.84903 h 0.0866 0.0867 0.0866 l 0.0867,0.849 h 0.0866 0.0867 0.0866 l 0.0866,0.84902 h 0.0867 0.0866 0.0867 0.0866 0.0867 0.0866 0.0867 l 0.0866,0.84904 h 0.0866 0.0867 0.0866 l 0.0867,0.84903 h 0.0866 0.0867 0.0866 l 0.0866,0.84903 h 0.0866 0.0866 0.0867 0.0866 0.0867 0.0866 0.0867 l 0.0866,0.849 h 0.0866 0.0867 0.0866 l 0.0866,0.84903 h 0.0866 0.0867 0.0866 l 0.0867,0.84903 h 0.0866 0.0866 0.0867 0.0866 0.0867 0.0866 0.0867 l 0.0866,0.84904 h 0.0867 0.0866 0.0866 l 0.0867,0.84902 h 0.0866 0.0867 0.0866 l 0.0866,0.849 h 0.0866 0.0867 0.0866 0.0866 0.0866 0.0866 0.0867 l 0.0866,0.84903 h 0.0867 0.0866 0.0867 l 0.0866,0.84903 h 0.0866"
     fill-rule="nonzero"
     id="path39"
     style="display:inline;stroke:#0000a8;stroke-opacity:1"
     inkscape:label="Data" />
  <g
     id="g21704"
     inkscape:label="Guides"
     transform="translate(-0.54638386,-27.701524)">
    <path
       style="fill:none;stroke:#000000;stroke-width:2;stroke-linecap:butt;stroke-linejoin:miter;stroke-miterlimit:10;stroke-dasharray:2, 4;stroke-dashoffset:0;stroke-opacity:1"
       d="M 53.50183,32.003666 V 510.72202"
       id="path21130" />
    <path
       style="fill:none;stroke:#000000;stroke-width:2;stroke-linecap:butt;stroke-linejoin:miter;stroke-miterlimit:10;stroke-dasharray:2, 4;stroke-dashoffset:0;stroke-opacity:1"
       d="M 307.865,32.003666 V 510.72202"
       id="path21567" />
    <path
       style="fill:none;stroke:#000000;stroke-width:2;stroke-linecap:butt;stroke-linejoin:miter;stroke-miterlimit:10;stroke-dasharray:2, 4;stroke-dashoffset:0;stroke-opacity:1"
       d="M 366.64644,32.003666 V 510.72202"
       id="path21569" />
    <path
       style="fill:none;stroke:#000000;stroke-width:2;stroke-linecap:butt;stroke-linejoin:miter;stroke-miterlimit:10;stroke-dasharray:2, 4;stroke-dashoffset:0;stroke-opacity:1"
       d="M 626.79584,32.003666 V 510.72202"
       id="path21571" />
    <path
       style="fill:none;stroke:#000000;stroke-width:2;stroke-linecap:butt;stroke-linejoin:miter;stroke-miterlimit:10;stroke-dasharray:2, 4;stroke-dashoffset:0;stroke-opacity:1"
       d="M 803.21864,32.003666 V 510.72202"
       id="path21573" />
    <path
       style="fill:none;stroke:#000000;stroke-width:2;stroke-linecap:butt;stroke-linejoin:miter;stroke-miterlimit:10;stroke-dasharray:2, 4;stroke-dashoffset:0;stroke-opacity:1"
       d="M 697.41263,141.5 H 350.90138"
       id="path21655" />
  </g>
  <g
     id="g38753"
     inkscape:label="Arrows and Labels"
     transform="translate(-0.54638386,-27.701524)">
    <path
       style="fill:none;stroke:#000000;stroke-width:2;stroke-linecap:butt;stroke-linejoin:miter;stroke-miterlimit:10;stroke-dasharray:none;stroke-opacity:1;marker-start:url(#Arrow1Mstart);marker-end:url(#Arrow1Mend)"
       d="M 58.463768,488.90882 H 302.83266"
       id="path21861"
       sodipodi:nodetypes="cc" />
    <path
       style="fill:none;stroke:#000000;stroke-width:2;stroke-linecap:butt;stroke-linejoin:miter;stroke-miterlimit:10;stroke-dasharray:none;stroke-opacity:1;marker-start:url(#Arrow1Mstart);marker-end:url(#Arrow1Mend)"
       d="M 667.99029,136.51505 V 37.572034"
       id="path22219"
       sodipodi:nodetypes="cc" />
    <path
       style="fill:none;stroke:#000000;stroke-width:2.00001;stroke-linecap:butt;stroke-linejoin:miter;stroke-miterlimit:10;stroke-dasharray:none;stroke-opacity:1;marker-start:url(#Arrow1Mstart);marker-end:url(#Arrow1Mend)"
       d="m 312.83497,488.90882 h 48.79087"
       id="path22495"
       sodipodi:nodetypes="cc" />
    <path
       style="fill:none;stroke:#000000;stroke-width:2.00001;stroke-linecap:butt;stroke-linejoin:miter;stroke-miterlimit:10;stroke-dasharray:none;stroke-opacity:1;marker-start:url(#Arrow1Mstart);marker-end:url(#Arrow1Mend)"
       d="M 631.7252,488.90882 H 798.28474"
       id="path22710"
       sodipodi:nodetypes="cc" />
    <text
       xml:space="preserve"
       style="font-weight:bold;font-size:16px;line-height:1;font-family:roboto;-inkscape-font-specification:'roboto Bold';text-align:end;letter-spacing:0px;word-spacing:0px;text-anchor:end"
       x="671.98431"
       y="84.86776"
       id="text26005"><tspan
         sodipodi:role="line"
         id="tspan26003"
         x="671.98431"
         y="84.86776"
         style="font-size:16px;text-align:start;text-anchor:start;fill:#000000;fill-opacity:1">Sustain</tspan><tspan
         sodipodi:role="line"
         x="671.98431"
         y="100.86776"
         style="font-size:16px;text-align:start;text-anchor:start;fill:#000000;fill-opacity:1"
         id="tspan33481">Level</tspan></text>
    <text
       xml:space="preserve"
       style="font-weight:bold;font-size:16px;line-height:1;font-family:roboto;-inkscape-font-specification:'roboto Bold';text-align:center;letter-spacing:0px;word-spacing:0px;text-anchor:middle"
       x="180.8279"
       y="509.95367"
       id="text33743"><tspan
         sodipodi:role="line"
         x="180.8279"
         y="509.95367"
         style="font-size:16px;text-align:center;text-anchor:middle;fill:#000000;fill-opacity:1"
         id="tspan33741">Attack Rate</tspan></text>
    <text
       xml:space="preserve"
       style="font-weight:bold;font-size:16px;line-height:1;font-family:roboto;-inkscape-font-specification:'roboto Bold';text-align:center;letter-spacing:0px;word-spacing:0px;text-anchor:middle"
       x="336.73431"
       y="509.95367"
       id="text35811"><tspan
         sodipodi:role="line"
         x="336.73431"
         y="509.95367"
         style="font-size:16px;text-align:center;text-anchor:middle;fill:#000000;fill-opacity:1"
         id="tspan35809">Decay</tspan><tspan
         sodipodi:role="line"
         x="336.73431"
         y="525.95367"
         style="font-size:16px;text-align:center;text-anchor:middle;fill:#000000;fill-opacity:1"
         id="tspan36695">Rate</tspan></text>
    <text
       xml:space="preserve"
       style="font-weight:bold;font-size:16px;line-height:1;font-family:roboto;-inkscape-font-specification:'roboto Bold';text-align:center;letter-spacing:0px;word-spacing:0px;text-anchor:middle"
       x="714.70416"
       y="509.95367"
       id="text36949"><tspan
         sodipodi:role="line"
         x="714.70416"
         y="509.95367"
         style="font-size:16px;text-align:center;text-anchor:middle;fill:#000000;fill-opacity:1"
         id="tspan36947">Release Rate</tspan></text>
  </g>
  <text
     xml:space="preserve"
     style="font-weight:bold;font-size:16px;line-height:1.25;font-family:roboto;-inkscape-font-specification:'roboto Bold';text-align:end;letter-spacing:0px;word-spacing:0px;text-anchor:end"
     x="-140.83881"
     y="12.625"
     id="text39681"
     transform="rotate(-90)"
     inkscape:label="Y Title"><tspan
       sodipodi:role="line"
       id="tspan39679"
       x="-140.83881"
       y="12.625"
       style="font-size:16px;fill:#000000;fill-opacity:1">Attenuation (Decibels)</tspan></text>
  <text
     xml:space="preserve"
     style="font-weight:bold;font-size:21.3333px;line-height:1.25;font-family:roboto;-inkscape-font-specification:'roboto Bold';text-align:end;letter-spacing:0px;word-spacing:0px;text-anchor:end"
     x="642.62738"
     y="547.65393"
     id="text42757"
     inkscape:label="Caption"><tspan
       sodipodi:role="line"
       id="tspan42755"
       x="642.62738"
       y="547.65393"
       style="font-size:21.3333px;fill:#000000;fill-opacity:1">ADSR Parameters and Attenuation Characteristics</tspan></text>
</svg>
