<?xml version="1.0" encoding="UTF-8" standalone="no"?>
<svg
   version="1.1"
   viewBox="0 0 657.56091 467.30972"
   fill="none"
   stroke="none"
   stroke-linecap="square"
   stroke-miterlimit="10"
   width="657.56091"
   height="467.30972"
   id="svg589"
   sodipodi:docname="ksl-frequency-attenuation.svg"
   inkscape:version="1.1 (c68e22c387, 2021-05-23)"
   xmlns:inkscape="http://www.inkscape.org/namespaces/inkscape"
   xmlns:sodipodi="http://sodipodi.sourceforge.net/DTD/sodipodi-0.dtd"
   xmlns="http://www.w3.org/2000/svg"
   xmlns:svg="http://www.w3.org/2000/svg">
  <defs
     id="defs593" />
  <sodipodi:namedview
     id="namedview591"
     pagecolor="#ffffff"
     bordercolor="#666666"
     borderopacity="1.0"
     inkscape:pageshadow="2"
     inkscape:pageopacity="0.0"
     inkscape:pagecheckerboard="true"
     showgrid="false"
     showborder="true"
     inkscape:zoom="1.3698286"
     inkscape:cx="312.08284"
     inkscape:cy="251.85633"
     inkscape:window-width="1280"
     inkscape:window-height="962"
     inkscape:window-x="-8"
     inkscape:window-y="-8"
     inkscape:window-maximized="1"
     inkscape:current-layer="svg589"
     fit-margin-top="0"
     fit-margin-left="0"
     fit-margin-right="0"
     fit-margin-bottom="0" />
  <g
     id="g1667"
     inkscape:label="X Grid"
     transform="translate(-30.643227,-22.651247)">
    <path
       stroke="#333333"
       stroke-width="1"
       stroke-linecap="butt"
       d="m 82.5,30.5 v 364"
       fill-rule="nonzero"
       id="path4" />
    <path
       stroke="#cccccc"
       stroke-width="1"
       stroke-linecap="butt"
       d="m 220.5,30.5 v 364"
       fill-rule="nonzero"
       id="path6" />
    <path
       stroke="#cccccc"
       stroke-width="1"
       stroke-linecap="butt"
       d="m 359.5,30.5 v 364"
       fill-rule="nonzero"
       id="path8" />
    <path
       stroke="#cccccc"
       stroke-width="1"
       stroke-linecap="butt"
       d="m 497.5,30.5 v 364"
       fill-rule="nonzero"
       id="path10" />
    <path
       stroke="#cccccc"
       stroke-width="1"
       stroke-linecap="butt"
       d="m 636.5,30.5 v 364"
       fill-rule="nonzero"
       id="path12" />
    <path
       stroke="#e6e6e6"
       stroke-width="1"
       stroke-linecap="butt"
       d="m 117.5,30.5 v 364"
       fill-rule="nonzero"
       id="path14" />
    <path
       stroke="#e6e6e6"
       stroke-width="1"
       stroke-linecap="butt"
       d="m 151.5,30.5 v 364"
       fill-rule="nonzero"
       id="path16" />
    <path
       stroke="#e6e6e6"
       stroke-width="1"
       stroke-linecap="butt"
       d="m 186.5,30.5 v 364"
       fill-rule="nonzero"
       id="path18" />
    <path
       stroke="#e6e6e6"
       stroke-width="1"
       stroke-linecap="butt"
       d="m 255.5,30.5 v 364"
       fill-rule="nonzero"
       id="path20" />
    <path
       stroke="#e6e6e6"
       stroke-width="1"
       stroke-linecap="butt"
       d="m 290.5,30.5 v 364"
       fill-rule="nonzero"
       id="path22" />
    <path
       stroke="#e6e6e6"
       stroke-width="1"
       stroke-linecap="butt"
       d="m 324.5,30.5 v 364"
       fill-rule="nonzero"
       id="path24" />
    <path
       stroke="#e6e6e6"
       stroke-width="1"
       stroke-linecap="butt"
       d="m 394.5,30.5 v 364"
       fill-rule="nonzero"
       id="path26" />
    <path
       stroke="#e6e6e6"
       stroke-width="1"
       stroke-linecap="butt"
       d="m 428.5,30.5 v 364"
       fill-rule="nonzero"
       id="path28" />
    <path
       stroke="#e6e6e6"
       stroke-width="1"
       stroke-linecap="butt"
       d="m 463.5,30.5 v 364"
       fill-rule="nonzero"
       id="path30" />
    <path
       stroke="#e6e6e6"
       stroke-width="1"
       stroke-linecap="butt"
       d="m 532.5,30.5 v 364"
       fill-rule="nonzero"
       id="path32" />
    <path
       stroke="#e6e6e6"
       stroke-width="1"
       stroke-linecap="butt"
       d="m 567.5,30.5 v 364"
       fill-rule="nonzero"
       id="path34" />
    <path
       stroke="#e6e6e6"
       stroke-width="1"
       stroke-linecap="butt"
       d="m 601.5,30.5 v 364"
       fill-rule="nonzero"
       id="path36" />
  </g>
  <g
     id="g1712"
     inkscape:label="Y Grid"
     transform="translate(-30.643227,-22.651247)">
    <path
       stroke="#cccccc"
       stroke-width="1"
       stroke-linecap="butt"
       d="m 82.5,394.5 h 554"
       fill-rule="nonzero"
       id="path38" />
    <path
       stroke="#cccccc"
       stroke-width="1"
       stroke-linecap="butt"
       d="m 82.5,342.5 h 554"
       fill-rule="nonzero"
       id="path40" />
    <path
       stroke="#cccccc"
       stroke-width="1"
       stroke-linecap="butt"
       d="m 82.5,290.5 h 554"
       fill-rule="nonzero"
       id="path42" />
    <path
       stroke="#cccccc"
       stroke-width="1"
       stroke-linecap="butt"
       d="m 82.5,238.5 h 554"
       fill-rule="nonzero"
       id="path44" />
    <path
       stroke="#cccccc"
       stroke-width="1"
       stroke-linecap="butt"
       d="m 82.5,186.5 h 554"
       fill-rule="nonzero"
       id="path46" />
    <path
       stroke="#cccccc"
       stroke-width="1"
       stroke-linecap="butt"
       d="m 82.5,134.5 h 554"
       fill-rule="nonzero"
       id="path48" />
    <path
       stroke="#cccccc"
       stroke-width="1"
       stroke-linecap="butt"
       d="m 82.5,82.5 h 554"
       fill-rule="nonzero"
       id="path50" />
    <path
       stroke="#333333"
       stroke-width="1"
       stroke-linecap="butt"
       d="m 82.5,30.5 h 554"
       fill-rule="nonzero"
       id="path52" />
    <path
       stroke="#e6e6e6"
       stroke-width="1"
       stroke-linecap="butt"
       d="m 82.5,385.5 h 554"
       fill-rule="nonzero"
       id="path54" />
    <path
       stroke="#e6e6e6"
       stroke-width="1"
       stroke-linecap="butt"
       d="m 82.5,377.5 h 554"
       fill-rule="nonzero"
       id="path56" />
    <path
       stroke="#e6e6e6"
       stroke-width="1"
       stroke-linecap="butt"
       d="m 82.5,368.5 h 554"
       fill-rule="nonzero"
       id="path58" />
    <path
       stroke="#e6e6e6"
       stroke-width="1"
       stroke-linecap="butt"
       d="m 82.5,359.5 h 554"
       fill-rule="nonzero"
       id="path60" />
    <path
       stroke="#e6e6e6"
       stroke-width="1"
       stroke-linecap="butt"
       d="m 82.5,351.5 h 554"
       fill-rule="nonzero"
       id="path62" />
    <path
       stroke="#e6e6e6"
       stroke-width="1"
       stroke-linecap="butt"
       d="m 82.5,333.5 h 554"
       fill-rule="nonzero"
       id="path64" />
    <path
       stroke="#e6e6e6"
       stroke-width="1"
       stroke-linecap="butt"
       d="m 82.5,325.5 h 554"
       fill-rule="nonzero"
       id="path66" />
    <path
       stroke="#e6e6e6"
       stroke-width="1"
       stroke-linecap="butt"
       d="m 82.5,316.5 h 554"
       fill-rule="nonzero"
       id="path68" />
    <path
       stroke="#e6e6e6"
       stroke-width="1"
       stroke-linecap="butt"
       d="m 82.5,307.5 h 554"
       fill-rule="nonzero"
       id="path70" />
    <path
       stroke="#e6e6e6"
       stroke-width="1"
       stroke-linecap="butt"
       d="m 82.5,299.5 h 554"
       fill-rule="nonzero"
       id="path72" />
    <path
       stroke="#e6e6e6"
       stroke-width="1"
       stroke-linecap="butt"
       d="m 82.5,281.5 h 554"
       fill-rule="nonzero"
       id="path74" />
    <path
       stroke="#e6e6e6"
       stroke-width="1"
       stroke-linecap="butt"
       d="m 82.5,273.5 h 554"
       fill-rule="nonzero"
       id="path76" />
    <path
       stroke="#e6e6e6"
       stroke-width="1"
       stroke-linecap="butt"
       d="m 82.5,264.5 h 554"
       fill-rule="nonzero"
       id="path78" />
    <path
       stroke="#e6e6e6"
       stroke-width="1"
       stroke-linecap="butt"
       d="m 82.5,255.5 h 554"
       fill-rule="nonzero"
       id="path80" />
    <path
       stroke="#e6e6e6"
       stroke-width="1"
       stroke-linecap="butt"
       d="m 82.5,247.5 h 554"
       fill-rule="nonzero"
       id="path82" />
    <path
       stroke="#e6e6e6"
       stroke-width="1"
       stroke-linecap="butt"
       d="m 82.5,229.5 h 554"
       fill-rule="nonzero"
       id="path84" />
    <path
       stroke="#e6e6e6"
       stroke-width="1"
       stroke-linecap="butt"
       d="m 82.5,221.5 h 554"
       fill-rule="nonzero"
       id="path86" />
    <path
       stroke="#e6e6e6"
       stroke-width="1"
       stroke-linecap="butt"
       d="m 82.5,212.5 h 554"
       fill-rule="nonzero"
       id="path88" />
    <path
       stroke="#e6e6e6"
       stroke-width="1"
       stroke-linecap="butt"
       d="m 82.5,203.5 h 554"
       fill-rule="nonzero"
       id="path90" />
    <path
       stroke="#e6e6e6"
       stroke-width="1"
       stroke-linecap="butt"
       d="m 82.5,195.5 h 554"
       fill-rule="nonzero"
       id="path92" />
    <path
       stroke="#e6e6e6"
       stroke-width="1"
       stroke-linecap="butt"
       d="m 82.5,177.5 h 554"
       fill-rule="nonzero"
       id="path94" />
    <path
       stroke="#e6e6e6"
       stroke-width="1"
       stroke-linecap="butt"
       d="m 82.5,169.5 h 554"
       fill-rule="nonzero"
       id="path96" />
    <path
       stroke="#e6e6e6"
       stroke-width="1"
       stroke-linecap="butt"
       d="m 82.5,160.5 h 554"
       fill-rule="nonzero"
       id="path98" />
    <path
       stroke="#e6e6e6"
       stroke-width="1"
       stroke-linecap="butt"
       d="m 82.5,151.5 h 554"
       fill-rule="nonzero"
       id="path100" />
    <path
       stroke="#e6e6e6"
       stroke-width="1"
       stroke-linecap="butt"
       d="m 82.5,143.5 h 554"
       fill-rule="nonzero"
       id="path102" />
    <path
       stroke="#e6e6e6"
       stroke-width="1"
       stroke-linecap="butt"
       d="m 82.5,125.5 h 554"
       fill-rule="nonzero"
       id="path104" />
    <path
       stroke="#e6e6e6"
       stroke-width="1"
       stroke-linecap="butt"
       d="m 82.5,117.5 h 554"
       fill-rule="nonzero"
       id="path106" />
    <path
       stroke="#e6e6e6"
       stroke-width="1"
       stroke-linecap="butt"
       d="m 82.5,108.5 h 554"
       fill-rule="nonzero"
       id="path108" />
    <path
       stroke="#e6e6e6"
       stroke-width="1"
       stroke-linecap="butt"
       d="m 82.5,99.5 h 554"
       fill-rule="nonzero"
       id="path110" />
    <path
       stroke="#e6e6e6"
       stroke-width="1"
       stroke-linecap="butt"
       d="m 82.5,91.5 h 554"
       fill-rule="nonzero"
       id="path112" />
    <path
       stroke="#e6e6e6"
       stroke-width="1"
       stroke-linecap="butt"
       d="m 82.5,73.5 h 554"
       fill-rule="nonzero"
       id="path114" />
    <path
       stroke="#e6e6e6"
       stroke-width="1"
       stroke-linecap="butt"
       d="m 82.5,65.5 h 554"
       fill-rule="nonzero"
       id="path116" />
    <path
       stroke="#e6e6e6"
       stroke-width="1"
       stroke-linecap="butt"
       d="m 82.5,56.5 h 554"
       fill-rule="nonzero"
       id="path118" />
    <path
       stroke="#e6e6e6"
       stroke-width="1"
       stroke-linecap="butt"
       d="m 82.5,47.5 h 554"
       fill-rule="nonzero"
       id="path120" />
    <path
       stroke="#e6e6e6"
       stroke-width="1"
       stroke-linecap="butt"
       d="m 82.5,39.5 h 554"
       fill-rule="nonzero"
       id="path122" />
  </g>
  <clipPath
     id="id_0">
    <path
       d="m 82.5,30.5 h 553.8 v 364 H 82.5 Z"
       clip-rule="nonzero"
       id="path124" />
  </clipPath>
  <g
     id="g1722"
     inkscape:label="Data"
     transform="translate(-30.643227,-22.651247)">
    <path
       stroke="#4285f4"
       stroke-width="2"
       stroke-linecap="butt"
       d="m 82.5,30.5 h 0.54082 0.54082 0.54082 0.540824 0.540816 0.54082 0.54082 0.54082 0.540826 0.540814 0.54082 0.540825 0.540815 0.54083 0.540815 0.540815 0.54083 0.540814 0.540826 0.54082 0.54081 0.54083 0.540816 0.540824 0.54082 0.540815 0.540825 0.54082 0.54082 0.54082 0.54082 0.54082 0.54082 0.54082 0.54082 0.54082 0.54082 0.54082 0.54082 0.54082 0.54082 0.54083 0.54081 0.54083 0.54081 0.54082 0.54083 0.54081 0.54083 0.54082 0.54081 0.54083 0.54082 0.54082 0.54082 0.54081 0.54083 0.54082 0.54082 0.54082 0.54082 0.54082 0.54082 0.54082 0.54082 0.54082 0.54082 0.54082 0.54082 0.54082 0.54082 0.54082 0.54082 0.54083 0.54081 0.54082 0.54083 0.54081 0.54083 0.54082 0.54081 0.54083 0.54081 0.54083 0.54082 0.54081 0.54082 0.54084 0.54081 0.54082 0.54082 0.54081 0.54084 0.54081 0.54082 0.54082 0.54081 0.54084 0.54081 0.54082 0.54082 0.54082 0.54083 0.54082 0.54081 0.54082 0.54082 0.54083 0.54082 0.54081 0.54082 0.54082 0.54083 0.54082 0.54082 0.54081 0.54082 0.54083 0.54082 0.54082 0.54081 0.54082 0.54083 0.54082 0.54082 0.54082 0.54081 0.54083 0.54082 0.54082 0.54082 0.54082 0.54083 0.54081 0.54082 0.54082 0.54082 0.54083 0.54082 0.54081 0.54082 0.54082 0.54083 0.54082 0.54082 0.54081 0.54082 0.54083 0.54082 0.54082 0.54081 0.54082 0.54083 0.54082 0.54082 0.54082 0.54081 0.54084 0.54081 0.54082 0.54082 0.54081 0.54084 0.54081 0.54082 0.54082 0.54082 0.54083 0.54082 0.54081 0.54082 0.54082 0.54083 0.54082 0.54081 0.54082 0.54082 0.54083 0.54082 0.54082 0.54081 0.54082 0.54083 0.54082 0.54082 0.54082 0.54081 0.54083 0.54082 0.54082 0.54082 0.54082 0.54083 0.54081 0.54082 0.54082 0.54082 0.54083 0.54082 0.54081 0.54082 0.54082 0.54083 0.54082 0.54081 0.54082 0.54082 0.54083 0.54082 0.54082 0.54081 0.54082 0.54083 0.54082 0.54082 0.54081 0.54082 0.54083 0.54082 0.54082 0.54082 0.54081 0.54084 0.54081 0.54082 0.54082 0.54081 0.54084 0.54081 0.54082 0.54082 0.54081 0.54084 0.54082 0.54081 0.54082 0.54082 0.54083 0.54082 0.54082 0.54081 0.54082 0.54083 0.54082 0.54082 0.54082 0.54081 0.54083 0.54082 0.54082 0.54082 0.54081 0.54084 0.54081 0.54082 0.54082 0.54081 0.54084 0.54081 0.54082 0.54082 0.54082 0.54083 0.54082 0.54081 0.54082 0.54082 0.54083 0.54082 0.54081 0.54082 0.54082 0.54083 0.54082 0.54082 0.54081 0.54082 0.54083 0.54082 0.54082 0.54081 0.54082 0.54083 0.54082 0.54082 0.54081 0.54082 0.54084 0.54081 0.54082 0.54082 0.54082 0.54083 0.54081 0.54082 0.54082 0.54082 0.54083 0.54082 0.54082 0.54081 0.54082 0.54083 0.54082 0.54082 0.54081 0.54082 0.54083 0.54082 0.54082 0.54081 0.54082 0.54083 0.54082 0.54082 0.54082 0.54081 0.54084 0.54081 0.54082 0.54083 0.5408 0.54084 0.5408 0.54083 0.54083 0.54081 0.54083 0.5408 0.54083 0.54084 0.5408 0.54083 0.5408 0.54083 0.54084 0.5408 0.54083 0.5408 0.54083 0.54084 0.5408 0.54083 0.54081 0.54082 0.54084 0.5408 0.54083 0.54081 0.54082 0.54084 0.5408 0.54084 0.5408 0.54082 0.54084 0.54081 0.54083 0.5408 0.54082 0.54085 0.5408 0.54083 0.5408 0.54082 0.54085 0.5408 0.54083 0.5408 0.54084 0.54083 0.5408 0.54083 0.5408 0.54084 0.54083 0.5408 0.54083 0.54082 0.54082 0.54083 0.5408 0.54085 0.5408 0.54082 0.54083 0.5408 0.54085 0.5408 0.54082 0.54083 0.54081 0.54084 0.5408 0.54082 0.54084 0.5408 0.54084 0.5408 0.54082 0.54084 0.5408 0.54084 0.5408 0.54083 0.54083 0.5408 0.54084 0.5408 0.54083 0.54083 0.5408 0.54084 0.5408 0.54083 0.54083 0.5408 0.54084 0.5408 0.54083 0.54083 0.54081 0.54083 0.5408 0.54083 0.54084 0.5408 0.54083 0.5408 0.54083 0.54084 0.5408 0.54083 0.5408 0.54084 0.54083 0.5408 0.54083 0.5408 0.54084 0.54083 0.5408 0.54083 0.5408 0.54084 0.54083 0.5408 0.54083 0.5408 0.54084 0.54083 0.54081 0.54082 0.5408 0.54084 0.54083 0.54081 0.54082 0.5408 0.54084 0.54084 0.5408 0.54082 0.5408 0.54085 0.54083 0.5408 0.54082 0.5408 0.54085 0.54083 0.5408 0.54082 0.54082 0.54083 0.54083 0.5408 0.54084 0.5408 0.54083 0.54083 0.5408 0.54084 0.5408 0.54083 0.54083 0.54082 0.54082 0.5408 0.54083 0.54085 0.5408 0.54082 0.5408 0.54083 0.54085 0.5408 0.54082 0.5408 0.54084 0.54084 0.5408 0.54082 0.54081 0.54083 0.54084 0.5408 0.54082 0.54081 0.54083 0.54084 0.5408 0.54083 0.5408 0.54083 0.54084 0.5408 0.54083 0.5408 0.54083 0.54084 0.5408 0.54083 0.5408 0.54083 0.54084 0.5408 0.54083 0.5408 0.54084 0.54083 0.5408 0.54083 0.5408 0.54084 0.54083 0.5408 0.54083 0.54081 0.54083 0.54083 0.5408 0.54084 0.5408 0.54083 0.54083 0.5408 0.54084 0.5408 0.54083 0.54083 0.5408 0.54084 0.5408 0.54083 0.54083 0.5408 0.54084 0.5408 0.54084 0.54082 0.5408 0.54084 0.5408 0.54084 0.54082 0.5408 0.54084 0.54081 0.54083 0.54082 0.5408 0.54085 0.5408 0.54083 0.54082 0.5408 0.54085 0.5408 0.54083 0.54082 0.54082 0.54083 0.5408 0.54083 0.54084 0.5408 0.54083 0.5408 0.54083 0.54084 0.5408 0.54083 0.5408 0.54085 0.54082 0.5408 0.54083 0.5408 0.54085 0.54082 0.5408 0.54083 0.54081 0.54084 0.54082 0.5408 0.54084 0.5408 0.54084 0.54082 0.54081 0.54083 0.5408 0.54084 0.54082 0.54081 0.54083 0.5408 0.54084 0.54083 0.5408 0.54083 0.5408 0.54084 0.54083 0.5408 0.54083 0.5408 0.54084 0.54083 0.5408 0.54083 0.54081 0.54083 0.54083 0.5408 0.54084 0.5408 0.54083 0.54083 0.5408 0.54084 0.5408 0.54083 0.54083 0.54081 0.54083 0.5408 0.54083 0.54084 0.5408 0.54083 0.5408 0.54083 0.54084 0.5408 0.54083 0.5408 0.54083 0.54084 0.5408 0.54083 0.54081 0.54082 0.54084 0.5408 0.54083 0.54081 0.54082 0.54084 0.5408 0.54084 0.5408 0.54082 0.54084 0.54081 0.54083 0.5408 0.54082 0.54085 0.5408 0.54083 0.5408 0.54082 0.54085 0.5408 0.54083 0.5408 0.54084 0.54083 0.5408 0.54083 0.5408 0.54084 0.54083 0.5408 0.54083 0.54082 0.54082 0.54083 0.5408 0.54085 0.5408 0.54082 0.54083 0.5408 0.54085 0.5408 0.54082 0.54083 0.54081 0.54084 0.5408 0.54082 0.54084 0.5408 0.54084 0.5408 0.54082 0.54084 0.5408 0.54084 0.5408 0.54083 0.54083 0.5408 0.54084 0.5408 0.54083 0.54083 0.5408 0.54084 0.5408 0.54083 0.54083 0.5408 0.54084 0.5408 0.54083 0.54083 0.54081 0.54083 0.5408 0.54083 0.54084 0.5408 0.54083 0.5408 0.54083 0.54084 0.5408 0.54083 0.5408 0.54084 0.54083 0.5408 0.54083 0.5408 0.54084 0.54083 0.5408 0.54083 0.5408 0.54084 0.54083 0.5408 0.54083 0.5408 0.54084 0.54083 0.54081 0.54082 0.5408 0.54084 0.54083 0.54081 0.54082 0.5408 0.54084 0.54084 0.5408 0.54082 0.5408 0.54085 0.54083 0.5408 0.54082 0.5408 0.54085 0.54083 0.5408 0.54082 0.54082 0.54083 0.54085 0.5408 0.5408 0.5408 0.54085 0.54085 0.5408 0.5408 0.5408 0.54085 0.54085 0.5408 0.5408 0.5408 0.54085 0.54085 0.5408 0.5408 0.5408 0.54085 0.54085 0.5408 0.5408 0.5408 0.54086 0.54084 0.5408 0.5408 0.5408 0.54086 0.54084 0.5408 0.5408 0.5408 0.54086 0.54084 0.5408 0.5408 0.5408 0.54086 0.54084 0.5408 0.5408 0.5408 0.54086 0.54084 0.5408 0.5408 0.54083 0.54083 0.54084 0.5408 0.5408 0.54083 0.54084 0.54083 0.54083 0.54077 0.54083 0.54084 0.54083 0.54083 0.54077 0.54084 0.54083 0.54083 0.54083 0.54077 0.54084 0.54086 0.5408 0.54084 0.54076 0.54084 0.54086 0.5408 0.54084 0.54076 0.54084 0.54086 0.5408 0.54084 0.54076 0.54084 0.54086 0.5408 0.54084 0.54076 0.54084 0.54086 0.5408 0.54084 0.54076 0.54085 0.54085 0.5408 0.54084 0.54076 0.54085 0.54085 0.5408 0.54084 0.54076 0.54085 0.54085 0.5408 0.54085 0.54075 0.54085 0.54085 0.5408 0.54085 0.54075 0.54085 0.54085 0.5408 0.54085 0.54075 0.54085 0.54085 0.5408 0.54085 0.54075 0.54085 0.54085 0.5408 0.54085 0.54075 0.54086 0.54084 0.5408 0.54085 0.54075 0.54086 0.54084 0.5408 0.54086 0.54074 0.54086 0.54084 0.5408 0.54086 0.54074 0.54086 0.54084 0.5408 0.54086 0.54074 0.54086 0.54084 0.5408 0.54086 0.54077 0.54083 0.54084 0.5408 0.54086 0.54077 0.54084 0.54083 0.54083 0.54083 0.54077 0.54084 0.54083 0.54083 0.54084 0.54077 0.54083 0.54083 0.54083 0.54084 0.54077 0.54086 0.5408 0.54084 0.54083 0.54077 0.54086 0.5408 0.54084 0.54086 0.54074 0.54086 0.5408 0.54084 0.54086 0.54074 0.54086 0.5408 0.54084 0.54086 0.54074 0.54086 0.5408 0.54084 0.54086 0.54075 0.54085 0.5408 0.54084 0.54086 0.54075 0.54085 0.5408 0.54085 0.54085 0.54075 0.54085 0.5408 0.54085 0.54085 0.54075 0.54085 0.5408 0.54085 0.54085 0.54075 0.54085 0.5408 0.54085 0.54085 0.54075 0.54085 0.5408 0.54085 0.54085 0.54076"
       fill-rule="nonzero"
       id="path127"
       style="stroke:#a8007e;stroke-opacity:1" />
    <path
       stroke="#ea4335"
       stroke-width="2"
       stroke-linecap="butt"
       d="m 82.5,30.5 h 0.54082 0.54082 0.54082 0.540824 0.540816 0.54082 0.54082 0.54082 0.540826 0.540814 0.54082 0.540825 0.540815 0.54083 0.540815 0.540815 0.54083 0.540814 0.540826 0.54082 0.54081 0.54083 0.540816 0.540824 0.54082 0.540815 0.540825 0.54082 0.54082 0.54082 0.54082 0.54082 0.54082 0.54082 0.54082 0.54082 0.54082 0.54082 0.54082 0.54082 0.54082 0.54083 0.54081 0.54083 0.54081 0.54082 0.54083 0.54081 0.54083 0.54082 0.54081 0.54083 0.54082 0.54082 0.54082 0.54081 0.54083 0.54082 0.54082 0.54082 0.54082 0.54082 0.54082 0.54082 0.54082 0.54082 0.54082 0.54082 0.54082 0.54082 0.54082 0.54082 0.54082 0.54083 0.54081 0.54082 0.54083 0.54081 0.54083 0.54082 0.54081 0.54083 0.54081 0.54083 0.54082 0.54081 0.54082 0.54084 0.54081 0.54082 0.54082 0.54081 0.54084 0.54081 0.54082 0.54082 0.54081 0.54084 0.54081 0.54082 0.54082 0.54082 0.54083 0.54082 0.54081 0.54082 0.54082 0.54083 0.54082 0.54081 0.54082 0.54082 0.54083 0.54082 0.54082 0.54081 0.54082 0.54083 0.54082 0.54082 0.54081 0.54082 0.54083 0.54082 0.54082 0.54082 0.54081 0.54083 0.54082 0.54082 0.54082 0.54082 0.54083 0.54081 0.54082 0.54082 0.54082 0.54083 0.54082 0.54081 0.54082 0.54082 0.54083 0.54082 0.54082 0.54081 0.54082 0.54083 0.54082 0.54082 0.54081 0.54082 0.54083 0.54082 0.54082 0.54082 0.54081 0.54084 0.54081 0.54082 0.54082 0.54081 0.54084 0.54081 0.54082 0.54082 0.54082 0.54083 0.54082 0.54081 0.54082 0.54082 0.54083 0.54082 0.54081 0.54082 0.54082 0.54083 0.54082 0.54082 0.54081 0.54082 0.54083 0.54082 0.54082 0.54082 0.54081 0.54083 0.54082 0.54082 0.54082 0.54082 0.54083 0.54081 0.54082 0.54082 0.54082 0.54083 0.54082 0.54081 0.54082 0.54082 0.54083 0.54082 0.54081 0.54082 0.54082 0.54083 0.54082 0.54082 0.54081 0.54082 0.54083 0.54082 0.54082 0.54081 0.54082 0.54083 0.54082 0.54082 0.54082 0.54081 0.54084 0.54081 0.54082 0.54082 0.54081 0.54084 0.54081 0.54082 0.54082 0.54081 0.54084 0.54082 0.54081 0.54082 0.54082 0.54083 0.54082 0.54082 0.54081 0.54082 0.54083 0.54082 0.54082 0.54082 0.54081 0.54083 0.54082 0.54082 0.54082 0.54081 0.54084 0.54081 0.54082 0.54082 0.54081 0.54084 0.54081 0.54082 0.54082 0.54082 0.54083 0.54082 0.54081 0.54082 0.54082 0.54083 0.54082 0.54081 0.54082 0.54082 0.54083 0.54082 0.54082 0.54081 0.54082 0.54083 0.54082 0.54082 0.54081 0.54082 0.54083 0.54082 0.54082 0.54081 0.54082 0.54084 0.54081 0.54082 0.54082 0.54082 0.54083 0.54081 0.54082 0.54082 0.54082 0.54083 0.54082 0.54082 0.54081 0.54082 0.54083 0.54082 0.54082 0.54081 0.54082 0.54083 0.54082 0.54082 0.54081 0.54082 0.54083 0.54082 0.54082 0.54082 0.54081 0.54084 0.54081 0.54082 0.54083 0.5408 0.54084 0.5408 0.54083 0.54083 0.54081 0.54083 0.5408 0.54083 0.54084 0.5408 0.54083 0.5408 0.54083 0.54084 0.5408 0.54083 0.5408 0.54083 0.54084 0.5408 0.54083 0.54081 0.54082 0.54084 0.5408 0.54083 0.54081 0.54082 0.54084 0.5408 0.54084 0.5408 0.54082 0.54084 0.54081 0.54083 0.5408 0.54082 0.54085 0.5408 0.54083 0.5408 0.54082 0.54085 0.5408 0.54083 0.5408 0.54084 0.54083 0.5408 0.54083 0.5408 0.54084 0.54083 0.5408 0.54083 0.54082 0.54082 0.54083 0.5408 0.54085 0.5408 0.54082 0.54083 0.5408 0.54085 0.5408 0.54082 0.54083 0.54081 0.54084 0.5408 0.54082 0.54084 0.5408 0.54084 0.5408 0.54082 0.54084 0.5408 0.54084 0.5408 0.54083 0.54083 0.5408 0.54084 0.5408 0.54083 0.54083 0.5408 0.54084 0.5408 0.54083 0.54083 0.5408 0.54084 0.5408 0.54083 0.54083 0.54081 0.54083 0.5408 0.54083 0.54084 0.5408 0.54083 0.5408 0.54083 0.54084 0.5408 0.54083 0.5408 0.54084 0.54083 0.5408 0.54083 0.5408 0.54084 0.54083 0.5408 0.54083 0.5408 0.54084 0.54083 0.5408 0.54083 0.5408 0.54084 0.54083 0.54081 0.54082 0.5408 0.54084 0.54083 0.54081 0.54082 0.5408 0.54084 0.54084 0.5408 0.54082 0.5408 0.54085 0.54083 0.5408 0.54082 0.5408 0.54085 0.54083 0.5408 0.54082 0.54082 0.54083 0.54083 0.5408 0.54084 0.5408 0.54083 0.54083 0.5408 0.54084 0.5408 0.54083 0.54083 0.54082 0.54082 0.5408 0.54083 0.54085 0.5408 0.54082 0.5408 0.54083 0.54085 0.5408 0.54082 0.5408 0.54084 0.54084 0.5408 0.54082 0.54081 0.54083 0.54084 0.5408 0.54082 0.54081 0.54083 0.54084 0.5408 0.54083 0.5408 0.54083 0.54084 0.5408 0.54083 0.5408 0.54083 0.54084 0.5408 0.54083 0.5408 0.54083 0.54084 0.5408 0.54083 0.5408 0.54084 0.54083 0.5408 0.54083 0.5408 0.54084 0.54083 0.5408 0.54083 0.54081 0.54083 0.54083 0.5408 0.54084 0.5408 0.54083 0.54083 0.5408 0.54084 0.5408 0.54083 0.54083 0.5408 0.54084 0.5408 0.54083 0.54083 0.5408 0.54084 0.5408 0.54084 0.54082 0.5408 0.54084 0.5408 0.54084 0.54082 0.5408 0.54084 0.54081 0.54083 0.54082 0.5408 0.54085 0.5408 0.54083 l 0.54082,13 h 0.5408 0.54085 0.5408 0.54083 0.54082 0.54082 0.54083 0.5408 0.54083 0.54084 0.5408 0.54083 0.5408 0.54083 0.54084 0.5408 0.54083 0.5408 0.54085 0.54082 0.5408 0.54083 0.5408 0.54085 0.54082 0.5408 0.54083 0.54081 0.54084 0.54082 0.5408 0.54084 0.5408 0.54084 0.54082 0.54081 0.54083 0.5408 0.54084 0.54082 0.54081 0.54083 0.5408 0.54084 0.54083 0.5408 0.54083 0.5408 0.54084 0.54083 0.5408 0.54083 0.5408 0.54084 0.54083 0.5408 0.54083 0.54081 0.54083 0.54083 0.5408 0.54084 0.5408 L 428.625,50 h 0.54083 0.5408 0.54084 0.5408 0.54083 0.54083 0.54081 0.54083 0.5408 0.54083 0.54084 0.5408 0.54083 0.5408 0.54083 0.54084 0.5408 0.54083 0.5408 0.54083 0.54084 0.5408 0.54083 0.54081 0.54082 0.54084 0.5408 0.54083 0.54081 0.54082 0.54084 0.5408 0.54084 0.5408 0.54082 0.54084 0.54081 0.54083 0.5408 0.54082 0.54085 0.5408 0.54083 0.5408 0.54082 0.54085 0.5408 0.54083 0.5408 0.54084 0.54083 0.5408 0.54083 0.5408 0.54084 0.54083 0.5408 0.54083 0.54082 0.54082 0.54083 0.5408 0.54085 l 0.5408,6.5 h 0.54082 0.54083 0.5408 0.54085 0.5408 0.54082 0.54083 0.54081 0.54084 0.5408 0.54082 0.54084 0.5408 0.54084 0.5408 0.54082 0.54084 0.5408 0.54084 0.5408 0.54083 0.54083 0.5408 0.54084 0.5408 0.54083 0.54083 0.5408 0.54084 0.5408 0.54083 0.54083 0.5408 0.54084 0.5408 0.54083 0.54083 0.54081 0.54083 0.5408 0.54083 0.54084 0.5408 0.54083 0.5408 0.54083 0.54084 0.5408 0.54083 0.5408 0.54084 0.54083 0.5408 0.54083 0.5408 0.54084 0.54083 0.5408 0.54083 0.5408 0.54084 0.54083 0.5408 L 497.85,63 h 0.5408 0.54084 0.54083 0.54081 0.54082 0.5408 0.54084 0.54083 0.54081 0.54082 0.5408 0.54084 0.54084 0.5408 0.54082 0.5408 0.54085 0.54083 0.5408 0.54082 0.5408 0.54085 0.54083 0.5408 0.54082 0.54082 0.54083 0.54085 0.5408 0.5408 0.5408 0.54085 0.54085 0.5408 0.5408 0.5408 0.54085 0.54085 0.5408 0.5408 0.5408 0.54085 0.54085 0.5408 0.5408 0.5408 0.54085 0.54085 0.5408 0.5408 0.5408 0.54086 0.54084 0.5408 0.5408 0.5408 0.54086 0.54084 0.5408 0.5408 0.5408 0.54086 0.54084 l 0.5408,6.5 h 0.5408 0.5408 0.54086 0.54084 0.5408 0.5408 0.5408 0.54086 0.54084 0.5408 0.5408 0.54083 0.54083 0.54084 0.5408 0.5408 0.54083 0.54084 0.54083 0.54083 0.54077 0.54083 0.54084 0.54083 0.54083 0.54077 0.54084 0.54083 0.54083 0.54083 0.54077 0.54084 0.54086 0.5408 0.54084 0.54076 0.54084 0.54086 0.5408 0.54084 0.54076 0.54084 0.54086 0.5408 0.54084 0.54076 0.54084 0.54086 0.5408 0.54084 0.54076 0.54084 0.54086 0.5408 0.54084 0.54076 0.54085 0.54085 0.5408 0.54084 0.54076 0.54085 0.54085 l 0.5408,6.5 h 0.54084 0.54076 0.54085 0.54085 0.5408 0.54085 0.54075 0.54085 0.54085 0.5408 0.54085 0.54075 0.54085 0.54085 0.5408 0.54085 0.54075 0.54085 0.54085 0.5408 0.54085 0.54075 0.54085 0.54085 0.5408 0.54085 0.54075 0.54086 0.54084 0.5408 0.54085 0.54075 0.54086 0.54084 0.5408 0.54086 0.54074 0.54086 0.54084 0.5408 0.54086 0.54074 0.54086 0.54084 0.5408 0.54086 0.54074 0.54086 0.54084 0.5408 0.54086 0.54077 0.54083 0.54084 0.5408 0.54086 0.54077 0.54084 0.54083 0.54083 0.54083 0.54077 0.54084 l 0.54083,6.5 h 0.54083 0.54084 0.54077 0.54083 0.54083 0.54083 0.54084 0.54077 0.54086 0.5408 0.54084 0.54083 0.54077 0.54086 0.5408 0.54084 0.54086 0.54074 0.54086 0.5408 0.54084 0.54086 0.54074 0.54086 0.5408 0.54084 0.54086 0.54074 0.54086 0.5408 0.54084 0.54086 0.54075 0.54085 0.5408 0.54084 0.54086 0.54075 0.54085 0.5408 0.54085 0.54085 0.54075 0.54085 0.5408 0.54085 0.54085 0.54075 0.54085 0.5408 0.54085 0.54085 0.54075 0.54085 0.5408 0.54085 0.54085 0.54075 0.54085 0.5408 0.54085 0.54085 0.54076"
       fill-rule="nonzero"
       id="path129"
       style="stroke:#5400a8;stroke-opacity:1" />
    <path
       stroke="#fbbc04"
       stroke-width="2"
       stroke-linecap="butt"
       d="m 82.5,30.5 h 0.54082 0.54082 0.54082 0.540824 0.540816 0.54082 0.54082 0.54082 0.540826 0.540814 0.54082 0.540825 0.540815 0.54083 0.540815 0.540815 0.54083 0.540814 0.540826 0.54082 0.54081 0.54083 0.540816 0.540824 0.54082 0.540815 0.540825 0.54082 0.54082 0.54082 0.54082 0.54082 0.54082 0.54082 0.54082 0.54082 0.54082 0.54082 0.54082 0.54082 0.54082 0.54083 0.54081 0.54083 0.54081 0.54082 0.54083 0.54081 0.54083 0.54082 0.54081 0.54083 0.54082 0.54082 0.54082 0.54081 0.54083 0.54082 0.54082 0.54082 0.54082 0.54082 0.54082 0.54082 0.54082 0.54082 0.54082 0.54082 0.54082 0.54082 0.54082 0.54082 0.54082 0.54083 0.54081 0.54082 0.54083 0.54081 0.54083 0.54082 0.54081 0.54083 0.54081 0.54083 0.54082 0.54081 0.54082 0.54084 0.54081 0.54082 0.54082 0.54081 0.54084 0.54081 0.54082 0.54082 0.54081 0.54084 0.54081 0.54082 0.54082 0.54082 0.54083 0.54082 0.54081 0.54082 0.54082 0.54083 0.54082 0.54081 0.54082 0.54082 0.54083 0.54082 0.54082 0.54081 0.54082 0.54083 0.54082 0.54082 0.54081 0.54082 0.54083 0.54082 0.54082 0.54082 0.54081 0.54083 0.54082 0.54082 0.54082 0.54082 0.54083 0.54081 0.54082 0.54082 0.54082 0.54083 0.54082 0.54081 0.54082 0.54082 0.54083 0.54082 0.54082 0.54081 0.54082 0.54083 0.54082 0.54082 0.54081 0.54082 0.54083 0.54082 0.54082 0.54082 0.54081 0.54084 0.54081 0.54082 0.54082 0.54081 0.54084 0.54081 0.54082 0.54082 0.54082 0.54083 0.54082 0.54081 0.54082 0.54082 0.54083 0.54082 0.54081 0.54082 0.54082 0.54083 0.54082 0.54082 0.54081 0.54082 0.54083 0.54082 0.54082 0.54082 0.54081 0.54083 0.54082 0.54082 0.54082 0.54082 0.54083 0.54081 0.54082 0.54082 0.54082 0.54083 0.54082 0.54081 0.54082 0.54082 0.54083 0.54082 0.54081 0.54082 0.54082 0.54083 0.54082 0.54082 0.54081 0.54082 0.54083 0.54082 0.54082 0.54081 0.54082 0.54083 0.54082 0.54082 0.54082 0.54081 0.54084 0.54081 0.54082 0.54082 0.54081 0.54084 0.54081 0.54082 0.54082 0.54081 0.54084 0.54082 0.54081 0.54082 0.54082 0.54083 0.54082 0.54082 0.54081 0.54082 0.54083 0.54082 0.54082 0.54082 0.54081 0.54083 0.54082 0.54082 0.54082 0.54081 0.54084 0.54081 0.54082 0.54082 0.54081 0.54084 0.54081 0.54082 0.54082 0.54082 0.54083 0.54082 0.54081 0.54082 0.54082 0.54083 0.54082 0.54081 0.54082 0.54082 0.54083 0.54082 0.54082 0.54081 0.54082 0.54083 0.54082 0.54082 0.54081 0.54082 0.54083 0.54082 0.54082 0.54081 0.54082 0.54084 0.54081 0.54082 0.54082 0.54082 0.54083 0.54081 0.54082 0.54082 0.54082 0.54083 0.54082 0.54082 0.54081 0.54082 0.54083 0.54082 0.54082 0.54081 0.54082 0.54083 0.54082 0.54082 0.54081 0.54082 0.54083 0.54082 0.54082 0.54082 0.54081 0.54084 0.54081 L 255.5625,50 h 0.54083 0.5408 0.54084 0.5408 0.54083 0.54083 0.54081 0.54083 0.5408 0.54083 0.54084 0.5408 0.54083 0.5408 0.54083 0.54084 0.5408 0.54083 0.5408 0.54083 0.54084 0.5408 0.54083 0.54081 0.54082 0.54084 0.5408 0.54083 0.54081 0.54082 0.54084 0.5408 0.54084 0.5408 0.54082 0.54084 0.54081 0.54083 0.5408 0.54082 0.54085 0.5408 0.54083 0.5408 0.54082 0.54085 0.5408 0.54083 0.5408 0.54084 0.54083 0.5408 0.54083 0.5408 0.54084 0.54083 0.5408 0.54083 0.54082 0.54082 0.54083 0.5408 0.54085 l 0.5408,13 h 0.54082 0.54083 0.5408 0.54085 0.5408 0.54082 0.54083 0.54081 0.54084 0.5408 0.54082 0.54084 0.5408 0.54084 0.5408 0.54082 0.54084 0.5408 0.54084 0.5408 0.54083 0.54083 0.5408 0.54084 0.5408 0.54083 0.54083 0.5408 0.54084 0.5408 0.54083 0.54083 0.5408 0.54084 0.5408 0.54083 0.54083 0.54081 0.54083 0.5408 0.54083 0.54084 0.5408 0.54083 0.5408 0.54083 0.54084 0.5408 0.54083 0.5408 0.54084 0.54083 0.5408 0.54083 0.5408 0.54084 0.54083 0.5408 0.54083 0.5408 0.54084 0.54083 0.5408 l 0.54083,13 h 0.5408 0.54084 0.54083 0.54081 0.54082 0.5408 0.54084 0.54083 0.54081 0.54082 0.5408 0.54084 0.54084 0.5408 0.54082 0.5408 0.54085 0.54083 0.5408 0.54082 0.5408 0.54085 0.54083 0.5408 0.54082 0.54082 0.54083 0.54083 0.5408 0.54084 0.5408 0.54083 0.54083 0.5408 0.54084 0.5408 0.54083 0.54083 0.54082 0.54082 0.5408 0.54083 0.54085 0.5408 0.54082 0.5408 0.54083 0.54085 0.5408 0.54082 0.5408 0.54084 0.54084 0.5408 0.54082 0.54081 0.54083 0.54084 0.5408 0.54082 0.54081 0.54083 0.54084 l 0.5408,6.5 h 0.54083 0.5408 0.54083 0.54084 0.5408 0.54083 0.5408 0.54083 0.54084 0.5408 0.54083 0.5408 0.54083 0.54084 0.5408 0.54083 0.5408 0.54084 0.54083 0.5408 0.54083 0.5408 0.54084 0.54083 0.5408 0.54083 0.54081 0.54083 0.54083 0.5408 0.54084 0.5408 0.54083 0.54083 0.5408 0.54084 0.5408 0.54083 0.54083 0.5408 0.54084 0.5408 0.54083 0.54083 0.5408 0.54084 0.5408 0.54084 0.54082 0.5408 0.54084 0.5408 0.54084 0.54082 0.5408 0.54084 0.54081 0.54083 0.54082 0.5408 0.54085 0.5408 0.54083 l 0.54082,13 h 0.5408 0.54085 0.5408 0.54083 0.54082 0.54082 0.54083 0.5408 0.54083 0.54084 0.5408 0.54083 0.5408 0.54083 0.54084 0.5408 0.54083 0.5408 0.54085 0.54082 0.5408 0.54083 0.5408 0.54085 0.54082 0.5408 0.54083 0.54081 0.54084 0.54082 0.5408 0.54084 0.5408 0.54084 0.54082 0.54081 0.54083 0.5408 0.54084 0.54082 0.54081 0.54083 0.5408 0.54084 0.54083 0.5408 0.54083 0.5408 0.54084 0.54083 0.5408 0.54083 0.5408 0.54084 0.54083 0.5408 0.54083 0.54081 0.54083 0.54083 0.5408 0.54084 0.5408 l 0.54083,6.5 h 0.54083 0.5408 0.54084 0.5408 0.54083 0.54083 0.54081 0.54083 0.5408 0.54083 0.54084 0.5408 0.54083 0.5408 0.54083 0.54084 0.5408 0.54083 0.5408 0.54083 0.54084 0.5408 0.54083 0.54081 0.54082 0.54084 0.5408 0.54083 0.54081 0.54082 0.54084 0.5408 0.54084 0.5408 0.54082 0.54084 0.54081 0.54083 0.5408 0.54082 0.54085 0.5408 0.54083 0.5408 0.54082 0.54085 0.5408 0.54083 0.5408 0.54084 0.54083 0.5408 0.54083 0.5408 0.54084 0.54083 0.5408 0.54083 0.54082 0.54082 0.54083 0.5408 0.54085 l 0.5408,6.5 h 0.54082 0.54083 0.5408 0.54085 0.5408 0.54082 0.54083 0.54081 0.54084 0.5408 0.54082 0.54084 0.5408 0.54084 0.5408 0.54082 0.54084 0.5408 0.54084 0.5408 0.54083 0.54083 0.5408 0.54084 0.5408 0.54083 0.54083 0.5408 0.54084 0.5408 0.54083 0.54083 0.5408 0.54084 0.5408 0.54083 0.54083 0.54081 0.54083 0.5408 0.54083 0.54084 0.5408 0.54083 0.5408 0.54083 0.54084 0.5408 0.54083 0.5408 0.54084 0.54083 0.5408 0.54083 0.5408 0.54084 0.54083 0.5408 0.54083 0.5408 0.54084 0.54083 0.5408 L 497.85,115 h 0.5408 0.54084 0.54083 0.54081 0.54082 0.5408 0.54084 0.54083 0.54081 0.54082 0.5408 0.54084 0.54084 0.5408 0.54082 0.5408 0.54085 0.54083 0.5408 0.54082 0.5408 0.54085 0.54083 0.5408 0.54082 0.54082 0.54083 0.54085 0.5408 0.5408 0.5408 0.54085 0.54085 0.5408 0.5408 0.5408 0.54085 0.54085 0.5408 0.5408 0.5408 0.54085 0.54085 0.5408 0.5408 0.5408 0.54085 0.54085 0.5408 0.5408 0.5408 0.54086 0.54084 0.5408 0.5408 0.5408 0.54086 0.54084 0.5408 0.5408 0.5408 0.54086 0.54084 l 0.5408,6.5 h 0.5408 0.5408 0.54086 0.54084 0.5408 0.5408 0.5408 0.54086 0.54084 0.5408 0.5408 0.54083 0.54083 0.54084 0.5408 0.5408 0.54083 0.54084 0.54083 0.54083 0.54077 0.54083 0.54084 0.54083 0.54083 0.54077 0.54084 0.54083 0.54083 0.54083 0.54077 0.54084 0.54086 0.5408 0.54084 0.54076 0.54084 0.54086 0.5408 0.54084 0.54076 0.54084 0.54086 0.5408 0.54084 0.54076 0.54084 0.54086 0.5408 0.54084 0.54076 0.54084 0.54086 0.5408 0.54084 0.54076 0.54085 0.54085 0.5408 0.54084 0.54076 0.54085 0.54085 l 0.5408,6.5 h 0.54084 0.54076 0.54085 0.54085 0.5408 0.54085 0.54075 0.54085 0.54085 0.5408 0.54085 0.54075 0.54085 0.54085 0.5408 0.54085 0.54075 0.54085 0.54085 0.5408 0.54085 0.54075 0.54085 0.54085 0.5408 0.54085 0.54075 0.54086 0.54084 0.5408 0.54085 0.54075 0.54086 0.54084 0.5408 0.54086 0.54074 0.54086 0.54084 0.5408 0.54086 0.54074 0.54086 0.54084 0.5408 0.54086 0.54074 0.54086 0.54084 0.5408 0.54086 0.54077 0.54083 0.54084 0.5408 0.54086 0.54077 0.54084 0.54083 0.54083 0.54083 0.54077 0.54084 l 0.54083,6.5 h 0.54083 0.54084 0.54077 0.54083 0.54083 0.54083 0.54084 0.54077 0.54086 0.5408 0.54084 0.54083 0.54077 0.54086 0.5408 0.54084 0.54086 0.54074 0.54086 0.5408 0.54084 0.54086 0.54074 0.54086 0.5408 0.54084 0.54086 0.54074 0.54086 0.5408 0.54084 0.54086 0.54075 0.54085 0.5408 0.54084 0.54086 0.54075 0.54085 0.5408 0.54085 0.54085 0.54075 0.54085 0.5408 0.54085 0.54085 0.54075 0.54085 0.5408 0.54085 0.54085 0.54075 0.54085 0.5408 0.54085 0.54085 0.54075 0.54085 0.5408 0.54085 0.54085 0.54076"
       fill-rule="nonzero"
       id="path131"
       style="stroke:#002aa8;stroke-opacity:1" />
    <path
       stroke="#34a853"
       stroke-width="2"
       stroke-linecap="butt"
       d="m 82.5,30.5 h 0.54082 0.54082 0.54082 0.540824 0.540816 0.54082 0.54082 0.54082 0.540826 0.540814 0.54082 0.540825 0.540815 0.54083 0.540815 0.540815 0.54083 0.540814 0.540826 0.54082 0.54081 0.54083 0.540816 0.540824 0.54082 0.540815 0.540825 0.54082 0.54082 0.54082 0.54082 0.54082 0.54082 0.54082 0.54082 0.54082 0.54082 0.54082 0.54082 0.54082 0.54082 0.54083 0.54081 0.54083 0.54081 0.54082 0.54083 0.54081 0.54083 0.54082 0.54081 0.54083 0.54082 0.54082 0.54082 0.54081 0.54083 0.54082 0.54082 0.54082 0.54082 0.54082 0.54082 0.54082 0.54082 0.54082 0.54082 0.54082 0.54082 0.54082 0.54082 0.54082 0.54082 0.54083 0.54081 0.54082 0.54083 0.54081 0.54083 0.54082 0.54081 0.54083 0.54081 0.54083 0.54082 0.54081 0.54082 0.54084 0.54081 0.54082 0.54082 0.54081 0.54084 0.54081 0.54082 0.54082 0.54081 0.54084 0.54081 0.54082 0.54082 0.54082 0.54083 0.54082 0.54081 0.54082 0.54082 0.54083 0.54082 0.54081 0.54082 0.54082 0.54083 0.54082 0.54082 0.54081 0.54082 0.54083 0.54082 0.54082 0.54081 0.54082 0.54083 0.54082 0.54082 0.54082 0.54081 0.54083 0.54082 0.54082 0.54082 0.54082 0.54083 0.54081 0.54082 0.54082 0.54082 0.54083 0.54082 0.54081 0.54082 0.54082 0.54083 0.54082 0.54082 0.54081 0.54082 0.54083 0.54082 0.54082 0.54081 0.54082 0.54083 0.54082 0.54082 0.54082 0.54081 0.54084 0.54081 0.54082 0.54082 0.54081 0.54084 0.54081 0.54082 0.54082 0.54082 0.54083 0.54082 0.54081 0.54082 0.54082 0.54083 0.54082 0.54081 0.54082 0.54082 0.54083 0.54082 0.54082 0.54081 0.54082 0.54083 0.54082 0.54082 0.54082 0.54081 0.54083 0.54082 0.54082 0.54082 L 186.3375,63 h 0.54083 0.54081 0.54082 0.54082 0.54082 0.54083 0.54082 0.54081 0.54082 0.54082 0.54083 0.54082 0.54081 0.54082 0.54082 0.54083 0.54082 0.54082 0.54081 0.54082 0.54083 0.54082 0.54082 0.54081 0.54082 0.54083 0.54082 0.54082 0.54082 0.54081 0.54084 0.54081 0.54082 0.54082 0.54081 0.54084 0.54081 0.54082 0.54082 0.54081 0.54084 0.54082 0.54081 0.54082 0.54082 0.54083 0.54082 0.54082 0.54081 0.54082 0.54083 0.54082 0.54082 0.54082 0.54081 0.54083 0.54082 0.54082 0.54082 0.54081 0.54084 0.54081 0.54082 L 220.95,82.5 h 0.54081 0.54084 0.54081 0.54082 0.54082 0.54082 0.54083 0.54082 0.54081 0.54082 0.54082 0.54083 0.54082 0.54081 0.54082 0.54082 0.54083 0.54082 0.54082 0.54081 0.54082 0.54083 0.54082 0.54082 0.54081 0.54082 0.54083 0.54082 0.54082 0.54081 0.54082 0.54084 0.54081 0.54082 0.54082 0.54082 0.54083 0.54081 0.54082 0.54082 0.54082 0.54083 0.54082 0.54082 0.54081 0.54082 0.54083 0.54082 0.54082 0.54081 0.54082 0.54083 0.54082 0.54082 0.54081 0.54082 0.54083 0.54082 0.54082 0.54082 0.54081 0.54084 0.54081 l 0.54082,19.5 h 0.54083 0.5408 0.54084 0.5408 0.54083 0.54083 0.54081 0.54083 0.5408 0.54083 0.54084 0.5408 0.54083 0.5408 0.54083 0.54084 0.5408 0.54083 0.5408 0.54083 0.54084 0.5408 0.54083 0.54081 0.54082 0.54084 0.5408 0.54083 0.54081 0.54082 0.54084 0.5408 0.54084 0.5408 0.54082 0.54084 0.54081 0.54083 0.5408 0.54082 0.54085 0.5408 0.54083 0.5408 0.54082 0.54085 0.5408 0.54083 0.5408 0.54084 0.54083 0.5408 0.54083 0.5408 0.54084 0.54083 0.5408 0.54083 0.54082 0.54082 0.54083 0.5408 0.54085 l 0.5408,13 h 0.54082 0.54083 0.5408 0.54085 0.5408 0.54082 0.54083 0.54081 0.54084 0.5408 0.54082 0.54084 0.5408 0.54084 0.5408 0.54082 0.54084 0.5408 0.54084 0.5408 0.54083 0.54083 0.5408 0.54084 0.5408 0.54083 0.54083 0.5408 0.54084 0.5408 0.54083 0.54083 0.5408 0.54084 0.5408 0.54083 0.54083 0.54081 0.54083 0.5408 0.54083 0.54084 0.5408 0.54083 0.5408 0.54083 0.54084 0.5408 0.54083 0.5408 0.54084 0.54083 0.5408 0.54083 0.5408 0.54084 0.54083 0.5408 0.54083 0.5408 0.54084 0.54083 0.5408 l 0.54083,13 h 0.5408 0.54084 0.54083 0.54081 0.54082 0.5408 0.54084 0.54083 0.54081 0.54082 0.5408 0.54084 0.54084 0.5408 0.54082 0.5408 0.54085 0.54083 0.5408 0.54082 0.5408 0.54085 0.54083 0.5408 0.54082 0.54082 0.54083 0.54083 0.5408 0.54084 0.5408 0.54083 0.54083 0.5408 0.54084 0.5408 0.54083 0.54083 0.54082 0.54082 0.5408 0.54083 0.54085 0.5408 0.54082 0.5408 0.54083 0.54085 0.5408 0.54082 0.5408 0.54084 0.54084 0.5408 0.54082 0.54081 0.54083 0.54084 0.5408 0.54082 0.54081 0.54083 0.54084 l 0.5408,6.5 h 0.54083 0.5408 0.54083 0.54084 0.5408 0.54083 0.5408 0.54083 0.54084 0.5408 0.54083 0.5408 0.54083 0.54084 0.5408 0.54083 0.5408 0.54084 0.54083 0.5408 0.54083 0.5408 0.54084 0.54083 0.5408 0.54083 0.54081 0.54083 0.54083 0.5408 0.54084 0.5408 0.54083 0.54083 0.5408 0.54084 0.5408 0.54083 0.54083 0.5408 0.54084 0.5408 0.54083 0.54083 0.5408 0.54084 0.5408 0.54084 0.54082 0.5408 0.54084 0.5408 0.54084 0.54082 0.5408 0.54084 0.54081 0.54083 0.54082 0.5408 0.54085 0.5408 0.54083 l 0.54082,13 h 0.5408 0.54085 0.5408 0.54083 0.54082 0.54082 0.54083 0.5408 0.54083 0.54084 0.5408 0.54083 0.5408 0.54083 0.54084 0.5408 0.54083 0.5408 0.54085 0.54082 0.5408 0.54083 0.5408 0.54085 0.54082 0.5408 0.54083 0.54081 0.54084 0.54082 0.5408 0.54084 0.5408 0.54084 0.54082 0.54081 0.54083 0.5408 0.54084 0.54082 0.54081 0.54083 0.5408 0.54084 0.54083 0.5408 0.54083 0.5408 0.54084 0.54083 0.5408 0.54083 0.5408 0.54084 0.54083 0.5408 0.54083 0.54081 0.54083 0.54083 0.5408 0.54084 0.5408 l 0.54083,6.5 h 0.54083 0.5408 0.54084 0.5408 0.54083 0.54083 0.54081 0.54083 0.5408 0.54083 0.54084 0.5408 0.54083 0.5408 0.54083 0.54084 0.5408 0.54083 0.5408 0.54083 0.54084 0.5408 0.54083 0.54081 0.54082 0.54084 0.5408 0.54083 0.54081 0.54082 0.54084 0.5408 0.54084 0.5408 0.54082 0.54084 0.54081 0.54083 0.5408 0.54082 0.54085 0.5408 0.54083 0.5408 0.54082 0.54085 0.5408 0.54083 0.5408 0.54084 0.54083 0.5408 0.54083 0.5408 0.54084 0.54083 0.5408 0.54083 0.54082 0.54082 0.54083 0.5408 0.54085 l 0.5408,6.5 h 0.54082 0.54083 0.5408 0.54085 0.5408 0.54082 0.54083 0.54081 0.54084 0.5408 0.54082 0.54084 0.5408 0.54084 0.5408 0.54082 0.54084 0.5408 0.54084 0.5408 0.54083 0.54083 0.5408 0.54084 0.5408 0.54083 0.54083 0.5408 0.54084 0.5408 0.54083 0.54083 0.5408 0.54084 0.5408 0.54083 0.54083 0.54081 0.54083 0.5408 0.54083 0.54084 0.5408 0.54083 0.5408 0.54083 0.54084 0.5408 0.54083 0.5408 0.54084 0.54083 0.5408 0.54083 0.5408 0.54084 0.54083 0.5408 0.54083 0.5408 0.54084 0.54083 0.5408 L 497.85,167 h 0.5408 0.54084 0.54083 0.54081 0.54082 0.5408 0.54084 0.54083 0.54081 0.54082 0.5408 0.54084 0.54084 0.5408 0.54082 0.5408 0.54085 0.54083 0.5408 0.54082 0.5408 0.54085 0.54083 0.5408 0.54082 0.54082 0.54083 0.54085 0.5408 0.5408 0.5408 0.54085 0.54085 0.5408 0.5408 0.5408 0.54085 0.54085 0.5408 0.5408 0.5408 0.54085 0.54085 0.5408 0.5408 0.5408 0.54085 0.54085 0.5408 0.5408 0.5408 0.54086 0.54084 0.5408 0.5408 0.5408 0.54086 0.54084 0.5408 0.5408 0.5408 0.54086 0.54084 l 0.5408,6.5 h 0.5408 0.5408 0.54086 0.54084 0.5408 0.5408 0.5408 0.54086 0.54084 0.5408 0.5408 0.54083 0.54083 0.54084 0.5408 0.5408 0.54083 0.54084 0.54083 0.54083 0.54077 0.54083 0.54084 0.54083 0.54083 0.54077 0.54084 0.54083 0.54083 0.54083 0.54077 0.54084 0.54086 0.5408 0.54084 0.54076 0.54084 0.54086 0.5408 0.54084 0.54076 0.54084 0.54086 0.5408 0.54084 0.54076 0.54084 0.54086 0.5408 0.54084 0.54076 0.54084 0.54086 0.5408 0.54084 0.54076 0.54085 0.54085 0.5408 0.54084 0.54076 0.54085 0.54085 l 0.5408,6.5 h 0.54084 0.54076 0.54085 0.54085 0.5408 0.54085 0.54075 0.54085 0.54085 0.5408 0.54085 0.54075 0.54085 0.54085 0.5408 0.54085 0.54075 0.54085 0.54085 0.5408 0.54085 0.54075 0.54085 0.54085 0.5408 0.54085 0.54075 0.54086 0.54084 0.5408 0.54085 0.54075 0.54086 0.54084 0.5408 0.54086 0.54074 0.54086 0.54084 0.5408 0.54086 0.54074 0.54086 0.54084 0.5408 0.54086 0.54074 0.54086 0.54084 0.5408 0.54086 0.54077 0.54083 0.54084 0.5408 0.54086 0.54077 0.54084 0.54083 0.54083 0.54083 0.54077 0.54084 l 0.54083,6.5 h 0.54083 0.54084 0.54077 0.54083 0.54083 0.54083 0.54084 0.54077 0.54086 0.5408 0.54084 0.54083 0.54077 0.54086 0.5408 0.54084 0.54086 0.54074 0.54086 0.5408 0.54084 0.54086 0.54074 0.54086 0.5408 0.54084 0.54086 0.54074 0.54086 0.5408 0.54084 0.54086 0.54075 0.54085 0.5408 0.54084 0.54086 0.54075 0.54085 0.5408 0.54085 0.54085 0.54075 0.54085 0.5408 0.54085 0.54085 0.54075 0.54085 0.5408 0.54085 0.54085 0.54075 0.54085 0.5408 0.54085 0.54085 0.54075 0.54085 0.5408 0.54085 0.54085 0.54076"
       fill-rule="nonzero"
       id="path133"
       style="stroke:#00a8a8;stroke-opacity:1" />
    <path
       stroke="#ff6d01"
       stroke-width="2"
       stroke-linecap="butt"
       d="m 82.5,30.5 h 0.54082 0.54082 0.54082 0.540824 0.540816 0.54082 0.54082 0.54082 0.540826 0.540814 0.54082 0.540825 0.540815 0.54083 0.540815 0.540815 0.54083 0.540814 0.540826 0.54082 0.54081 0.54083 0.540816 0.540824 0.54082 0.540815 0.540825 0.54082 0.54082 0.54082 0.54082 0.54082 0.54082 0.54082 0.54082 0.54082 0.54082 0.54082 0.54082 0.54082 0.54082 0.54083 0.54081 0.54083 0.54081 0.54082 0.54083 0.54081 0.54083 0.54082 0.54081 0.54083 0.54082 0.54082 0.54082 0.54081 0.54083 0.54082 0.54082 0.54082 0.54082 0.54082 0.54082 0.54082 0.54082 0.54082 0.54082 0.54082 0.54082 0.54082 0.54082 0.54082 0.54082 0.54083 0.54081 0.54082 0.54083 0.54081 0.54083 0.54082 0.54081 0.54083 0.54081 0.54083 0.54082 0.54081 0.54082 0.54084 0.54081 0.54082 0.54082 0.54081 0.54084 0.54081 0.54082 0.54082 0.54081 0.54084 0.54081 0.54082 0.54082 0.54082 0.54083 0.54082 0.54081 0.54082 0.54082 0.54083 0.54082 0.54081 0.54082 0.54082 0.54083 0.54082 0.54082 0.54081 0.54082 0.54083 0.54082 0.54082 0.54081 0.54082 0.54083 0.54082 0.54082 0.54082 0.54081 l 0.54083,52 h 0.54082 0.54082 0.54082 0.54082 0.54083 0.54081 0.54082 0.54082 0.54082 0.54083 0.54082 0.54081 0.54082 0.54082 0.54083 0.54082 0.54082 0.54081 0.54082 0.54083 0.54082 0.54082 0.54081 0.54082 0.54083 0.54082 0.54082 0.54082 0.54081 0.54084 0.54081 0.54082 0.54082 0.54081 0.54084 0.54081 0.54082 0.54082 0.54082 0.54083 0.54082 0.54081 0.54082 0.54082 0.54083 0.54082 0.54081 0.54082 0.54082 0.54083 0.54082 0.54082 0.54081 0.54082 0.54083 0.54082 0.54082 0.54082 0.54081 0.54083 0.54082 0.54082 0.54082 l 0.54082,32.5 h 0.54083 0.54081 0.54082 0.54082 0.54082 0.54083 0.54082 0.54081 0.54082 0.54082 0.54083 0.54082 0.54081 0.54082 0.54082 0.54083 0.54082 0.54082 0.54081 0.54082 0.54083 0.54082 0.54082 0.54081 0.54082 0.54083 0.54082 0.54082 0.54082 0.54081 0.54084 0.54081 0.54082 0.54082 0.54081 0.54084 0.54081 0.54082 0.54082 0.54081 0.54084 0.54082 0.54081 0.54082 0.54082 0.54083 0.54082 0.54082 0.54081 0.54082 0.54083 0.54082 0.54082 0.54082 0.54081 0.54083 0.54082 0.54082 0.54082 0.54081 0.54084 0.54081 0.54082 l 0.54082,19.5 h 0.54081 0.54084 0.54081 0.54082 0.54082 0.54082 0.54083 0.54082 0.54081 0.54082 0.54082 0.54083 0.54082 0.54081 0.54082 0.54082 0.54083 0.54082 0.54082 0.54081 0.54082 0.54083 0.54082 0.54082 0.54081 0.54082 0.54083 0.54082 0.54082 0.54081 0.54082 0.54084 0.54081 0.54082 0.54082 0.54082 0.54083 0.54081 0.54082 0.54082 0.54082 0.54083 0.54082 0.54082 0.54081 0.54082 0.54083 0.54082 0.54082 0.54081 0.54082 0.54083 0.54082 0.54082 0.54081 0.54082 0.54083 0.54082 0.54082 0.54082 0.54081 0.54084 0.54081 l 0.54082,19.5 h 0.54083 0.5408 0.54084 0.5408 0.54083 0.54083 0.54081 0.54083 0.5408 0.54083 0.54084 0.5408 0.54083 0.5408 0.54083 0.54084 0.5408 0.54083 0.5408 0.54083 0.54084 0.5408 0.54083 0.54081 0.54082 0.54084 0.5408 0.54083 0.54081 0.54082 0.54084 0.5408 0.54084 0.5408 0.54082 0.54084 0.54081 0.54083 0.5408 0.54082 0.54085 0.5408 0.54083 0.5408 0.54082 0.54085 0.5408 0.54083 0.5408 0.54084 0.54083 0.5408 0.54083 0.5408 0.54084 0.54083 0.5408 0.54083 0.54082 0.54082 0.54083 0.5408 0.54085 l 0.5408,13 h 0.54082 0.54083 0.5408 0.54085 0.5408 0.54082 0.54083 0.54081 0.54084 0.5408 0.54082 0.54084 0.5408 0.54084 0.5408 0.54082 0.54084 0.5408 0.54084 0.5408 0.54083 0.54083 0.5408 0.54084 0.5408 0.54083 0.54083 0.5408 0.54084 0.5408 0.54083 0.54083 0.5408 0.54084 0.5408 0.54083 0.54083 0.54081 0.54083 0.5408 0.54083 0.54084 0.5408 0.54083 0.5408 0.54083 0.54084 0.5408 0.54083 0.5408 0.54084 0.54083 0.5408 0.54083 0.5408 0.54084 0.54083 0.5408 0.54083 0.5408 0.54084 0.54083 0.5408 l 0.54083,13 h 0.5408 0.54084 0.54083 0.54081 0.54082 0.5408 0.54084 0.54083 0.54081 0.54082 0.5408 0.54084 0.54084 0.5408 0.54082 0.5408 0.54085 0.54083 0.5408 0.54082 0.5408 0.54085 0.54083 0.5408 0.54082 0.54082 0.54083 0.54083 0.5408 0.54084 0.5408 0.54083 0.54083 0.5408 0.54084 0.5408 0.54083 0.54083 0.54082 0.54082 0.5408 0.54083 0.54085 0.5408 0.54082 0.5408 0.54083 0.54085 0.5408 0.54082 0.5408 0.54084 0.54084 0.5408 0.54082 0.54081 0.54083 0.54084 0.5408 0.54082 0.54081 0.54083 0.54084 l 0.5408,6.5 h 0.54083 0.5408 0.54083 0.54084 0.5408 0.54083 0.5408 0.54083 0.54084 0.5408 0.54083 0.5408 0.54083 0.54084 0.5408 0.54083 0.5408 0.54084 0.54083 0.5408 0.54083 0.5408 0.54084 0.54083 0.5408 0.54083 0.54081 0.54083 0.54083 0.5408 0.54084 0.5408 0.54083 0.54083 0.5408 0.54084 0.5408 0.54083 0.54083 0.5408 0.54084 0.5408 0.54083 0.54083 0.5408 0.54084 0.5408 0.54084 0.54082 0.5408 0.54084 0.5408 0.54084 0.54082 0.5408 0.54084 0.54081 0.54083 0.54082 0.5408 0.54085 0.5408 0.54083 l 0.54082,13 h 0.5408 0.54085 0.5408 0.54083 0.54082 0.54082 0.54083 0.5408 0.54083 0.54084 0.5408 0.54083 0.5408 0.54083 0.54084 0.5408 0.54083 0.5408 0.54085 0.54082 0.5408 0.54083 0.5408 0.54085 0.54082 0.5408 0.54083 0.54081 0.54084 0.54082 0.5408 0.54084 0.5408 0.54084 0.54082 0.54081 0.54083 0.5408 0.54084 0.54082 0.54081 0.54083 0.5408 0.54084 0.54083 0.5408 0.54083 0.5408 0.54084 0.54083 0.5408 0.54083 0.5408 0.54084 0.54083 0.5408 0.54083 0.54081 0.54083 0.54083 0.5408 0.54084 0.5408 l 0.54083,6.5 h 0.54083 0.5408 0.54084 0.5408 0.54083 0.54083 0.54081 0.54083 0.5408 0.54083 0.54084 0.5408 0.54083 0.5408 0.54083 0.54084 0.5408 0.54083 0.5408 0.54083 0.54084 0.5408 0.54083 0.54081 0.54082 0.54084 0.5408 0.54083 0.54081 0.54082 0.54084 0.5408 0.54084 0.5408 0.54082 0.54084 0.54081 0.54083 0.5408 0.54082 0.54085 0.5408 0.54083 0.5408 0.54082 0.54085 0.5408 0.54083 0.5408 0.54084 0.54083 0.5408 0.54083 0.5408 0.54084 0.54083 0.5408 0.54083 0.54082 0.54082 0.54083 0.5408 0.54085 l 0.5408,6.5 h 0.54082 0.54083 0.5408 0.54085 0.5408 0.54082 0.54083 0.54081 0.54084 0.5408 0.54082 0.54084 0.5408 0.54084 0.5408 0.54082 0.54084 0.5408 0.54084 0.5408 0.54083 0.54083 0.5408 0.54084 0.5408 0.54083 0.54083 0.5408 0.54084 0.5408 0.54083 0.54083 0.5408 0.54084 0.5408 0.54083 0.54083 0.54081 0.54083 0.5408 0.54083 0.54084 0.5408 0.54083 0.5408 0.54083 0.54084 0.5408 0.54083 0.5408 0.54084 0.54083 0.5408 0.54083 0.5408 0.54084 0.54083 0.5408 0.54083 0.5408 0.54084 0.54083 0.5408 L 497.85,219 h 0.5408 0.54084 0.54083 0.54081 0.54082 0.5408 0.54084 0.54083 0.54081 0.54082 0.5408 0.54084 0.54084 0.5408 0.54082 0.5408 0.54085 0.54083 0.5408 0.54082 0.5408 0.54085 0.54083 0.5408 0.54082 0.54082 0.54083 0.54085 0.5408 0.5408 0.5408 0.54085 0.54085 0.5408 0.5408 0.5408 0.54085 0.54085 0.5408 0.5408 0.5408 0.54085 0.54085 0.5408 0.5408 0.5408 0.54085 0.54085 0.5408 0.5408 0.5408 0.54086 0.54084 0.5408 0.5408 0.5408 0.54086 0.54084 0.5408 0.5408 0.5408 0.54086 0.54084 l 0.5408,6.5 h 0.5408 0.5408 0.54086 0.54084 0.5408 0.5408 0.5408 0.54086 0.54084 0.5408 0.5408 0.54083 0.54083 0.54084 0.5408 0.5408 0.54083 0.54084 0.54083 0.54083 0.54077 0.54083 0.54084 0.54083 0.54083 0.54077 0.54084 0.54083 0.54083 0.54083 0.54077 0.54084 0.54086 0.5408 0.54084 0.54076 0.54084 0.54086 0.5408 0.54084 0.54076 0.54084 0.54086 0.5408 0.54084 0.54076 0.54084 0.54086 0.5408 0.54084 0.54076 0.54084 0.54086 0.5408 0.54084 0.54076 0.54085 0.54085 0.5408 0.54084 0.54076 0.54085 0.54085 l 0.5408,6.5 h 0.54084 0.54076 0.54085 0.54085 0.5408 0.54085 0.54075 0.54085 0.54085 0.5408 0.54085 0.54075 0.54085 0.54085 0.5408 0.54085 0.54075 0.54085 0.54085 0.5408 0.54085 0.54075 0.54085 0.54085 0.5408 0.54085 0.54075 0.54086 0.54084 0.5408 0.54085 0.54075 0.54086 0.54084 0.5408 0.54086 0.54074 0.54086 0.54084 0.5408 0.54086 0.54074 0.54086 0.54084 0.5408 0.54086 0.54074 0.54086 0.54084 0.5408 0.54086 0.54077 0.54083 0.54084 0.5408 0.54086 0.54077 0.54084 0.54083 0.54083 0.54083 0.54077 0.54084 l 0.54083,6.5 h 0.54083 0.54084 0.54077 0.54083 0.54083 0.54083 0.54084 0.54077 0.54086 0.5408 0.54084 0.54083 0.54077 0.54086 0.5408 0.54084 0.54086 0.54074 0.54086 0.5408 0.54084 0.54086 0.54074 0.54086 0.5408 0.54084 0.54086 0.54074 0.54086 0.5408 0.54084 0.54086 0.54075 0.54085 0.5408 0.54084 0.54086 0.54075 0.54085 0.5408 0.54085 0.54085 0.54075 0.54085 0.5408 0.54085 0.54085 0.54075 0.54085 0.5408 0.54085 0.54085 0.54075 0.54085 0.5408 0.54085 0.54085 0.54075 0.54085 0.5408 0.54085 0.54085 0.54076"
       fill-rule="nonzero"
       id="path135"
       style="stroke:#00a82a;stroke-opacity:1" />
    <path
       stroke="#46bdc6"
       stroke-width="2"
       stroke-linecap="butt"
       d="m 82.5,30.5 h 0.54082 0.54082 0.54082 0.540824 0.540816 0.54082 0.54082 0.54082 0.540826 0.540814 0.54082 0.540825 0.540815 0.54083 0.540815 0.540815 0.54083 0.540814 0.540826 0.54082 0.54081 0.54083 0.540816 0.540824 0.54082 0.540815 0.540825 0.54082 0.54082 0.54082 0.54082 0.54082 0.54082 0.54082 0.54082 0.54082 0.54082 0.54082 0.54082 0.54082 0.54082 0.54083 0.54081 0.54083 0.54081 0.54082 0.54083 0.54081 0.54083 0.54082 0.54081 0.54083 0.54082 0.54082 0.54082 0.54081 0.54083 0.54082 0.54082 0.54082 0.54082 0.54082 0.54082 l 0.54082,52 h 0.54082 0.54082 0.54082 0.54082 0.54082 0.54082 0.54082 0.54082 0.54082 0.54083 0.54081 0.54082 0.54083 0.54081 0.54083 0.54082 0.54081 0.54083 0.54081 0.54083 0.54082 0.54081 0.54082 0.54084 0.54081 0.54082 0.54082 0.54081 0.54084 0.54081 0.54082 0.54082 0.54081 0.54084 0.54081 0.54082 0.54082 0.54082 0.54083 0.54082 0.54081 0.54082 0.54082 0.54083 0.54082 0.54081 0.54082 0.54082 0.54083 0.54082 0.54082 0.54081 0.54082 0.54083 0.54082 0.54082 0.54081 0.54082 0.54083 0.54082 0.54082 0.54082 0.54081 l 0.54083,52 h 0.54082 0.54082 0.54082 0.54082 0.54083 0.54081 0.54082 0.54082 0.54082 0.54083 0.54082 0.54081 0.54082 0.54082 0.54083 0.54082 0.54082 0.54081 0.54082 0.54083 0.54082 0.54082 0.54081 0.54082 0.54083 0.54082 0.54082 0.54082 0.54081 0.54084 0.54081 0.54082 0.54082 0.54081 0.54084 0.54081 0.54082 0.54082 0.54082 0.54083 0.54082 0.54081 0.54082 0.54082 0.54083 0.54082 0.54081 0.54082 0.54082 0.54083 0.54082 0.54082 0.54081 0.54082 0.54083 0.54082 0.54082 0.54082 0.54081 0.54083 0.54082 0.54082 0.54082 l 0.54082,32.5 h 0.54083 0.54081 0.54082 0.54082 0.54082 0.54083 0.54082 0.54081 0.54082 0.54082 0.54083 0.54082 0.54081 0.54082 0.54082 0.54083 0.54082 0.54082 0.54081 0.54082 0.54083 0.54082 0.54082 0.54081 0.54082 0.54083 0.54082 0.54082 0.54082 0.54081 0.54084 0.54081 0.54082 0.54082 0.54081 0.54084 0.54081 0.54082 0.54082 0.54081 0.54084 0.54082 0.54081 0.54082 0.54082 0.54083 0.54082 0.54082 0.54081 0.54082 0.54083 0.54082 0.54082 0.54082 0.54081 0.54083 0.54082 0.54082 0.54082 0.54081 0.54084 0.54081 0.54082 l 0.54082,19.5 h 0.54081 0.54084 0.54081 0.54082 0.54082 0.54082 0.54083 0.54082 0.54081 0.54082 0.54082 0.54083 0.54082 0.54081 0.54082 0.54082 0.54083 0.54082 0.54082 0.54081 0.54082 0.54083 0.54082 0.54082 0.54081 0.54082 0.54083 0.54082 0.54082 0.54081 0.54082 0.54084 0.54081 0.54082 0.54082 0.54082 0.54083 0.54081 0.54082 0.54082 0.54082 0.54083 0.54082 0.54082 0.54081 0.54082 0.54083 0.54082 0.54082 0.54081 0.54082 0.54083 0.54082 0.54082 0.54081 0.54082 0.54083 0.54082 0.54082 0.54082 0.54081 0.54084 0.54081 l 0.54082,19.5 h 0.54083 0.5408 0.54084 0.5408 0.54083 0.54083 0.54081 0.54083 0.5408 0.54083 0.54084 0.5408 0.54083 0.5408 0.54083 0.54084 0.5408 0.54083 0.5408 0.54083 0.54084 0.5408 0.54083 0.54081 0.54082 0.54084 0.5408 0.54083 0.54081 0.54082 0.54084 0.5408 0.54084 0.5408 0.54082 0.54084 0.54081 0.54083 0.5408 0.54082 0.54085 0.5408 0.54083 0.5408 0.54082 0.54085 0.5408 0.54083 0.5408 0.54084 0.54083 0.5408 0.54083 0.5408 0.54084 0.54083 0.5408 0.54083 0.54082 0.54082 0.54083 0.5408 0.54085 l 0.5408,13 h 0.54082 0.54083 0.5408 0.54085 0.5408 0.54082 0.54083 0.54081 0.54084 0.5408 0.54082 0.54084 0.5408 0.54084 0.5408 0.54082 0.54084 0.5408 0.54084 0.5408 0.54083 0.54083 0.5408 0.54084 0.5408 0.54083 0.54083 0.5408 0.54084 0.5408 0.54083 0.54083 0.5408 0.54084 0.5408 0.54083 0.54083 0.54081 0.54083 0.5408 0.54083 0.54084 0.5408 0.54083 0.5408 0.54083 0.54084 0.5408 0.54083 0.5408 0.54084 0.54083 0.5408 0.54083 0.5408 0.54084 0.54083 0.5408 0.54083 0.5408 0.54084 0.54083 0.5408 l 0.54083,13 h 0.5408 0.54084 0.54083 0.54081 0.54082 0.5408 0.54084 0.54083 0.54081 0.54082 0.5408 0.54084 0.54084 0.5408 0.54082 0.5408 0.54085 0.54083 0.5408 0.54082 0.5408 0.54085 0.54083 0.5408 0.54082 0.54082 0.54083 0.54083 0.5408 0.54084 0.5408 0.54083 0.54083 0.5408 0.54084 0.5408 0.54083 0.54083 0.54082 0.54082 0.5408 0.54083 0.54085 0.5408 0.54082 0.5408 0.54083 0.54085 0.5408 0.54082 0.5408 0.54084 0.54084 0.5408 0.54082 0.54081 0.54083 0.54084 0.5408 0.54082 0.54081 0.54083 0.54084 l 0.5408,6.5 h 0.54083 0.5408 0.54083 0.54084 0.5408 0.54083 0.5408 0.54083 0.54084 0.5408 0.54083 0.5408 0.54083 0.54084 0.5408 0.54083 0.5408 0.54084 0.54083 0.5408 0.54083 0.5408 0.54084 0.54083 0.5408 0.54083 0.54081 0.54083 0.54083 0.5408 0.54084 0.5408 0.54083 0.54083 0.5408 0.54084 0.5408 0.54083 0.54083 0.5408 0.54084 0.5408 0.54083 0.54083 0.5408 0.54084 0.5408 0.54084 0.54082 0.5408 0.54084 0.5408 0.54084 0.54082 0.5408 0.54084 0.54081 0.54083 0.54082 0.5408 0.54085 0.5408 0.54083 l 0.54082,13 h 0.5408 0.54085 0.5408 0.54083 0.54082 0.54082 0.54083 0.5408 0.54083 0.54084 0.5408 0.54083 0.5408 0.54083 0.54084 0.5408 0.54083 0.5408 0.54085 0.54082 0.5408 0.54083 0.5408 0.54085 0.54082 0.5408 0.54083 0.54081 0.54084 0.54082 0.5408 0.54084 0.5408 0.54084 0.54082 0.54081 0.54083 0.5408 0.54084 0.54082 0.54081 0.54083 0.5408 0.54084 0.54083 0.5408 0.54083 0.5408 0.54084 0.54083 0.5408 0.54083 0.5408 0.54084 0.54083 0.5408 0.54083 0.54081 0.54083 0.54083 0.5408 0.54084 0.5408 l 0.54083,6.5 h 0.54083 0.5408 0.54084 0.5408 0.54083 0.54083 0.54081 0.54083 0.5408 0.54083 0.54084 0.5408 0.54083 0.5408 0.54083 0.54084 0.5408 0.54083 0.5408 0.54083 0.54084 0.5408 0.54083 0.54081 0.54082 0.54084 0.5408 0.54083 0.54081 0.54082 0.54084 0.5408 0.54084 0.5408 0.54082 0.54084 0.54081 0.54083 0.5408 0.54082 0.54085 0.5408 0.54083 0.5408 0.54082 0.54085 0.5408 0.54083 0.5408 0.54084 0.54083 0.5408 0.54083 0.5408 0.54084 0.54083 0.5408 0.54083 0.54082 0.54082 0.54083 0.5408 0.54085 l 0.5408,6.5 h 0.54082 0.54083 0.5408 0.54085 0.5408 0.54082 0.54083 0.54081 0.54084 0.5408 0.54082 0.54084 0.5408 0.54084 0.5408 0.54082 0.54084 0.5408 0.54084 0.5408 0.54083 0.54083 0.5408 0.54084 0.5408 0.54083 0.54083 0.5408 0.54084 0.5408 0.54083 0.54083 0.5408 0.54084 0.5408 0.54083 0.54083 0.54081 0.54083 0.5408 0.54083 0.54084 0.5408 0.54083 0.5408 0.54083 0.54084 0.5408 0.54083 0.5408 0.54084 0.54083 0.5408 0.54083 0.5408 0.54084 0.54083 0.5408 0.54083 0.5408 0.54084 0.54083 0.5408 L 497.85,271 h 0.5408 0.54084 0.54083 0.54081 0.54082 0.5408 0.54084 0.54083 0.54081 0.54082 0.5408 0.54084 0.54084 0.5408 0.54082 0.5408 0.54085 0.54083 0.5408 0.54082 0.5408 0.54085 0.54083 0.5408 0.54082 0.54082 0.54083 0.54085 0.5408 0.5408 0.5408 0.54085 0.54085 0.5408 0.5408 0.5408 0.54085 0.54085 0.5408 0.5408 0.5408 0.54085 0.54085 0.5408 0.5408 0.5408 0.54085 0.54085 0.5408 0.5408 0.5408 0.54086 0.54084 0.5408 0.5408 0.5408 0.54086 0.54084 0.5408 0.5408 0.5408 0.54086 0.54084 l 0.5408,6.5 h 0.5408 0.5408 0.54086 0.54084 0.5408 0.5408 0.5408 0.54086 0.54084 0.5408 0.5408 0.54083 0.54083 0.54084 0.5408 0.5408 0.54083 0.54084 0.54083 0.54083 0.54077 0.54083 0.54084 0.54083 0.54083 0.54077 0.54084 0.54083 0.54083 0.54083 0.54077 0.54084 0.54086 0.5408 0.54084 0.54076 0.54084 0.54086 0.5408 0.54084 0.54076 0.54084 0.54086 0.5408 0.54084 0.54076 0.54084 0.54086 0.5408 0.54084 0.54076 0.54084 0.54086 0.5408 0.54084 0.54076 0.54085 0.54085 0.5408 0.54084 0.54076 0.54085 0.54085 l 0.5408,6.5 h 0.54084 0.54076 0.54085 0.54085 0.5408 0.54085 0.54075 0.54085 0.54085 0.5408 0.54085 0.54075 0.54085 0.54085 0.5408 0.54085 0.54075 0.54085 0.54085 0.5408 0.54085 0.54075 0.54085 0.54085 0.5408 0.54085 0.54075 0.54086 0.54084 0.5408 0.54085 0.54075 0.54086 0.54084 0.5408 0.54086 0.54074 0.54086 0.54084 0.5408 0.54086 0.54074 0.54086 0.54084 0.5408 0.54086 0.54074 0.54086 0.54084 0.5408 0.54086 0.54077 0.54083 0.54084 0.5408 0.54086 0.54077 0.54084 0.54083 0.54083 0.54083 0.54077 0.54084 l 0.54083,6.5 h 0.54083 0.54084 0.54077 0.54083 0.54083 0.54083 0.54084 0.54077 0.54086 0.5408 0.54084 0.54083 0.54077 0.54086 0.5408 0.54084 0.54086 0.54074 0.54086 0.5408 0.54084 0.54086 0.54074 0.54086 0.5408 0.54084 0.54086 0.54074 0.54086 0.5408 0.54084 0.54086 0.54075 0.54085 0.5408 0.54084 0.54086 0.54075 0.54085 0.5408 0.54085 0.54085 0.54075 0.54085 0.5408 0.54085 0.54085 0.54075 0.54085 0.5408 0.54085 0.54085 0.54075 0.54085 0.5408 0.54085 0.54085 0.54075 0.54085 0.5408 0.54085 0.54085 0.54076"
       fill-rule="nonzero"
       id="path137"
       style="stroke:#54a800;stroke-opacity:1" />
    <path
       stroke="#7baaf7"
       stroke-width="2"
       stroke-linecap="butt"
       d="m 82.5,30.5 h 0.54082 0.54082 0.54082 0.540824 0.540816 0.54082 0.54082 0.54082 0.540826 0.540814 0.54082 0.540825 0.540815 0.54083 0.540815 0.540815 0.54083 0.540814 0.540826 0.54082 0.54081 0.54083 0.540816 0.540824 0.54082 0.540815 0.540825 0.54082 0.54082 0.54082 0.54082 0.54082 0.54082 0.54082 0.54082 0.54082 0.54082 0.54082 0.54082 0.54082 0.54082 0.54083 0.54081 0.54083 0.54081 0.54082 0.54083 0.54081 0.54083 0.54082 0.54081 0.54083 0.54082 0.54082 0.54082 0.54081 0.54083 0.54082 0.54082 0.54082 0.54082 0.54082 0.54082 l 0.54082,104 h 0.54082 0.54082 0.54082 0.54082 0.54082 0.54082 0.54082 0.54082 0.54082 0.54083 0.54081 0.54082 0.54083 0.54081 0.54083 0.54082 0.54081 0.54083 0.54081 0.54083 0.54082 0.54081 0.54082 0.54084 0.54081 0.54082 0.54082 0.54081 0.54084 0.54081 0.54082 0.54082 0.54081 0.54084 0.54081 0.54082 0.54082 0.54082 0.54083 0.54082 0.54081 0.54082 0.54082 0.54083 0.54082 0.54081 0.54082 0.54082 0.54083 0.54082 0.54082 0.54081 0.54082 0.54083 0.54082 0.54082 0.54081 0.54082 0.54083 0.54082 0.54082 0.54082 0.54081 l 0.54083,52 h 0.54082 0.54082 0.54082 0.54082 0.54083 0.54081 0.54082 0.54082 0.54082 0.54083 0.54082 0.54081 0.54082 0.54082 0.54083 0.54082 0.54082 0.54081 0.54082 0.54083 0.54082 0.54082 0.54081 0.54082 0.54083 0.54082 0.54082 0.54082 0.54081 0.54084 0.54081 0.54082 0.54082 0.54081 0.54084 0.54081 0.54082 0.54082 0.54082 0.54083 0.54082 0.54081 0.54082 0.54082 0.54083 0.54082 0.54081 0.54082 0.54082 0.54083 0.54082 0.54082 0.54081 0.54082 0.54083 0.54082 0.54082 0.54082 0.54081 0.54083 0.54082 0.54082 0.54082 l 0.54082,32.5 h 0.54083 0.54081 0.54082 0.54082 0.54082 0.54083 0.54082 0.54081 0.54082 0.54082 0.54083 0.54082 0.54081 0.54082 0.54082 0.54083 0.54082 0.54082 0.54081 0.54082 0.54083 0.54082 0.54082 0.54081 0.54082 0.54083 0.54082 0.54082 0.54082 0.54081 0.54084 0.54081 0.54082 0.54082 0.54081 0.54084 0.54081 0.54082 0.54082 0.54081 0.54084 0.54082 0.54081 0.54082 0.54082 0.54083 0.54082 0.54082 0.54081 0.54082 0.54083 0.54082 0.54082 0.54082 0.54081 0.54083 0.54082 0.54082 0.54082 0.54081 0.54084 0.54081 0.54082 l 0.54082,19.5 h 0.54081 0.54084 0.54081 0.54082 0.54082 0.54082 0.54083 0.54082 0.54081 0.54082 0.54082 0.54083 0.54082 0.54081 0.54082 0.54082 0.54083 0.54082 0.54082 0.54081 0.54082 0.54083 0.54082 0.54082 0.54081 0.54082 0.54083 0.54082 0.54082 0.54081 0.54082 0.54084 0.54081 0.54082 0.54082 0.54082 0.54083 0.54081 0.54082 0.54082 0.54082 0.54083 0.54082 0.54082 0.54081 0.54082 0.54083 0.54082 0.54082 0.54081 0.54082 0.54083 0.54082 0.54082 0.54081 0.54082 0.54083 0.54082 0.54082 0.54082 0.54081 0.54084 0.54081 l 0.54082,19.5 h 0.54083 0.5408 0.54084 0.5408 0.54083 0.54083 0.54081 0.54083 0.5408 0.54083 0.54084 0.5408 0.54083 0.5408 0.54083 0.54084 0.5408 0.54083 0.5408 0.54083 0.54084 0.5408 0.54083 0.54081 0.54082 0.54084 0.5408 0.54083 0.54081 0.54082 0.54084 0.5408 0.54084 0.5408 0.54082 0.54084 0.54081 0.54083 0.5408 0.54082 0.54085 0.5408 0.54083 0.5408 0.54082 0.54085 0.5408 0.54083 0.5408 0.54084 0.54083 0.5408 0.54083 0.5408 0.54084 0.54083 0.5408 0.54083 0.54082 0.54082 0.54083 0.5408 0.54085 l 0.5408,13 h 0.54082 0.54083 0.5408 0.54085 0.5408 0.54082 0.54083 0.54081 0.54084 0.5408 0.54082 0.54084 0.5408 0.54084 0.5408 0.54082 0.54084 0.5408 0.54084 0.5408 0.54083 0.54083 0.5408 0.54084 0.5408 0.54083 0.54083 0.5408 0.54084 0.5408 0.54083 0.54083 0.5408 0.54084 0.5408 0.54083 0.54083 0.54081 0.54083 0.5408 0.54083 0.54084 0.5408 0.54083 0.5408 0.54083 0.54084 0.5408 0.54083 0.5408 0.54084 0.54083 0.5408 0.54083 0.5408 0.54084 0.54083 0.5408 0.54083 0.5408 0.54084 0.54083 0.5408 l 0.54083,13 h 0.5408 0.54084 0.54083 0.54081 0.54082 0.5408 0.54084 0.54083 0.54081 0.54082 0.5408 0.54084 0.54084 0.5408 0.54082 0.5408 0.54085 0.54083 0.5408 0.54082 0.5408 0.54085 0.54083 0.5408 0.54082 0.54082 0.54083 0.54083 0.5408 0.54084 0.5408 0.54083 0.54083 0.5408 0.54084 0.5408 0.54083 0.54083 0.54082 0.54082 0.5408 0.54083 0.54085 0.5408 0.54082 0.5408 0.54083 0.54085 0.5408 0.54082 0.5408 0.54084 0.54084 0.5408 0.54082 0.54081 0.54083 0.54084 0.5408 0.54082 0.54081 0.54083 0.54084 l 0.5408,6.5 h 0.54083 0.5408 0.54083 0.54084 0.5408 0.54083 0.5408 0.54083 0.54084 0.5408 0.54083 0.5408 0.54083 0.54084 0.5408 0.54083 0.5408 0.54084 0.54083 0.5408 0.54083 0.5408 0.54084 0.54083 0.5408 0.54083 0.54081 0.54083 0.54083 0.5408 0.54084 0.5408 0.54083 0.54083 0.5408 0.54084 0.5408 0.54083 0.54083 0.5408 0.54084 0.5408 0.54083 0.54083 0.5408 0.54084 0.5408 0.54084 0.54082 0.5408 0.54084 0.5408 0.54084 0.54082 0.5408 0.54084 0.54081 0.54083 0.54082 0.5408 0.54085 0.5408 0.54083 l 0.54082,13 h 0.5408 0.54085 0.5408 0.54083 0.54082 0.54082 0.54083 0.5408 0.54083 0.54084 0.5408 0.54083 0.5408 0.54083 0.54084 0.5408 0.54083 0.5408 0.54085 0.54082 0.5408 0.54083 0.5408 0.54085 0.54082 0.5408 0.54083 0.54081 0.54084 0.54082 0.5408 0.54084 0.5408 0.54084 0.54082 0.54081 0.54083 0.5408 0.54084 0.54082 0.54081 0.54083 0.5408 0.54084 0.54083 0.5408 0.54083 0.5408 0.54084 0.54083 0.5408 0.54083 0.5408 0.54084 0.54083 0.5408 0.54083 0.54081 0.54083 0.54083 0.5408 0.54084 0.5408 l 0.54083,6.5 h 0.54083 0.5408 0.54084 0.5408 0.54083 0.54083 0.54081 0.54083 0.5408 0.54083 0.54084 0.5408 0.54083 0.5408 0.54083 0.54084 0.5408 0.54083 0.5408 0.54083 0.54084 0.5408 0.54083 0.54081 0.54082 0.54084 0.5408 0.54083 0.54081 0.54082 0.54084 0.5408 0.54084 0.5408 0.54082 0.54084 0.54081 0.54083 0.5408 0.54082 0.54085 0.5408 0.54083 0.5408 0.54082 0.54085 0.5408 0.54083 0.5408 0.54084 0.54083 0.5408 0.54083 0.5408 0.54084 0.54083 0.5408 0.54083 0.54082 0.54082 0.54083 0.5408 0.54085 l 0.5408,6.5 h 0.54082 0.54083 0.5408 0.54085 0.5408 0.54082 0.54083 0.54081 0.54084 0.5408 0.54082 0.54084 0.5408 0.54084 0.5408 0.54082 0.54084 0.5408 0.54084 0.5408 0.54083 0.54083 0.5408 0.54084 0.5408 0.54083 0.54083 0.5408 0.54084 0.5408 0.54083 0.54083 0.5408 0.54084 0.5408 0.54083 0.54083 0.54081 0.54083 0.5408 0.54083 0.54084 0.5408 0.54083 0.5408 0.54083 0.54084 0.5408 0.54083 0.5408 0.54084 0.54083 0.5408 0.54083 0.5408 0.54084 0.54083 0.5408 0.54083 0.5408 0.54084 0.54083 0.5408 L 497.85,323 h 0.5408 0.54084 0.54083 0.54081 0.54082 0.5408 0.54084 0.54083 0.54081 0.54082 0.5408 0.54084 0.54084 0.5408 0.54082 0.5408 0.54085 0.54083 0.5408 0.54082 0.5408 0.54085 0.54083 0.5408 0.54082 0.54082 0.54083 0.54085 0.5408 0.5408 0.5408 0.54085 0.54085 0.5408 0.5408 0.5408 0.54085 0.54085 0.5408 0.5408 0.5408 0.54085 0.54085 0.5408 0.5408 0.5408 0.54085 0.54085 0.5408 0.5408 0.5408 0.54086 0.54084 0.5408 0.5408 0.5408 0.54086 0.54084 0.5408 0.5408 0.5408 0.54086 0.54084 l 0.5408,6.5 h 0.5408 0.5408 0.54086 0.54084 0.5408 0.5408 0.5408 0.54086 0.54084 0.5408 0.5408 0.54083 0.54083 0.54084 0.5408 0.5408 0.54083 0.54084 0.54083 0.54083 0.54077 0.54083 0.54084 0.54083 0.54083 0.54077 0.54084 0.54083 0.54083 0.54083 0.54077 0.54084 0.54086 0.5408 0.54084 0.54076 0.54084 0.54086 0.5408 0.54084 0.54076 0.54084 0.54086 0.5408 0.54084 0.54076 0.54084 0.54086 0.5408 0.54084 0.54076 0.54084 0.54086 0.5408 0.54084 0.54076 0.54085 0.54085 0.5408 0.54084 0.54076 0.54085 0.54085 l 0.5408,6.5 h 0.54084 0.54076 0.54085 0.54085 0.5408 0.54085 0.54075 0.54085 0.54085 0.5408 0.54085 0.54075 0.54085 0.54085 0.5408 0.54085 0.54075 0.54085 0.54085 0.5408 0.54085 0.54075 0.54085 0.54085 0.5408 0.54085 0.54075 0.54086 0.54084 0.5408 0.54085 0.54075 0.54086 0.54084 0.5408 0.54086 0.54074 0.54086 0.54084 0.5408 0.54086 0.54074 0.54086 0.54084 0.5408 0.54086 0.54074 0.54086 0.54084 0.5408 0.54086 0.54077 0.54083 0.54084 0.5408 0.54086 0.54077 0.54084 0.54083 0.54083 0.54083 0.54077 0.54084 l 0.54083,6.5 h 0.54083 0.54084 0.54077 0.54083 0.54083 0.54083 0.54084 0.54077 0.54086 0.5408 0.54084 0.54083 0.54077 0.54086 0.5408 0.54084 0.54086 0.54074 0.54086 0.5408 0.54084 0.54086 0.54074 0.54086 0.5408 0.54084 0.54086 0.54074 0.54086 0.5408 0.54084 0.54086 0.54075 0.54085 0.5408 0.54084 0.54086 0.54075 0.54085 0.5408 0.54085 0.54085 0.54075 0.54085 0.5408 0.54085 0.54085 0.54075 0.54085 0.5408 0.54085 0.54085 0.54075 0.54085 0.5408 0.54085 0.54085 0.54075 0.54085 0.5408 0.54085 0.54085 0.54076"
       fill-rule="nonzero"
       id="path139"
       style="stroke:#a87e00;stroke-opacity:1" />
    <path
       stroke="#f07b72"
       stroke-width="2"
       stroke-linecap="butt"
       d="m 82.5,30.5 h 0.54082 0.54082 0.54082 0.540824 0.540816 0.54082 0.54082 0.54082 0.540826 0.540814 0.54082 0.540825 0.540815 0.54083 0.540815 0.540815 0.54083 0.540814 0.540826 0.54082 0.54081 0.54083 0.540816 0.540824 0.54082 0.540815 0.540825 0.54082 0.54082 0.54082 0.54082 0.54082 0.54082 0.54082 0.54082 0.54082 0.54082 0.54082 0.54082 0.54082 0.54082 0.54083 0.54081 0.54083 0.54081 0.54082 0.54083 0.54081 0.54083 0.54082 0.54081 0.54083 0.54082 0.54082 0.54082 0.54081 0.54083 0.54082 0.54082 0.54082 0.54082 0.54082 0.54082 l 0.54082,156 h 0.54082 0.54082 0.54082 0.54082 0.54082 0.54082 0.54082 0.54082 0.54082 0.54083 0.54081 0.54082 0.54083 0.54081 0.54083 0.54082 0.54081 0.54083 0.54081 0.54083 0.54082 0.54081 0.54082 0.54084 0.54081 0.54082 0.54082 0.54081 0.54084 0.54081 0.54082 0.54082 0.54081 0.54084 0.54081 0.54082 0.54082 0.54082 0.54083 0.54082 0.54081 0.54082 0.54082 0.54083 0.54082 0.54081 0.54082 0.54082 0.54083 0.54082 0.54082 0.54081 0.54082 0.54083 0.54082 0.54082 0.54081 0.54082 0.54083 0.54082 0.54082 0.54082 0.54081 l 0.54083,52 h 0.54082 0.54082 0.54082 0.54082 0.54083 0.54081 0.54082 0.54082 0.54082 0.54083 0.54082 0.54081 0.54082 0.54082 0.54083 0.54082 0.54082 0.54081 0.54082 0.54083 0.54082 0.54082 0.54081 0.54082 0.54083 0.54082 0.54082 0.54082 0.54081 0.54084 0.54081 0.54082 0.54082 0.54081 0.54084 0.54081 0.54082 0.54082 0.54082 0.54083 0.54082 0.54081 0.54082 0.54082 0.54083 0.54082 0.54081 0.54082 0.54082 0.54083 0.54082 0.54082 0.54081 0.54082 0.54083 0.54082 0.54082 0.54082 0.54081 0.54083 0.54082 0.54082 0.54082 l 0.54082,32.5 h 0.54083 0.54081 0.54082 0.54082 0.54082 0.54083 0.54082 0.54081 0.54082 0.54082 0.54083 0.54082 0.54081 0.54082 0.54082 0.54083 0.54082 0.54082 0.54081 0.54082 0.54083 0.54082 0.54082 0.54081 0.54082 0.54083 0.54082 0.54082 0.54082 0.54081 0.54084 0.54081 0.54082 0.54082 0.54081 0.54084 0.54081 0.54082 0.54082 0.54081 0.54084 0.54082 0.54081 0.54082 0.54082 0.54083 0.54082 0.54082 0.54081 0.54082 0.54083 0.54082 0.54082 0.54082 0.54081 0.54083 0.54082 0.54082 0.54082 0.54081 0.54084 0.54081 0.54082 l 0.54082,19.5 h 0.54081 0.54084 0.54081 0.54082 0.54082 0.54082 0.54083 0.54082 0.54081 0.54082 0.54082 0.54083 0.54082 0.54081 0.54082 0.54082 0.54083 0.54082 0.54082 0.54081 0.54082 0.54083 0.54082 0.54082 0.54081 0.54082 0.54083 0.54082 0.54082 0.54081 0.54082 0.54084 0.54081 0.54082 0.54082 0.54082 0.54083 0.54081 0.54082 0.54082 0.54082 0.54083 0.54082 0.54082 0.54081 0.54082 0.54083 0.54082 0.54082 0.54081 0.54082 0.54083 0.54082 0.54082 0.54081 0.54082 0.54083 0.54082 0.54082 0.54082 0.54081 0.54084 0.54081 l 0.54082,19.5 h 0.54083 0.5408 0.54084 0.5408 0.54083 0.54083 0.54081 0.54083 0.5408 0.54083 0.54084 0.5408 0.54083 0.5408 0.54083 0.54084 0.5408 0.54083 0.5408 0.54083 0.54084 0.5408 0.54083 0.54081 0.54082 0.54084 0.5408 0.54083 0.54081 0.54082 0.54084 0.5408 0.54084 0.5408 0.54082 0.54084 0.54081 0.54083 0.5408 0.54082 0.54085 0.5408 0.54083 0.5408 0.54082 0.54085 0.5408 0.54083 0.5408 0.54084 0.54083 0.5408 0.54083 0.5408 0.54084 0.54083 0.5408 0.54083 0.54082 0.54082 0.54083 0.5408 0.54085 l 0.5408,13 h 0.54082 0.54083 0.5408 0.54085 0.5408 0.54082 0.54083 0.54081 0.54084 0.5408 0.54082 0.54084 0.5408 0.54084 0.5408 0.54082 0.54084 0.5408 0.54084 0.5408 0.54083 0.54083 0.5408 0.54084 0.5408 0.54083 0.54083 0.5408 0.54084 0.5408 0.54083 0.54083 0.5408 0.54084 0.5408 0.54083 0.54083 0.54081 0.54083 0.5408 0.54083 0.54084 0.5408 0.54083 0.5408 0.54083 0.54084 0.5408 0.54083 0.5408 0.54084 0.54083 0.5408 0.54083 0.5408 0.54084 0.54083 0.5408 0.54083 0.5408 0.54084 0.54083 0.5408 l 0.54083,13 h 0.5408 0.54084 0.54083 0.54081 0.54082 0.5408 0.54084 0.54083 0.54081 0.54082 0.5408 0.54084 0.54084 0.5408 0.54082 0.5408 0.54085 0.54083 0.5408 0.54082 0.5408 0.54085 0.54083 0.5408 0.54082 0.54082 0.54083 0.54083 0.5408 0.54084 0.5408 0.54083 0.54083 0.5408 0.54084 0.5408 0.54083 0.54083 0.54082 0.54082 0.5408 0.54083 0.54085 0.5408 0.54082 0.5408 0.54083 0.54085 0.5408 0.54082 0.5408 0.54084 0.54084 0.5408 0.54082 0.54081 0.54083 0.54084 0.5408 0.54082 0.54081 0.54083 0.54084 l 0.5408,6.5 h 0.54083 0.5408 0.54083 0.54084 0.5408 0.54083 0.5408 0.54083 0.54084 0.5408 0.54083 0.5408 0.54083 0.54084 0.5408 0.54083 0.5408 0.54084 0.54083 0.5408 0.54083 0.5408 0.54084 0.54083 0.5408 0.54083 0.54081 0.54083 0.54083 0.5408 0.54084 0.5408 0.54083 0.54083 0.5408 0.54084 0.5408 0.54083 0.54083 0.5408 0.54084 0.5408 0.54083 0.54083 0.5408 0.54084 0.5408 0.54084 0.54082 0.5408 0.54084 0.5408 0.54084 0.54082 0.5408 0.54084 0.54081 0.54083 0.54082 0.5408 0.54085 0.5408 0.54083 l 0.54082,13 h 0.5408 0.54085 0.5408 0.54083 0.54082 0.54082 0.54083 0.5408 0.54083 0.54084 0.5408 0.54083 0.5408 0.54083 0.54084 0.5408 0.54083 0.5408 0.54085 0.54082 0.5408 0.54083 0.5408 0.54085 0.54082 0.5408 0.54083 0.54081 0.54084 0.54082 0.5408 0.54084 0.5408 0.54084 0.54082 0.54081 0.54083 0.5408 0.54084 0.54082 0.54081 0.54083 0.5408 0.54084 0.54083 0.5408 0.54083 0.5408 0.54084 0.54083 0.5408 0.54083 0.5408 0.54084 0.54083 0.5408 0.54083 0.54081 0.54083 0.54083 0.5408 0.54084 0.5408 l 0.54083,6.5 h 0.54083 0.5408 0.54084 0.5408 0.54083 0.54083 0.54081 0.54083 0.5408 0.54083 0.54084 0.5408 0.54083 0.5408 0.54083 0.54084 0.5408 0.54083 0.5408 0.54083 0.54084 0.5408 0.54083 0.54081 0.54082 0.54084 0.5408 0.54083 0.54081 0.54082 0.54084 0.5408 0.54084 0.5408 0.54082 0.54084 0.54081 0.54083 0.5408 0.54082 0.54085 0.5408 0.54083 0.5408 0.54082 0.54085 0.5408 0.54083 0.5408 0.54084 0.54083 0.5408 0.54083 0.5408 0.54084 0.54083 0.5408 0.54083 0.54082 0.54082 0.54083 0.5408 0.54085 l 0.5408,6.5 h 0.54082 0.54083 0.5408 0.54085 0.5408 0.54082 0.54083 0.54081 0.54084 0.5408 0.54082 0.54084 0.5408 0.54084 0.5408 0.54082 0.54084 0.5408 0.54084 0.5408 0.54083 0.54083 0.5408 0.54084 0.5408 0.54083 0.54083 0.5408 0.54084 0.5408 0.54083 0.54083 0.5408 0.54084 0.5408 0.54083 0.54083 0.54081 0.54083 0.5408 0.54083 0.54084 0.5408 0.54083 0.5408 0.54083 0.54084 0.5408 0.54083 0.5408 0.54084 0.54083 0.5408 0.54083 0.5408 0.54084 0.54083 0.5408 0.54083 0.5408 0.54084 0.54083 0.5408 L 497.85,375 h 0.5408 0.54084 0.54083 0.54081 0.54082 0.5408 0.54084 0.54083 0.54081 0.54082 0.5408 0.54084 0.54084 0.5408 0.54082 0.5408 0.54085 0.54083 0.5408 0.54082 0.5408 0.54085 0.54083 0.5408 0.54082 0.54082 0.54083 0.54085 0.5408 0.5408 0.5408 0.54085 0.54085 0.5408 0.5408 0.5408 0.54085 0.54085 0.5408 0.5408 0.5408 0.54085 0.54085 0.5408 0.5408 0.5408 0.54085 0.54085 0.5408 0.5408 0.5408 0.54086 0.54084 0.5408 0.5408 0.5408 0.54086 0.54084 0.5408 0.5408 0.5408 0.54086 0.54084 l 0.5408,6.5 h 0.5408 0.5408 0.54086 0.54084 0.5408 0.5408 0.5408 0.54086 0.54084 0.5408 0.5408 0.54083 0.54083 0.54084 0.5408 0.5408 0.54083 0.54084 0.54083 0.54083 0.54077 0.54083 0.54084 0.54083 0.54083 0.54077 0.54084 0.54083 0.54083 0.54083 0.54077 0.54084 0.54086 0.5408 0.54084 0.54076 0.54084 0.54086 0.5408 0.54084 0.54076 0.54084 0.54086 0.5408 0.54084 0.54076 0.54084 0.54086 0.5408 0.54084 0.54076 0.54084 0.54086 0.5408 0.54084 0.54076 0.54085 0.54085 0.5408 0.54084 0.54076 0.54085 0.54085 l 0.5408,6.5 h 0.54084 0.54076 0.54085 0.54085 0.5408 0.54085 0.54075 0.54085 0.54085 0.5408 0.54085 0.54075 0.54085 0.54085 0.5408 0.54085 0.54075 0.54085 0.54085 0.5408 0.54085 0.54075 0.54085 0.54085 0.5408 0.54085 0.54075 0.54086 0.54084 0.5408 0.54085 0.54075 0.54086 0.54084 0.5408 0.54086 0.54074 0.54086 0.54084 0.5408 0.54086 0.54074 0.54086 0.54084 0.5408 0.54086 0.54074 0.54086 0.54084 0.5408 0.54086 0.54077 0.54083 0.54084 0.5408 0.54086 0.54077 0.54084 0.54083 0.54083 0.54083 0.54077 0.54084 l 0.54083,6.5 h 0.54083 0.54084 0.54077 0.54083 0.54083 0.54083 0.54084 0.54077 0.54086 0.5408 0.54084 0.54083 0.54077 0.54086 0.5408 0.54084 0.54086 0.54074 0.54086 0.5408 0.54084 0.54086 0.54074 0.54086 0.5408 0.54084 0.54086 0.54074 0.54086 0.5408 0.54084 0.54086 0.54075 0.54085 0.5408 0.54084 0.54086 0.54075 0.54085 0.5408 0.54085 0.54085 0.54075 0.54085 0.5408 0.54085 0.54085 0.54075 0.54085 0.5408 0.54085 0.54085 0.54075 0.54085 0.5408 0.54085 0.54085 0.54075 0.54085 0.5408 0.54085 0.54085 0.54076"
       fill-rule="nonzero"
       id="path141"
       style="stroke:#a80000;stroke-opacity:1" />
    <text
       xml:space="preserve"
       style="font-weight:bold;font-size:12px;line-height:1.25;font-family:roboto;-inkscape-font-specification:'roboto Bold';letter-spacing:0px;word-spacing:0px"
       x="641.12408"
       y="395.46365"
       id="text3179"
       inkscape:label="B7"><tspan
         sodipodi:role="line"
         id="tspan3177"
         x="641.12408"
         y="395.46365"
         style="font-size:12px;fill:#000000;fill-opacity:1;stroke:none;stroke-opacity:1">BLOCK 7</tspan></text>
    <text
       xml:space="preserve"
       style="font-weight:bold;font-size:12px;line-height:1.25;font-family:roboto;-inkscape-font-specification:'roboto Bold';letter-spacing:0px;word-spacing:0px"
       x="641.12408"
       y="343.29971"
       id="text9851"
       inkscape:label="B6"><tspan
         sodipodi:role="line"
         id="tspan9849"
         x="641.12408"
         y="343.29971"
         style="font-size:12px;fill:#000000;fill-opacity:1;stroke:none;stroke-opacity:1">BLOCK 6</tspan></text>
    <text
       xml:space="preserve"
       style="font-weight:bold;font-size:12px;line-height:1.25;font-family:roboto;-inkscape-font-specification:'roboto Bold';letter-spacing:0px;word-spacing:0px"
       x="641.12408"
       y="291.29971"
       id="text13423"
       inkscape:label="B5"><tspan
         sodipodi:role="line"
         id="tspan13421"
         x="641.12408"
         y="291.29971"
         style="font-size:12px;fill:#000000;fill-opacity:1;stroke:none;stroke-opacity:1">BLOCK 5</tspan></text>
    <text
       xml:space="preserve"
       style="font-weight:bold;font-size:12px;line-height:1.25;font-family:roboto;-inkscape-font-specification:'roboto Bold';letter-spacing:0px;word-spacing:0px"
       x="641.12408"
       y="239.46365"
       id="text15165"
       inkscape:label="B4"><tspan
         sodipodi:role="line"
         id="tspan15163"
         x="641.12408"
         y="239.46365"
         style="font-size:12px;fill:#000000;fill-opacity:1;stroke:none;stroke-opacity:1">BLOCK 4</tspan></text>
    <text
       xml:space="preserve"
       style="font-weight:bold;font-size:12px;line-height:1.25;font-family:roboto;-inkscape-font-specification:'roboto Bold';letter-spacing:0px;word-spacing:0px"
       x="641.12408"
       y="187.46365"
       id="text16633"
       inkscape:label="B3"><tspan
         sodipodi:role="line"
         id="tspan16631"
         x="641.12408"
         y="187.46365"
         style="font-size:12px;fill:#000000;fill-opacity:1;stroke:none;stroke-opacity:1">BLOCK 3</tspan></text>
    <text
       xml:space="preserve"
       style="font-weight:bold;font-size:12px;line-height:1.25;font-family:roboto;-inkscape-font-specification:'roboto Bold';letter-spacing:0px;word-spacing:0px"
       x="641.12408"
       y="135.29971"
       id="text19163"
       inkscape:label="B2"><tspan
         sodipodi:role="line"
         id="tspan19161"
         x="641.12408"
         y="135.29971"
         style="font-size:12px;fill:#000000;fill-opacity:1;stroke:none;stroke-opacity:1">BLOCK 2</tspan></text>
    <text
       xml:space="preserve"
       style="font-weight:bold;font-size:12px;line-height:1.25;font-family:roboto;-inkscape-font-specification:'roboto Bold';letter-spacing:0px;word-spacing:0px"
       x="641.12408"
       y="83.463608"
       id="text22186"
       inkscape:label="B1"><tspan
         sodipodi:role="line"
         id="tspan22184"
         x="641.12408"
         y="83.463608"
         style="font-size:12px;fill:#000000;fill-opacity:1;stroke:none;stroke-opacity:1">BLOCK 1</tspan></text>
    <text
       xml:space="preserve"
       style="font-weight:bold;font-size:12px;line-height:1.25;font-family:roboto;-inkscape-font-specification:'roboto Bold';letter-spacing:0px;word-spacing:0px"
       x="641.12408"
       y="31.299685"
       id="text23194"
       inkscape:label="B0"><tspan
         sodipodi:role="line"
         id="tspan23192"
         x="641.12408"
         y="31.299685"
         style="font-size:12px;fill:#000000;fill-opacity:1;stroke:none;stroke-opacity:1">BLOCK 0</tspan></text>
  </g>
  <g
     id="g34636"
     inkscape:label="X Labels"
     transform="translate(-30.643227,-22.651247)">
    <text
       xml:space="preserve"
       style="font-weight:bold;font-size:13.3333px;line-height:1.25;font-family:roboto;-inkscape-font-specification:'roboto Bold';letter-spacing:0px;word-spacing:0px;fill:#000000;fill-opacity:1"
       x="78.706017"
       y="414.70068"
       id="text26158"><tspan
         sodipodi:role="line"
         id="tspan26156"
         x="78.706017"
         y="414.70068"
         style="font-size:13.3333px">0</tspan></text>
    <text
       xml:space="preserve"
       style="font-weight:bold;font-size:13.3333px;line-height:1.25;font-family:roboto;-inkscape-font-specification:'roboto Bold';letter-spacing:0px;word-spacing:0px;fill:#000000;fill-opacity:1"
       x="209.00821"
       y="414.70068"
       id="text30972"><tspan
         sodipodi:role="line"
         id="tspan30970"
         x="209.00821"
         y="414.70068"
         style="font-size:13.3333px">256</tspan></text>
    <text
       xml:space="preserve"
       style="font-weight:bold;font-size:13.3333px;line-height:1.25;font-family:roboto;-inkscape-font-specification:'roboto Bold';letter-spacing:0px;word-spacing:0px;fill:#000000;fill-opacity:1"
       x="347.89975"
       y="414.70068"
       id="text32168"><tspan
         sodipodi:role="line"
         id="tspan32166"
         x="347.89975"
         y="414.70068"
         style="font-size:13.3333px">512</tspan></text>
    <text
       xml:space="preserve"
       style="font-weight:bold;font-size:13.3333px;line-height:1.25;font-family:roboto;-inkscape-font-specification:'roboto Bold';letter-spacing:0px;word-spacing:0px;fill:#000000;fill-opacity:1"
       x="486.07028"
       y="414.70068"
       id="text32906"><tspan
         sodipodi:role="line"
         x="486.07028"
         y="414.70068"
         style="font-size:13.3333px"
         id="tspan33306">768</tspan></text>
    <text
       xml:space="preserve"
       style="font-weight:bold;font-size:13.3333px;line-height:1.25;font-family:roboto;-inkscape-font-specification:'roboto Bold';letter-spacing:0px;word-spacing:0px;fill:#000000;fill-opacity:1"
       x="620.75244"
       y="414.70068"
       id="text33640"><tspan
         sodipodi:role="line"
         x="620.75244"
         y="414.70068"
         style="font-size:13.3333px"
         id="tspan33924">1024</tspan></text>
  </g>
  <g
     id="g61212"
     inkscape:label="Y Labels"
     transform="translate(-30.643227,-22.651247)">
    <text
       xml:space="preserve"
       style="font-weight:bold;font-size:13.3333px;line-height:1.25;font-family:roboto;-inkscape-font-specification:'roboto Bold';text-align:end;letter-spacing:0px;word-spacing:0px;text-anchor:end;fill:#000000;fill-opacity:1"
       x="74.91407"
       y="35.249763"
       id="text43442"><tspan
         sodipodi:role="line"
         id="tspan43440"
         x="74.91407"
         y="35.249763">0</tspan></text>
    <text
       xml:space="preserve"
       style="font-weight:bold;font-size:13.3333px;line-height:1.25;font-family:roboto;-inkscape-font-specification:'roboto Bold';text-align:end;letter-spacing:0px;word-spacing:0px;text-anchor:end;fill:#000000;fill-opacity:1"
       x="74.91407"
       y="87.249802"
       id="text44808"><tspan
         sodipodi:role="line"
         id="tspan44806"
         x="74.91407"
         y="87.249802">-6</tspan></text>
    <text
       xml:space="preserve"
       style="font-weight:bold;font-size:13.3333px;line-height:1.25;font-family:roboto;-inkscape-font-specification:'roboto Bold';text-align:end;letter-spacing:0px;word-spacing:0px;text-anchor:end;fill:#000000;fill-opacity:1"
       x="74.91407"
       y="139.26759"
       id="text46212"><tspan
         sodipodi:role="line"
         id="tspan46210"
         x="74.91407"
         y="139.26759">-12</tspan></text>
    <text
       xml:space="preserve"
       style="font-weight:bold;font-size:13.3333px;line-height:1.25;font-family:roboto;-inkscape-font-specification:'roboto Bold';text-align:end;letter-spacing:0px;word-spacing:0px;text-anchor:end;fill:#000000;fill-opacity:1"
       x="74.91407"
       y="191.2498"
       id="text47726"><tspan
         sodipodi:role="line"
         id="tspan47724"
         x="74.91407"
         y="191.2498">-18</tspan></text>
    <text
       xml:space="preserve"
       style="font-weight:bold;font-size:13.3333px;line-height:1.25;font-family:roboto;-inkscape-font-specification:'roboto Bold';text-align:end;letter-spacing:0px;word-spacing:0px;text-anchor:end;fill:#000000;fill-opacity:1"
       x="74.91407"
       y="243.26759"
       id="text49512"><tspan
         sodipodi:role="line"
         id="tspan49510"
         x="74.91407"
         y="243.26759">-24</tspan></text>
    <text
       xml:space="preserve"
       style="font-weight:bold;font-size:13.3333px;line-height:1.25;font-family:roboto;-inkscape-font-specification:'roboto Bold';text-align:end;letter-spacing:0px;word-spacing:0px;text-anchor:end;fill:#000000;fill-opacity:1"
       x="74.91407"
       y="295.24979"
       id="text51082"><tspan
         sodipodi:role="line"
         id="tspan51080"
         x="74.91407"
         y="295.24979">-30</tspan></text>
    <text
       xml:space="preserve"
       style="font-weight:bold;font-size:13.3333px;line-height:1.25;font-family:roboto;-inkscape-font-specification:'roboto Bold';text-align:end;letter-spacing:0px;word-spacing:0px;text-anchor:end;fill:#000000;fill-opacity:1"
       x="74.91407"
       y="347.24979"
       id="text51838"><tspan
         sodipodi:role="line"
         id="tspan51836"
         x="74.91407"
         y="347.24979">-36</tspan></text>
    <text
       xml:space="preserve"
       style="font-weight:bold;font-size:13.3333px;line-height:1.25;font-family:roboto;-inkscape-font-specification:'roboto Bold';text-align:end;letter-spacing:0px;word-spacing:0px;text-anchor:end;fill:#000000;fill-opacity:1"
       x="74.91407"
       y="399.24979"
       id="text53488"><tspan
         sodipodi:role="line"
         id="tspan53486"
         x="74.91407"
         y="399.24979">-42</tspan></text>
  </g>
  <text
     xml:space="preserve"
     style="font-weight:bold;font-size:13.3333px;line-height:1.25;font-family:roboto;-inkscape-font-specification:'roboto Bold';letter-spacing:0px;word-spacing:0px"
     x="252.46048"
     y="413.27509"
     id="text35622"
     inkscape:label="X Title"><tspan
       sodipodi:role="line"
       id="tspan35620"
       x="252.46048"
       y="413.27509"
       style="font-size:13.3333px;fill:#000000;fill-opacity:1">Frequency Value (F NUM)</tspan></text>
  <text
     xml:space="preserve"
     style="font-weight:bold;font-size:13.3333px;line-height:1.25;font-family:roboto;-inkscape-font-specification:'roboto Bold';letter-spacing:0px;word-spacing:0px"
     x="-189.50371"
     y="10.520806"
     id="text61296"
     inkscape:label="Y Title"
     transform="rotate(-90)"><tspan
       sodipodi:role="line"
       id="tspan61294"
       x="-189.50371"
       y="10.520806"
       style="font-size:13.3333px;text-align:center;text-anchor:middle;fill:#000000;fill-opacity:1">Attenuation (Decibels)</tspan></text>
  <text
     xml:space="preserve"
     style="font-weight:bold;font-size:17.3333px;line-height:1.25;font-family:roboto;-inkscape-font-specification:'roboto Bold';text-align:end;letter-spacing:0px;word-spacing:0px;text-anchor:end"
     x="328.9624"
     y="463.61118"
     id="text65362"
     inkscape:label="Caption"><tspan
       sodipodi:role="line"
       id="tspan65360"
       x="328.9624"
       y="463.61118"
       style="font-size:17.3333px;text-align:center;text-anchor:middle;fill:#000000;fill-opacity:1">&quot;Key Scaling of Level&quot; Frequency/Attenuation Graph</tspan></text>
  <text
     xml:space="preserve"
     style="font-weight:bold;font-size:9.91993px;line-height:1.25;font-family:roboto;-inkscape-font-specification:'roboto Bold';text-align:end;letter-spacing:0px;word-spacing:0px;text-anchor:end;stroke-width:1"
     x="7.2327833"
     y="433.22125"
     id="text70866"
     inkscape:label="Note"><tspan
       sodipodi:role="line"
       id="tspan70864"
       x="7.2327833"
       y="433.22125"
       style="font-weight:normal;text-align:start;text-anchor:start;fill:#000000;fill-opacity:1;stroke-width:1"><tspan
   style="font-weight:bold;stroke-width:1"
   id="tspan74218">Note:</tspan> Illustration uses -6 dB/octave KSL setting. For -3 dB/octave, divide attenuation values by 2. For -1.5 db/octave, divide attenuation values by 4.</tspan></text>
</svg>
