<?xml version="1.0" encoding="UTF-8" standalone="no"?>
<svg
   version="1.1"
   viewBox="0 0 599.26617 392.53199"
   fill="none"
   stroke="none"
   stroke-linecap="square"
   stroke-miterlimit="10"
   width="599.26617"
   height="392.53198"
   id="svg1885"
   sodipodi:docname="sine-function.svg"
   inkscape:version="1.1 (c68e22c387, 2021-05-23)"
   xmlns:inkscape="http://www.inkscape.org/namespaces/inkscape"
   xmlns:sodipodi="http://sodipodi.sourceforge.net/DTD/sodipodi-0.dtd"
   xmlns="http://www.w3.org/2000/svg"
   xmlns:svg="http://www.w3.org/2000/svg">
  <defs
     id="defs1889">
    <marker
       style="overflow:visible"
       id="StopL"
       refX="0"
       refY="0"
       orient="auto"
       inkscape:stockid="StopL"
       inkscape:isstock="true">
      <path
         transform="scale(0.8)"
         style="fill:none;fill-opacity:0.75;fill-rule:evenodd;stroke:context-stroke;stroke-width:1pt"
         d="M 0,5.65 V -5.65"
         id="path9801" />
    </marker>
    <marker
       style="overflow:visible"
       id="Arrow1Mstart"
       refX="0"
       refY="0"
       orient="auto"
       inkscape:stockid="Arrow1Mstart"
       inkscape:isstock="true">
      <path
         transform="matrix(0.4,0,0,0.4,4,0)"
         style="fill:context-stroke;fill-rule:evenodd;stroke:context-stroke;stroke-width:1pt"
         d="M 0,0 5,-5 -12.5,0 5,5 Z"
         id="path9638" />
    </marker>
    <marker
       style="overflow:visible"
       id="Arrow1Mend"
       refX="0"
       refY="0"
       orient="auto"
       inkscape:stockid="Arrow1Mend"
       inkscape:isstock="true">
      <path
         transform="matrix(-0.4,0,0,-0.4,-4,0)"
         style="fill:context-stroke;fill-rule:evenodd;stroke:context-stroke;stroke-width:1pt"
         d="M 0,0 5,-5 -12.5,0 5,5 Z"
         id="path9641" />
    </marker>
  </defs>
  <sodipodi:namedview
     id="namedview1887"
     pagecolor="#ffffff"
     bordercolor="#666666"
     borderopacity="1.0"
     inkscape:pageshadow="2"
     inkscape:pageopacity="0.0"
     inkscape:pagecheckerboard="true"
     showgrid="false"
     inkscape:zoom="1.2097406"
     inkscape:cx="274.02569"
     inkscape:cy="192.60328"
     inkscape:window-width="1280"
     inkscape:window-height="962"
     inkscape:window-x="-8"
     inkscape:window-y="-8"
     inkscape:window-maximized="1"
     inkscape:current-layer="svg1885"
     fit-margin-top="0"
     fit-margin-left="0"
     fit-margin-right="0"
     fit-margin-bottom="0" />
  <g
     id="g9458"
     inkscape:label="X Grid"
     style="display:inline"
     transform="translate(-7.8824844,9.4165545)">
    <path
       stroke="#000000"
       stroke-width="1"
       stroke-linecap="butt"
       d="M 45.5,326.5 V 25.5"
       fill-rule="nonzero"
       id="path32"
       style="display:inline;stroke-width:2;stroke-miterlimit:10;stroke-dasharray:none" />
    <path
       stroke="#cccccc"
       stroke-width="1"
       stroke-linecap="butt"
       d="m 105.5,25.5 v 301"
       fill-rule="nonzero"
       id="path6"
       style="display:inline" />
    <path
       stroke="#cccccc"
       stroke-width="1"
       stroke-linecap="butt"
       d="m 164.5,25.5 v 301"
       fill-rule="nonzero"
       id="path8"
       style="display:inline" />
    <path
       stroke="#cccccc"
       stroke-width="1"
       stroke-linecap="butt"
       d="m 224.5,25.5 v 301"
       fill-rule="nonzero"
       id="path10"
       style="display:inline" />
    <path
       stroke="#cccccc"
       stroke-width="1"
       stroke-linecap="butt"
       d="m 283.5,25.5 v 301"
       fill-rule="nonzero"
       id="path12"
       style="display:inline;stroke:#999999;stroke-width:3;stroke-miterlimit:10;stroke-dasharray:3, 3;stroke-dashoffset:0;stroke-opacity:1" />
    <path
       stroke="#cccccc"
       stroke-width="1"
       stroke-linecap="butt"
       d="m 343.5,25.5 v 301"
       fill-rule="nonzero"
       id="path14"
       style="display:inline" />
    <path
       stroke="#cccccc"
       stroke-width="1"
       stroke-linecap="butt"
       d="m 402.5,25.5 v 301"
       fill-rule="nonzero"
       id="path16"
       style="display:inline" />
    <path
       stroke="#cccccc"
       stroke-width="1"
       stroke-linecap="butt"
       d="m 462.5,25.5 v 301"
       fill-rule="nonzero"
       id="path18"
       style="display:inline" />
    <path
       stroke="#cccccc"
       stroke-width="1"
       stroke-linecap="butt"
       d="m 521.5,25.5 v 301"
       fill-rule="nonzero"
       id="path20"
       style="display:inline;stroke:#999999;stroke-width:3;stroke-miterlimit:10;stroke-dasharray:3, 3;stroke-dashoffset:0;stroke-opacity:1" />
    <path
       stroke="#cccccc"
       stroke-width="1"
       stroke-linecap="butt"
       d="m 581.5,25.5 v 301"
       fill-rule="nonzero"
       id="path22"
       style="display:inline" />
  </g>
  <g
     id="g9463"
     inkscape:label="Y Grid"
     style="display:inline"
     transform="translate(-7.8824844,9.4165545)">
    <path
       stroke="#cccccc"
       stroke-width="1"
       stroke-linecap="butt"
       d="m 45.5,326.5 h 536"
       fill-rule="nonzero"
       id="path24"
       style="display:inline" />
    <path
       stroke="#333333"
       stroke-width="1"
       stroke-linecap="butt"
       d="m 45.5,176.5 h 536"
       fill-rule="nonzero"
       id="path26"
       style="display:inline;stroke-width:2;stroke-miterlimit:10;stroke-dasharray:none" />
    <path
       stroke="#cccccc"
       stroke-width="1"
       stroke-linecap="butt"
       d="m 45.5,25.5 h 536"
       fill-rule="nonzero"
       id="path28"
       style="display:inline" />
  </g>
  <g
     id="g9475"
     inkscape:label="X Ticks"
     style="display:inline"
     transform="translate(-7.8824844,9.4165545)">
    <path
       stroke="#000000"
       stroke-width="1"
       stroke-linecap="butt"
       d="m 45.5,332.5 v -12"
       fill-rule="nonzero"
       id="path1839"
       style="display:inline;stroke-width:2;stroke-miterlimit:10;stroke-dasharray:none" />
    <path
       stroke="#000000"
       stroke-width="1"
       stroke-linecap="butt"
       d="m 105.5,332.5 v -12"
       fill-rule="nonzero"
       id="path1841" />
    <path
       stroke="#000000"
       stroke-width="1"
       stroke-linecap="butt"
       d="m 164.5,332.5 v -12"
       fill-rule="nonzero"
       id="path1843" />
    <path
       stroke="#000000"
       stroke-width="1"
       stroke-linecap="butt"
       d="m 224.5,332.5 v -12"
       fill-rule="nonzero"
       id="path1845" />
    <path
       stroke="#000000"
       stroke-width="1"
       stroke-linecap="butt"
       d="m 283.5,332.5 v -12"
       fill-rule="nonzero"
       id="path1847" />
    <path
       stroke="#000000"
       stroke-width="1"
       stroke-linecap="butt"
       d="m 343.5,332.5 v -12"
       fill-rule="nonzero"
       id="path1849" />
    <path
       stroke="#000000"
       stroke-width="1"
       stroke-linecap="butt"
       d="m 402.5,332.5 v -12"
       fill-rule="nonzero"
       id="path1851" />
    <path
       stroke="#000000"
       stroke-width="1"
       stroke-linecap="butt"
       d="m 462.5,332.5 v -12"
       fill-rule="nonzero"
       id="path1853" />
    <path
       stroke="#000000"
       stroke-width="1"
       stroke-linecap="butt"
       d="m 521.5,332.5 v -12"
       fill-rule="nonzero"
       id="path1855" />
    <path
       stroke="#000000"
       stroke-width="1"
       stroke-linecap="butt"
       d="m 581.5,332.5 v -12"
       fill-rule="nonzero"
       id="path1857" />
  </g>
  <g
     id="g9514"
     inkscape:label="Y Ticks"
     transform="rotate(90,165.50858,153.5162)"
     style="display:inline">
    <path
       stroke="#000000"
       stroke-width="1"
       stroke-linecap="butt"
       d="m 46.95894,287.35726 v -12"
       fill-rule="nonzero"
       id="path9494"
       style="display:inline" />
    <path
       stroke="#000000"
       stroke-width="1"
       stroke-linecap="butt"
       d="m 197.90894,287.40726 v -12"
       fill-rule="nonzero"
       id="path9496"
       style="stroke-width:2;stroke-miterlimit:10;stroke-dasharray:none" />
    <path
       stroke="#000000"
       stroke-width="1"
       stroke-linecap="butt"
       d="m 347.85894,287.35726 v -12"
       fill-rule="nonzero"
       id="path9498" />
  </g>
  <g
     id="g9492"
     inkscape:label="X Labels"
     style="display:inline"
     transform="translate(-7.8824844,9.4165545)">
    <text
       xml:space="preserve"
       style="font-weight:bold;font-size:16px;line-height:1.25;font-family:roboto;-inkscape-font-specification:'roboto Bold';letter-spacing:0px;word-spacing:0px"
       x="40.863651"
       y="348.10339"
       id="text16749"><tspan
         sodipodi:role="line"
         id="tspan16747"
         x="40.863651"
         y="348.10339"
         style="fill:#000000;fill-opacity:1">0</tspan></text>
    <text
       xml:space="preserve"
       style="font-weight:bold;font-size:8.64842px;line-height:1;font-family:roboto;-inkscape-font-specification:'roboto Bold';letter-spacing:0px;word-spacing:0px;stroke-width:0.999996"
       x="163.3587"
       y="342.94748"
       id="text17094"><tspan
         sodipodi:role="line"
         id="tspan17092"
         x="163.3587"
         y="342.94748"
         style="text-align:center;text-anchor:middle;fill:#000000;fill-opacity:1;stroke-width:0.999996">π radians;</tspan><tspan
         sodipodi:role="line"
         x="163.3587"
         y="351.59589"
         style="text-align:center;text-anchor:middle;fill:#000000;fill-opacity:1;stroke-width:0.999996"
         id="tspan18174">180 degrees</tspan></text>
    <text
       xml:space="preserve"
       style="font-weight:bold;font-size:8.64842px;line-height:1;font-family:roboto;-inkscape-font-specification:'roboto Bold';letter-spacing:0px;word-spacing:0px;stroke-width:0.999996"
       x="283.3587"
       y="342.94748"
       id="text21808"><tspan
         sodipodi:role="line"
         id="tspan21804"
         x="283.3587"
         y="342.94748"
         style="text-align:center;text-anchor:middle;fill:#000000;fill-opacity:1;stroke-width:0.999996">2π radians;</tspan><tspan
         sodipodi:role="line"
         x="283.3587"
         y="351.59589"
         style="text-align:center;text-anchor:middle;fill:#000000;fill-opacity:1;stroke-width:0.999996"
         id="tspan21806">360 degrees</tspan></text>
    <text
       xml:space="preserve"
       style="font-weight:bold;font-size:8.64842px;line-height:1;font-family:roboto;-inkscape-font-specification:'roboto Bold';letter-spacing:0px;word-spacing:0px;stroke-width:0.999996"
       x="402.2326"
       y="342.94748"
       id="text24196"><tspan
         sodipodi:role="line"
         id="tspan24192"
         x="402.2326"
         y="342.94748"
         style="text-align:center;text-anchor:middle;fill:#000000;fill-opacity:1;stroke-width:0.999996">3π radians;</tspan><tspan
         sodipodi:role="line"
         x="402.2326"
         y="351.59589"
         style="text-align:center;text-anchor:middle;fill:#000000;fill-opacity:1;stroke-width:0.999996"
         id="tspan24194">540 degrees</tspan></text>
    <text
       xml:space="preserve"
       style="font-weight:bold;font-size:8.64842px;line-height:1;font-family:roboto;-inkscape-font-specification:'roboto Bold';letter-spacing:0px;word-spacing:0px;stroke-width:0.999996"
       x="521.57715"
       y="342.94748"
       id="text24202"><tspan
         sodipodi:role="line"
         id="tspan24198"
         x="521.57715"
         y="342.94748"
         style="text-align:center;text-anchor:middle;fill:#000000;fill-opacity:1;stroke-width:0.999996">4π radians;</tspan><tspan
         sodipodi:role="line"
         x="521.57715"
         y="351.59589"
         style="text-align:center;text-anchor:middle;fill:#000000;fill-opacity:1;stroke-width:0.999996"
         id="tspan24200">720 degrees</tspan></text>
    <text
       xml:space="preserve"
       style="font-weight:bold;font-size:8.64842px;line-height:1;font-family:roboto;-inkscape-font-specification:'roboto Bold';letter-spacing:0px;word-spacing:0px;fill:#666666;fill-opacity:1;stroke:none;stroke-width:0.999996"
       x="105.3587"
       y="342.94748"
       id="text30472"><tspan
         sodipodi:role="line"
         id="tspan30468"
         x="105.3587"
         y="342.94748"
         style="text-align:center;text-anchor:middle;fill:#666666;fill-opacity:1;stroke:none;stroke-width:0.999996">π/2 radians;</tspan><tspan
         sodipodi:role="line"
         x="105.3587"
         y="351.59589"
         style="text-align:center;text-anchor:middle;fill:#666666;fill-opacity:1;stroke:none;stroke-width:0.999996"
         id="tspan30470">90 degrees</tspan></text>
    <text
       xml:space="preserve"
       style="font-weight:bold;font-size:8.64842px;line-height:1;font-family:roboto;-inkscape-font-specification:'roboto Bold';letter-spacing:0px;word-spacing:0px;fill:#666666;fill-opacity:1;stroke:none;stroke-width:0.999996"
       x="225.3587"
       y="342.94748"
       id="text32052"><tspan
         sodipodi:role="line"
         id="tspan32048"
         x="225.3587"
         y="342.94748"
         style="text-align:center;text-anchor:middle;fill:#666666;fill-opacity:1;stroke:none;stroke-width:0.999996">3π/2 radians;</tspan><tspan
         sodipodi:role="line"
         x="225.3587"
         y="351.59589"
         style="text-align:center;text-anchor:middle;fill:#666666;fill-opacity:1;stroke:none;stroke-width:0.999996"
         id="tspan32050">270 degrees</tspan></text>
    <text
       xml:space="preserve"
       style="font-weight:bold;font-size:8.64842px;line-height:1;font-family:roboto;-inkscape-font-specification:'roboto Bold';letter-spacing:0px;word-spacing:0px;fill:#666666;fill-opacity:1;stroke:none;stroke-width:0.999996"
       x="343.62976"
       y="342.94748"
       id="text37220"><tspan
         sodipodi:role="line"
         id="tspan37216"
         x="343.62976"
         y="342.94748"
         style="text-align:center;text-anchor:middle;fill:#666666;fill-opacity:1;stroke:none;stroke-width:0.999996">5π/2 radians;</tspan><tspan
         sodipodi:role="line"
         x="343.62976"
         y="351.59589"
         style="text-align:center;text-anchor:middle;fill:#666666;fill-opacity:1;stroke:none;stroke-width:0.999996"
         id="tspan37218">450 degrees</tspan></text>
    <text
       xml:space="preserve"
       style="font-weight:bold;font-size:8.64842px;line-height:1;font-family:roboto;-inkscape-font-specification:'roboto Bold';letter-spacing:0px;word-spacing:0px;fill:#666666;fill-opacity:1;stroke:none;stroke-width:0.999996"
       x="462.72827"
       y="342.94748"
       id="text38684"><tspan
         sodipodi:role="line"
         id="tspan38680"
         x="462.72827"
         y="342.94748"
         style="text-align:center;text-anchor:middle;fill:#666666;fill-opacity:1;stroke:none;stroke-width:0.999996">7π/2 radians;</tspan><tspan
         sodipodi:role="line"
         x="462.72827"
         y="351.59589"
         style="text-align:center;text-anchor:middle;fill:#666666;fill-opacity:1;stroke:none;stroke-width:0.999996"
         id="tspan38682">630 degrees</tspan></text>
    <text
       xml:space="preserve"
       style="font-weight:bold;font-size:8.64842px;line-height:1;font-family:roboto;-inkscape-font-specification:'roboto Bold';letter-spacing:0px;word-spacing:0px;fill:#666666;fill-opacity:1;stroke:none;stroke-width:0.999996"
       x="581.62988"
       y="342.94748"
       id="text42154"><tspan
         sodipodi:role="line"
         id="tspan42150"
         x="581.62988"
         y="342.94748"
         style="text-align:center;text-anchor:middle;fill:#666666;fill-opacity:1;stroke:none;stroke-width:0.999996">9π/2 radians;</tspan><tspan
         sodipodi:role="line"
         x="581.62988"
         y="351.59589"
         style="text-align:center;text-anchor:middle;fill:#666666;fill-opacity:1;stroke:none;stroke-width:0.999996"
         id="tspan42152">810 degrees</tspan></text>
  </g>
  <clipPath
     id="id_0">
    <path
       d="m 45.55,25.55 h 535.9 v 300.9 H 45.55 Z"
       clip-rule="nonzero"
       id="path34" />
  </clipPath>
  <g
     id="g9480"
     inkscape:label="Y Labels"
     style="display:inline"
     transform="translate(-7.8824844,9.4165545)">
    <text
       xml:space="preserve"
       style="font-weight:bold;font-size:16px;line-height:1.25;font-family:roboto;-inkscape-font-specification:'roboto Bold';letter-spacing:0px;word-spacing:0px"
       x="25.054359"
       y="181.44531"
       id="text11164"><tspan
         sodipodi:role="line"
         id="tspan11162"
         x="25.054359"
         y="181.44531"
         style="fill:#000000;fill-opacity:1">0</tspan></text>
    <text
       xml:space="preserve"
       style="font-weight:bold;font-size:16px;line-height:1.25;font-family:roboto;-inkscape-font-specification:'roboto Bold';letter-spacing:0px;word-spacing:0px"
       x="13.226234"
       y="30.924999"
       id="text12721"><tspan
         sodipodi:role="line"
         id="tspan12719"
         x="13.226234"
         y="30.924999"
         style="fill:#000000;fill-opacity:1">1.0</tspan></text>
    <text
       xml:space="preserve"
       style="font-weight:bold;font-size:16px;line-height:1.25;font-family:roboto;-inkscape-font-specification:'roboto Bold';letter-spacing:0px;word-spacing:0px"
       x="7.0231094"
       y="331.82501"
       id="text15141"><tspan
         sodipodi:role="line"
         id="tspan15139"
         x="7.0231094"
         y="331.82501"
         style="fill:#000000;fill-opacity:1">-1.0</tspan></text>
  </g>
  <g
     id="g47406"
     inkscape:label="One Period"
     transform="translate(-7.8824844,11.135242)">
    <path
       style="fill:none;stroke:#000000;stroke-width:2;stroke-linecap:butt;stroke-linejoin:miter;stroke-miterlimit:10;stroke-dasharray:none;stroke-opacity:1;marker-start:url(#StopL);marker-end:url(#StopL)"
       d="m 283.5,5.5 h 238"
       id="path45680"
       sodipodi:nodetypes="cc" />
    <text
       xml:space="preserve"
       style="font-weight:bold;font-size:13.3333px;line-height:1.25;font-family:roboto;-inkscape-font-specification:'roboto Bold';letter-spacing:0px;word-spacing:0px"
       x="369.40112"
       y="-1.1352677"
       id="text46625"><tspan
         sodipodi:role="line"
         id="tspan46623"
         x="369.40112"
         y="-1.1352677"
         style="font-size:13.3333px;fill:#000000;fill-opacity:1">One Period</tspan></text>
  </g>
  <text
     xml:space="preserve"
     style="font-weight:bold;font-size:8.54626px;line-height:1;font-family:roboto;-inkscape-font-specification:'roboto Bold';letter-spacing:0px;word-spacing:0px;stroke-width:1"
     x="524.78156"
     y="18.314716"
     id="text48134"
     inkscape:label="text48134"><tspan
       sodipodi:role="line"
       id="tspan48132"
       x="524.78156"
       y="18.314716"
       style="font-size:8.54626px;fill:#000000;fill-opacity:1;stroke-width:1">Continues infinitely</tspan><tspan
       sodipodi:role="line"
       x="524.78156"
       y="26.860975"
       style="font-size:8.54626px;fill:#000000;fill-opacity:1;stroke-width:1"
       id="tspan48586">in both directions...</tspan></text>
  <path
     stroke="#4285f4"
     stroke-width="2"
     stroke-linecap="butt"
     d="m 24.322516,237.73032 c 0,0 13.74197,-53.88932 13.94044,-54.67693 0.19849,-0.78763 0.39697,-1.57526 0.59545,-2.36259 0.19848,-0.78733 0.39696,-1.57457 0.59545,-2.36141 0.19847,-0.78685 0.39696,-1.5735 0.59544,-2.35968 0.19848,-0.78616 0.39696,-1.57204 0.59544,-2.35733 0.19849,-0.78529 0.39697,-1.5702 0.59545,-2.35443 0.19848,-0.78423 0.39696,-1.56796 0.59544,-2.35092 0.19848,-0.78298 0.39697,-1.56535 0.59545,-2.34686 0.19848,-0.78152 0.39696,-1.56235 0.59544,-2.34222 0.19848,-0.77985 0.39696,-1.55894 0.59545,-2.33697 0.19848,-0.77801 0.39696,-1.55517 0.59544,-2.33116 0.19848,-0.776 0.39696,-1.55103 0.59544,-2.32478 0.19849,-0.77378 0.39697,-1.54648 0.59545,-2.31784 0.19848,-0.77135 0.39696,-1.54155 0.59544,-2.31031 0.19849,-0.76874 0.39697,-1.53624 0.59545,-2.3022 0.19848,-0.76596 0.39696,-1.53056 0.59544,-2.29353 0.19848,-0.76299 0.39697,-1.52451 0.59545,-2.28431 0.19848,-0.7598 0.39696,-1.51807 0.59544,-2.27451 0.19848,-0.75644 0.39696,-1.51126 0.59545,-2.26416 0.19848,-0.7529 0.39696,-1.50406 0.59544,-2.25324 0.19848,-0.74916 0.39696,-1.49652 0.59544,-2.24177 0.19849,-0.74525 0.39697,-1.48859 0.59545,-2.22974 0.19848,-0.74115 0.39696,-1.4803 0.59545,-2.21717 0.19847,-0.73687 0.39696,-1.47164 0.59544,-2.20405 0.19848,-0.7324 0.39696,-1.46262 0.59544,-2.19038 0.19849,-0.72776 0.39696,-1.45324 0.59545,-2.17618 0.19848,-0.72294 0.39696,-1.44351 0.59544,-2.16144 0.19848,-0.71792 0.39697,-1.4334 0.59544,-2.14615 0.19849,-0.71276 0.39697,-1.42296 0.59545,-2.13036 0.19848,-0.7074 0.39696,-1.41216 0.59545,-2.11402 0.19848,-0.70187 0.39696,-1.40101 0.59544,-2.09717 0.19848,-0.69616 0.39696,-1.38951 0.59545,-2.0798 0.19848,-0.69029 0.39695,-1.37767 0.59544,-2.06192 0.19848,-0.68424 0.39696,-1.3655 0.59544,-2.04352 0.19848,-0.67802 0.39697,-1.35298 0.59545,-2.02463 0.19848,-0.67164 0.39696,-1.34013 0.59544,-2.00523 0.19848,-0.66509 0.39697,-1.32696 0.59544,-1.98535 0.19848,-0.65837 0.39697,-1.31344 0.59545,-1.96495 0.19849,-0.65152 0.39696,-1.299628 0.59544,-1.944098 0.19849,-0.644472 0.39697,-1.285467 0.59545,-1.922747 0.19848,-0.63728 0.39696,-1.271 0.59544,-1.90093 0.19849,-0.62993 0.39696,-1.25623 0.59545,-1.87865 0.19848,-0.62242 0.39696,-1.241125 0.59544,-1.85589 0.19848,-0.61476 0.39696,-1.22573 0.59545,-1.83268 0.19848,-0.60695 0.39696,-1.21003 0.59544,-1.80902 0.19848,-0.59899 0.39697,-1.19403 0.59545,-1.78491 0.19847,-0.59088 0.39696,-1.17774 0.59544,-1.76036 0.19848,-0.58263 0.39696,-1.161156 0.59544,-1.73538 0.19848,-0.57423 0.39697,-1.14429 0.59545,-1.70997 0.19848,-0.56568 0.39696,-1.12713 0.59544,-1.68414 0.19849,-0.556996 0.39697,-1.1097 0.59544,-1.65788 0.19849,-0.54819 0.39697,-1.091994 0.59545,-1.63123 0.19848,-0.53923 0.39696,-1.07402 0.59545,-1.60417 0.19848,-0.53015 0.39696,-1.05578 0.59544,-1.57671 0.19848,-0.52093 0.39696,-1.037285 0.59545,-1.548866 0.19848,-0.511584 0.39696,-1.018528 0.59544,-1.520641 0.19848,-0.502113 0.39697,-0.99952 0.59544,-1.492039 0.19848,-0.492514 0.39697,-0.980267 0.59545,-1.463066 0.19848,-0.482798 0.39696,-0.96077 0.59544,-1.433735 0.19849,-0.472965 0.39697,-0.94104 0.59545,-1.404049 0.19848,-0.463014 0.39696,-0.921074 0.59544,-1.37402 0.19849,-0.452942 0.39696,-0.900884 0.59544,-1.343647 0.19849,-0.442764 0.39697,-0.880467 0.59545,-1.312947 0.19848,-0.432475 0.39696,-0.859836 0.59545,-1.281917 0.19848,-0.422081 0.39696,-0.838993 0.59544,-1.250576 0.19848,-0.411583 0.39696,-0.817943 0.59545,-1.218927 0.19847,-0.40098 0.39696,-0.796686 0.59544,-1.18697 0.19848,-0.390283 0.39696,-0.775244 0.59544,-1.15473 0.19848,-0.37949 0.39697,-0.7536 0.59545,-1.1222 0.19848,-0.3686 0.39696,-0.731773 0.59544,-1.089393 0.19849,-0.357617 0.39697,-0.709767 0.59544,-1.056317 0.19849,-0.34655 0.39697,-0.687584 0.59545,-1.02298 0.19848,-0.335395 0.39696,-0.665233 0.59544,-0.989395 0.19849,-0.324157 0.39697,-0.642715 0.59545,-0.955558 0.19848,-0.312844 0.39696,-0.620045 0.59545,-0.921494 0.19848,-0.301449 0.39695,-0.597217 0.59544,-0.887195 0.19848,-0.289978 0.39696,-0.574242 0.59544,-0.852681 0.19848,-0.278442 0.39697,-0.551127 0.59545,-0.817957 0.19848,-0.266832 0.39696,-0.527875 0.59544,-0.783033 0.19848,-0.255157 0.39697,-0.50449 0.59545,-0.747909 0.19848,-0.24342 0.39696,-0.480984 0.59544,-0.712608 0.19849,-0.231622 0.39696,-0.457358 0.59544,-0.677125 0.19849,-0.219768 0.39697,-0.43362 0.59545,-0.641479 0.19848,-0.207857 0.39696,-0.409773 0.59545,-0.605673 0.19848,-0.195898 0.39696,-0.385828 0.59544,-0.569718 0.19848,-0.183889 0.39696,-0.361785 0.59545,-0.533622 0.19847,-0.171835 0.39695,-0.337654 0.59544,-0.497395 0.19848,-0.15974 0.39696,-0.31344 0.59544,-0.461044 0.19848,-0.147606 0.39697,-0.28915 0.59545,-0.424582 0.19848,-0.135432 0.39696,-0.264785 0.59544,-0.388014 0.19848,-0.123226 0.39697,-0.240356 0.59544,-0.351347 0.19849,-0.110992 0.39697,-0.215869 0.59545,-0.314598 0.19848,-0.09873 0.39696,-0.19133 0.59544,-0.277769 0.19849,-0.08644 0.39697,-0.16674 0.59544,-0.240871 0.19849,-0.07413 0.39697,-0.142111 0.59546,-0.203917 0.19847,-0.0618 0.39695,-0.117446 0.59544,-0.166908 0.19848,-0.04946 0.39696,-0.09275 0.59544,-0.12986 0.19848,-0.03711 0.39696,-0.06804 0.59545,-0.09278 0.19848,-0.02474 0.39696,-0.0433 0.59544,-0.05568 0.19848,-0.01237 0.39697,-0.01856 0.59544,-0.01856 0.19848,0 0.39697,0.0062 0.59545,0.01856 0.19848,0.01237 0.39696,0.03093 0.59544,0.05568 0.19849,0.02474 0.39697,0.05567 0.59545,0.09278 0.19848,0.03711 0.39696,0.0804 0.59544,0.12986 0.19849,0.04946 0.39696,0.105104 0.595444,0.166908 0.19849,0.06181 0.39697,0.129786 0.59545,0.203917 0.19848,0.07413 0.39696,0.15443 0.59545,0.240871 0.19848,0.08644 0.39696,0.179041 0.59544,0.277769 0.19848,0.09873 0.39697,0.203606 0.59545,0.314598 0.19847,0.110991 0.39696,0.228121 0.59544,0.351347 0.19848,0.123229 0.39696,0.252582 0.59544,0.388014 0.19848,0.135432 0.39697,0.276976 0.59545,0.424582 0.19848,0.147604 0.39696,0.301304 0.59544,0.461044 0.19849,0.159741 0.39697,0.32556 0.59544,0.497395 0.19849,0.171837 0.39697,0.349733 0.59545,0.533622 0.19848,0.18389 0.39696,0.37382 0.59545,0.569718 0.19848,0.1959 0.39696,0.397816 0.59544,0.605673 0.19848,0.207859 0.39696,0.421711 0.59545,0.641479 0.19848,0.219767 0.39695,0.445503 0.59544,0.677125 0.19848,0.231624 0.39697,0.469188 0.59544,0.712608 0.19848,0.243419 0.39697,0.492752 0.59545,0.747909 0.19848,0.255158 0.39696,0.516201 0.59544,0.783033 0.19848,0.26683 0.39697,0.539515 0.59545,0.817957 0.19848,0.278439 0.39696,0.562703 0.59544,0.852681 0.19849,0.289978 0.39696,0.585746 0.59544,0.887195 0.19849,0.301449 0.39697,0.60865 0.59545,0.921494 0.19848,0.312843 0.39696,0.631401 0.59545,0.955558 0.19848,0.324162 0.39696,0.654 0.59544,0.989395 0.19848,0.335396 0.39696,0.67643 0.59545,1.02298 0.19847,0.34655 0.39695,0.6987 0.59544,1.056317 0.19848,0.35762 0.39696,0.720793 0.59544,1.089393 0.19848,0.3686 0.39697,0.74271 0.59545,1.1222 0.19847,0.379486 0.39696,0.764447 0.59544,1.15473 0.19848,0.390284 0.39697,0.78599 0.59544,1.18697 0.19849,0.400984 0.39697,0.807344 0.59545,1.218927 0.19848,0.411583 0.39696,0.828495 0.59544,1.250576 0.19849,0.422081 0.39697,0.849442 0.59545,1.281917 0.19848,0.43248 0.39696,0.870183 0.59545,1.312947 0.19848,0.442763 0.39696,0.890705 0.59543,1.343647 0.19849,0.452946 0.39698,0.911006 0.59545,1.37402 0.19848,0.463009 0.39697,0.931084 0.59544,1.404049 0.19849,0.472965 0.39697,0.950937 0.59544,1.433735 0.19849,0.482799 0.39698,0.970552 0.59546,1.463066 0.19847,0.492519 0.39696,0.989926 0.59544,1.492039 0.19848,0.502113 0.39696,1.009057 0.59545,1.520641 0.19847,0.511581 0.39695,1.027936 0.59545,1.548866 0.19846,0.52093 0.39695,1.04656 0.59544,1.57671 0.19847,0.53015 0.39696,1.06494 0.59544,1.60417 0.19847,0.539236 0.39696,1.08304 0.59544,1.63123 0.19849,0.54818 0.39696,1.100884 0.59545,1.65788 0.19849,0.55701 0.39696,1.11846 0.59544,1.68414 0.19849,0.56568 0.39696,1.13574 0.59545,1.70997 0.19848,0.574224 0.39695,1.15275 0.59544,1.73538 0.19849,0.58262 0.39696,1.16948 0.59544,1.76036 0.19849,0.59088 0.39696,1.18592 0.59545,1.78491 0.19848,0.59899 0.39695,1.20207 0.59544,1.80902 0.19849,0.60695 0.39697,1.21792 0.59544,1.83268 0.19849,0.614765 0.39698,1.23347 0.59545,1.85589 0.19848,0.62242 0.39697,1.24872 0.59544,1.87865 0.19849,0.62993 0.39697,1.26365 0.59544,1.90093 0.19849,0.63728 0.39698,1.278275 0.59545,1.922747 0.19849,0.64447 0.39697,1.292578 0.59545,1.944098 0.19848,0.65151 0.39697,1.30658 0.59544,1.96495 0.19848,0.65839 0.39697,1.32026 0.59546,1.98535 0.19847,0.6651 0.39695,1.33359 0.59544,2.00523 0.19847,0.67165 0.39696,1.34661 0.59544,2.02463 0.19847,0.67802 0.39696,1.35928 0.59545,2.04352 0.19847,0.68425 0.39695,1.37163 0.59544,2.06192 0.19847,0.69029 0.39696,1.38364 0.59544,2.0798 0.19848,0.69616 0.39696,1.3953 0.59545,2.09717 0.19847,0.70186 0.39696,1.40662 0.59544,2.11402 0.19849,0.7074 0.39696,1.4176 0.59545,2.13036 0.19848,0.71275 0.39695,1.42823 0.59544,2.14615 0.19849,0.71793 0.39696,1.4385 0.59544,2.16144 0.19849,0.72294 0.39696,1.44842 0.59545,2.17618 0.19848,0.72776 0.39695,1.45798 0.59544,2.19038 0.19848,0.73241 0.39696,1.46718 0.59544,2.20405 0.19849,0.73687 0.39698,1.47602 0.59545,2.21717 0.19849,0.74115 0.39697,1.48449 0.59544,2.22974 0.19849,0.74525 0.39697,1.49261 0.59545,2.24177 0.19848,0.74918 0.39697,1.50034 0.59544,2.25324 0.19849,0.7529 0.39697,1.50772 0.59544,2.26416 0.19849,0.75644 0.39698,1.51471 0.59545,2.27451 0.19848,0.7598 0.39697,1.52132 0.59544,2.28431 0.19849,0.76297 0.39697,1.52757 0.59546,2.29353 0.19847,0.76596 0.39696,1.53346 0.59544,2.3022 0.19847,0.76876 0.39696,1.53896 0.59545,2.31031 0.19847,0.77136 0.39695,1.54406 0.59544,2.31784 0.19847,0.77375 0.39696,1.54878 0.59544,2.32478 0.19848,0.77599 0.39696,1.55315 0.59545,2.33116 0.19847,0.77803 0.39695,1.55712 0.59544,2.33697 0.19847,0.77987 0.39696,1.5607 0.59545,2.34222 0.19848,0.78151 0.39696,1.56388 0.59544,2.34686 0.19849,0.78296 0.39696,1.56669 0.59544,2.35092 0.19849,0.78423 0.39696,1.56914 0.59545,2.35443 0.19848,0.78529 0.39695,1.57117 0.59544,2.35733 0.19849,0.78618 0.39696,1.57283 0.59544,2.35968 0.19849,0.78684 0.39696,1.57408 0.59545,2.36141 0.19848,0.78733 0.39696,1.57496 0.59544,2.36259 0.19849,0.78761 0.39697,1.57544 0.59545,2.36316 0.19848,0.78772 0.39697,1.57555 0.59544,2.36316 0.19849,0.78763 0.39697,1.57526 0.59544,2.36259 0.19849,0.78733 0.39698,1.57457 0.59545,2.36141 0.19848,0.78685 0.39697,1.5735 0.59544,2.35968 0.19849,0.78616 0.39697,1.57204 0.59544,2.35733 0.19849,0.78529 0.39698,1.5702 0.59546,2.35443 0.19847,0.78423 0.39696,1.56796 0.59544,2.35092 0.19848,0.78298 0.39696,1.56535 0.59545,2.34686 0.19847,0.78152 0.39696,1.56235 0.59545,2.34222 0.19847,0.77985 0.39695,1.55894 0.59544,2.33697 0.19847,0.77801 0.39696,1.55517 0.59544,2.33116 0.19847,0.776 0.39696,1.55103 0.59545,2.32478 0.19847,0.77378 0.39695,1.54648 0.59544,2.31784 0.19849,0.77135 0.39696,1.54155 0.59544,2.31031 0.19849,0.76874 0.39696,1.53624 0.59545,2.3022 0.19848,0.76596 0.39695,1.53056 0.59544,2.29353 0.19849,0.76299 0.39696,1.52451 0.59544,2.28431 0.19849,0.7598 0.39696,1.51807 0.59545,2.27451 0.19848,0.75644 0.39696,1.51126 0.59544,2.26416 0.19849,0.7529 0.39696,1.50406 0.59545,2.25324 0.19848,0.74916 0.39697,1.49652 0.59544,2.24177 0.19848,0.74524 0.39697,1.48859 0.59544,2.22974 0.19849,0.74115 0.39698,1.4803 0.59544,2.21718 0.1985,0.73686 0.39698,1.47163 0.59545,2.20404 0.19849,0.7324 0.39697,1.46263 0.59545,2.19038 0.19848,0.72775 0.39697,1.45325 0.59544,2.17618 0.19848,0.72293 0.39697,1.4435 0.59544,2.16144 0.19849,0.71792 0.39697,1.43341 0.59546,2.14615 0.19847,0.71275 0.39696,1.42296 0.59544,2.13035 0.19848,0.7074 0.39696,1.41216 0.59545,2.11403 0.19847,0.70186 0.39696,1.401 0.59544,2.09717 0.19847,0.69616 0.39696,1.38951 0.59545,2.0798 0.19847,0.69028 0.39695,1.37767 0.59544,2.06192 0.19847,0.68424 0.39696,1.3655 0.59544,2.04352 0.19849,0.67802 0.39696,1.35298 0.59545,2.02463 0.19848,0.67165 0.39695,1.34013 0.59544,2.00523 0.19849,0.6651 0.39696,1.32696 0.59544,1.98536 0.19849,0.65838 0.39696,1.31344 0.59545,1.96493 0.19848,0.65152 0.39695,1.29962 0.59544,1.94412 0.19849,0.64447 0.39696,1.28545 0.59545,1.92273 0.19848,0.6373 0.39695,1.27102 0.59544,1.90094 0.19849,0.62995 0.39697,1.25623 0.59544,1.87863 0.19849,0.62245 0.39698,1.24115 0.59545,1.8559 0.19848,0.61478 0.39697,1.22575 0.59544,1.8327 0.19849,0.60695 0.39697,1.21002 0.59544,1.80902 0.19849,0.59897 0.39698,1.19403 0.59545,1.78493 0.19848,0.59084 0.39697,1.17772 0.59544,1.76033 0.19849,0.58261 0.39697,1.16117 0.59544,1.73537 0.19849,0.57423 0.39698,1.1443 0.59546,1.70997 0.19847,0.56571 0.39696,1.12713 0.59545,1.68415 0.19847,0.557 0.39695,1.10971 0.59544,1.65788 0.19847,0.5482 0.39696,1.092 0.59544,1.63124 0.19848,0.53921 0.39696,1.074 0.59545,1.60416 0.19847,0.53015 0.39695,1.05578 0.59545,1.57672 0.19846,0.52093 0.39695,1.03726 0.59544,1.54886 0.19846,0.51159 0.39696,1.01852 0.59544,1.52062 0.19849,0.50214 0.39696,0.99955 0.59544,1.49204 0.19849,0.49252 0.39696,0.98029 0.59545,1.46306 0.19848,0.48283 0.39695,0.9608 0.59544,1.43376 0.19849,0.47296 0.39696,0.94104 0.59544,1.40404 0.19849,0.46303 0.39696,0.9211 0.59545,1.37404 0.19848,0.45294 0.39696,0.90088 0.59544,1.34363 0.19849,0.44277 0.39697,0.88046 0.59545,1.31295 0.19848,0.43248 0.39697,0.85984 0.59544,1.28192 0.19849,0.42209 0.39697,0.83899 0.59544,1.25058 0.19849,0.41156 0.39698,0.81794 0.59545,1.21891 0.19848,0.401 0.39697,0.79669 0.59544,1.18697 0.19849,0.3903 0.39697,0.77525 0.59544,1.15473 0.19849,0.37949 0.39698,0.7536 0.59545,1.12219 0.19848,0.36863 0.39697,0.73178 0.59545,1.08942 0.19848,0.35761 0.39696,0.70976 0.59545,1.05631 0.19847,0.34655 0.39696,0.68759 0.59545,1.02298 0.19847,0.33537 0.39695,0.66525 0.59544,0.98941 0.19847,0.32416 0.39696,0.6427 0.59544,0.95553 0.19847,0.31287 0.39696,0.62006 0.59545,0.92151 0.19847,0.30145 0.39695,0.5972 0.59544,0.88718 0.19847,0.29001 0.39696,0.57424 0.59544,0.85269 0.19849,0.27845 0.39696,0.55112 0.59545,0.81795 0.19848,0.26686 0.39695,0.52787 0.59544,0.78303 0.19849,0.25517 0.39696,0.50452 0.59544,0.74793 0.19849,0.2434 0.39696,0.48098 0.59545,0.71261 0.19848,0.2316 0.39696,0.45733 0.59544,0.67713 0.19849,0.21975 0.39696,0.4336 0.59545,0.64148 0.19848,0.20785 0.39695,0.40976 0.59544,0.60565 0.19848,0.19589 0.39697,0.38583 0.59544,0.56973 0.19849,0.1839 0.39698,0.36179 0.59544,0.53364 0.1985,0.1718 0.39698,0.33764 0.59545,0.49737 0.19849,0.15976 0.39697,0.31343 0.59545,0.46106 0.19848,0.14757 0.39697,0.28915 0.59544,0.42457 0.19848,0.13542 0.39697,0.2648 0.59544,0.38802 0.19849,0.12323 0.39697,0.24035 0.59546,0.35135 0.19847,0.11099 0.39696,0.21585 0.59544,0.3146 0.19848,0.0987 0.39696,0.19133 0.59545,0.27773 0.19847,0.0865 0.39696,0.16676 0.59544,0.2409 0.19847,0.0741 0.39696,0.1421 0.59545,0.2039 0.19847,0.0618 0.39695,0.11747 0.59544,0.1669 0.19847,0.0495 0.39696,0.0928 0.59544,0.1299 0.19847,0.0371 0.39696,0.068 0.59545,0.0928 0.19848,0.0247 0.39695,0.0433 0.59544,0.0557 0.19849,0.0124 0.39696,0.0186 0.59544,0.0186 0.19849,0 0.39696,-0.006 0.59545,-0.0186 0.19848,-0.0124 0.39696,-0.0309 0.59544,-0.0557 0.19849,-0.0248 0.39696,-0.0557 0.59545,-0.0928 0.19848,-0.0371 0.39695,-0.0804 0.59544,-0.1299 0.19849,-0.0494 0.39696,-0.1051 0.59544,-0.1669 0.19849,-0.0618 0.39698,-0.1298 0.59545,-0.2039 0.19848,-0.0741 0.39697,-0.15443 0.59544,-0.2409 0.19849,-0.0864 0.39697,-0.179 0.59544,-0.27773 0.19849,-0.0987 0.39698,-0.20361 0.59545,-0.3146 0.19848,-0.111 0.39697,-0.22812 0.59544,-0.35135 0.19849,-0.12322 0.39697,-0.2526 0.59545,-0.38802 0.19848,-0.13542 0.39697,-0.277 0.59544,-0.42457 0.19849,-0.14763 0.39697,-0.3013 0.59546,-0.46106 0.19847,-0.15973 0.39696,-0.32557 0.59544,-0.49737 0.19847,-0.17185 0.39696,-0.34974 0.59544,-0.53364 0.19848,-0.1839 0.39696,-0.37384 0.59545,-0.56973 0.19847,-0.19589 0.39695,-0.3978 0.59545,-0.60565 0.19846,-0.20788 0.39695,-0.42173 0.59544,-0.64148 0.19847,-0.2198 0.39696,-0.44553 0.59544,-0.67713 0.19849,-0.23163 0.39696,-0.46921 0.59544,-0.71261 0.19849,-0.24341 0.39696,-0.49276 0.59545,-0.74793 0.19848,-0.25516 0.39696,-0.51617 0.59544,-0.78303 0.19849,-0.26683 0.39696,-0.5395 0.59545,-0.81795 0.19848,-0.27845 0.39695,-0.56268 0.59544,-0.85269 0.19849,-0.28998 0.39696,-0.58573 0.59544,-0.88718 0.19849,-0.30145 0.39696,-0.60864 0.59545,-0.92151 0.19848,-0.31283 0.39697,-0.63137 0.59544,-0.95553 0.19849,-0.32416 0.39697,-0.65404 0.59544,-0.98941 0.19849,-0.33539 0.39698,-0.67643 0.59545,-1.02298 0.19848,-0.34655 0.39697,-0.6987 0.59544,-1.05631 0.19849,-0.35764 0.39697,-0.72079 0.59544,-1.08942 0.19849,-0.36859 0.39698,-0.7427 0.59545,-1.12219 0.19849,-0.37948 0.39697,-0.76443 0.59545,-1.15473 0.19848,-0.39028 0.39697,-0.78597 0.59545,-1.18697 0.19847,-0.40097 0.39696,-0.80735 0.59545,-1.21891 0.19847,-0.41159 0.39695,-0.82849 0.59544,-1.25058 0.19847,-0.42208 0.39696,-0.84944 0.59544,-1.28192 0.19847,-0.43249 0.39696,-0.87018 0.59545,-1.31295 0.19847,-0.44275 0.39695,-0.89069 0.59544,-1.34363 0.19847,-0.45294 0.39696,-0.91101 0.59544,-1.37404 0.19849,-0.463 0.39696,-0.93108 0.59545,-1.40404 0.19848,-0.47296 0.39696,-0.95093 0.59544,-1.43376 0.19849,-0.48277 0.39696,-0.97054 0.59545,-1.46306 0.19848,-0.49249 0.39695,-0.9899 0.59544,-1.49204 0.19849,-0.5021 0.39696,-1.00903 0.59544,-1.52062 0.19849,-0.5116 0.39696,-1.02793 0.59545,-1.54886 0.19848,-0.52094 0.39695,-1.04657 0.59544,-1.57672 0.19848,-0.53016 0.39698,-1.06495 0.59544,-1.60416 0.19849,-0.53924 0.39698,-1.08304 0.59544,-1.63124 0.1985,-0.54817 0.39698,-1.10088 0.59545,-1.65788 0.19849,-0.55702 0.39697,-1.11844 0.59545,-1.68415 0.19848,-0.56567 0.39697,-1.13574 0.59544,-1.70997 0.19848,-0.5742 0.39697,-1.15276 0.59544,-1.73537 0.19849,-0.58261 0.39697,-1.16949 0.59546,-1.76033 0.19849,-0.5909 0.39694,-1.18596 0.59543,-1.78493 0.19849,-0.599 0.39697,-1.20207 0.59546,-1.80902 0.19847,-0.60695 0.39694,-1.21792 0.59543,-1.8327 0.19848,-0.61475 0.39697,-1.23345 0.59546,-1.8559 0.19848,-0.6224 0.39698,-1.24868 0.59542,-1.87863 0.19849,-0.62992 0.39698,-1.26364 0.59546,-1.90094 0.1985,-0.63728 0.39698,-1.27826 0.59543,-1.92273 0.19849,-0.6445 0.39697,-1.2926 0.59547,-1.94412 0.19848,-0.65149 0.39696,-1.30655 0.59542,-1.96493 0.19848,-0.6584 0.39698,-1.32026 0.59546,-1.98536 0.19848,-0.6651 0.39697,-1.33358 0.59542,-2.00523 0.1985,-0.67165 0.39698,-1.34661 0.59547,-2.02463 0.19848,-0.67802 0.39697,-1.35928 0.59545,-2.04352 0.19846,-0.68425 0.39695,-1.37164 0.59543,-2.06192 0.19849,-0.69029 0.39698,-1.38364 0.59545,-2.0798 0.19847,-0.69617 0.39695,-1.39531 0.59544,-2.09717 0.19849,-0.70187 0.39696,-1.40663 0.59546,-2.11403 0.19846,-0.70739 0.39694,-1.4176 0.59543,-2.13035 0.19847,-0.71274 0.39697,-1.42823 0.59547,-2.14615 0.19847,-0.71794 0.39693,-1.43851 0.59542,-2.16144 0.19848,-0.72293 0.39698,-1.44843 0.59545,-2.17618 0.19849,-0.72775 0.39695,-1.45798 0.59543,-2.19038 0.1985,-0.73241 0.39698,-1.46718 0.59546,-2.20404 0.19849,-0.73688 0.39694,-1.47603 0.59544,-2.21718 0.19848,-0.74115 0.39696,-1.4845 0.59545,-2.22974 0.19849,-0.74525 0.39697,-1.49261 0.59543,-2.24177 0.19848,-0.74918 0.39697,-1.50034 0.59546,-2.25324 0.19848,-0.7529 0.39696,-1.50772 0.59543,-2.26416 0.19848,-0.75644 0.39697,-1.51471 0.59545,-2.27451 0.19848,-0.7598 0.39698,-1.52132 0.59543,-2.28431 0.19849,-0.76297 0.39698,-1.52757 0.59545,-2.29353 0.1985,-0.76596 0.39698,-1.53346 0.59544,-2.3022 0.19849,-0.76876 0.39696,-1.53896 0.59546,-2.31031 0.1985,-0.77136 0.39697,-1.54406 0.59546,-2.31784 0.19844,-0.77375 0.39694,-1.54878 0.59544,-2.32478 0.19847,-0.77599 0.39696,-1.55315 0.59545,-2.33116 0.19845,-0.77803 0.39695,-1.55712 0.59542,-2.33697 0.19849,-0.77987 0.39698,-1.5607 0.59546,-2.34222 0.19847,-0.78151 0.39695,-1.56388 0.59543,-2.34686 0.19849,-0.78296 0.39697,-1.56669 0.59546,-2.35092 0.19848,-0.78423 0.39694,-1.56914 0.59543,-2.35443 0.19849,-0.78529 0.39697,-1.57117 0.59545,-2.35733 0.1985,-0.78618 0.39695,-1.57283 0.59544,-2.35968 0.19848,-0.78684 0.39696,-1.57408 0.59546,-2.36141 0.19848,-0.78733 0.39694,-1.57496 0.59542,-2.36259 0.19848,-0.78761 0.39698,-1.57544 0.59546,-2.36316 0.19849,-0.78772 0.39698,-1.57555 0.59542,-2.36316 0.1985,-0.78763 0.39698,-1.57526 0.59547,-2.36259 0.19849,-0.78733 0.39697,-1.57457 0.59543,-2.36141 0.1985,-0.78685 0.39697,-1.5735 0.59546,-2.35968 0.19848,-0.78616 0.39697,-1.57204 0.59544,-2.35733 0.19847,-0.78529 0.39696,-1.5702 0.59545,-2.35443 0.19848,-0.78423 0.39697,-1.56796 0.59542,-2.35092 0.19849,-0.78298 0.39698,-1.56535 0.59546,-2.34686 0.19849,-0.78152 0.39697,-1.56235 0.59547,-2.34222 0.19845,-0.77985 0.39693,-1.55894 0.59542,-2.33697 0.19848,-0.77801 0.39698,-1.55517 0.59546,-2.33116 0.19846,-0.776 0.39694,-1.55103 0.59542,-2.32478 0.1985,-0.77378 0.39698,-1.54648 0.59547,-2.31784 0.19845,-0.77135 0.39693,-1.54155 0.59543,-2.31031 0.19848,-0.76874 0.39697,-1.53624 0.59545,-2.3022 0.19849,-0.76596 0.39695,-1.53056 0.59543,-2.29353 0.19849,-0.76299 0.39698,-1.52451 0.59546,-2.28431 0.19849,-0.7598 0.39694,-1.51807 0.59543,-2.27451 0.19849,-0.75644 0.39697,-1.51126 0.59546,-2.26416 0.19849,-0.7529 0.39694,-1.50406 0.59543,-2.25324 0.19848,-0.74916 0.39697,-1.49652 0.59546,-2.24177 0.19848,-0.74525 0.39694,-1.48859 0.59543,-2.22974 0.19848,-0.74115 0.39697,-1.4803 0.59545,-2.21717 0.1985,-0.73687 0.39698,-1.47164 0.59543,-2.20405 0.19849,-0.7324 0.39697,-1.46262 0.59547,-2.19038 0.19848,-0.72776 0.39696,-1.45324 0.59542,-2.17618 0.19848,-0.72294 0.39698,-1.44351 0.59546,-2.16144 0.19849,-0.71792 0.39697,-1.4334 0.59542,-2.14615 0.1985,-0.71276 0.39698,-1.42296 0.59547,-2.13036 0.19848,-0.7074 0.39697,-1.41216 0.59546,-2.11402 0.19845,-0.70187 0.39694,-1.40101 0.59542,-2.09717 0.19849,-0.69616 0.39698,-1.38951 0.59545,-2.0798 0.19847,-0.69029 0.39696,-1.37767 0.59544,-2.06192 0.19849,-0.68424 0.39696,-1.3655 0.59546,-2.04352 0.19846,-0.67802 0.39694,-1.35298 0.59543,-2.02463 0.19847,-0.67164 0.39697,-1.34013 0.59547,-2.00523 0.19847,-0.66509 0.39693,-1.32696 0.59542,-1.98535 0.19848,-0.65837 0.39698,-1.31344 0.59546,-1.96495 0.19848,-0.65152 0.39694,-1.299628 0.59542,-1.944098 0.1985,-0.644472 0.39698,-1.285467 0.59546,-1.922747 0.19849,-0.63728 0.39694,-1.271 0.59544,-1.90093 0.19848,-0.62993 0.39696,-1.25623 0.59545,-1.87865 0.19849,-0.62242 0.39695,-1.241125 0.59543,-1.85589 0.19848,-0.61476 0.39697,-1.22573 0.59546,-1.83268 0.19848,-0.60695 0.39696,-1.21003 0.59543,-1.80902 0.19848,-0.59899 0.39697,-1.19403 0.59546,-1.78491 0.19847,-0.59088 0.39697,-1.17774 0.59542,-1.76036 0.19849,-0.58263 0.39698,-1.161156 0.59545,-1.73538 0.1985,-0.57423 0.397,-1.14429 0.59544,-1.70997 0.19849,-0.56568 0.39696,-1.12713 0.59546,-1.68414 0.1985,-0.556996 0.39697,-1.1097 0.59546,-1.65788 0.19844,-0.54819 0.39694,-1.091994 0.59544,-1.63123 0.19847,-0.53923 0.39696,-1.07402 0.59545,-1.60417 0.19845,-0.53015 0.39695,-1.05578 0.59542,-1.57671 0.19849,-0.52093 0.39698,-1.037285 0.59546,-1.548866 0.19847,-0.511584 0.39695,-1.018528 0.59543,-1.520641 0.19849,-0.502113 0.39698,-0.99952 0.59546,-1.492039 0.19848,-0.492514 0.39694,-0.980267 0.59543,-1.463066 0.19849,-0.482798 0.39697,-0.96077 0.59545,-1.433735 0.1985,-0.472965 0.39695,-0.94104 0.59544,-1.404049 0.19848,-0.463014 0.39696,-0.921074 0.59546,-1.37402 0.19848,-0.452942 0.39694,-0.900884 0.59542,-1.343647 0.19848,-0.442764 0.39698,-0.880467 0.59546,-1.312947 0.19849,-0.432475 0.39695,-0.859836 0.59542,-1.281917 0.1985,-0.422081 0.397,-0.838993 0.59547,-1.250576 0.19849,-0.411583 0.39697,-0.817943 0.59543,-1.218927 0.1985,-0.40098 0.39697,-0.796686 0.59546,-1.18697 0.19848,-0.390283 0.39697,-0.775244 0.59544,-1.15473 0.19847,-0.37949 0.39696,-0.7536 0.59545,-1.1222 0.19848,-0.3686 0.39697,-0.731773 0.59542,-1.089393 0.19849,-0.357617 0.39698,-0.709767 0.59546,-1.056317 0.19849,-0.34655 0.39697,-0.687584 0.59547,-1.02298 0.19845,-0.335395 0.39693,-0.665233 0.59542,-0.989395 0.19848,-0.324157 0.39698,-0.642715 0.59546,-0.955558 0.19846,-0.312844 0.39694,-0.620045 0.59542,-0.921494 0.1985,-0.301449 0.39698,-0.597217 0.59547,-0.887195 0.19845,-0.289978 0.39693,-0.574242 0.59543,-0.852681 0.19848,-0.278442 0.39697,-0.551127 0.59545,-0.817957 0.19849,-0.266832 0.39695,-0.527875 0.59543,-0.783033 0.19849,-0.255157 0.39698,-0.50449 0.59546,-0.747909 0.19849,-0.24342 0.39694,-0.480984 0.59543,-0.712608 0.19849,-0.231622 0.39697,-0.457358 0.59546,-0.677125 0.19849,-0.219768 0.39694,-0.43362 0.59543,-0.641479 0.19848,-0.207857 0.39697,-0.409773 0.59546,-0.605673 0.19848,-0.195898 0.39694,-0.385828 0.59543,-0.569718 0.19848,-0.183889 0.39697,-0.361785 0.59545,-0.533622 0.1985,-0.171835 0.39698,-0.337654 0.59543,-0.497395 0.19849,-0.15974 0.39697,-0.31344 0.59547,-0.461044 0.19848,-0.147606 0.39696,-0.28915 0.59542,-0.424582 0.19848,-0.135432 0.39698,-0.264785 0.59546,-0.388014 0.19849,-0.123226 0.39697,-0.240356 0.59542,-0.351347 0.1985,-0.110992 0.39698,-0.215869 0.59547,-0.314598 0.19848,-0.09873 0.39697,-0.19133 0.59546,-0.277769 0.19845,-0.08644 0.39694,-0.16674 0.59542,-0.240871 0.19849,-0.07413 0.39698,-0.142111 0.59545,-0.203917 0.19847,-0.0618 0.39696,-0.117446 0.59544,-0.166908 0.19849,-0.04946 0.39696,-0.09275 0.59546,-0.12986 0.19846,-0.03711 0.39694,-0.06804 0.59543,-0.09278 0.19849,-0.02474 0.39697,-0.0433 0.59547,-0.05568 0.19844,-0.01237 0.39693,-0.01856 0.59542,-0.01856 0.19848,0 0.39698,0.0062 0.59546,0.01856 0.19848,0.01237 0.39694,0.03093 0.59542,0.05568 0.1985,0.02474 0.39698,0.05567 0.59546,0.09278 0.19849,0.03711 0.39694,0.0804 0.59544,0.12986 0.19848,0.04946 0.39696,0.105104 0.59545,0.166908 0.19849,0.06181 0.39695,0.129786 0.59543,0.203917 0.19849,0.07413 0.39697,0.15443 0.59546,0.240871 0.19848,0.08644 0.39696,0.179041 0.59543,0.277769 0.19848,0.09873 0.39697,0.203606 0.59546,0.314598 0.19847,0.110991 0.39697,0.228121 0.59542,0.351347 0.19849,0.123229 0.39698,0.252582 0.59545,0.388014 0.1985,0.135432 0.397,0.276976 0.59544,0.424582 0.19849,0.147604 0.39696,0.301304 0.59546,0.461044 0.1985,0.159741 0.39697,0.32556 0.59546,0.497395 0.19846,0.171837 0.39694,0.349733 0.59544,0.533622 0.19847,0.18389 0.39696,0.37382 0.59545,0.569718 0.19845,0.1959 0.39695,0.397816 0.59543,0.605673 0.19848,0.207859 0.39697,0.421711 0.59545,0.641479 0.19847,0.219767 0.39695,0.445503 0.59543,0.677125 0.19849,0.231624 0.39698,0.469188 0.59546,0.712608 0.19846,0.243419 0.39694,0.492752 0.59543,0.747909 0.19849,0.255158 0.39697,0.516201 0.59545,0.783033 0.1985,0.26683 0.39695,0.539515 0.59544,0.817957 0.19848,0.278439 0.39696,0.562703 0.59546,0.852681 0.19848,0.289978 0.39694,0.585746 0.59543,0.887195 0.19847,0.301449 0.39697,0.60865 0.59545,0.921494 0.19849,0.312843 0.39695,0.631401 0.59542,0.955558 0.1985,0.324162 0.397,0.654 0.59547,0.989395 0.19849,0.335396 0.39697,0.67643 0.59543,1.02298 0.1985,0.34655 0.39697,0.6987 0.59546,1.056317 0.19849,0.35762 0.39697,0.720793 0.59544,1.089393 0.19847,0.3686 0.39696,0.74271 0.59545,1.1222 0.19848,0.379486 0.39697,0.764447 0.59543,1.15473 0.19848,0.390284 0.39697,0.78599 0.59545,1.18697 0.19849,0.400984 0.39697,0.807344 0.59547,1.218927 0.19845,0.411583 0.39694,0.828495 0.59542,1.250576 0.19848,0.422081 0.39698,0.849442 0.59546,1.281917 0.19846,0.43248 0.39694,0.870183 0.59542,1.312947 0.1985,0.442763 0.39698,0.890705 0.59547,1.343647 0.19845,0.452946 0.39693,0.911006 0.59543,1.37402 0.19848,0.463009 0.39697,0.931084 0.59546,1.404049 0.19844,0.472965 0.39694,0.950937 0.59542,1.433735 0.19849,0.482799 0.39698,0.970552 0.59546,1.463066 0.19849,0.492519 0.39696,0.989926 0.59543,1.492039 0.19849,0.502113 0.39697,1.009057 0.59546,1.520641 0.19849,0.511581 0.39694,1.027936 0.59543,1.548866 0.19849,0.52093 0.39697,1.04656 0.59546,1.57671 0.19848,0.53015 0.39694,1.06494 0.59543,1.60417 0.19848,0.539236 0.39697,1.08304 0.59545,1.63123 0.1985,0.54818 0.39698,1.100884 0.59543,1.65788 0.19849,0.55701 0.39697,1.11846 0.59547,1.68414 0.19848,0.56568 0.39697,1.13574 0.59542,1.70997 0.19848,0.574224 0.39698,1.15275 0.59546,1.73538 0.19849,0.58262 0.39697,1.16948 0.59542,1.76036 0.1985,0.59088 0.39698,1.18592 0.59547,1.78491 0.19848,0.59899 0.39697,1.20207 0.59543,1.80902 0.19848,0.60695 0.39697,1.21792 0.59545,1.83268 0.19849,0.614765 0.39698,1.23347 0.59545,1.85589 0.19847,0.62242 0.39696,1.24872 0.59544,1.87865 0.19849,0.62993 0.39696,1.26365 0.59546,1.90093 0.19846,0.63728 0.39694,1.278275 0.59543,1.922747 0.19849,0.64447 0.39697,1.292578 0.59547,1.944098 0.19844,0.65151 0.39693,1.30658 0.59542,1.96495 0.19848,0.65839 0.39698,1.32026 0.59546,1.98535 0.19848,0.6651 0.39694,1.33359 0.59542,2.00523 0.1985,0.67165 0.39698,1.34661 0.59546,2.02463 0.19849,0.67802 0.39694,1.35928 0.59544,2.04352 0.19848,0.68425 0.39696,1.37163 0.59545,2.06192 0.19849,0.69029 0.39695,1.38364 0.59543,2.0798 0.19849,0.69616 0.39697,1.3953 0.59546,2.09717 0.19848,0.70186 0.39696,1.40662 0.59543,2.11402 0.19848,0.7074 0.39697,1.4176 0.59546,2.13036 0.19847,0.71275 0.39697,1.42823 0.59542,2.14615 0.19849,0.71793 0.39698,1.4385 0.59545,2.16144 0.1985,0.72294 0.397,1.44842 0.59544,2.17618 0.19849,0.72776 0.39696,1.45798 0.59546,2.19038 0.1985,0.73241 0.39697,1.46718 0.59543,2.20405 0.19849,0.73687 0.39697,1.47602 0.59547,2.21717 0.19847,0.74115 0.39696,1.48449 0.59545,2.22974 0.19845,0.74525 0.39695,1.49261 0.59543,2.24177 0.19848,0.74918 0.39697,1.50034 0.59545,2.25324 0.19847,0.7529 0.39695,1.50772 0.59543,2.26416 0.19849,0.75644 0.39698,1.51471 0.59546,2.27451 0.19846,0.7598 0.39694,1.52132 0.59543,2.28431 0.19849,0.76297 0.39697,1.52757 0.59545,2.29353 0.1985,0.76596 0.39695,1.53346 0.59544,2.3022 0.19848,0.76876 0.39696,1.53896 0.59546,2.31031 0.19848,0.77136 0.39694,1.54406 0.59543,2.31784 0.19847,0.77375 0.39697,1.54878 0.59545,2.32478 0.19849,0.77599 0.39695,1.55315 0.59542,2.33116 0.1985,0.77803 0.397,1.55712 0.59547,2.33697 0.19849,0.77987 0.39697,1.5607 0.59543,2.34222 0.1985,0.78151 0.39697,1.56388 0.59546,2.34686 0.19849,0.78296 0.39697,1.56669 0.59544,2.35092 0.19847,0.78423 0.39696,1.56914 0.59545,2.35443 0.19848,0.78529 0.39697,1.57117 0.59543,2.35733 0.19848,0.78618 0.39697,1.57283 0.59545,2.35968 0.19849,0.78684 0.39697,1.57408 0.59543,2.36141 0.19849,0.78733 0.39698,1.57496 0.59546,2.36259 0.19848,0.78761 0.39698,1.57544 0.59546,2.36316 0.19846,0.78772 0.39694,1.57555 0.59542,2.36316 0.1985,0.78763 0.39698,1.57526 0.59547,2.36259 0.19845,0.78733 0.39693,1.57457 0.59543,2.36141 0.19848,0.78685 0.39697,1.5735 0.59546,2.35968 0.19844,0.78616 0.39694,1.57204 0.59542,2.35733 0.19849,0.78529 0.39698,1.5702 0.59546,2.35443 0.19849,0.78423 0.39696,1.56796 0.59543,2.35092 0.19849,0.78298 0.39697,1.56535 0.59546,2.34686 0.19849,0.78152 0.39694,1.56235 0.59543,2.34222 0.19849,0.77985 0.39697,1.55894 0.59546,2.33697 0.19848,0.77801 0.39694,1.55517 0.59543,2.33116 0.19848,0.776 0.39697,1.55103 0.59545,2.32478 0.1985,0.77378 0.39695,1.54648 0.59543,2.31784 0.19849,0.77135 0.39697,1.54155 0.59547,2.31031 0.19848,0.76874 0.39697,1.53624 0.59542,2.3022 0.19848,0.76596 0.39698,1.53056 0.59546,2.29353 0.19849,0.76299 0.39697,1.52451 0.59542,2.28431 0.1985,0.7598 0.39698,1.51807 0.59547,2.27451 0.19848,0.75644 0.39697,1.51126 0.59543,2.26416 0.19848,0.7529 0.39697,1.50406 0.59546,2.25324 0.19848,0.74916 0.39697,1.49652 0.59544,2.24177 0.19847,0.74524 0.39696,1.48859 0.59544,2.22974 0.19849,0.74115 0.39698,1.4803 0.59546,2.21718 0.19846,0.73686 0.39694,1.47163 0.59543,2.20404 0.19849,0.7324 0.39697,1.46263 0.59547,2.19038 0.19845,0.72775 0.39693,1.45325 0.59542,2.17618 0.19848,0.72293 0.39698,1.4435 0.59546,2.16144 0.19848,0.71792 0.39694,1.43341 0.59542,2.14615 0.1985,0.71275 0.39698,1.42296 0.59546,2.13035 0.19849,0.7074 0.39694,1.41216 0.59544,2.11403 0.19848,0.70186 0.39697,1.401 0.59545,2.09717 0.19849,0.69616 0.39695,1.38951 0.59543,2.0798 0.19849,0.69028 0.39697,1.37767 0.59546,2.06192 0.19849,0.68424 0.39694,1.3655 0.59543,2.04352 0.19848,0.67802 0.39697,1.35298 0.59546,2.02463 0.19847,0.67165 0.39697,1.34013 0.59543,2.00523 0.19848,0.6651 0.39697,1.32696 0.59544,1.98536 0.1985,0.65838 0.397,1.31344 0.59544,1.96493 0.19849,0.65152 0.39696,1.29962 0.59546,1.94412 0.1985,0.64447 0.39697,1.28545 0.59543,1.92273 0.19849,0.6373 0.39697,1.27102 0.59547,1.90094 0.19848,0.62995 0.39696,1.25623 0.59545,1.87863 0.19845,0.62245 0.39695,1.24115 0.59543,1.8559 0.19848,0.61478 0.39697,1.22575 0.59546,1.8327 0.19846,0.60695 0.39694,1.21002 0.59542,1.80902 0.19849,0.59897 0.39698,1.19403 0.59546,1.78493 0.19846,0.59084 0.39694,1.17772 0.59543,1.76033 0.19849,0.58261 0.39697,1.16117 0.59545,1.73537 0.1985,0.57423 0.39695,1.1443 0.59544,1.70997 0.19849,0.56571 0.39696,1.12713 0.59546,1.68415 0.19848,0.557 0.39694,1.10971 0.59543,1.65788 0.19847,0.5482 0.39697,1.092 0.59547,1.63124 0.19847,0.53921 0.39693,1.074 0.5954,1.60416 0.1985,0.53015 0.397,1.05578 0.59547,1.57672 0.19849,0.52093 0.39693,1.03726 0.59543,1.54886 0.1985,0.51159 0.39697,1.01852 0.59546,1.52062 0.19849,0.50214 0.39697,0.99955 0.59544,1.49204 0.19847,0.49252 0.39696,0.98029 0.59545,1.46306 0.19848,0.48283 0.39697,0.9608 0.59543,1.43376 0.19848,0.47296 0.39697,0.94104 0.59545,1.40404 0.19849,0.46303 0.39697,0.9211 0.59543,1.37404 0.19849,0.45294 0.39698,0.90088 0.59546,1.34363 0.19848,0.44277 0.39698,0.88046 0.59546,1.31295 0.19846,0.43248 0.39694,0.85984 0.59542,1.28192 0.1985,0.42209 0.39698,0.83899 0.59547,1.25058 0.19845,0.41156 0.39693,0.81794 0.59543,1.21891 0.19848,0.401 0.39697,0.79669 0.59546,1.18697 0.19844,0.3903 0.39694,0.77525 0.59544,1.15473 0.19847,0.37949 0.39696,0.7536 0.59544,1.12219 0.19846,0.36863 0.39696,0.73178 0.59543,1.08942 0.19849,0.35761 0.39697,0.70976 0.59546,1.05631 0.19849,0.34655 0.39694,0.68759 0.59543,1.02298 0.19849,0.33537 0.39697,0.66525 0.59546,0.98941 0.19848,0.32416 0.39694,0.6427 0.59543,0.95553 0.19848,0.31287 0.39697,0.62006 0.59545,0.92151 0.1985,0.30145 0.39695,0.5972 0.59543,0.88718 0.19849,0.29001 0.39697,0.57424 0.59547,0.85269 0.19848,0.27845 0.39697,0.55112 0.59542,0.81795 0.19848,0.26686 0.39698,0.52787 0.59546,0.78303 0.19849,0.25517 0.39697,0.50452 0.59542,0.74793 0.1985,0.2434 0.39698,0.48098 0.59547,0.71261 0.19848,0.2316 0.39697,0.45733 0.59543,0.67713 0.19848,0.21975 0.39697,0.4336 0.59546,0.64148 0.19848,0.20785 0.39697,0.40976 0.59544,0.60565 0.19847,0.19589 0.39696,0.38583 0.59544,0.56973 0.19849,0.1839 0.39698,0.36179 0.59546,0.53364 0.19846,0.1718 0.39694,0.33764 0.59543,0.49737 0.19849,0.15976 0.39697,0.31343 0.59547,0.46106 0.19845,0.14757 0.39693,0.28915 0.59542,0.42457 0.19848,0.13542 0.39698,0.2648 0.59546,0.38802 0.19845,0.12323 0.39694,0.24035 0.59542,0.35135 0.1985,0.11099 0.39698,0.21585 0.59546,0.3146 0.19849,0.0987 0.39694,0.19133 0.59544,0.27773 0.19848,0.0865 0.39697,0.16676 0.59545,0.2409 0.19849,0.0741 0.39695,0.1421 0.59543,0.2039 0.19849,0.0618 0.39697,0.11747 0.59546,0.1669 0.19849,0.0495 0.39694,0.0928 0.59543,0.1299 0.19848,0.0371 0.39697,0.068 0.59546,0.0928 0.19847,0.0247 0.39697,0.0433 0.59543,0.0557 0.19848,0.0124 0.39697,0.0186 0.59544,0.0186 0.1985,0 0.397,-0.006 0.59544,-0.0186 0.19849,-0.0124 0.39698,-0.0309 0.59546,-0.0557 0.1985,-0.0248 0.39697,-0.0557 0.59543,-0.0928 0.19849,-0.0371 0.39697,-0.0804 0.59547,-0.1299 0.19848,-0.0494 0.39696,-0.1051 0.59545,-0.1669 0.19845,-0.0618 0.39695,-0.1298 0.59543,-0.2039 0.19848,-0.0741 0.39697,-0.15443 0.59546,-0.2409 0.19846,-0.0864 0.39694,-0.179 0.59542,-0.27773 0.19849,-0.0987 0.39698,-0.20361 0.59546,-0.3146 0.19846,-0.111 0.39695,-0.22812 0.59543,-0.35135 0.19849,-0.12322 0.39697,-0.2526 0.59545,-0.38802 0.19847,-0.13542 0.39695,-0.277 0.59544,-0.42457 0.19849,-0.14763 0.39696,-0.3013 0.59546,-0.46106 0.19848,-0.15973 0.39694,-0.32557 0.59543,-0.49737 0.19847,-0.17185 0.39697,-0.34974 0.59547,-0.53364 0.19847,-0.1839 0.39693,-0.37384 0.5954,-0.56973 0.1985,-0.19589 0.397,-0.3978 0.59547,-0.60565 0.19849,-0.20788 0.39693,-0.42173 0.59543,-0.64148 0.1985,-0.2198 0.39697,-0.44553 0.59546,-0.67713 0.19849,-0.23163 0.39697,-0.46921 0.59544,-0.71261 0.19848,-0.24341 0.39696,-0.49276 0.59545,-0.74793 0.19848,-0.25516 0.39697,-0.51617 0.59543,-0.78303 0.19848,-0.26683 0.39697,-0.5395 0.59546,-0.81795 0.19848,-0.27845 0.39696,-0.56268 0.59542,-0.85269 0.19849,-0.28998 0.39698,-0.58573 0.59546,-0.88718 0.19848,-0.30145 0.39698,-0.60864 0.59546,-0.92151 0.19846,-0.31283 0.39694,-0.63137 0.59542,-0.95553 0.1985,-0.32416 0.39698,-0.65404 0.59547,-0.98941 0.19846,-0.33539 0.39693,-0.67643 0.59543,-1.02298 0.19848,-0.34655 0.39697,-0.6987 0.59546,-1.05631 0.19844,-0.35764 0.39694,-0.72079 0.59544,-1.08942 0.19847,-0.36859 0.39696,-0.7427 0.59544,-1.12219 0.19846,-0.37948 0.39696,-0.76443 0.59543,-1.15473 0.19849,-0.39028 0.39698,-0.78597 0.59546,-1.18697 0.19849,-0.40097 0.39694,-0.80735 0.59543,-1.21891 0.19849,-0.41159 0.39697,-0.82849 0.59546,-1.25058 0.19848,-0.42208 0.39694,-0.84944 0.59543,-1.28192 0.19848,-0.43249 0.39697,-0.87018 0.59545,-1.31295 0.1985,-0.44275 0.39695,-0.89069 0.59544,-1.34363 0.19848,-0.45294 0.39696,-0.91101 0.59546,-1.37404 0.19848,-0.463 0.39697,-0.93108 0.59542,-1.40404 0.19848,-0.47296 0.39698,-0.95093 0.59546,-1.43376 0.19849,-0.48277 0.39697,-0.97054 0.59542,-1.46306 0.1985,-0.49249 0.39698,-0.9899 0.59547,-1.49204 0.19849,-0.5021 0.39697,-1.00903 0.59543,-1.52062 0.19848,-0.5116 0.39697,-1.02793 0.59546,-1.54886 0.19848,-0.52094 0.39697,-1.04657 0.59544,-1.57672 0.19847,-0.53016 0.39696,-1.06495 0.59544,-1.60416 0.19849,-0.53924 0.39698,-1.08304 0.59546,-1.63124 0.19846,-0.54817 0.39694,-1.10088 0.59543,-1.65788 0.19849,-0.55702 0.39697,-1.11844 0.59547,-1.68415 0.19845,-0.56567 0.39693,-1.13574 0.59542,-1.70997 0.19848,-0.5742 0.39698,-1.15276 0.59546,-1.73537 0.19845,-0.58261 0.39694,-1.16949 0.59542,-1.76033 0.1985,-0.5909 0.39698,-1.18596 0.59547,-1.78493 0.19848,-0.599 0.39693,-1.20207 0.59543,-1.80902 0.19848,-0.60695 0.39697,-1.21792 0.59545,-1.8327 0.19849,-0.61475 0.39695,-1.23345 0.59543,-1.8559 0.19849,-0.6224 0.39697,-1.24868 0.59546,-1.87863 0.19849,-0.62992 0.39694,-1.26364 0.59543,-1.90094 0.19848,-0.63728 0.39697,-1.27826 0.59546,-1.92273 0.19847,-0.6445 0.39697,-1.2926 0.59543,-1.94412 0.19848,-0.65149 0.39697,-1.30655 0.59544,-1.96493 0.1985,-0.6584 0.397,-1.32026 0.59544,-1.98536 0.19849,-0.6651 0.39698,-1.33358 0.59546,-2.00523 0.1985,-0.67165 0.39698,-1.34661 0.59543,-2.02463 0.19849,-0.67802 0.39697,-1.35928 0.59547,-2.04352 0.19848,-0.68425 0.39696,-1.37164 0.59542,-2.06192 0.19848,-0.69029 0.39698,-1.38364 0.59546,-2.0798 0.19848,-0.69617 0.39697,-1.39531 0.59546,-2.09717 0.19846,-0.70187 0.39694,-1.40663 0.59542,-2.11403 0.19849,-0.70739 0.39698,-1.4176 0.59546,-2.13035 0.19846,-0.71274 0.39695,-1.42823 0.59543,-2.14615 0.19849,-0.71794 0.39697,-1.43851 0.59545,-2.16144 0.19847,-0.72293 0.39695,-1.44843 0.59544,-2.17618 0.19849,-0.72775 0.39696,-1.45798 0.59546,-2.19038 0.1985,-0.73241 0.39694,-1.46718 0.59543,-2.20404 0.19847,-0.73688 0.39697,-1.47603 0.59547,-2.21718 0.19847,-0.74115 0.39693,-1.4845 0.5954,-2.22974 0.1985,-0.74525 0.397,-1.49261 0.59547,-2.24177 0.19849,-0.74918 0.39695,-1.50034 0.59543,-2.25324 0.1985,-0.7529 0.39697,-1.50772 0.59546,-2.26416 0.19849,-0.75644 0.39697,-1.51471 0.59544,-2.27451 0.19848,-0.7598 0.397,-1.52132 0.5954,-2.28431 0.1985,-0.76297 0.397,-1.52757 0.5955,-2.29353 0.19846,-0.76596 0.39695,-1.53346 0.59544,-2.3022 0.19846,-0.76876 0.39696,-1.53896 0.59546,-2.31031 0.1985,-0.77136 0.39697,-1.54406 0.5954,-2.31784 0.1985,-0.77375 0.39697,-1.54878 0.59545,-2.32478 0.19849,-0.77599 0.39695,-1.55315 0.59545,-2.33116 0.1985,-0.77803 0.397,-1.55712 0.5955,-2.33697 0.19846,-0.77987 0.39694,-1.5607 0.5954,-2.34222 0.19845,-0.78151 0.39694,-1.56388 0.5954,-2.34686 0.1985,-0.78296 0.397,-1.56669 0.5955,-2.35092 0.1985,-0.78423 0.39696,-1.56914 0.59544,-2.35443 0.19849,-0.78529 0.39696,-1.57117 0.59546,-2.35733 0.1984,-0.78618 0.3969,-1.57283 0.5954,-2.35968 0.1985,-0.78684 0.397,-1.57408 0.59546,-2.36141 0.19849,-0.78733 0.39697,-1.57496 0.59544,-2.36259 0.1985,-0.78761 0.397,-1.57544 0.5955,-2.36316 0.19846,-0.78772 0.3969,-1.57555 0.5954,-2.36316 0.19846,-0.78763 0.39695,-1.57526 0.59544,-2.36259 0.19846,-0.78733 0.39696,-1.57457 0.59546,-2.36141 0.1985,-0.78685 0.39697,-1.5735 0.59545,-2.35968 0.19849,-0.78616 0.39695,-1.57204 0.5954,-2.35733 0.19849,-0.78529 0.39695,-1.5702 0.59545,-2.35443 0.1985,-0.78423 0.397,-1.56796 0.59547,-2.35092 0.19849,-0.78298 0.39697,-1.56535 0.59543,-2.34686 0.1985,-0.78152 0.397,-1.56235 0.5954,-2.34222 0.1985,-0.77985 0.397,-1.55894 0.5955,-2.33697 0.1985,-0.77801 0.39696,-1.55517 0.59544,-2.33116 0.19849,-0.776 0.39696,-1.55103 0.59546,-2.32478 0.1985,-0.77378 0.397,-1.54648 0.59546,-2.31784 0.19844,-0.77135 0.39694,-1.54155 0.5954,-2.31031 0.19849,-0.76874 0.39697,-1.53624 0.59544,-2.3022 0.1985,-0.76596 0.397,-1.53056 0.5955,-2.29353 0.19846,-0.76299 0.39695,-1.52451 0.59544,-2.28431 0.19842,-0.7598 0.39691,-1.51807 0.5954,-2.27451 0.19846,-0.75644 0.39696,-1.51126 0.59546,-2.26416 0.1985,-0.7529 0.39697,-1.50406 0.59545,-2.25324 0.19849,-0.74916 0.39695,-1.49652 0.59545,-2.24177 0.1985,-0.74525 0.3969,-1.48859 0.5954,-2.22974 0.1985,-0.74115 0.397,-1.4803 0.59547,-2.21717 0.19849,-0.73687 0.39697,-1.47164 0.59543,-2.20405 0.1985,-0.7324 0.397,-1.46262 0.5955,-2.19038 0.1985,-0.72776 0.39696,-1.45324 0.5954,-2.17618 0.1985,-0.72294 0.39696,-1.44351 0.59544,-2.16144 0.19846,-0.71792 0.39696,-1.4334 0.59546,-2.14615 0.1985,-0.71276 0.397,-1.42296 0.59546,-2.13036 0.19849,-0.7074 0.39697,-1.41216 0.5954,-2.11402 0.19849,-0.70187 0.39697,-1.40101 0.59544,-2.09717 0.1985,-0.69616 0.397,-1.38951 0.5955,-2.0798 0.19846,-0.69029 0.39695,-1.37767 0.59544,-2.06192 0.19846,-0.68424 0.39696,-1.3655 0.59546,-2.04352 0.1984,-0.67802 0.3969,-1.35298 0.5954,-2.02463 0.1985,-0.67164 0.39697,-1.34013 0.59545,-2.00523 0.19849,-0.66509 0.39695,-1.32696 0.59545,-1.98535 0.1985,-0.65837 0.397,-1.31344 0.5955,-1.96495 0.1984,-0.65152 0.3969,-1.299628 0.59537,-1.944098 0.19848,-0.644472 0.39697,-1.285467 0.59543,-1.922747 0.1985,-0.63728 0.397,-1.271 0.5955,-1.90093 0.1985,-0.62993 0.39696,-1.25623 0.59545,-1.87865 0.19848,-0.62242 0.39691,-1.241125 0.59539,-1.85589 0.19846,-0.61476 0.39696,-1.22573 0.59546,-1.83268 0.1985,-0.60695 0.397,-1.21003 0.59546,-1.80902 0.19849,-0.59899 0.39697,-1.19403 0.59544,-1.78491 0.1985,-0.59088 0.397,-1.17774 0.5954,-1.76036 0.1985,-0.58263 0.397,-1.161156 0.5955,-1.73538 0.19846,-0.57423 0.39695,-1.14429 0.59544,-1.70997 0.19846,-0.56568 0.39696,-1.12713 0.59546,-1.68414 0.1985,-0.556996 0.39697,-1.1097 0.5954,-1.65788 0.1985,-0.54819 0.39697,-1.091994 0.59545,-1.63123 0.19849,-0.53923 0.39695,-1.07402 0.59545,-1.60417 0.1985,-0.53015 0.397,-1.05578 0.5955,-1.57671 0.19846,-0.52093 0.39694,-1.037285 0.5954,-1.548866 0.19845,-0.511584 0.39694,-1.018528 0.5954,-1.520641 0.1985,-0.502113 0.397,-0.99952 0.5955,-1.492039 0.1985,-0.492514 0.39696,-0.980267 0.59545,-1.463066 0.19848,-0.482798 0.39695,-0.96077 0.59545,-1.433735 0.1984,-0.472965 0.3969,-0.94104 0.5954,-1.404049 0.1985,-0.463014 0.397,-0.921074 0.59546,-1.37402 0.19849,-0.452942 0.39697,-0.900884 0.59544,-1.343647 0.1985,-0.442764 0.397,-0.880467 0.5955,-1.312947 0.19847,-0.432475 0.3969,-0.859836 0.5954,-1.281917 0.19846,-0.422081 0.39695,-0.838993 0.59544,-1.250576 0.19846,-0.411583 0.39696,-0.817943 0.59546,-1.218927 0.1985,-0.40098 0.39697,-0.796686 0.59545,-1.18697 0.19849,-0.390283 0.39695,-0.775244 0.5954,-1.15473 0.19849,-0.37949 0.39695,-0.7536 0.59545,-1.1222 0.1985,-0.3686 0.397,-0.731773 0.5955,-1.089393 0.19846,-0.357617 0.39694,-0.709767 0.5954,-1.056317 0.1985,-0.34655 0.397,-0.687584 0.5954,-1.02298 0.1985,-0.335395 0.397,-0.665233 0.5955,-0.989395 0.1985,-0.324157 0.39696,-0.642715 0.59544,-0.955558 0.19849,-0.312844 0.39696,-0.620045 0.59546,-0.921494 0.1985,-0.301449 0.397,-0.597217 0.59546,-0.887195 0.19844,-0.289978 0.39694,-0.574242 0.5954,-0.852681 0.19849,-0.278442 0.39697,-0.551127 0.59544,-0.817957 0.1985,-0.266832 0.397,-0.527875 0.5955,-0.783033 0.19847,-0.255157 0.39695,-0.50449 0.59544,-0.747909 0.19842,-0.24342 0.39691,-0.480984 0.5954,-0.712608 0.19846,-0.231622 0.39696,-0.457358 0.59546,-0.677125 0.1985,-0.219768 0.39697,-0.43362 0.59545,-0.641479 0.19849,-0.207857 0.39695,-0.409773 0.59545,-0.605673 0.1985,-0.195898 0.3969,-0.385828 0.5954,-0.569718 0.1985,-0.183889 0.397,-0.361785 0.5955,-0.533622 0.19846,-0.171835 0.39694,-0.337654 0.5954,-0.497395 0.1985,-0.15974 0.397,-0.31344 0.5955,-0.461044 0.1985,-0.147606 0.3969,-0.28915 0.5954,-0.424582 0.1985,-0.135432 0.39696,-0.264785 0.59544,-0.388014 0.19849,-0.123226 0.39696,-0.240356 0.59546,-0.351347 0.1985,-0.110992 0.397,-0.215869 0.59546,-0.314598 0.19849,-0.09873 0.39698,-0.19133 0.5954,-0.277769 0.19849,-0.08644 0.39697,-0.16674 0.59544,-0.240871 0.1985,-0.07413 0.397,-0.142111 0.5955,-0.203917 0.19846,-0.0618 0.39695,-0.117446 0.59544,-0.166908 0.19846,-0.04946 0.39696,-0.09275 0.59546,-0.12986 0.1984,-0.03711 0.3969,-0.06804 0.5954,-0.09278 0.1985,-0.02474 8.68642,-1.513512 8.68642,-1.513512"
     fill-rule="nonzero"
     id="path37"
     style="display:inline;stroke:#0001ad;stroke-opacity:1;marker-start:url(#Arrow1Mstart);marker-end:url(#Arrow1Mend)"
     inkscape:label="Signal"
     sodipodi:nodetypes="cssssssssssssssssssssssssssssssssssssssssssssssssssssssssssssssssssssssssssssssssssssssssssssssssssssssssssssssssssssssssssssssssssssssssssssssssscsssssssssssssssssssssssssssssssssssssssssssssssssssssssssssssssssssssssssssssssssssssssssssssssssssssssssssssssssssssssssssssssssssssssssssssssssscsssscsscsscsssssssssssssssssssssssssssssssssssssssssssssssssssssssssssssssssssssssssssssssssssssssssssssssssssssssssssssssssssssssssssssssssssssssssssssssssssssssssssssssssssssssssssssssssssssssssssssssssssssssssssssssssssssssssssssssssssssssssssssssssssssssssssssssssssssssssssssssssssssssssssssssssssssssssssssssssssssssssssssssssssssssssssssssssssssssssssssssssssssssssssssssssssssssssssssssssssssssssssscsssssssssssssssssssssssssssssssssssssssssssssssssssssssssssssssssssssssssssssssssssssssssssssssssssssssssssssssssssssssssssssssssssssssssssssssssssssssssssssssssssssssssssssssssssssssssssssssssssssc" />
  <text
     xml:space="preserve"
     style="font-weight:bold;font-size:18.6667px;line-height:1.25;font-family:roboto;-inkscape-font-specification:'roboto Bold';letter-spacing:0px;word-spacing:0px;fill:#000000;fill-opacity:1;stroke-width:1"
     x="224.30548"
     y="392.3497"
     id="text51926"
     inkscape:label="Caption"><tspan
       sodipodi:role="line"
       id="tspan51924"
       x="224.30548"
       y="392.3497"
       style="font-size:18.6667px;stroke-width:1">The Sine Function</tspan></text>
</svg>
