<?xml version="1.0" encoding="UTF-8" standalone="no"?>
<!-- Created with Inkscape (http://www.inkscape.org/) -->

<svg
   width="317.28061mm"
   height="137.27025mm"
   viewBox="0 0 317.28061 137.27025"
   version="1.1"
   id="svg5"
   inkscape:version="1.1 (c68e22c387, 2021-05-23)"
   sodipodi:docname="waveforms.svg"
   xmlns:inkscape="http://www.inkscape.org/namespaces/inkscape"
   xmlns:sodipodi="http://sodipodi.sourceforge.net/DTD/sodipodi-0.dtd"
   xmlns="http://www.w3.org/2000/svg"
   xmlns:svg="http://www.w3.org/2000/svg">
  <sodipodi:namedview
     id="namedview7"
     pagecolor="#ffffff"
     bordercolor="#666666"
     borderopacity="1.0"
     inkscape:pageshadow="2"
     inkscape:pageopacity="0.0"
     inkscape:pagecheckerboard="true"
     inkscape:document-units="mm"
     showgrid="false"
     inkscape:zoom="0.55737255"
     inkscape:cx="537.34257"
     inkscape:cy="344.47337"
     inkscape:window-width="1280"
     inkscape:window-height="962"
     inkscape:window-x="-8"
     inkscape:window-y="-8"
     inkscape:window-maximized="1"
     inkscape:current-layer="layer1"
     showborder="true"
     fit-margin-top="0"
     fit-margin-left="0"
     fit-margin-right="0"
     fit-margin-bottom="0" />
  <defs
     id="defs2" />
  <g
     inkscape:label="Layer 1"
     id="layer1"
     transform="translate(-9.4219163,-10.63327)">
    <g
       id="g1247"
       inkscape:label="Axes 0"
       transform="matrix(1,0,0,0.49980981,117.59668,-3.2953915)"
       style="stroke-width:1.41448">
      <path
         style="fill:none;stroke:#808080;stroke-width:0.374249;stroke-linecap:butt;stroke-linejoin:miter;stroke-miterlimit:4;stroke-dasharray:none;stroke-opacity:1"
         d="M -107.93041,28.208821 V 109.93914"
         id="path1081" />
      <path
         style="fill:none;stroke:#808080;stroke-width:0.748497;stroke-linecap:butt;stroke-linejoin:miter;stroke-miterlimit:4;stroke-dasharray:none;stroke-opacity:1"
         d="M -108.06271,69.073979 H 34.247669"
         id="path1083" />
    </g>
    <g
       id="g1351"
       inkscape:label="Axes 1"
       transform="matrix(1,0,0,0.49980981,292.45481,-3.2953915)"
       style="stroke-width:1.41448">
      <path
         style="fill:none;stroke:#808080;stroke-width:0.374249;stroke-linecap:butt;stroke-linejoin:miter;stroke-miterlimit:4;stroke-dasharray:none;stroke-opacity:1"
         d="M -107.93041,28.208821 V 109.93914"
         id="path1347" />
      <path
         style="fill:none;stroke:#808080;stroke-width:0.748497;stroke-linecap:butt;stroke-linejoin:miter;stroke-miterlimit:4;stroke-dasharray:none;stroke-opacity:1"
         d="M -108.06271,69.073979 H 34.247669"
         id="path1349" />
    </g>
    <g
       id="g1411"
       inkscape:label="Axes 2"
       transform="matrix(1,0,0,0.49980981,117.60414,63.621585)"
       style="stroke-width:1.41448">
      <path
         style="fill:none;stroke:#808080;stroke-width:0.374249;stroke-linecap:butt;stroke-linejoin:miter;stroke-miterlimit:4;stroke-dasharray:none;stroke-opacity:1"
         d="M -107.93041,28.208821 V 109.93914"
         id="path1407" />
      <path
         style="fill:none;stroke:#808080;stroke-width:0.748497;stroke-linecap:butt;stroke-linejoin:miter;stroke-miterlimit:4;stroke-dasharray:none;stroke-opacity:1"
         d="M -108.06271,69.073979 H 34.247669"
         id="path1409" />
    </g>
    <g
       id="g1417"
       inkscape:label="Axes 3"
       transform="matrix(1,0,0,0.49980981,292.45485,63.621585)"
       style="stroke-width:1.41448">
      <path
         style="fill:none;stroke:#808080;stroke-width:0.374249;stroke-linecap:butt;stroke-linejoin:miter;stroke-miterlimit:4;stroke-dasharray:none;stroke-opacity:1"
         d="M -107.93041,28.208821 V 109.93914"
         id="path1413" />
      <path
         style="fill:none;stroke:#808080;stroke-width:0.748497;stroke-linecap:butt;stroke-linejoin:miter;stroke-miterlimit:4;stroke-dasharray:none;stroke-opacity:1"
         d="M -108.06271,69.073979 H 34.247669"
         id="path1415" />
    </g>
    <path
       stroke="#4285f4"
       stroke-width="2"
       stroke-linecap="butt"
       d="m 9.6699743,31.228459 0.1314093,-0.354151 0.1314084,-0.354045 0.131409,-0.353829 0.131409,-0.353503 0.131409,-0.353074 0.131408,-0.352534 0.13141,-0.351889 0.131408,-0.351135 0.13141,-0.350276 0.131408,-0.349309 0.131409,-0.348235 0.131409,-0.347054 0.131409,-0.34577 0.131409,-0.344379 0.131409,-0.342886 0.131408,-0.341283 0.13141,-0.339581 0.131408,-0.337774 0.131409,-0.335864 0.13141,-0.33385 0.131408,-0.331736 0.131409,-0.329522 0.131409,-0.327206 0.131409,-0.32479 0.131409,-0.322277 0.131409,-0.319665 0.131408,-0.316954 0.13141,-0.314149 0.131408,-0.311247 0.13141,-0.308249 0.131408,-0.305159 0.131409,-0.301976 0.13141,-0.2987 0.131408,-0.295333 0.131409,-0.291878 0.131409,-0.288331 0.131408,-0.284699 0.131411,-0.280977 0.131407,-0.277173 0.131409,-0.273283 0.13141,-0.269309 0.131409,-0.265254 0.131407,-0.261118 0.131411,-0.256903 0.131409,-0.252609 0.131407,-0.248236 0.13141,-0.243793 0.131409,-0.23927 0.131407,-0.234677 0.131411,-0.230012 0.131409,-0.225277 0.131407,-0.220473 0.13141,-0.215601 0.13141,-0.210666 0.131406,-0.205665 0.131411,-0.200602 0.131409,-0.195477 0.131409,-0.190292 0.131408,-0.185051 0.13141,-0.179753 0.131409,-0.174399 0.131408,-0.168993 0.131409,-0.163536 0.131409,-0.158027 0.131408,-0.152472 0.13141,-0.14687 0.131409,-0.141223 0.131408,-0.135534 0.131409,-0.129801 0.131409,-0.124031 0.131408,-0.118224 0.131411,-0.112378 0.131408,-0.106499 0.131411,-0.100589 0.131407,-0.09465 0.131408,-0.08868 0.131411,-0.08268 0.131408,-0.07666 0.131408,-0.07061 0.131411,-0.06454 0.131408,-0.05845 0.131407,-0.05235 0.131411,-0.04623 0.131408,-0.04009 0.131408,-0.03395 0.131411,-0.02779 0.131408,-0.02162 0.131407,-0.01545 0.131411,-0.0093 0.131409,-0.0031 0.131407,0.0031 0.131411,0.0093 0.131409,0.01545 0.131408,0.02162 0.131409,0.02779 0.13141,0.03395 0.131407,0.04009 0.13141,0.04623 0.131409,0.05235 0.131408,0.05845 0.131409,0.06454 0.131411,0.07061 0.131408,0.07666 0.131408,0.08268 0.13141,0.08868 0.131408,0.09465 0.131408,0.100589 0.131411,0.106499 0.131408,0.112378 0.131408,0.118224 0.13141,0.124031 0.131408,0.129801 0.131408,0.135534 0.131411,0.141223 0.131408,0.14687 0.131408,0.152472 0.13141,0.158027 0.131408,0.163536 0.131411,0.168993 0.131408,0.174399 0.131408,0.179753 0.13141,0.185051 0.131408,0.190292 0.131408,0.195477 0.131411,0.200602 0.131408,0.205665 0.131408,0.210666 0.13141,0.215601 0.131408,0.220473 0.131408,0.225277 0.131411,0.230012 0.131408,0.234677 0.131411,0.23927 0.131407,0.243793 0.131411,0.248236 0.131405,0.252609 0.131411,0.256903 0.131411,0.261118 0.131408,0.265254 0.131408,0.269309 0.13141,0.273283 0.131405,0.277173 0.131411,0.280977 0.131411,0.284699 0.131408,0.288331 0.131408,0.291878 0.13141,0.295333 0.131408,0.2987 0.131408,0.301976 0.131411,0.305159 0.131408,0.308249 0.131408,0.311247 0.13141,0.314149 0.131408,0.316954 0.131408,0.319665 0.131411,0.322277 0.131408,0.32479 0.131408,0.327206 0.13141,0.329522 0.131408,0.331736 0.131408,0.33385 0.131411,0.335864 0.131408,0.337774 0.13141,0.339581 0.131408,0.341283 0.131411,0.342886 0.131405,0.344379 0.131413,0.34577 0.131408,0.347054 0.131406,0.348235 0.131413,0.349309 0.131408,0.350276 0.131408,0.351135 0.13141,0.351889 0.131408,0.352534 0.131406,0.353074 0.131413,0.353503 0.131408,0.353829 0.131405,0.354045 0.131413,0.354151 0.131406,0.354152 0.131408,0.354044 0.131413,0.353829 0.131408,0.353504 0.131405,0.353074 0.131413,0.352534 0.131408,0.351889 0.131411,0.351135 0.131408,0.350276 0.131408,0.349308 0.131411,0.348236 0.131408,0.347054 0.131407,0.34577 0.131411,0.344379 0.131408,0.342886 0.131408,0.341283 0.131411,0.339581 0.131408,0.337773 0.131408,0.335864 0.13141,0.33385 0.131408,0.331737 0.131408,0.329522 0.131411,0.327206 0.131408,0.324791 0.131408,0.322276 0.13141,0.319664 0.131408,0.316955 0.131408,0.314147 0.131411,0.311249 0.131408,0.308249 0.131408,0.30516 0.13141,0.301973 0.131408,0.298702 0.131408,0.295332 0.131411,0.291878 0.131408,0.288332 0.131408,0.284696 0.13141,0.280982 0.131408,0.277169 0.131413,0.273286 0.131406,0.269309 0.131408,0.265254 0.13141,0.261117 0.131408,0.256904 0.131408,0.252605 0.131411,0.248241 0.131408,0.24379 0.131408,0.239271 0.13141,0.234676 0.131408,0.230014 0.131408,0.225275 0.131413,0.220475 0.131406,0.215602 0.131408,0.210663 0.131413,0.205666 0.131405,0.200602 0.131408,0.195476 0.131414,0.190296 0.131407,0.185048 0.131406,0.179753 0.131413,0.174399 0.131405,0.168992 0.131408,0.163536 0.131414,0.158028 0.131405,0.152473 0.131408,0.14687 0.13141,0.141221 0.131408,0.135535 0.131414,0.129799 0.131408,0.124033 0.131405,0.11822 0.131413,0.112384 0.131408,0.106497 0.131408,0.100588 0.131411,0.09464 0.131408,0.08868 0.131408,0.08268 0.13141,0.07665 0.131408,0.07061 0.131408,0.06454 0.131411,0.05846 0.131408,0.05235 0.131408,0.04623 0.13141,0.04009 0.131408,0.03395 0.131405,0.02778 0.131414,0.02162 0.131408,0.01545 0.131408,0.0093 0.13141,0.0031 0.131408,-0.0031 0.131408,-0.0093 0.131411,-0.01545 0.131408,-0.02162 0.131408,-0.02778 0.13141,-0.03395 0.131408,-0.04009 0.131408,-0.04623 0.131411,-0.05235 0.131408,-0.05846 0.13141,-0.06454 0.131408,-0.07061 0.131408,-0.07665 0.131411,-0.08268 0.131408,-0.08868 0.131408,-0.09464 0.13141,-0.100588 0.131408,-0.106497 0.131408,-0.112384 0.131411,-0.11822 0.131408,-0.124033 0.131408,-0.129799 0.13141,-0.135535 0.131408,-0.141221 0.131408,-0.14687 0.131411,-0.152473 0.131408,-0.158028 0.131408,-0.163536 0.13141,-0.168992 0.131408,-0.174399 0.131408,-0.179753 0.131411,-0.185048 0.131408,-0.190296 0.131408,-0.195476 0.131413,-0.200602 0.131405,-0.205666 0.131408,-0.210663 0.131411,-0.215602 0.131408,-0.220475 0.131413,-0.225275 0.131405,-0.230014 0.131408,-0.234676 0.131411,-0.239271 0.131411,-0.24379 0.131405,-0.248241 0.131413,-0.252605 0.131408,-0.256904 0.131405,-0.261117 0.131414,-0.265254 0.131408,-0.269309 0.131405,-0.273286 0.131413,-0.277169 0.131408,-0.280982 0.131408,-0.284696 0.131411,-0.288332 0.131408,-0.291878 0.131405,-0.295332 0.131413,-0.298702 0.131408,-0.301973 0.131406,-0.30516 0.131413,-0.308249 0.131405,-0.311249 0.131408,-0.314147 0.131413,-0.316955 0.131408,-0.319664 0.131408,-0.322276 0.131411,-0.324791 0.131408,-0.327206 0.131408,-0.329522 0.13141,-0.331737 0.131408,-0.33385 0.131411,-0.335864 0.131408,-0.337773 0.131408,-0.339581 0.13141,-0.341283 0.131408,-0.342886 0.131408,-0.344379 0.131411,-0.34577 0.131408,-0.347054 0.131408,-0.348236 0.13141,-0.349308 0.131408,-0.350276 0.131408,-0.351135 0.131411,-0.351889 0.131408,-0.352534 0.131408,-0.353074 0.13141,-0.353504 0.131408,-0.353829 0.131408,-0.354044 0.131411,-0.354152 0.131408,-0.354151 0.131408,-0.354045 0.131411,-0.353829 0.131407,-0.353503 0.131408,-0.353074 0.131411,-0.352534 0.131408,-0.351889 0.131408,-0.351135 0.131411,-0.350276 0.131408,-0.349309 0.131413,-0.348235 0.131405,-0.347054 0.131408,-0.34577 0.131413,-0.344379 0.131406,-0.342886 0.131408,-0.341283 0.131413,-0.339581 0.131405,-0.337774 0.131408,-0.335864 0.131413,-0.33385 0.131406,-0.331736 0.131408,-0.329522 0.131413,-0.327206 0.131405,-0.32479 0.131408,-0.322277 0.131413,-0.319665 0.131406,-0.316954 0.131408,-0.314149 0.131413,-0.311247 0.131408,-0.308249 0.131405,-0.305159 0.131413,-0.301976 0.131406,-0.2987 0.131408,-0.295333 0.131413,-0.291878 0.131408,-0.288331 0.131405,-0.284699 0.131411,-0.280977 0.13141,-0.277173 0.131406,-0.273283 0.131413,-0.269309 0.131408,-0.265254 0.13141,-0.261118 0.131408,-0.256903 0.131408,-0.252609 0.131411,-0.248236 0.131408,-0.243793 0.131408,-0.23927 0.131411,-0.234677 0.131407,-0.230012 0.131408,-0.225277 0.131411,-0.220473 0.131408,-0.215601 0.131408,-0.210666 0.131411,-0.205665 0.131407,-0.200602 0.131406,-0.195477 0.131413,-0.190292 0.131408,-0.185051 0.131408,-0.179753 0.131411,-0.174399 0.131408,-0.168993 0.131407,-0.163536 0.131408,-0.158027 0.131411,-0.152472 0.131413,-0.14687 0.131403,-0.141223 0.131408,-0.135534 0.131413,-0.129801 0.131405,-0.124031 0.131411,-0.118224 0.131411,-0.112378 0.131405,-0.106499 0.131413,-0.100589 0.131408,-0.09465 0.131403,-0.08868 0.131413,-0.08268 0.131411,-0.07666 0.131405,-0.07061 0.131411,-0.06454 0.13141,-0.05845 0.131408,-0.05235 0.131408,-0.04623 0.131411,-0.04009 0.131405,-0.03395 0.131411,-0.02779 0.13141,-0.02162 0.131413,-0.01545 0.131403,-0.0093 0.131408,-0.0031 0.131419,0.0031 0.1314,0.0093 0.13141,0.01545 0.131414,0.02162 0.131402,0.02779 0.131413,0.03395 0.131411,0.04009 0.1314,0.04623 0.131419,0.05235 0.131408,0.05845 0.131402,0.06454 0.131413,0.07061 0.131411,0.07666 0.131405,0.08268 0.131411,0.08868 0.131411,0.09465 0.131402,0.100589 0.131414,0.106499 0.13141,0.112378 0.131403,0.118224 0.131413,0.124031 0.131411,0.129801 0.131402,0.135534 0.131414,0.141223 0.131407,0.14687 0.131406,0.152472 0.131413,0.158027 0.131411,0.163536 0.131402,0.168993 0.131414,0.174399 0.131413,0.179753 0.1314,0.185051 0.13141,0.190292 0.131414,0.195477 0.131402,0.200602 0.131414,0.205665 0.13141,0.210666 0.1314,0.215601 0.131419,0.220473 0.131408,0.225277 0.131402,0.230012 0.131414,0.234677 0.13141,0.23927 0.131406,0.243793 0.13141,0.248236 0.131411,0.252609 0.131402,0.256903 0.131414,0.261118 0.13141,0.265254 0.131403,0.269309 0.131413,0.273283 0.131411,0.277173 0.131405,0.280977 0.131411,0.284699 0.131408,0.288331 0.131408,0.291878 0.13141,0.295333 0.131411,0.2987 0.131413,0.301976 0.131403,0.305159 0.131413,0.308249 0.131411,0.311247 0.1314,0.314149 0.131413,0.316954 0.131413,0.319665 0.131403,0.322277 0.13141,0.32479 0.131414,0.327206 0.131405,0.329522 0.131408,0.331736 0.131413,0.33385 0.131403,0.335864 0.13141,0.337774 0.131414,0.339581 0.131402,0.341283 0.131411,0.342886 0.131413,0.344379 0.131403,0.34577 0.13141,0.347054 0.131411,0.348235 0.131405,0.349309 0.131411,0.350276 0.131413,0.351135 0.131403,0.351889 0.131408,0.352534 0.131418,0.353074 0.1314,0.353503 0.131411,0.353829 0.131413,0.354045 0.131403,0.354151 0.131413,0.354152 0.131411,0.354044 0.1314,0.353829 0.131418,0.353504 0.131408,0.353074 0.131403,0.352534 0.131413,0.351889 0.131411,0.351135 0.131405,0.350276 0.131411,0.349308 0.13141,0.348236 0.131403,0.347054 0.131413,0.34577 0.131411,0.344379 0.131402,0.342886 0.131414,0.341283 0.13141,0.339581 0.131403,0.337773 0.131413,0.335864 0.131408,0.33385 0.131405,0.331737 0.131414,0.329522 0.13141,0.327206 0.131403,0.324791 0.131413,0.322276 0.131414,0.319664 0.1314,0.316955 0.13141,0.314147 0.131413,0.311249 0.131403,0.308249 0.131413,0.30516 0.131411,0.301973 0.13141,0.298702 0.131408,0.295332 0.131408,0.291878 0.131411,0.288332 0.131405,0.284696 0.131411,0.280982 0.131413,0.277169 0.131403,0.273286 0.13141,0.269309 0.131414,0.265254 0.131402,0.261117 0.131411,0.256904 0.131411,0.252605 0.131405,0.248241 0.13141,0.24379 0.131414,0.239271 0.131402,0.234676 0.131408,0.230014 0.131419,0.225275 0.1314,0.220475 0.131411,0.215602 0.131413,0.210663 0.131402,0.205666 0.131414,0.200602 0.13141,0.195476 0.1314,0.190296 0.131414,0.185048 0.131413,0.179753 0.131402,0.174399 0.131411,0.168992 0.131413,0.163536 0.131406,0.158028 0.131408,0.152473 0.131413,0.14687 0.131402,0.141221 0.131411,0.135535 0.131413,0.129799 0.131403,0.124033 0.131411,0.11822 0.131413,0.112384 0.131403,0.106497 0.13141,0.100588 0.131411,0.09464 0.131405,0.08868 0.131411,0.08268 0.131413,0.07665 0.131403,0.07061 0.131408,0.06454 0.131418,0.05846 0.1314,0.05235 0.131411,0.04623 0.131413,0.04009 0.131403,0.03395 0.131413,0.02778 0.13141,0.02162 0.1314,0.01545 0.131419,0.0093 0.131408,0.0031 0.131403,-0.0031 0.131413,-0.0093 0.13141,-0.01545 0.131411,-0.02162 0.131405,-0.02778 0.131411,-0.03395 0.131408,-0.04009 0.131408,-0.04623 0.13141,-0.05235 0.131411,-0.05846 0.131405,-0.06454 0.131411,-0.07061 0.131413,-0.07665 0.131403,-0.08268 0.131408,-0.08868 0.131413,-0.09464 0.131405,-0.100588 0.131411,-0.106497 0.131411,-0.112384 0.131405,-0.11822 0.131413,-0.124033 0.131408,-0.129799 0.131403,-0.135535 0.131413,-0.141221 0.131411,-0.14687 0.131405,-0.152473 0.131411,-0.158028 0.13141,-0.163536 0.131408,-0.168992 0.131408,-0.174399 0.131413,-0.179753 0.131403,-0.185048 0.131411,-0.190296 0.131413,-0.195476 0.131403,-0.200602 0.13141,-0.205666 0.131413,-0.210663 0.131403,-0.215602 0.131411,-0.220475 0.13141,-0.225275 0.131406,-0.230014 0.13141,-0.234676 0.131413,-0.239271 0.131403,-0.24379 0.131408,-0.248241 0.131419,-0.252605 0.1314,-0.256904 0.13141,-0.261117 0.131413,-0.265254 0.131403,-0.269309 0.131413,-0.273286 0.131411,-0.277169 0.1314,-0.280982 0.131413,-0.284696 0.131413,-0.288332 0.131403,-0.291878 0.131411,-0.295332 0.131411,-0.298702 0.13141,-0.301973 0.13141,-0.30516 0.13141,-0.308249 0.1314,-0.311249 0.13141,-0.314147 0.13142,-0.316955 0.13141,-0.319664 0.1314,-0.322276 0.13141,-0.324791 0.13141,-0.327206 0.1314,-0.329522 0.13142,-0.331737 0.13141,-0.33385 0.1314,-0.335864 0.13141,-0.337773 0.13142,-0.339581 0.1314,-0.341283 0.13141,-0.342886 0.13141,-0.344379 0.1314,-0.34577 0.13142,-0.347054 0.13141,-0.348236 0.1314,-0.349308 0.13141,-0.350276 0.13141,-0.351135 0.13141,-0.351889 0.13141,-0.352534 0.13141,-0.353074 0.13141,-0.353504 0.13141,-0.353829 0.13141,-0.354044 0.1314,-0.354152 0.13141,-0.354151 0.13141,-0.354045 0.13141,-0.353829 0.13141,-0.353503 0.13141,-0.353074 0.13141,-0.352534 0.13141,-0.351889 0.13141,-0.351135 0.1314,-0.350276 0.13141,-0.349309 0.13141,-0.348235 0.13141,-0.347054 0.13141,-0.34577 0.13141,-0.344379 0.13141,-0.342886 0.13141,-0.341283 0.13141,-0.339581 0.1314,-0.337774 0.13141,-0.335864 0.13141,-0.33385 0.13141,-0.331736 0.13141,-0.329522 0.13141,-0.327206 0.13141,-0.32479 0.13141,-0.322277 0.13141,-0.319665 0.1314,-0.316954 0.13141,-0.314149 0.13142,-0.311247 0.1314,-0.308249 0.13141,-0.305159 0.13141,-0.301976 0.1314,-0.2987 0.13142,-0.295333 0.13141,-0.291878 0.13141,-0.288331 0.1314,-0.284699 0.13142,-0.280977 0.13141,-0.277173 0.1314,-0.273283 0.13141,-0.269309 0.13141,-0.265254 0.1314,-0.261118 0.13142,-0.256903 0.13141,-0.252609 0.1314,-0.248236 0.13141,-0.243793 0.13142,-0.23927 0.1314,-0.234677 0.13141,-0.230012 0.13141,-0.225277 0.1314,-0.220473 0.13142,-0.215601 0.13141,-0.210666 0.1314,-0.205665 0.13141,-0.200602 0.13141,-0.195477 0.13141,-0.190292 0.13141,-0.185051 0.13141,-0.179753 0.1314,-0.174399 0.13142,-0.168993 0.13141,-0.163536 0.1314,-0.158027 0.13141,-0.152472 0.13141,-0.14687 0.13141,-0.141223 0.13141,-0.135534 0.13141,-0.129801 0.1314,-0.124031 0.13142,-0.118224 0.13141,-0.112378 0.1314,-0.106499 0.13141,-0.100589 0.13141,-0.09465 0.13141,-0.08868 0.13141,-0.08268 0.13141,-0.07666 0.13141,-0.07061 0.13141,-0.06454 0.13141,-0.05845 0.1314,-0.05235 0.13141,-0.04623 0.13141,-0.04009 0.13141,-0.03395 0.13141,-0.02779 0.13141,-0.02162 0.13141,-0.01545 0.13141,-0.0093 0.13141,-0.0031 0.1314,0.0031 0.13141,0.0093 0.13142,0.01545 0.1314,0.02162 0.13141,0.02779 0.13141,0.03395 0.13141,0.04009 0.13141,0.04623 0.13141,0.05235 0.13141,0.05845 0.1314,0.06454 0.13141,0.07061 0.13142,0.07666 0.1314,0.08268 0.13141,0.08868 0.13141,0.09465 0.1314,0.100589 0.13142,0.106499 0.13141,0.112378 0.1314,0.118224 0.13141,0.124031 0.13141,0.129801 0.13141,0.135534 0.13141,0.141223 0.13141,0.14687 0.1314,0.152472 0.13142,0.158027 0.13141,0.163536 0.1314,0.168993 0.13141,0.174399 0.13141,0.179753 0.13141,0.185051 0.13141,0.190292 0.13141,0.195477 0.1314,0.200602 0.13142,0.205665 0.13141,0.210666 0.1314,0.215601 0.13141,0.220473 0.13141,0.225277 0.13141,0.230012 0.13141,0.234677 0.13141,0.23927 0.1314,0.243793 0.13142,0.248236 0.13141,0.252609 0.1314,0.256903 0.13141,0.261118 0.13141,0.265254 0.13141,0.269309 0.13141,0.273283 0.13141,0.277173 0.1314,0.280977 0.13142,0.284699 0.13141,0.288331 0.1314,0.291878 0.13141,0.295333 0.13142,0.2987 0.1314,0.301976 0.13141,0.305159 0.13141,0.308249 0.1314,0.311247 0.13142,0.314149 0.13141,0.316954 0.1314,0.319665 0.13142,0.322277 0.1314,0.32479 0.13142,0.327206 0.1314,0.329522 0.13141,0.331736 0.13141,0.33385 0.13141,0.335864 0.13141,0.337774 0.13141,0.339581 0.1314,0.341283 0.13141,0.342886 0.13141,0.344379 0.13141,0.34577 0.13141,0.347054 0.13141,0.348235 0.13141,0.349309 0.1314,0.350276 0.13142,0.351135 0.1314,0.351889 0.13141,0.352534 0.13142,0.353074 0.1314,0.353503 0.13141,0.353829 0.13141,0.354045 0.1314,0.354151 0.13142,0.354152 0.13141,0.354044 0.1314,0.353829 0.13141,0.353504 0.13141,0.353074 0.13141,0.352534 0.13141,0.351889 0.13141,0.351135 0.1314,0.350276 0.13141,0.349308 0.13142,0.348236 0.1314,0.347054 0.13141,0.34577 0.13141,0.344379 0.13141,0.342886 0.13141,0.341283 0.13141,0.339581 0.1314,0.337773 0.13142,0.335864 0.13141,0.33385 0.1314,0.331737 0.13141,0.329522 0.13142,0.327206 0.1314,0.324791 0.13141,0.322276 0.13141,0.319664 0.1314,0.316955 0.13142,0.314147 0.13141,0.311249 0.1314,0.308249 0.13142,0.30516 0.1314,0.301973 0.13141,0.298702 0.13141,0.295332 0.13141,0.291878 0.13141,0.288332 0.13141,0.284696 0.13141,0.280982 0.1314,0.277169 0.13141,0.273286 0.13141,0.269309 0.13141,0.265254 0.13141,0.261117 0.1314,0.256904 0.13142,0.252605 0.13141,0.248241 0.1314,0.24379 0.13142,0.239271 0.13139,0.234676 0.13142,0.230014 0.13142,0.225275 0.13139,0.220475 0.13141,0.215602 0.13142,0.210663 0.1314,0.205666 0.13141,0.200602 0.13142,0.195476 0.1314,0.190296 0.1314,0.185048 0.13143,0.179753 0.1314,0.174399 0.1314,0.168992 0.13142,0.163536 0.13141,0.158028 0.13139,0.152473 0.13142,0.14687 0.13141,0.141221 0.1314,0.135535 0.13142,0.129799 0.13141,0.124033 0.13142,0.11822 0.1314,0.112384 0.1314,0.106497 0.13142,0.100588 0.13141,0.09464 0.1314,0.08868 0.13142,0.08268 0.13141,0.07665 0.13139,0.07061 0.13143,0.06454 0.13141,0.05846 0.13139,0.05235 0.13142,0.04623 0.13141,0.04009 0.1314,0.03395 0.13142,0.02778 0.1314,0.02162 0.13141,0.01545 0.13142,0.0093 0.1314,0.0031 0.13141,-0.0031 0.13141,-0.0093 0.13141,-0.01545 0.13141,-0.02162 0.13141,-0.02778 0.1314,-0.03395 0.13141,-0.04009 0.13142,-0.04623 0.13139,-0.05235 0.13141,-0.05846 0.13142,-0.06454 0.1314,-0.07061 0.13141,-0.07665 0.13142,-0.08268 0.1314,-0.08868 0.13141,-0.09464 0.13142,-0.100588 0.1314,-0.106497 0.1314,-0.112384 0.13142,-0.11822 0.13141,-0.124033 0.13139,-0.129799 0.13142,-0.135535 0.13142,-0.141221 0.13139,-0.14687 0.13142,-0.152473 0.13141,-0.158028 0.1314,-0.163536 0.13142,-0.168992 0.13141,-0.174399 0.1314,-0.179753 0.13142,-0.185048 0.1314,-0.190296 0.13141,-0.195476 0.13142,-0.200602 0.1314,-0.205666 0.13141,-0.210663 0.13142,-0.215602 0.13139,-0.220475 0.13141,-0.225275 0.13142,-0.230014 0.1314,-0.234676 0.1314,-0.239271 0.13143,-0.24379 0.1314,-0.248241 0.1314,-0.252605 0.13142,-0.256904 0.13141,-0.261117 0.1314,-0.265254 0.13142,-0.269309 0.13141,-0.273286 0.13139,-0.277169 0.13142,-0.280982 0.13142,-0.284696 0.13139,-0.288332 0.13142,-0.291878 0.1314,-0.295332 0.13141,-0.298702 0.13142,-0.301973 0.1314,-0.30516 0.13141,-0.308249 0.13141,-0.311249 0.13141,-0.314147 0.13141,-0.316955 0.13141,-0.319664 0.1314,-0.322276 0.13141,-0.324791 0.13142,-0.327206 0.1314,-0.329522 0.13141,-0.331737 0.13142,-0.33385 0.13139,-0.335864 0.13141,-0.337773 0.13142,-0.339581 0.1314,-0.341283 0.13141,-0.342886 0.13142,-0.344379 0.1314,-0.34577 0.13141,-0.347054 0.13141,-0.348236 0.13141,-0.349308 0.13139,-0.350276 0.13143,-0.351135 0.13141,-0.351889 0.13139,-0.352534 0.13142,-0.353074 0.13141,-0.353504 0.1314,-0.353829 0.13142,-0.354044"
       fill-rule="nonzero"
       id="path27"
       style="display:inline;fill:none;stroke:#0000a8;stroke-width:0.529168;stroke-miterlimit:4;stroke-dasharray:none;stroke-opacity:1"
       inkscape:label="WS 0" />
    <path
       stroke="#4285f4"
       stroke-width="2"
       stroke-linecap="butt"
       d="m 184.52026,31.227911 0.13165,-0.354805 0.13165,-0.354705 0.13165,-0.354486 0.13165,-0.354155 0.13165,-0.35373 0.13165,-0.353186 0.13165,-0.352546 0.13165,-0.351786 0.13165,-0.350921 0.13165,-0.349957 0.13165,-0.348882 0.13165,-0.347698 0.13165,-0.346413 0.13165,-0.345014 0.13165,-0.343524 0.13165,-0.341915 0.13165,-0.340211 0.13165,-0.338401 0.13165,-0.336487 0.13165,-0.334468 0.13165,-0.332353 0.13165,-0.330134 0.13165,-0.327811 0.13165,-0.325391 0.13165,-0.322877 0.13165,-0.320258 0.13165,-0.317539 0.13165,-0.314731 0.13165,-0.311826 0.13165,-0.308822 0.13165,-0.305724 0.13165,-0.302535 0.13165,-0.299256 0.13165,-0.295878 0.13165,-0.292418 0.13165,-0.28887 0.13165,-0.285227 0.13165,-0.281498 0.13165,-0.277684 0.13165,-0.273791 0.13165,-0.269807 0.13165,-0.265749 0.13165,-0.2616 0.13165,-0.257378 0.13165,-0.253078 0.13164,-0.248701 0.13166,-0.244242 0.13165,-0.239713 0.13164,-0.235111 0.13166,-0.230442 0.13165,-0.225694 0.13164,-0.220881 0.13166,-0.216003 0.13165,-0.211055 0.13164,-0.206046 0.13166,-0.200974 0.13165,-0.19584 0.13165,-0.190643 0.13164,-0.185394 0.13165,-0.180087 0.13166,-0.174723 0.13164,-0.169306 0.13165,-0.163838 0.13165,-0.158319 0.13165,-0.152757 0.13165,-0.147144 0.13165,-0.141486 0.13165,-0.135784 0.13165,-0.13004 0.13165,-0.124263 0.13165,-0.11844 0.13165,-0.112587 0.13165,-0.106699 0.13165,-0.100772 0.13165,-0.09482 0.13165,-0.08884 0.13165,-0.08283 0.13165,-0.0768 0.13165,-0.07074 0.13165,-0.06466 0.13165,-0.05856 0.13165,-0.05245 0.13165,-0.04633 0.13165,-0.04019 0.13165,-0.03399 0.13165,-0.02784 0.13165,-0.02164 0.13165,-0.01549 0.13165,-0.0093 0.13165,-0.003 0.13165,0.003 0.13165,0.0093 0.13165,0.01549 0.13165,0.02164 0.13165,0.02784 0.13165,0.03399 0.13165,0.04019 0.13165,0.04633 0.13165,0.05245 0.13165,0.05856 0.13165,0.06466 0.13165,0.07074 0.13165,0.0768 0.13165,0.08283 0.13165,0.08884 0.13165,0.09482 0.13165,0.100772 0.13165,0.106699 0.13165,0.112587 0.13165,0.11844 0.13165,0.124263 0.13165,0.13004 0.13165,0.135784 0.13165,0.141486 0.13165,0.147144 0.13165,0.152757 0.13165,0.158319 0.13165,0.163838 0.13165,0.169306 0.13165,0.174723 0.13165,0.180087 0.13165,0.185394 0.13165,0.190643 0.13165,0.19584 0.13165,0.200974 0.13165,0.206046 0.13165,0.211055 0.13165,0.216003 0.13165,0.220881 0.13165,0.225694 0.13165,0.230442 0.13165,0.235111 0.13165,0.239713 0.13165,0.244242 0.13165,0.248701 0.13164,0.253078 0.13166,0.257378 0.13165,0.2616 0.13165,0.265749 0.13165,0.269807 0.13165,0.273791 0.13164,0.277684 0.13166,0.281498 0.13165,0.285227 0.13165,0.28887 0.13164,0.292418 0.13166,0.295878 0.13165,0.299256 0.13164,0.302535 0.13166,0.305724 0.13164,0.308822 0.13165,0.311826 0.13166,0.314731 0.13164,0.317539 0.13165,0.320258 0.13165,0.322877 0.13165,0.325391 0.13165,0.327811 0.13165,0.330134 0.13165,0.332353 0.13165,0.334468 0.13165,0.336487 0.13165,0.338401 0.13165,0.340211 0.13165,0.341915 0.13165,0.343524 0.13165,0.345014 0.13166,0.346413 0.13164,0.347698 0.13165,0.348882 0.13165,0.349957 0.13165,0.350921 0.13165,0.351786 0.13165,0.352546 0.13165,0.353186 0.13165,0.35373 0.13165,0.354155 0.13165,0.354486 0.13165,0.354705 0.13165,0.354805 h 0.13165 0.13165 0.13165 0.13165 0.13165 0.13165 0.13165 0.13165 0.13165 0.13165 0.13165 0.13165 0.13165 0.13165 0.13165 0.13165 0.13165 0.13165 0.13165 0.13165 0.13165 0.13165 0.13165 0.13165 0.13165 0.13165 0.13165 0.13165 0.13165 0.13165 0.13165 0.13165 0.13165 0.13165 0.13165 0.13165 0.13165 0.13165 0.13165 0.13165 0.13165 0.13165 0.13165 0.13165 0.13165 0.13165 0.13165 0.13164 0.13166 0.13165 0.13164 0.13166 0.13164 0.13165 0.13166 0.13164 0.13165 0.13166 0.13165 0.13164 0.13166 0.13164 0.13165 0.13166 0.13164 0.13165 0.13165 0.13165 0.13166 0.13165 0.13164 0.13166 0.13164 0.13165 0.13166 0.13164 0.13165 0.13165 0.13165 0.13165 0.13165 0.13165 0.13165 0.13165 0.13165 0.13165 0.13165 0.13165 0.13165 0.13165 0.13165 0.13165 0.13165 0.13165 0.13165 0.13165 0.13165 0.13165 0.13165 0.13165 0.13165 0.13165 0.13165 0.13165 0.13165 0.13165 0.13165 0.13165 0.13165 0.13165 0.13165 0.13165 0.13165 0.13165 0.13165 0.13165 0.13165 0.13165 0.13165 0.13165 0.13165 0.13165 0.13165 0.13165 0.13165 0.13165 0.13165 0.13165 0.13165 0.13165 0.13165 0.13165 0.13165 0.13165 0.13164 0.13166 0.13165 0.13164 0.13166 0.13165 0.13164 0.13166 0.13165 0.13165 0.13165 0.13165 0.13164 0.13166 0.13165 0.13164 0.13166 0.13164 0.13165 0.13166 0.13164 0.13165 0.13166 0.13164 0.13165 0.13165 0.13165 0.13166 0.13164 0.13165 0.13165 0.13165 0.13165 0.13165 0.13165 0.13165 0.13165 0.13165 0.13165 0.13165 0.13165 0.13165 0.13165 0.13165 0.13165 0.13165 l 0.13165,-0.354805 0.13165,-0.354705 0.13165,-0.354486 0.13165,-0.354155 0.13165,-0.35373 0.13165,-0.353186 0.13165,-0.352546 0.13165,-0.351786 0.13165,-0.350921 0.13165,-0.349957 0.13165,-0.348882 0.13165,-0.347698 0.13165,-0.346413 0.13165,-0.345014 0.13165,-0.343524 0.13165,-0.341915 0.13165,-0.340211 0.13165,-0.338401 0.13165,-0.336487 0.13165,-0.334468 0.13165,-0.332353 0.13165,-0.330134 0.13165,-0.327811 0.13165,-0.325391 0.13165,-0.322877 0.13165,-0.320258 0.13165,-0.317539 0.13165,-0.314731 0.13165,-0.311826 0.13165,-0.308822 0.13165,-0.305724 0.13165,-0.302535 0.13165,-0.299256 0.13165,-0.295878 0.13165,-0.292418 0.13165,-0.28887 0.13164,-0.285227 0.13166,-0.281498 0.13165,-0.277684 0.13164,-0.273791 0.13166,-0.269807 0.13165,-0.265749 0.13165,-0.2616 0.13165,-0.257378 0.13165,-0.253078 0.13165,-0.248701 0.13165,-0.244242 0.13165,-0.239713 0.13165,-0.235111 0.13165,-0.230442 0.13165,-0.225694 0.13165,-0.220881 0.13165,-0.216003 0.13165,-0.211055 0.13165,-0.206046 0.13165,-0.200974 0.13164,-0.19584 0.13166,-0.190643 0.13165,-0.185394 0.13164,-0.180087 0.13166,-0.174723 0.13164,-0.169306 0.13165,-0.163838 0.13165,-0.158319 0.13165,-0.152757 0.13166,-0.147144 0.13164,-0.141486 0.13165,-0.135784 0.13166,-0.13004 0.13164,-0.124263 0.13165,-0.11844 0.13165,-0.112587 0.13165,-0.106699 0.13166,-0.100772 0.13164,-0.09482 0.13165,-0.08884 0.13165,-0.08283 0.13165,-0.0768 0.13165,-0.07074 0.13165,-0.06466 0.13165,-0.05856 0.13165,-0.05245 0.13165,-0.04633 0.13165,-0.04019 0.13165,-0.03399 0.13165,-0.02784 0.13165,-0.02164 0.13166,-0.01549 0.13164,-0.0093 0.13165,-0.003 0.13166,0.003 0.13164,0.0093 0.13165,0.01549 0.13166,0.02164 0.13164,0.02784 0.13165,0.03399 0.13165,0.04019 0.13165,0.04633 0.13166,0.05245 0.13164,0.05856 0.13165,0.06466 0.13165,0.07074 0.13165,0.0768 0.13165,0.08283 0.13165,0.08884 0.13165,0.09482 0.13165,0.100772 0.13165,0.106699 0.13165,0.112587 0.13165,0.11844 0.13165,0.124263 0.13165,0.13004 0.13165,0.135784 0.13165,0.141486 0.13165,0.147144 0.13165,0.152757 0.13165,0.158319 0.13165,0.163838 0.13164,0.169306 0.13166,0.174723 0.13165,0.180087 0.13164,0.185394 0.13166,0.190643 0.13165,0.19584 0.13164,0.200974 0.13166,0.206046 0.13165,0.211055 0.13164,0.216003 0.13166,0.220881 0.13165,0.225694 0.13164,0.230442 0.13166,0.235111 0.13165,0.239713 0.13164,0.244242 0.13166,0.248701 0.13165,0.253078 0.13164,0.257378 0.13166,0.2616 0.13165,0.265749 0.13164,0.269807 0.13166,0.273791 0.13165,0.277684 0.13164,0.281498 0.13165,0.285227 0.13165,0.28887 0.13165,0.292418 0.13165,0.295878 0.13166,0.299256 0.13165,0.302535 0.13164,0.305724 0.13166,0.308822 0.13165,0.311826 0.13164,0.314731 0.13165,0.317539 0.13166,0.320258 0.13164,0.322877 0.13165,0.325391 0.13166,0.327811 0.13164,0.330134 0.13165,0.332353 0.13166,0.334468 0.13164,0.336487 0.13165,0.338401 0.13166,0.340211 0.13164,0.341915 0.13165,0.343524 0.13166,0.345014 0.13164,0.346413 0.13165,0.347698 0.13165,0.348882 0.13165,0.349957 0.13165,0.350921 0.13166,0.351786 0.13164,0.352546 0.13165,0.353186 0.13166,0.35373 0.13164,0.354155 0.13165,0.354486 0.13165,0.354705 0.13165,0.354805 h 0.13165 0.13165 0.13165 0.13165 0.13165 0.13165 0.13165 0.13165 0.13165 0.13165 0.13165 0.13165 0.13165 0.13165 0.13165 0.13165 0.13165 0.13165 0.13165 0.13165 0.13164 0.13166 0.13165 0.13164 0.13166 0.13165 0.13164 0.13166 0.13165 0.13164 0.13166 0.13165 0.13165 0.13165 0.13165 0.13165 0.13165 0.13165 0.13165 0.13165 0.13165 0.13165 0.13165 0.13165 0.13165 0.13164 0.13166 0.13165 0.13164 0.13165 0.13166 0.13164 0.13166 0.13165 0.13164 0.13166 0.13165 0.13164 0.13165 0.13166 0.13164 0.13165 0.13166 0.13164 0.13165 0.13166 0.13164 0.13165 0.13166 0.13164 0.13165 0.13166 0.13164 0.13165 0.13165 0.13165 0.13165 0.13166 0.13164 0.13165 0.13166 0.13164 0.13165 0.13165 0.13165 0.13165 0.13165 0.13164 0.13166 0.13165 0.13165 0.13165 0.13165 0.13165 0.13165 0.13165 0.13165 0.13165 0.13165 0.13165 0.13165 0.13165 0.13166 0.13164 0.13165 0.13165 0.13165 0.13165 0.13165 0.13165 0.13165 0.13165 0.13164 0.13166 0.13165 0.13164 0.13165 0.13166 0.13164 0.13165 0.13166 0.13164 0.13165 0.13166 0.13164 0.13165 0.13166 0.13164 0.13165 0.13165 0.13165 0.13165 0.13166 0.13164 0.13165 0.13166 0.13164 0.13165 0.13165 0.13165 0.13165 0.13165 0.13165 0.13165 0.13165 0.13165 0.13165 0.13165 0.13165 0.13165 0.13165 0.13165 0.13165 0.13165 0.13165 0.13165 0.13165 0.13166 0.13164 0.13165 0.13165 0.13165 0.13165 0.13165 0.13164 0.13166 0.13165 0.13165 0.13165 0.13165 0.13165 0.13165 0.13165 0.13165 0.13165 0.13165 0.13165 0.13165 0.13165 0.13165 l 0.13165,-0.354805 0.13165,-0.354705 0.13165,-0.354486 0.13165,-0.354155 0.13165,-0.35373 0.13164,-0.353186 0.13166,-0.352546 0.13165,-0.351786 0.13164,-0.350921 0.13165,-0.349957 0.13166,-0.348882 0.13164,-0.347698 0.13166,-0.346413 0.13165,-0.345014 0.13164,-0.343524 0.13166,-0.341915 0.13165,-0.340211 0.13164,-0.338401 0.13165,-0.336487 0.13166,-0.334468 0.13164,-0.332353 0.13165,-0.330134 0.13166,-0.327811 0.13164,-0.325391 0.13165,-0.322877 0.13166,-0.320258 0.13164,-0.317539 0.13165,-0.314731 0.13166,-0.311826 0.13164,-0.308822 0.13165,-0.305724 0.13166,-0.302535 0.13164,-0.299256 0.13165,-0.295878 0.13165,-0.292418 0.13166,-0.28887 0.13164,-0.285227 0.13166,-0.281498 0.13165,-0.277684 0.13164,-0.273791 0.13166,-0.269807 0.13165,-0.265749 0.13164,-0.2616 0.13165,-0.257378 0.13166,-0.253078 0.13164,-0.248701 0.13165,-0.244242 0.13166,-0.239713 0.13164,-0.235111 0.13165,-0.230442 0.13165,-0.225694 0.13165,-0.220881 0.13165,-0.216003 0.13165,-0.211055 0.13165,-0.206046 0.13165,-0.200974 0.13165,-0.19584 0.13165,-0.190643 0.13165,-0.185394 0.13165,-0.180087 0.13165,-0.174723 0.13165,-0.169306 0.13166,-0.163838 0.13164,-0.158319 0.13165,-0.152757 0.13165,-0.147144 0.13165,-0.141486 0.13165,-0.135784 0.13165,-0.13004 0.13164,-0.124263 0.13166,-0.11844 0.13165,-0.112587 0.13164,-0.106699 0.13166,-0.100772 0.13165,-0.09482 0.13165,-0.08884 0.13165,-0.08283 0.13165,-0.0768 0.13165,-0.07074 0.13165,-0.06466 0.13165,-0.05856 0.13165,-0.05245 0.13165,-0.04633 0.13165,-0.04019 0.13165,-0.03399 0.13165,-0.02784 0.13165,-0.02164 0.13164,-0.01549 0.13166,-0.0093 0.13165,-0.003 0.13164,0.003 0.13166,0.0093 0.13165,0.01549 0.13164,0.02164 0.13165,0.02784 0.13166,0.03399 0.13165,0.04019 0.13164,0.04633 0.13166,0.05245 0.13165,0.05856 0.13165,0.06466 0.13165,0.07074 0.13165,0.0768 0.13164,0.08283 0.13166,0.08884 0.13165,0.09482 0.13164,0.100772 0.13166,0.106699 0.13165,0.112587 0.13164,0.11844 0.13166,0.124263 0.13165,0.13004 0.13164,0.135784 0.13166,0.141486 0.13165,0.147144 0.13164,0.152757 0.13166,0.158319 0.13165,0.163838 0.13164,0.169306 0.13165,0.174723 0.13166,0.180087 0.13164,0.185394 0.13165,0.190643 0.13166,0.19584 0.13164,0.200974 0.13166,0.206046 0.13165,0.211055 0.13164,0.216003 0.13165,0.220881 0.13166,0.225694 0.13164,0.230442 0.13165,0.235111 0.13165,0.239713 0.13165,0.244242 0.13165,0.248701 0.13165,0.253078 0.13165,0.257378 0.13165,0.2616 0.13165,0.265749 0.13165,0.269807 0.13165,0.273791 0.13165,0.277684 0.13165,0.281498 0.13165,0.285227 0.13165,0.28887 0.13165,0.292418 0.13165,0.295878 0.13165,0.299256 0.13165,0.302535 0.13165,0.305724 0.13165,0.308822 0.13165,0.311826 0.13165,0.314731 0.13165,0.317539 0.13164,0.320258 0.13166,0.322877 0.13165,0.325391 0.13165,0.327811 0.13165,0.330134 0.13165,0.332353 0.13165,0.334468 0.13165,0.336487 0.13165,0.338401 0.13165,0.340211 0.13165,0.341915 0.13165,0.343524 0.13165,0.345014 0.13165,0.346413 0.13165,0.347698 0.13165,0.348882 0.13165,0.349957 0.13165,0.350921 0.13165,0.351786 0.13165,0.352546 0.13165,0.353186 0.13165,0.35373 0.13165,0.354155 0.13165,0.354486 0.13165,0.354705 0.13164,0.354805 h 0.13166 0.13165 0.13164 0.13166 0.13165 0.13165 0.13165 0.13165 0.13164 0.13165 0.13166 0.13164 0.13166 0.13165 0.13164 0.13166 0.13165 0.13164 0.13166 0.13165 0.13164 0.13166 0.13165 0.13164 0.13165 0.13166 0.13164 0.13165 0.13166 0.13164 0.13166 0.13165 0.13164 0.13165 0.13165 0.13165 0.13165 0.13165 0.13165 0.13165 0.13165 0.13166 0.13164 0.13165 0.13166 0.13164 0.13165 0.13166 0.13163 0.13166 0.13166 0.13163 0.13165 0.13167 0.13164 0.13164 0.13167 0.13164 0.13164 0.13166 0.13165 0.13164 0.13166 0.13165 0.13164 0.13166 0.13165 0.13164 0.13166 0.13165 0.13166 0.13164 0.13165 0.13166 0.13164 0.13165 0.13166 0.13164 0.13164 0.13166 0.13166 0.13163 0.13166 0.13165 0.13164 0.13166 0.13165 0.13164 0.13166 0.13165 0.13165 0.13166 0.13164 0.13165 0.13166 0.13163 0.13166 0.13166 0.13163 0.13165 0.13166 0.13164 0.13165 0.13166 0.13165 0.13164 0.13166 0.13165 0.13164 0.13166 0.13165 0.13163 0.13166 0.13166 0.13164 0.13166 0.13164 0.13165 0.13166 0.13164 0.13165 0.13166 0.13164 0.13165 0.13166 0.13164 0.13165 0.13166 0.13164 0.13165 0.13166 0.13164 0.13165 0.13166 0.13164 0.13165 0.13166 0.13164 0.13165 0.13166 0.13165 0.13163 0.13166 0.13166 0.13163 0.13166 0.13165 0.13164 0.13166 0.13165 0.13165 0.13165 0.13165 0.13165 0.13166 0.13164 0.13165 0.13166 0.13163 0.13165 0.13167 0.13163 0.13165 0.13166 0.13165 0.13164 0.13166 0.13165 0.13164 0.13166 0.13165 0.13163 0.13167 0.13165 0.13164 0.13166 0.13165 0.13164 0.13166"
       fill-rule="nonzero"
       id="path27-2"
       style="display:inline;fill:none;stroke:#0000a8;stroke-width:0.529167;stroke-miterlimit:4;stroke-dasharray:none;stroke-opacity:1"
       inkscape:label="WS 1" />
    <path
       stroke="#4285f4"
       stroke-width="2"
       stroke-linecap="butt"
       d="m 9.6700538,98.145322 0.1314093,-0.354147 0.1314085,-0.35404 0.1314084,-0.353827 0.13141,-0.353507 0.131408,-0.353071 0.131409,-0.352536 0.131409,-0.351886 0.131409,-0.351136 0.131409,-0.350277 0.131409,-0.349307 0.131408,-0.348237 0.13141,-0.347053 0.131408,-0.345769 0.131409,-0.344379 0.131409,-0.342889 0.131409,-0.34128 0.131409,-0.339581 0.131409,-0.337777 0.131409,-0.335862 0.131409,-0.333853 0.131409,-0.331733 0.131408,-0.329525 0.13141,-0.327206 0.131408,-0.324786 0.131409,-0.322277 0.131409,-0.319669 0.131409,-0.316954 0.131409,-0.314146 0.131409,-0.311246 0.13141,-0.308253 0.131408,-0.305159 0.131408,-0.301975 0.13141,-0.298701 0.131408,-0.295333 0.131409,-0.291874 0.13141,-0.288335 0.131408,-0.284697 0.13141,-0.280978 0.131407,-0.277174 0.131409,-0.273281 0.131411,-0.269308 0.131409,-0.265254 0.131407,-0.26112 0.13141,-0.256903 0.131409,-0.252609 0.131407,-0.248235 0.131411,-0.243792 0.131409,-0.239269 0.131407,-0.234681 0.13141,-0.230007 0.13141,-0.22528 0.131406,-0.220471 0.131411,-0.215603 0.131409,-0.210665 0.131407,-0.205666 0.13141,-0.200604 0.13141,-0.195476 0.131409,-0.190292 0.131408,-0.18505 0.131409,-0.179751 0.131409,-0.174399 0.131408,-0.168996 0.13141,-0.163533 0.131409,-0.158029 0.131408,-0.152472 0.131409,-0.146869 0.131409,-0.141227 0.131408,-0.135533 0.13141,-0.129801 0.131409,-0.124028 0.131408,-0.118225 0.13141,-0.112377 0.131408,-0.106499 0.131411,-0.100592 0.131408,-0.09464 0.131408,-0.08868 0.131411,-0.08268 0.131408,-0.07666 0.131407,-0.07061 0.131411,-0.06454 0.131408,-0.05846 0.131408,-0.05234 0.131411,-0.04623 0.131408,-0.04009 0.131408,-0.03394 0.13141,-0.02779 0.131408,-0.02164 0.131408,-0.01544 0.131411,-0.0092 0.131409,-0.003 0.131407,0.003 0.13141,0.0092 0.13141,0.01544 0.131407,0.02164 0.13141,0.02779 0.131409,0.03394 0.131408,0.04009 0.131409,0.04623 0.13141,0.05234 0.131407,0.05846 0.13141,0.06454 0.13141,0.07061 0.131408,0.07666 0.131408,0.08268 0.131411,0.08868 0.131408,0.09464 0.131408,0.100592 0.13141,0.106499 0.131408,0.112377 0.131408,0.118225 0.131411,0.124028 0.131408,0.129801 0.131408,0.135533 0.13141,0.141227 0.131408,0.146869 0.131408,0.152472 0.131411,0.158029 0.131408,0.163533 0.13141,0.168996 0.131408,0.174399 0.131408,0.179751 0.131411,0.18505 0.131408,0.190292 0.131408,0.195476 0.13141,0.200604 0.131408,0.205666 0.131408,0.210665 0.131411,0.215603 0.131408,0.220471 0.131408,0.22528 0.13141,0.230007 0.131408,0.234681 0.131411,0.239269 0.131408,0.243792 0.131411,0.248235 0.131405,0.252609 0.131411,0.256903 0.13141,0.26112 0.131408,0.265254 0.131408,0.269308 0.131411,0.273281 0.131405,0.277174 0.131411,0.280978 0.13141,0.284697 0.131408,0.288335 0.131408,0.291874 0.131411,0.295333 0.131408,0.298701 0.131408,0.301975 0.13141,0.305159 0.131408,0.308253 0.131408,0.311246 0.131411,0.314146 0.131408,0.316954 0.131408,0.319669 0.13141,0.322277 0.131408,0.324786 0.131408,0.327206 0.131411,0.329525 0.131408,0.331733 0.131408,0.333853 0.13141,0.335862 0.131408,0.337777 0.131411,0.339581 0.131408,0.34128 0.13141,0.342889 0.131406,0.344379 0.131413,0.345769 0.131408,0.347053 0.131405,0.348237 0.131413,0.349307 0.131408,0.350277 0.131408,0.351136 0.131411,0.351886 0.131408,0.352536 0.131405,0.353071 0.131413,0.353507 0.131408,0.353827 0.131406,0.35404 0.131413,0.354147 0.131405,-0.354147 0.131408,-0.35404 0.131414,-0.353827 0.131407,-0.353507 0.131406,-0.353071 0.131413,-0.352536 0.131408,-0.351886 0.131411,-0.351136 0.131408,-0.350277 0.131407,-0.349307 0.131411,-0.348237 0.131408,-0.347053 0.131408,-0.345769 0.131411,-0.344379 0.131408,-0.342889 0.131408,-0.34128 0.13141,-0.339581 0.131408,-0.337777 0.131408,-0.335862 0.131411,-0.333853 0.131408,-0.331733 0.131408,-0.329525 0.13141,-0.327206 0.131408,-0.324786 0.131408,-0.322277 0.131411,-0.319669 0.131408,-0.316954 0.131408,-0.314146 0.13141,-0.311246 0.131408,-0.308253 0.131408,-0.305159 0.131411,-0.301975 0.131408,-0.298701 0.131408,-0.295333 0.13141,-0.291874 0.131408,-0.288335 0.131408,-0.284697 0.131411,-0.280978 0.131408,-0.277174 0.131413,-0.273281 0.131405,-0.269308 0.131408,-0.265254 0.131411,-0.26112 0.131408,-0.256903 0.131408,-0.252609 0.13141,-0.248235 0.131408,-0.243792 0.131408,-0.239269 0.131411,-0.234681 0.131408,-0.230007 0.131408,-0.22528 0.131413,-0.220471 0.131405,-0.215603 0.131408,-0.210665 0.131414,-0.205666 0.131405,-0.200604 0.131408,-0.195476 0.131413,-0.190292 0.131408,-0.18505 0.131405,-0.179751 0.131414,-0.174399 0.131405,-0.168996 0.131408,-0.163533 0.131413,-0.158029 0.131405,-0.152472 0.131408,-0.146869 0.131411,-0.141227 0.131408,-0.135533 0.131413,-0.129801 0.131408,-0.124028 0.131405,-0.118225 0.131414,-0.112377 0.131408,-0.106499 0.131408,-0.100592 0.13141,-0.09464 0.131408,-0.08868 0.131408,-0.08268 0.131411,-0.07666 0.131408,-0.07061 0.131408,-0.06454 0.13141,-0.05846 0.131408,-0.05234 0.131408,-0.04623 0.131411,-0.04009 0.131408,-0.03394 0.131405,-0.02779 0.131413,-0.02164 0.131408,-0.01544 0.131408,-0.0092 0.131411,-0.003 0.131408,0.003 0.131408,0.0092 0.13141,0.01544 0.131408,0.02164 0.131408,0.02779 0.131411,0.03394 0.131408,0.04009 0.131408,0.04623 0.13141,0.05234 0.131408,0.05846 0.131411,0.06454 0.131408,0.07061 0.131408,0.07666 0.13141,0.08268 0.131408,0.08868 0.131408,0.09464 0.131411,0.100592 0.131408,0.106499 0.131408,0.112377 0.13141,0.118225 0.131408,0.124028 0.131408,0.129801 0.131411,0.135533 0.131408,0.141227 0.131408,0.146869 0.13141,0.152472 0.131408,0.158029 0.131408,0.163533 0.131411,0.168996 0.131408,0.174399 0.131408,0.179751 0.13141,0.18505 0.131408,0.190292 0.131408,0.195476 0.131414,0.200604 0.131405,0.205666 0.131408,0.210665 0.131411,0.215603 0.131407,0.220471 0.131414,0.22528 0.131405,0.230007 0.131408,0.234681 0.131411,0.239269 0.13141,0.243792 0.131405,0.248235 0.131414,0.252609 0.131408,0.256903 0.131405,0.26112 0.131413,0.265254 0.131408,0.269308 0.131406,0.273281 0.131413,0.277174 0.131408,0.280978 0.131408,0.284697 0.13141,0.288335 0.131408,0.291874 0.131406,0.295333 0.131413,0.298701 0.131408,0.301975 0.131405,0.305159 0.131413,0.308253 0.131406,0.311246 0.131408,0.314146 0.131413,0.316954 0.131408,0.319669 0.131408,0.322277 0.13141,0.324786 0.131408,0.327206 0.131408,0.329525 0.131411,0.331733 0.131408,0.333853 0.13141,0.335862 0.131408,0.337777 0.131408,0.339581 0.131411,0.34128 0.131408,0.342889 0.131408,0.344379 0.13141,0.345769 0.131408,0.347053 0.131408,0.348237 0.131411,0.349307 0.131408,0.350277 0.131408,0.351136 0.13141,0.351886 0.131408,0.352536 0.131408,0.353071 0.131411,0.353507 0.131408,0.353827 0.131408,0.35404 0.131411,0.354147 0.131407,-0.354147 0.131408,-0.35404 0.131411,-0.353827 0.131408,-0.353507 0.131408,-0.353071 0.131411,-0.352536 0.131408,-0.351886 0.131407,-0.351136 0.131411,-0.350277 0.131408,-0.349307 0.131413,-0.348237 0.131406,-0.347053 0.131408,-0.345769 0.131413,-0.344379 0.131405,-0.342889 0.131408,-0.34128 0.131413,-0.339581 0.131406,-0.337777 0.131408,-0.335862 0.131413,-0.333853 0.131405,-0.331733 0.131408,-0.329525 0.131413,-0.327206 0.131406,-0.324786 0.131408,-0.322277 0.131413,-0.319669 0.131405,-0.316954 0.131408,-0.314146 0.131413,-0.311246 0.131408,-0.308253 0.131406,-0.305159 0.131413,-0.301975 0.131405,-0.298701 0.131408,-0.295333 0.131413,-0.291874 0.131408,-0.288335 0.131406,-0.284697 0.13141,-0.280978 0.131411,-0.277174 0.131405,-0.273281 0.131413,-0.269308 0.131408,-0.265254 0.131411,-0.26112 0.131408,-0.256903 0.131408,-0.252609 0.131411,-0.248235 0.131407,-0.243792 0.131408,-0.239269 0.131411,-0.234681 0.131408,-0.230007 0.131408,-0.22528 0.131411,-0.220471 0.131408,-0.215603 0.131407,-0.210665 0.131411,-0.205666 0.131408,-0.200604 0.131405,-0.195476 0.131414,-0.190292 0.131408,-0.18505 0.131407,-0.179751 0.131411,-0.174399 0.131408,-0.168996 0.131408,-0.163533 0.131408,-0.158029 0.131411,-0.152472 0.131413,-0.146869 0.131402,-0.141227 0.131408,-0.135533 0.131414,-0.129801 0.131405,-0.124028 0.131411,-0.118225 0.13141,-0.112377 0.131406,-0.106499 0.131413,-0.100592 0.131408,-0.09464 0.131402,-0.08868 0.131414,-0.08268 0.13141,-0.07666 0.131406,-0.07061 0.13141,-0.06454 0.131411,-0.05846 0.131408,-0.05234 0.131408,-0.04623 0.13141,-0.04009 0.131406,-0.03394 0.13141,-0.02779 0.131411,-0.02164 0.131413,-0.01544 0.131403,-0.0092 0.131408,-0.003 0.131418,0.003 0.1314,0.0092 0.131411,0.01544 0.131413,0.02164 0.131403,0.02779 0.131413,0.03394 0.131411,0.04009 0.1314,0.04623 0.131418,0.05234 0.131408,0.05846 0.131403,0.06454 0.131413,0.07061 0.131411,0.07666 0.131405,0.08268 0.131411,0.08868 0.13141,0.09464 0.131403,0.100592 0.131413,0.106499 0.131411,0.112377 0.131402,0.118225 0.131414,0.124028 0.13141,0.129801 0.131403,0.135533 0.131413,0.141227 0.131408,0.146869 0.131405,0.152472 0.131414,0.158029 0.13141,0.163533 0.131403,0.168996 0.131413,0.174399 0.131413,0.179751 0.1314,0.18505 0.131411,0.190292 0.131413,0.195476 0.131403,0.200604 0.131413,0.205666 0.131411,0.210665 0.1314,0.215603 0.131418,0.220471 0.131408,0.22528 0.131403,0.230007 0.131413,0.234681 0.131411,0.239269 0.131405,0.243792 0.131411,0.248235 0.13141,0.252609 0.131403,0.256903 0.131413,0.26112 0.131411,0.265254 0.131402,0.269308 0.131414,0.273281 0.13141,0.277174 0.131406,0.280978 0.13141,0.284697 0.131408,0.288335 0.131408,0.291874 0.131411,0.295333 0.13141,0.298701 0.131414,0.301975 0.131402,0.305159 0.131414,0.308253 0.13141,0.311246 0.1314,0.314146 0.131413,0.316954 0.131414,0.319669 0.131402,0.322277 0.131411,0.324786 0.131413,0.327206 0.131405,0.329525 0.131408,0.331733 0.131414,0.333853 0.131402,0.335862 0.131411,0.337777 0.131413,0.339581 0.131403,0.34128 0.13141,0.342889 0.131414,0.344379 0.131402,0.345769 0.131411,0.347053 0.131411,0.348237 0.131405,0.349307 0.13141,0.350277 0.131414,0.351136 0.131402,0.351886 0.131408,0.352536 0.131419,0.353071 0.1314,0.353507 0.131411,0.353827 0.131413,0.35404 0.131402,0.354147 0.131414,-0.354147 0.13141,-0.35404 0.1314,-0.353827 0.131419,-0.353507 0.131408,-0.353071 0.131402,-0.352536 0.131414,-0.351886 0.13141,-0.351136 0.131406,-0.350277 0.13141,-0.349307 0.131411,-0.348237 0.131402,-0.347053 0.131414,-0.345769 0.13141,-0.344379 0.131403,-0.342889 0.131413,-0.34128 0.131411,-0.339581 0.131403,-0.337777 0.131413,-0.335862 0.131408,-0.333853 0.131405,-0.331733 0.131413,-0.329525 0.131411,-0.327206 0.131403,-0.324786 0.131413,-0.322277 0.131413,-0.319669 0.1314,-0.316954 0.131411,-0.314146 0.131413,-0.311246 0.131403,-0.308253 0.131413,-0.305159 0.13141,-0.301975 0.131411,-0.298701 0.131408,-0.295333 0.131408,-0.291874 0.131411,-0.288335 0.131405,-0.284697 0.13141,-0.280978 0.131414,-0.277174 0.131402,-0.273281 0.131411,-0.269308 0.131413,-0.265254 0.131403,-0.26112 0.13141,-0.256903 0.131411,-0.252609 0.131405,-0.248235 0.131411,-0.243792 0.131413,-0.239269 0.131403,-0.234681 0.131408,-0.230007 0.131418,-0.22528 0.1314,-0.220471 0.131411,-0.215603 0.131413,-0.210665 0.131403,-0.205666 0.131413,-0.200604 0.131411,-0.195476 0.1314,-0.190292 0.131413,-0.18505 0.131413,-0.179751 0.131403,-0.174399 0.131411,-0.168996 0.131413,-0.163533 0.131405,-0.158029 0.131408,-0.152472 0.131413,-0.146869 0.131403,-0.141227 0.131411,-0.135533 0.131413,-0.129801 0.131403,-0.124028 0.13141,-0.118225 0.131413,-0.112377 0.131403,-0.106499 0.131411,-0.100592 0.13141,-0.09464 0.131406,-0.08868 0.13141,-0.08268 0.131413,-0.07666 0.131403,-0.07061 0.131408,-0.06454 0.131419,-0.05846 0.1314,-0.05234 0.13141,-0.04623 0.131413,-0.04009 0.131403,-0.03394 0.131413,-0.02779 0.131411,-0.02164 0.1314,-0.01544 0.131419,-0.0092 0.131407,-0.003 0.131403,0.003 0.131413,0.0092 0.131411,0.01544 0.131411,0.02164 0.131405,0.02779 0.131411,0.03394 0.131407,0.04009 0.131408,0.04623 0.131411,0.05234 0.131411,0.05846 0.131405,0.06454 0.131411,0.07061 0.131413,0.07666 0.131402,0.08268 0.131408,0.08868 0.131414,0.09464 0.131405,0.100592 0.131411,0.106499 0.13141,0.112377 0.131405,0.118225 0.131414,0.124028 0.131408,0.129801 0.131402,0.135533 0.131414,0.141227 0.13141,0.146869 0.131406,0.152472 0.13141,0.158029 0.131411,0.163533 0.131408,0.168996 0.131408,0.174399 0.131413,0.179751 0.131403,0.18505 0.13141,0.190292 0.131413,0.195476 0.131403,0.200604 0.131411,0.205666 0.131413,0.210665 0.131403,0.215603 0.13141,0.220471 0.131411,0.22528 0.131405,0.230007 0.131411,0.234681 0.131413,0.239269 0.131403,0.243792 0.131408,0.248235 0.131418,0.252609 0.1314,0.256903 0.131411,0.26112 0.131413,0.265254 0.131403,0.269308 0.131413,0.273281 0.13141,0.277174 0.131401,0.280978 0.131413,0.284697 0.131413,0.288335 0.131403,0.291874 0.13141,0.295333 0.131412,0.298701 0.13141,0.301975 0.1314,0.305159 0.13142,0.308253 0.1314,0.311246 0.13141,0.314146 0.13141,0.316954 0.13141,0.319669 0.13141,0.322277 0.13141,0.324786 0.13141,0.327206 0.1314,0.329525 0.13141,0.331733 0.13142,0.333853 0.1314,0.335862 0.13141,0.337777 0.13141,0.339581 0.1314,0.34128 0.13142,0.342889 0.13141,0.344379 0.1314,0.345769 0.13142,0.347053 0.13141,0.348237 0.1314,0.349307 0.13141,0.350277 0.13141,0.351136 0.13141,0.351886 0.13141,0.352536 0.13141,0.353071 0.13141,0.353507 0.13141,0.353827 0.13141,0.35404 0.1314,0.354147 0.13141,-0.354147 0.13141,-0.35404 0.13141,-0.353827 0.13141,-0.353507 0.13141,-0.353071 0.1314,-0.352536 0.13141,-0.351886 0.13142,-0.351136 0.1314,-0.350277 0.13141,-0.349307 0.13141,-0.348237 0.13141,-0.347053 0.13141,-0.345769 0.13141,-0.344379 0.1314,-0.342889 0.13142,-0.34128 0.1314,-0.339581 0.13141,-0.337777 0.13141,-0.335862 0.13141,-0.333853 0.13141,-0.331733 0.13141,-0.329525 0.13141,-0.327206 0.13141,-0.324786 0.1314,-0.322277 0.13142,-0.319669 0.1314,-0.316954 0.13141,-0.314146 0.13141,-0.311246 0.13141,-0.308253 0.13141,-0.305159 0.13141,-0.301975 0.1314,-0.298701 0.13141,-0.295333 0.13141,-0.291874 0.13142,-0.288335 0.1314,-0.284697 0.13141,-0.280978 0.13141,-0.277174 0.1314,-0.273281 0.13142,-0.269308 0.13141,-0.265254 0.1314,-0.26112 0.13142,-0.256903 0.13141,-0.252609 0.1314,-0.248235 0.13141,-0.243792 0.13141,-0.239269 0.13141,-0.234681 0.13141,-0.230007 0.13141,-0.22528 0.1314,-0.220471 0.13142,-0.215603 0.13141,-0.210665 0.1314,-0.205666 0.13141,-0.200604 0.13141,-0.195476 0.13141,-0.190292 0.13141,-0.18505 0.13141,-0.179751 0.1314,-0.174399 0.13141,-0.168996 0.13142,-0.163533 0.1314,-0.158029 0.13141,-0.152472 0.13141,-0.146869 0.1314,-0.141227 0.13142,-0.135533 0.13141,-0.129801 0.1314,-0.124028 0.13142,-0.118225 0.1314,-0.112377 0.13141,-0.106499 0.13141,-0.100592 0.13141,-0.09464 0.13141,-0.08868 0.13141,-0.08268 0.13141,-0.07666 0.13141,-0.07061 0.1314,-0.06454 0.13141,-0.05846 0.13141,-0.05234 0.13141,-0.04623 0.13141,-0.04009 0.13141,-0.03394 0.13141,-0.02779 0.1314,-0.02164 0.13141,-0.01544 0.13141,-0.0092 0.13141,-0.003 0.13141,0.003 0.13141,0.0092 0.13141,0.01544 0.13141,0.02164 0.1314,0.02779 0.13142,0.03394 0.13141,0.04009 0.1314,0.04623 0.13141,0.05234 0.13142,0.05846 0.1314,0.06454 0.13141,0.07061 0.13141,0.07666 0.13141,0.08268 0.13141,0.08868 0.13141,0.09464 0.1314,0.100592 0.13142,0.106499 0.13141,0.112377 0.1314,0.118225 0.13141,0.124028 0.13141,0.129801 0.13141,0.135533 0.13141,0.141227 0.13141,0.146869 0.1314,0.152472 0.13142,0.158029 0.13141,0.163533 0.1314,0.168996 0.13141,0.174399 0.13141,0.179751 0.13141,0.18505 0.13141,0.190292 0.13141,0.195476 0.1314,0.200604 0.13142,0.205666 0.13141,0.210665 0.1314,0.215603 0.13141,0.220471 0.13141,0.22528 0.13141,0.230007 0.13141,0.234681 0.13141,0.239269 0.1314,0.243792 0.13141,0.248235 0.13141,0.252609 0.13141,0.256903 0.13141,0.26112 0.13141,0.265254 0.1314,0.269308 0.13142,0.273281 0.13141,0.277174 0.1314,0.280978 0.13141,0.284697 0.13141,0.288335 0.13141,0.291874 0.13141,0.295333 0.13141,0.298701 0.1314,0.301975 0.13141,0.305159 0.13142,0.308253 0.1314,0.311246 0.13141,0.314146 0.13141,0.316954 0.1314,0.319669 0.13142,0.322277 0.13141,0.324786 0.13141,0.327206 0.13141,0.329525 0.13141,0.331733 0.13141,0.333853 0.1314,0.335862 0.13141,0.337777 0.13142,0.339581 0.1314,0.34128 0.13141,0.342889 0.13141,0.344379 0.13141,0.345769 0.13141,0.347053 0.13141,0.348237 0.1314,0.349307 0.13141,0.350277 0.13142,0.351136 0.1314,0.351886 0.13141,0.352536 0.13141,0.353071 0.13141,0.353507 0.13141,0.353827 0.13141,0.35404 0.1314,0.354147 0.13141,-0.354147 0.13142,-0.35404 0.1314,-0.353827 0.13141,-0.353507 0.13141,-0.353071 0.13141,-0.352536 0.13141,-0.351886 0.13141,-0.351136 0.1314,-0.350277 0.13141,-0.349307 0.13142,-0.348237 0.1314,-0.347053 0.13141,-0.345769 0.13141,-0.344379 0.1314,-0.342889 0.13142,-0.34128 0.13141,-0.339581 0.1314,-0.337777 0.13141,-0.335862 0.13142,-0.333853 0.1314,-0.331733 0.13141,-0.329525 0.13141,-0.327206 0.1314,-0.324786 0.13141,-0.322277 0.13142,-0.319669 0.1314,-0.316954 0.13141,-0.314146 0.13141,-0.311246 0.1314,-0.308253 0.13142,-0.305159 0.13141,-0.301975 0.1314,-0.298701 0.13142,-0.295333 0.13141,-0.291874 0.1314,-0.288335 0.13141,-0.284697 0.13141,-0.280978 0.13141,-0.277174 0.13141,-0.273281 0.1314,-0.269308 0.13142,-0.265254 0.13141,-0.26112 0.1314,-0.256903 0.13142,-0.252609 0.1314,-0.248235 0.13141,-0.243792 0.13142,-0.239269 0.13139,-0.234681 0.13142,-0.230007 0.13142,-0.22528 0.13139,-0.220471 0.13141,-0.215603 0.13142,-0.210665 0.1314,-0.205666 0.13141,-0.200604 0.13142,-0.195476 0.1314,-0.190292 0.1314,-0.18505 0.13142,-0.179751 0.13141,-0.174399 0.1314,-0.168996 0.13142,-0.163533 0.13141,-0.158029 0.13139,-0.152472 0.13142,-0.146869 0.13141,-0.141227 0.1314,-0.135533 0.13142,-0.129801 0.13141,-0.124028 0.13141,-0.118225 0.13141,-0.112377 0.1314,-0.106499 0.13142,-0.100592 0.13141,-0.09464 0.1314,-0.08868 0.13142,-0.08268 0.1314,-0.07666 0.1314,-0.07061 0.13142,-0.06454 0.13141,-0.05846 0.1314,-0.05234 0.13141,-0.04623 0.13142,-0.04009 0.1314,-0.03394 0.13141,-0.02779 0.13141,-0.02164 0.1314,-0.01544 0.13142,-0.0092 0.13141,-0.003 0.1314,0.003 0.13142,0.0092 0.1314,0.01544 0.13141,0.02164 0.13142,0.02779 0.13139,0.03394 0.13142,0.04009 0.13142,0.04623 0.13139,0.05234 0.13141,0.05846 0.13142,0.06454 0.1314,0.07061 0.13141,0.07666 0.13142,0.08268 0.1314,0.08868 0.1314,0.09464 0.13142,0.100592 0.13141,0.106499 0.1314,0.112377 0.13142,0.118225 0.13141,0.124028 0.13139,0.129801 0.13142,0.135533 0.13142,0.141227 0.13139,0.146869 0.13142,0.152472 0.13141,0.158029 0.1314,0.163533 0.13142,0.168996 0.1314,0.174399 0.13141,0.179751 0.13142,0.18505 0.1314,0.190292 0.13141,0.195476 0.13142,0.200604 0.1314,0.205666 0.13141,0.210665 0.13142,0.215603 0.13139,0.220471 0.13141,0.22528 0.13142,0.230007 0.1314,0.234681 0.1314,0.239269 0.13142,0.243792 0.13141,0.248235 0.1314,0.252609 0.13142,0.256903 0.13141,0.26112 0.1314,0.265254 0.13142,0.269308 0.1314,0.273281 0.1314,0.277174 0.13141,0.280978 0.13142,0.284697 0.1314,0.288335 0.13141,0.291874 0.13141,0.295333 0.1314,0.298701 0.13142,0.301975 0.13141,0.305159 0.1314,0.308253 0.13142,0.311246 0.13141,0.314146 0.1314,0.316954 0.13142,0.319669 0.1314,0.322277 0.13141,0.324786 0.13142,0.327206 0.13139,0.329525 0.13141,0.331733 0.13143,0.333853 0.13139,0.335862 0.13141,0.337777 0.13142,0.339581 0.1314,0.34128 0.13141,0.342889 0.13141,0.344379 0.13141,0.345769 0.1314,0.347053 0.13142,0.348237 0.13141,0.349307 0.13139,0.350277 0.13143,0.351136 0.13141,0.351886 0.13139,0.352536 0.13142,0.353071 0.13141,0.353507 0.1314,0.353827 0.13142,0.35404"
       fill-rule="nonzero"
       id="path27-3"
       style="display:inline;fill:none;stroke:#0000a8;stroke-width:0.529167;stroke-miterlimit:4;stroke-dasharray:none;stroke-opacity:1"
       inkscape:label="WS 2" />
    <path
       stroke="#4285f4"
       stroke-width="0.529167"
       stroke-linecap="butt"
       d="m 184.58627,98.145052 0.13165,-0.354807 0.13165,-0.35469 0.13165,-0.354477 0.13165,-0.354161 0.13165,-0.35372 0.13165,-0.353191 0.13165,-0.352536 0.13165,-0.351781 0.13165,-0.350926 0.13165,-0.349957 0.13165,-0.348872 0.13165,-0.347693 0.13165,-0.346413 0.13165,-0.345014 0.13165,-0.343519 0.13165,-0.341915 0.13165,-0.340206 0.13165,-0.338396 0.13165,-0.336482 0.13165,-0.334468 0.13165,-0.332348 0.13165,-0.330135 0.13165,-0.327805 0.13165,-0.325391 0.13165,-0.322872 0.13165,-0.320253 0.13165,-0.317539 0.13165,-0.314731 0.13165,-0.311821 0.13165,-0.308818 0.13165,-0.305723 0.13165,-0.30253 0.13165,-0.299256 0.13165,-0.295878 0.13165,-0.292418 0.13165,-0.28886 0.13165,-0.285222 0.13165,-0.281498 0.13165,-0.277684 0.13165,-0.273786 0.13165,-0.269812 0.13165,-0.265739 0.13165,-0.261601 0.13165,-0.257377 0.13165,-0.253073 0.13165,-0.248696 0.13165,-0.244242 0.13165,-0.239714 0.13165,-0.23511 0.13165,-0.230437 0.13165,-0.22569 0.13164,-0.220885 0.13166,-0.215993 0.13165,-0.21106 0.13164,-0.206042 0.13166,-0.200973 0.13165,-0.195836 0.13165,-0.190642 0.13165,-0.185394 0.13165,-0.180087 0.13165,-0.174723 0.13164,-0.169301 0.13166,-0.163838 0.13165,-0.158319 0.13164,-0.152752 0.13165,-0.147139 0.13165,-0.141487 0.13165,-0.135788 0.13165,-0.130035 0.13165,-0.124263 0.13165,-0.11844 0.13165,-0.112582 0.13165,-0.106705 0.13166,-0.100771 0.13164,-0.09482 0.13165,-0.08884 0.13165,-0.08283 0.13165,-0.0768 0.13165,-0.07074 0.13165,-0.06466 0.13165,-0.05856 0.13165,-0.05245 0.13165,-0.04633 0.13165,-0.04013 0.13165,-0.03399 0.13165,-0.02784 0.13165,-0.02169 0.13165,-0.01549 0.13165,-0.0093 0.13165,-0.003 0.13165,20.329888 h 0.13165 0.13165 0.13165 0.13165 0.13165 0.13165 0.13165 0.13165 0.13165 0.13165 0.13165 0.13165 0.13165 0.13165 0.13165 0.13165 0.13165 0.13165 0.13165 0.13165 0.13165 0.13165 0.13165 0.13165 0.13165 0.13165 0.13165 0.13165 0.13165 0.13165 0.13165 0.13165 0.13165 0.13165 0.13165 0.13165 0.13165 0.13165 0.13165 0.13165 0.13165 0.13165 0.13165 0.13165 0.13165 0.13165 0.13165 0.13165 0.13165 0.13165 0.13164 0.13166 0.13165 0.13165 0.13165 0.13165 0.13165 0.13164 0.13166 0.13165 0.13164 0.13166 0.13164 0.13165 0.13166 0.13164 0.13165 0.13165 0.13165 0.13165 0.13165 0.13165 0.13165 0.13165 0.13166 0.13164 0.13166 0.13164 0.13165 0.13166 0.13164 0.13165 0.13165 0.13165 0.13165 0.13165 0.13165 0.13165 0.13165 l 0.13165,-0.354807 0.13165,-0.3547 0.13165,-0.354477 0.13165,-0.354155 0.13165,-0.35372 0.13165,-0.353191 0.13165,-0.352536 0.13165,-0.351781 0.13165,-0.350926 0.13165,-0.349957 0.13165,-0.348872 0.13165,-0.347693 0.13165,-0.346413 0.13165,-0.345014 0.13165,-0.343519 0.13165,-0.341915 0.13165,-0.340206 0.13165,-0.338396 0.13165,-0.336482 0.13165,-0.334468 0.13165,-0.332348 0.13165,-0.33013 0.13165,-0.32781 0.13165,-0.325391 0.13165,-0.322872 0.13165,-0.320253 0.13165,-0.31754 0.13165,-0.31473 0.13165,-0.311821 0.13165,-0.308818 0.13165,-0.305723 0.13165,-0.30253 0.13165,-0.299256 0.13165,-0.295878 0.13165,-0.292418 0.13165,-0.28886 0.13165,-0.285222 0.13165,-0.281498 0.13165,-0.277684 0.13165,-0.273786 0.13165,-0.269812 0.13165,-0.265739 0.13165,-0.261601 0.13165,-0.257377 0.13165,-0.253073 0.13165,-0.248696 0.13165,-0.244242 0.13165,-0.239714 0.13165,-0.23511 0.13165,-0.230437 0.13164,-0.22569 0.13166,-0.220886 0.13165,-0.215992 0.13164,-0.21106 0.13166,-0.206042 0.13164,-0.200973 0.13165,-0.195836 0.13166,-0.190642 0.13165,-0.185395 0.13164,-0.180086 0.13166,-0.174724 0.13164,-0.1693 0.13165,-0.163838 0.13166,-0.158319 0.13164,-0.152752 0.13165,-0.147139 0.13165,-0.141487 0.13165,-0.135788 0.13166,-0.130035 0.13165,-0.124263 0.13164,-0.11844 0.13166,-0.112582 0.13165,-0.106705 0.13164,-0.100771 0.13166,-0.09482 0.13164,-0.08884 0.13165,-0.08283 0.13166,-0.0768 0.13164,-0.07074 0.13165,-0.06467 0.13165,-0.05856 0.13165,-0.05245 0.13165,-0.04633 0.13165,-0.04019 0.13165,-0.03399 0.13165,-0.02784 0.13165,-0.02169 0.13165,-0.01549 0.13165,-0.0093 0.13165,-0.003 0.13165,20.329892 h 0.13165 0.13165 0.13165 0.13165 0.13165 0.13165 0.13165 0.13165 0.13165 0.13165 0.13165 0.13165 0.13165 0.13165 0.13165 0.13165 0.13165 0.13165 0.13165 0.13165 0.13165 0.13165 0.13165 0.13165 0.13165 0.13165 0.13165 0.13165 0.13165 0.13165 0.13165 0.13165 0.13165 0.13165 0.13165 0.13165 0.13165 0.13165 0.13165 0.13165 0.13165 0.13165 0.13165 0.13165 0.13165 0.13165 0.13164 0.13166 0.13165 0.13164 0.13166 0.13165 0.13165 0.13165 0.13165 0.13164 0.13166 0.13165 0.13164 0.13166 0.13164 0.13165 0.13166 0.13165 0.13164 0.13166 0.13164 0.13165 0.13166 0.13164 0.13166 0.13164 0.13165 0.13166 0.13164 0.13165 0.13165 0.13165 0.13165 0.13165 0.13165 0.13165 0.13165 0.13165 0.13165 0.13165 0.13165 0.13165 0.13165 l 0.13165,-0.354807 0.13165,-0.3547 0.13165,-0.354477 0.13165,-0.354159 0.13165,-0.35372 0.13165,-0.353186 0.13165,-0.352541 0.13165,-0.351781 0.13165,-0.350921 0.13165,-0.349957 0.13165,-0.348877 0.13165,-0.347693 0.13165,-0.346413 0.13165,-0.345014 0.13165,-0.343519 0.13165,-0.341915 0.13165,-0.340206 0.13165,-0.338396 0.13165,-0.336482 0.13165,-0.334468 0.13165,-0.332348 0.13165,-0.33013 0.13165,-0.32781 0.13165,-0.325391 0.13165,-0.322872 0.13165,-0.320253 0.13165,-0.31754 0.13165,-0.31473 0.13165,-0.311821 0.13165,-0.308818 0.13165,-0.305723 0.13165,-0.30253 0.13165,-0.299256 0.13165,-0.295878 0.13165,-0.292418 0.13165,-0.28886 0.13165,-0.285222 0.13165,-0.281498 0.13165,-0.277684 0.13164,-0.273786 0.13166,-0.269812 0.13165,-0.265744 0.13165,-0.261596 0.13165,-0.257377 0.13165,-0.253073 0.13165,-0.248696 0.13165,-0.244242 0.13165,-0.239714 0.13165,-0.23511 0.13165,-0.230437 0.13165,-0.22569 0.13165,-0.220886 0.13165,-0.215992 0.13165,-0.21106 0.13165,-0.206042 0.13165,-0.200973 0.13164,-0.195836 0.13166,-0.190642 0.13165,-0.185395 0.13164,-0.180086 0.13166,-0.174724 0.13165,-0.1693 0.13164,-0.163838 0.13165,-0.15832 0.13165,-0.152751 0.13166,-0.147139 0.13164,-0.141487 0.13165,-0.135783 0.13166,-0.13004 0.13164,-0.124263 0.13165,-0.11844 0.13166,-0.112587 0.13164,-0.1067 0.13166,-0.100771 0.13164,-0.09482 0.13165,-0.08884 0.13165,-0.08283 0.13165,-0.0768 0.13165,-0.07074 0.13165,-0.06466 0.13165,-0.05856 0.13165,-0.05244 0.13165,-0.04633 0.13165,-0.04018 0.13165,-0.03399 0.13165,-0.02784 0.13165,-0.02169 0.13166,-0.01549 0.13164,-0.0093 0.13165,-0.003 0.13166,20.329886 h 0.13164 0.13165 0.13166 0.13164 0.13165 0.13166 0.13164 0.13166 0.13164 0.13165 0.13165 0.13165 0.13165 0.13165 0.13165 0.13165 0.13165 0.13165 0.13165 0.13165 0.13165 0.13165 0.13165 0.13165 0.13165 0.13165 0.13165 0.13165 0.13165 0.13165 0.13164 0.13166 0.13165 0.13164 0.13166 0.13165 0.13164 0.13166 0.13165 0.13164 0.13166 0.13165 0.13165 0.13165 0.13165 0.13164 0.13166 0.13165 0.13164 0.13166 0.13165 0.13164 0.13166 0.13164 0.13165 0.13165 0.13166 0.13165 0.13164 0.13166 0.13165 0.13164 0.13166 0.13165 0.13164 0.13165 0.13166 0.13165 0.13164 0.13166 0.13164 0.13165 0.13166 0.13164 0.13165 0.13166 0.13164 0.13165 0.13165 0.13165 0.13165 0.13166 0.13164 0.13165 0.13166 0.13164 0.13165 0.13166 0.13164 l 0.13165,-0.354807 0.13165,-0.35469 0.13165,-0.354477 0.13166,-0.354163 0.13164,-0.35372 0.13165,-0.353186 0.13165,-0.352541 0.13165,-0.351781 0.13165,-0.350921 0.13165,-0.349957 0.13165,-0.348878 0.13165,-0.347692 0.13165,-0.346413 0.13165,-0.345014 0.13165,-0.343519 0.13165,-0.341915 0.13165,-0.340206 0.13165,-0.338396 0.13165,-0.336482 0.13165,-0.334468 0.13165,-0.332348 0.13165,-0.33013 0.13165,-0.32781 0.13164,-0.325391 0.13166,-0.322872 0.13165,-0.320253 0.13164,-0.31754 0.13166,-0.31473 0.13165,-0.311821 0.13164,-0.308818 0.13166,-0.305723 0.13165,-0.30253 0.13165,-0.299256 0.13165,-0.295878 0.13165,-0.292418 0.13165,-0.28886 0.13165,-0.285222 0.13165,-0.281498 0.13165,-0.277684 0.13165,-0.273786 0.13165,-0.269812 0.13165,-0.265739 0.13165,-0.261601 0.13165,-0.257377 0.13165,-0.253073 0.13165,-0.248696 0.13165,-0.244242 0.13165,-0.239714 0.13164,-0.23511 0.13165,-0.230437 0.13166,-0.22569 0.13164,-0.220881 0.13166,-0.215997 0.13165,-0.21106 0.13164,-0.206042 0.13166,-0.200973 0.13165,-0.195836 0.13164,-0.190642 0.13165,-0.185395 0.13166,-0.180086 0.13164,-0.174724 0.13165,-0.1693 0.13166,-0.163838 0.13164,-0.15832 0.13165,-0.152751 0.13166,-0.147139 0.13164,-0.141487 0.13165,-0.135783 0.13166,-0.13004 0.13164,-0.124263 0.13165,-0.11844 0.13166,-0.112582 0.13164,-0.106705 0.13165,-0.100771 0.13165,-0.09482 0.13165,-0.08884 0.13165,-0.08283 0.13166,-0.0768 0.13164,-0.07074 0.13165,-0.06467 0.13166,-0.05856 0.13164,-0.05245 0.13165,-0.04633 0.13165,-0.04014 0.13165,-0.03399 0.13165,-0.02784 0.13165,-0.02169 0.13165,-0.01549 0.13165,-0.0093 0.13165,-0.003 0.13165,20.32989 h 0.13165 0.13165 0.13165 0.13165 0.13165 0.13165 0.13165 0.13165 0.13165 0.13165 0.13165 0.13166 0.13164 0.13165 0.13165 0.13165 0.13165 0.13165 0.13165 0.13165 0.13165 0.13165 0.13165 0.13165 0.13165 0.13165 0.13165 0.13165 0.13165 0.13165 0.13165 0.13165 0.13165 0.13165 0.13165 0.13165 0.13165 0.13165 0.13165 0.13164 0.13166 0.13165 0.13164 0.13165 0.13166 0.13164 0.13166 0.13165 0.13164 0.13166 0.13165 0.13164 0.13165 0.13166 0.13164 0.13165 0.13166 0.13164 0.13165 0.13166 0.13164 0.13165 0.13166 0.13165 0.13164 0.13166 0.13165 0.13164 0.13165 0.13166 0.13164 0.13166 0.13165 0.13164 0.13166 0.13165 0.13164 0.13165 0.13166 0.13164 0.13165 0.13166 0.13164 0.13165 0.13166 0.13164 0.13165 0.13165 0.13165 l 0.13165,-0.354807 0.13165,-0.3547 0.13165,-0.354477 0.13165,-0.354157 0.13165,-0.35372 0.13165,-0.353186 0.13165,-0.352541 0.13166,-0.351781 0.13164,-0.350921 0.13165,-0.349957 0.13165,-0.348878 0.13165,-0.347692 0.13165,-0.346413 0.13165,-0.345014 0.13165,-0.343519 0.13165,-0.341915 0.13165,-0.340206 0.13164,-0.338396 0.13166,-0.336482 0.13165,-0.334468 0.13165,-0.332348 0.13165,-0.33013 0.13165,-0.32781 0.13165,-0.325391 0.13165,-0.322872 0.13165,-0.320253 0.13165,-0.31754 0.13165,-0.31473 0.13165,-0.311821 0.13165,-0.308818 0.13165,-0.305723 0.13165,-0.30253 0.13165,-0.299256 0.13165,-0.295878 0.13165,-0.292413 0.13165,-0.288866 0.13165,-0.285221 0.13165,-0.281498 0.13165,-0.277684 0.13164,-0.273786 0.13166,-0.269812 0.13165,-0.265739 0.13165,-0.261601 0.13165,-0.257377 0.13165,-0.253073 0.13165,-0.248696 0.13165,-0.244242 0.13165,-0.239714 0.13164,-0.23511 0.13166,-0.230437 0.13165,-0.22569 0.13164,-0.220881 0.13166,-0.215997 0.13165,-0.21106 0.13164,-0.206042 0.13166,-0.200973 0.13165,-0.195836 0.13164,-0.190642 0.13166,-0.185395 0.13165,-0.180086 0.13164,-0.174724 0.13166,-0.1693 0.13165,-0.163838 0.13164,-0.15832 0.13165,-0.152751 0.13166,-0.147139 0.13164,-0.141487 0.13166,-0.135783 0.13165,-0.13004 0.13164,-0.124263 0.13166,-0.11844 0.13165,-0.112582 0.13164,-0.106705 0.13165,-0.100771 0.13166,-0.09482 0.13164,-0.08884 0.13165,-0.08283 0.13166,-0.0768 0.13164,-0.07074 0.13165,-0.06466 0.13165,-0.05856 0.13165,-0.05245 0.13165,-0.04633 0.13165,-0.04018 0.13165,-0.03399 0.13165,-0.02784 0.13165,-0.02169 0.13165,-0.01549 0.13165,-0.0093 0.13165,-0.003 0.13165,20.329884 h 0.13165 0.13166 0.13164 0.13165 0.13165 0.13166 0.13164 0.13165 0.13166 0.13164 0.13165 0.13166 0.13164 0.13165 0.13165 0.13165 0.13165 0.13165 0.13165 0.13165 0.13165 0.13165 0.13165 0.13165 0.13165 0.13165 0.13166 0.13164 0.13165 0.13165 0.13165 0.13165 0.13165 0.13164 0.13166 0.13165 0.13164 0.13166 0.13165 0.13165 0.13165 0.13165 0.13164 0.13166 0.13165 0.13164 0.13166 0.13165 0.13164 0.13166 0.13165 0.13164 0.13166 0.13165 0.13164 0.13166 0.13165 0.13164 0.13165 0.13166 0.13164 0.13165 0.13166 0.13164 0.13166 0.13165 0.13165 0.13164 0.13166 0.13165 0.13164 0.13165 0.13166 0.13164 0.13165 0.13166 0.13164 0.13165 0.13166 0.13164 0.13165 0.13166 0.13164 0.13165 0.13166 0.13164 0.13165 0.13166 0.13164 l 0.13165,-0.354807 0.13166,-0.35469 0.13164,-0.354477 0.13165,-0.354161 0.13166,-0.35372 0.13164,-0.353186 0.13165,-0.352541 0.13165,-0.351781 0.13165,-0.350921 0.13165,-0.349957 0.13165,-0.348878 0.13165,-0.347692 0.13165,-0.346413 0.13165,-0.345014 0.13165,-0.343519 0.13165,-0.341915 0.13165,-0.340206 0.13165,-0.338396 0.13165,-0.336482 0.13165,-0.334468 0.13165,-0.332348 0.13165,-0.33013 0.13165,-0.32781 0.13165,-0.325391 0.13165,-0.322872 0.13165,-0.320253 0.13165,-0.31754 0.13165,-0.31473 0.13165,-0.311821 0.13164,-0.308818 0.13166,-0.305723 0.13165,-0.30253 0.13164,-0.299256 0.13166,-0.295878 0.13165,-0.292413 0.13165,-0.288866 0.13165,-0.285221 0.13165,-0.281498 0.13165,-0.277684 0.13165,-0.273786 0.13164,-0.269812 0.13166,-0.265739 0.13165,-0.261601 0.13164,-0.257377 0.13166,-0.253073 0.13165,-0.248696 0.13165,-0.244242 0.13165,-0.239714 0.13164,-0.23511 0.13166,-0.230438 0.13166,-0.225689 0.13163,-0.220881 0.13165,-0.215997 0.13166,-0.21106 0.13164,-0.206042 0.13165,-0.200973 0.13166,-0.195836 0.13164,-0.190642 0.13165,-0.185395 0.13166,-0.180086 0.13165,-0.174719 0.13164,-0.169305 0.13166,-0.163838 0.13165,-0.15832 0.13163,-0.152751 0.13166,-0.147139 0.13165,-0.141487 0.13164,-0.135783 0.13166,-0.13004 0.13165,-0.124263 0.13166,-0.11844 0.13165,-0.112582 0.13164,-0.106705 0.13166,-0.100771 0.13165,-0.09482 0.13164,-0.08884 0.13166,-0.08283 0.13165,-0.0768 0.13163,-0.07074 0.13167,-0.06467 0.13165,-0.05856 0.13163,-0.05244 0.13166,-0.04633 0.13166,-0.04018 0.13164,-0.03399 0.13166,-0.02784 0.13165,-0.02169 0.13164,-0.01549 0.13166,-0.0093 0.13164,-0.003 0.13165,20.329888 h 0.13166 0.13164 0.13165 0.13166 0.13164 0.13166 0.13165 0.13164 0.13165 0.13166 0.13164 0.13165 0.13166 0.13164 0.13165 0.13166 0.13164 0.13165 0.13166 0.13165 0.13163 0.13166 0.13166 0.13163 0.13166 0.13165 0.13164 0.13166 0.13165 0.13165 0.13166 0.13164 0.13165 0.13166 0.13164 0.13165 0.13166 0.13163 0.13165 0.13166 0.13164 0.13165 0.13166 0.13165 0.13164 0.13166 0.13165 0.13164 0.13166 0.13165 0.13163 0.13166 0.13166 0.13164 0.13166 0.13164 0.13165 0.13166 0.13164 0.13165 0.13166 0.13164 0.13165 0.13166 0.13164 0.13165 0.13166 0.13164 0.13165 0.13167 0.13163 0.13165 0.13166 0.13164 0.13165 0.13166 0.13164 0.13165 0.13166 0.13165 0.13163 0.13167 0.13165 0.13163 0.13166 0.13165 0.13164 0.13166"
       fill-rule="nonzero"
       id="path27-5"
       style="fill:none;stroke:#0000a8;stroke-opacity:1"
       inkscape:label="WS 3" />
    <text
       xml:space="preserve"
       style="font-weight:bold;font-size:5.64444px;line-height:1.25;font-family:roboto;-inkscape-font-specification:'roboto Bold';letter-spacing:0px;word-spacing:0px;stroke-width:0.264583"
       x="80.589882"
       y="61.384319"
       id="text2602"
       inkscape:label="Label 0"><tspan
         sodipodi:role="line"
         id="tspan2600"
         style="font-size:5.64444px;text-align:center;text-anchor:middle;stroke-width:0.264583"
         x="80.589882"
         y="61.384319">Waveform 0: Unmodified Sine</tspan></text>
    <text
       xml:space="preserve"
       style="font-weight:bold;font-size:5.64444px;line-height:1.25;font-family:roboto;-inkscape-font-specification:'roboto Bold';letter-spacing:0px;word-spacing:0px;stroke-width:0.264583"
       x="255.44011"
       y="61.384319"
       id="text7458"
       inkscape:label="Label 1"><tspan
         sodipodi:role="line"
         id="tspan7456"
         style="font-size:5.64444px;text-align:center;text-anchor:middle;stroke-width:0.264583"
         x="255.44011"
         y="61.384319">Waveform 1: Positive Portions of Sine</tspan></text>
    <text
       xml:space="preserve"
       style="font-weight:bold;font-size:5.64444px;line-height:1.25;font-family:roboto;-inkscape-font-specification:'roboto Bold';letter-spacing:0px;word-spacing:0px;stroke-width:0.264583"
       x="80.672638"
       y="127.85035"
       id="text10108"
       inkscape:label="Label 2"><tspan
         sodipodi:role="line"
         id="tspan10106"
         style="font-size:5.64444px;text-align:center;text-anchor:middle;stroke-width:0.264583"
         x="80.672638"
         y="127.85035">Waveform 2: Absolute Value of Sine (aka Rectified Sine)</tspan></text>
    <text
       xml:space="preserve"
       style="font-weight:bold;font-size:5.64444px;line-height:1.25;font-family:roboto;-inkscape-font-specification:'roboto Bold';letter-spacing:0px;word-spacing:0px;stroke-width:0.264583"
       x="255.54472"
       y="127.85035"
       id="text11706"
       inkscape:label="Label 3"><tspan
         sodipodi:role="line"
         id="tspan11704"
         style="font-size:5.64444px;text-align:center;text-anchor:middle;stroke-width:0.264583"
         x="255.54472"
         y="127.85035">Waveform 3: Rising Portions of Rectified Sine</tspan></text>
    <text
       xml:space="preserve"
       style="font-weight:bold;font-size:8.46667px;line-height:1.25;font-family:roboto;-inkscape-font-specification:'roboto Bold';letter-spacing:0px;word-spacing:0px;stroke-width:0.264583"
       x="168.15111"
       y="147.82083"
       id="text25795"
       inkscape:label="Caption"><tspan
         sodipodi:role="line"
         id="tspan25793"
         style="font-size:8.46667px;text-align:center;text-anchor:middle;stroke-width:0.264583"
         x="168.15111"
         y="147.82083">Waveforms Available in the OPL2</tspan></text>
  </g>
</svg>
